%TF.GenerationSoftware,KiCad,Pcbnew,7.0.5*%
%TF.CreationDate,2023-06-09T18:15:06-05:00*%
%TF.ProjectId,pcbpai,70636270-6169-42e6-9b69-6361645f7063,rev?*%
%TF.SameCoordinates,Original*%
%TF.FileFunction,Copper,L2,Bot*%
%TF.FilePolarity,Positive*%
%FSLAX46Y46*%
G04 Gerber Fmt 4.6, Leading zero omitted, Abs format (unit mm)*
G04 Created by KiCad (PCBNEW 7.0.5) date 2023-06-09 18:15:06*
%MOMM*%
%LPD*%
G01*
G04 APERTURE LIST*
%ADD10C,0.300000*%
%TA.AperFunction,NonConductor*%
%ADD11C,0.300000*%
%TD*%
%TA.AperFunction,ComponentPad*%
%ADD12C,2.000000*%
%TD*%
%TA.AperFunction,ComponentPad*%
%ADD13R,1.700000X1.700000*%
%TD*%
%TA.AperFunction,ComponentPad*%
%ADD14O,1.700000X1.700000*%
%TD*%
%TA.AperFunction,ComponentPad*%
%ADD15C,5.000000*%
%TD*%
%TA.AperFunction,ComponentPad*%
%ADD16C,1.600000*%
%TD*%
%TA.AperFunction,ComponentPad*%
%ADD17O,1.600000X1.600000*%
%TD*%
%TA.AperFunction,ComponentPad*%
%ADD18R,1.600000X1.600000*%
%TD*%
%TA.AperFunction,ComponentPad*%
%ADD19R,3.000000X3.000000*%
%TD*%
%TA.AperFunction,ComponentPad*%
%ADD20C,3.000000*%
%TD*%
%TA.AperFunction,Conductor*%
%ADD21C,1.270000*%
%TD*%
%TA.AperFunction,Conductor*%
%ADD22C,3.000000*%
%TD*%
%TA.AperFunction,Conductor*%
%ADD23C,0.400000*%
%TD*%
G04 APERTURE END LIST*
D10*
D11*
X202645489Y-70737257D02*
X202645489Y-67737257D01*
X202645489Y-67737257D02*
X202074060Y-67737257D01*
X202074060Y-67737257D02*
X201931203Y-67880114D01*
X201931203Y-67880114D02*
X201859774Y-68022971D01*
X201859774Y-68022971D02*
X201788346Y-68308685D01*
X201788346Y-68308685D02*
X201788346Y-68737257D01*
X201788346Y-68737257D02*
X201859774Y-69022971D01*
X201859774Y-69022971D02*
X201931203Y-69165828D01*
X201931203Y-69165828D02*
X202074060Y-69308685D01*
X202074060Y-69308685D02*
X202645489Y-69308685D01*
X201216917Y-69880114D02*
X200502632Y-69880114D01*
X201359774Y-70737257D02*
X200859774Y-67737257D01*
X200859774Y-67737257D02*
X200359774Y-70737257D01*
X199859775Y-70737257D02*
X199859775Y-67737257D01*
X198145489Y-67737257D02*
X197216917Y-67737257D01*
X197216917Y-67737257D02*
X197716917Y-68880114D01*
X197716917Y-68880114D02*
X197502632Y-68880114D01*
X197502632Y-68880114D02*
X197359775Y-69022971D01*
X197359775Y-69022971D02*
X197288346Y-69165828D01*
X197288346Y-69165828D02*
X197216917Y-69451542D01*
X197216917Y-69451542D02*
X197216917Y-70165828D01*
X197216917Y-70165828D02*
X197288346Y-70451542D01*
X197288346Y-70451542D02*
X197359775Y-70594400D01*
X197359775Y-70594400D02*
X197502632Y-70737257D01*
X197502632Y-70737257D02*
X197931203Y-70737257D01*
X197931203Y-70737257D02*
X198074060Y-70594400D01*
X198074060Y-70594400D02*
X198145489Y-70451542D01*
X196074061Y-69165828D02*
X195859775Y-69308685D01*
X195859775Y-69308685D02*
X195788346Y-69451542D01*
X195788346Y-69451542D02*
X195716918Y-69737257D01*
X195716918Y-69737257D02*
X195716918Y-70165828D01*
X195716918Y-70165828D02*
X195788346Y-70451542D01*
X195788346Y-70451542D02*
X195859775Y-70594400D01*
X195859775Y-70594400D02*
X196002632Y-70737257D01*
X196002632Y-70737257D02*
X196574061Y-70737257D01*
X196574061Y-70737257D02*
X196574061Y-67737257D01*
X196574061Y-67737257D02*
X196074061Y-67737257D01*
X196074061Y-67737257D02*
X195931204Y-67880114D01*
X195931204Y-67880114D02*
X195859775Y-68022971D01*
X195859775Y-68022971D02*
X195788346Y-68308685D01*
X195788346Y-68308685D02*
X195788346Y-68594400D01*
X195788346Y-68594400D02*
X195859775Y-68880114D01*
X195859775Y-68880114D02*
X195931204Y-69022971D01*
X195931204Y-69022971D02*
X196074061Y-69165828D01*
X196074061Y-69165828D02*
X196574061Y-69165828D01*
D12*
%TO.P,U4,1,in1*%
%TO.N,Net-(J4-Pin_2)*%
X151922500Y-87217500D03*
%TO.P,U4,2,in2*%
%TO.N,GND*%
X151922500Y-80217500D03*
%TO.P,U4,3,out1*%
%TO.N,Net-(J1-Pin_1)*%
X167922500Y-87217500D03*
%TO.P,U4,4,out2*%
%TO.N,GND*%
X167922500Y-80217500D03*
%TD*%
D13*
%TO.P,J6,1,Pin_1*%
%TO.N,Net-(J6-Pin_1)*%
X165100000Y-127000000D03*
D14*
%TO.P,J6,2,Pin_2*%
%TO.N,Net-(J6-Pin_2)*%
X165100000Y-129540000D03*
%TO.P,J6,3,Pin_3*%
%TO.N,Net-(J6-Pin_3)*%
X165100000Y-132080000D03*
%TO.P,J6,4,Pin_4*%
%TO.N,Net-(J6-Pin_4)*%
X165100000Y-134620000D03*
%TO.P,J6,5,Pin_5*%
%TO.N,Net-(J6-Pin_5)*%
X165100000Y-137160000D03*
%TO.P,J6,6,Pin_6*%
%TO.N,Net-(J6-Pin_6)*%
X165100000Y-139700000D03*
%TD*%
D12*
%TO.P,J1,1,Pin_1*%
%TO.N,Net-(J1-Pin_1)*%
X176120000Y-83820000D03*
%TO.P,J1,2,Pin_2*%
%TO.N,Net-(J1-Pin_2)*%
X198120000Y-83820000D03*
%TD*%
D15*
%TO.P,M1,1*%
%TO.N,N/C*%
X154000000Y-159000000D03*
%TD*%
D16*
%TO.P,R1,1*%
%TO.N,+24V*%
X153430000Y-72390000D03*
D17*
%TO.P,R1,2*%
%TO.N,Net-(U6-XTAL1{slash}PB3)*%
X153430000Y-64770000D03*
%TD*%
D13*
%TO.P,J2,1,Pin_1*%
%TO.N,Net-(J2-Pin_1)*%
X165100000Y-114840000D03*
D14*
%TO.P,J2,2,Pin_2*%
%TO.N,Net-(J2-Pin_2)*%
X165100000Y-117380000D03*
%TO.P,J2,3,Pin_3*%
%TO.N,Net-(J2-Pin_3)*%
X165100000Y-119920000D03*
%TO.P,J2,4,Pin_4*%
%TO.N,Net-(J2-Pin_4)*%
X165100000Y-122460000D03*
%TD*%
D15*
%TO.P,REF\u002A\u002A,3*%
%TO.N,N/C*%
X203000000Y-101000000D03*
%TD*%
D18*
%TO.P,U6,1,~{RESET}/PB5*%
%TO.N,unconnected-(U6-~{RESET}{slash}PB5-Pad1)*%
X185420000Y-66040000D03*
D17*
%TO.P,U6,2,XTAL1/PB3*%
%TO.N,Net-(U6-XTAL1{slash}PB3)*%
X182880000Y-66040000D03*
%TO.P,U6,3,XTAL2/PB4*%
%TO.N,unconnected-(U6-XTAL2{slash}PB4-Pad3)*%
X180340000Y-66040000D03*
%TO.P,U6,4,GND*%
%TO.N,GND*%
X177800000Y-66040000D03*
%TO.P,U6,5,AREF/PB0*%
%TO.N,Net-(U6-AREF{slash}PB0)*%
X177800000Y-73660000D03*
%TO.P,U6,6,PB1*%
%TO.N,unconnected-(U6-PB1-Pad6)*%
X180340000Y-73660000D03*
%TO.P,U6,7,PB2*%
%TO.N,Net-(U6-PB2)*%
X182880000Y-73660000D03*
%TO.P,U6,8,VCC*%
%TO.N,Net-(U6-VCC)*%
X185420000Y-73660000D03*
%TD*%
D15*
%TO.P,REF\u002A\u002A,2*%
%TO.N,N/C*%
X203000000Y-159000000D03*
%TD*%
D19*
%TO.P,J3,1,Pin_1*%
%TO.N,GND*%
X139700000Y-68580000D03*
D20*
%TO.P,J3,2,Pin_2*%
%TO.N,+24V*%
X134700000Y-68580000D03*
%TD*%
D19*
%TO.P,J4,1,Pin_1*%
%TO.N,+24V*%
X136500000Y-83820000D03*
D20*
%TO.P,J4,2,Pin_2*%
%TO.N,Net-(J4-Pin_2)*%
X136500000Y-88820000D03*
%TD*%
D12*
%TO.P,U2,1,?*%
%TO.N,unconnected-(U2-?-Pad1)*%
X197120000Y-151130000D03*
%TO.P,U2,2,GND*%
%TO.N,unconnected-(U2-GND-Pad2)*%
X194580000Y-151130000D03*
%TO.P,U2,3,VM*%
%TO.N,unconnected-(U2-VM-Pad3)*%
X192040000Y-151130000D03*
%TO.P,U2,4,VCC*%
%TO.N,unconnected-(U2-VCC-Pad4)*%
X189500000Y-151130000D03*
%TO.P,U2,5,3v3*%
%TO.N,unconnected-(U2-3v3-Pad5)*%
X186960000Y-151130000D03*
%TO.P,U2,6,RST*%
%TO.N,unconnected-(U2-RST-Pad6)*%
X184420000Y-151130000D03*
%TO.P,U2,7,Vin1*%
%TO.N,Net-(J5-Pin_2)*%
X201560000Y-145380000D03*
%TO.P,U2,8,Vin_2*%
%TO.N,unconnected-(U2-Vin_2-Pad8)*%
X201560000Y-142840000D03*
%TO.P,U2,9,GND_1*%
%TO.N,GND*%
X201560000Y-140300000D03*
%TO.P,U2,10,GND_2*%
%TO.N,unconnected-(U2-GND_2-Pad10)*%
X201560000Y-137760000D03*
%TO.P,U2,11,M1A_1*%
%TO.N,unconnected-(U2-M1A_1-Pad11)*%
X201560000Y-135220000D03*
%TO.P,U2,12,M1A_2*%
%TO.N,unconnected-(U2-M1A_2-Pad12)*%
X201560000Y-132680000D03*
%TO.P,U2,13,M1B_1*%
%TO.N,unconnected-(U2-M1B_1-Pad13)*%
X201560000Y-130140000D03*
%TO.P,U2,14,M1B_2*%
%TO.N,unconnected-(U2-M1B_2-Pad14)*%
X201560000Y-127600000D03*
%TO.P,U2,15,M2A_2*%
%TO.N,unconnected-(U2-M2A_2-Pad15)*%
X201560000Y-125060000D03*
%TO.P,U2,16,m2A_1*%
%TO.N,unconnected-(U2-m2A_1-Pad16)*%
X201560000Y-122520000D03*
%TO.P,U2,17,M2B_2*%
%TO.N,unconnected-(U2-M2B_2-Pad17)*%
X201560000Y-119980000D03*
%TO.P,U2,18,M2B_1*%
%TO.N,unconnected-(U2-M2B_1-Pad18)*%
X201560000Y-117440000D03*
%TO.P,U2,19,M2Fault*%
%TO.N,Net-(U2-M2Fault)*%
X182880000Y-111750000D03*
%TO.P,U2,20,M1Fault*%
%TO.N,unconnected-(U2-M1Fault-Pad20)*%
X185420000Y-111750000D03*
%TO.P,U2,21,M2PWM*%
%TO.N,Net-(U2-M2PWM)*%
X187960000Y-111750000D03*
%TO.P,U2,22,M1PWM*%
%TO.N,Net-(U2-M1PWM)*%
X190500000Y-111750000D03*
%TO.P,U2,23,M2Dir*%
%TO.N,Net-(U2-M2Dir)*%
X193040000Y-111760000D03*
%TO.P,U2,24,M1Dir*%
%TO.N,Net-(U2-M1Dir)*%
X195580000Y-111750000D03*
%TO.P,U2,25,M2EN*%
%TO.N,unconnected-(U2-M2EN-Pad25)*%
X200660000Y-111750000D03*
%TO.P,U2,26,M1EN*%
%TO.N,Net-(U2-M1EN)*%
X203200000Y-111750000D03*
%TD*%
D15*
%TO.P,REF\u002A\u002A,4*%
%TO.N,N/C*%
X154000000Y-101000000D03*
%TD*%
D16*
%TO.P,R2,1*%
%TO.N,Net-(U6-XTAL1{slash}PB3)*%
X165100000Y-72390000D03*
D17*
%TO.P,R2,2*%
%TO.N,GND*%
X165100000Y-64770000D03*
%TD*%
D12*
%TO.P,U1,1,?*%
%TO.N,unconnected-(U1-?-Pad1)*%
X147320000Y-109000000D03*
%TO.P,U1,2,GND*%
%TO.N,unconnected-(U1-GND-Pad2)*%
X149860000Y-109000000D03*
%TO.P,U1,3,VM*%
%TO.N,unconnected-(U1-VM-Pad3)*%
X152400000Y-109000000D03*
%TO.P,U1,4,VCC*%
%TO.N,unconnected-(U1-VCC-Pad4)*%
X154940000Y-109000000D03*
%TO.P,U1,5,3v3*%
%TO.N,unconnected-(U1-3v3-Pad5)*%
X157480000Y-109000000D03*
%TO.P,U1,6,RST*%
%TO.N,unconnected-(U1-RST-Pad6)*%
X160020000Y-109000000D03*
%TO.P,U1,7,Vin1*%
%TO.N,Net-(J5-Pin_2)*%
X142880000Y-114750000D03*
%TO.P,U1,8,Vin_2*%
%TO.N,unconnected-(U1-Vin_2-Pad8)*%
X142880000Y-117290000D03*
%TO.P,U1,9,GND_1*%
%TO.N,GND*%
X142880000Y-119830000D03*
%TO.P,U1,10,GND_2*%
%TO.N,unconnected-(U1-GND_2-Pad10)*%
X142880000Y-122370000D03*
%TO.P,U1,11,M1A_1*%
%TO.N,unconnected-(U1-M1A_1-Pad11)*%
X142880000Y-124910000D03*
%TO.P,U1,12,M1A_2*%
%TO.N,unconnected-(U1-M1A_2-Pad12)*%
X142880000Y-127450000D03*
%TO.P,U1,13,M1B_1*%
%TO.N,unconnected-(U1-M1B_1-Pad13)*%
X142880000Y-129990000D03*
%TO.P,U1,14,M1B_2*%
%TO.N,unconnected-(U1-M1B_2-Pad14)*%
X142880000Y-132530000D03*
%TO.P,U1,15,M2A_2*%
%TO.N,unconnected-(U1-M2A_2-Pad15)*%
X142880000Y-135070000D03*
%TO.P,U1,16,m2A_1*%
%TO.N,unconnected-(U1-m2A_1-Pad16)*%
X142880000Y-137610000D03*
%TO.P,U1,17,M2B_2*%
%TO.N,unconnected-(U1-M2B_2-Pad17)*%
X142880000Y-140150000D03*
%TO.P,U1,18,M2B_1*%
%TO.N,unconnected-(U1-M2B_1-Pad18)*%
X142880000Y-142690000D03*
%TO.P,U1,19,M2Fault*%
%TO.N,Net-(U1-M2Fault)*%
X161560000Y-148380000D03*
%TO.P,U1,20,M1Fault*%
%TO.N,unconnected-(U1-M1Fault-Pad20)*%
X159020000Y-148380000D03*
%TO.P,U1,21,M2PWM*%
%TO.N,Net-(U1-M2PWM)*%
X156480000Y-148380000D03*
%TO.P,U1,22,M1PWM*%
%TO.N,Net-(U1-M1PWM)*%
X153940000Y-148380000D03*
%TO.P,U1,23,M2Dir*%
%TO.N,Net-(U1-M2Dir)*%
X151400000Y-148370000D03*
%TO.P,U1,24,M1Dir*%
%TO.N,Net-(U1-M1Dir)*%
X148860000Y-148380000D03*
%TO.P,U1,25,M2EN*%
%TO.N,Net-(U1-M2EN)*%
X143780000Y-148380000D03*
%TO.P,U1,26,M1EN*%
%TO.N,unconnected-(U1-M1EN-Pad26)*%
X141240000Y-148380000D03*
%TD*%
D19*
%TO.P,J5,1,Pin_1*%
%TO.N,Net-(J4-Pin_2)*%
X136500000Y-95000000D03*
D20*
%TO.P,J5,2,Pin_2*%
%TO.N,Net-(J5-Pin_2)*%
X136500000Y-100000000D03*
%TD*%
D13*
%TO.P,U3,1,1*%
%TO.N,Net-(U6-VCC)*%
X169120000Y-106680000D03*
%TO.P,U3,2,2*%
%TO.N,Net-(SW1-A-Pad1)*%
X172720000Y-106680000D03*
D14*
%TO.P,U3,3,3*%
%TO.N,Net-(U6-AREF{slash}PB0)*%
X169120000Y-109220000D03*
%TO.P,U3,4,4*%
%TO.N,unconnected-(U3-Pad4)*%
X172720000Y-109220000D03*
%TO.P,U3,5,5*%
%TO.N,Net-(U6-PB2)*%
X169120000Y-111760000D03*
%TO.P,U3,6,6*%
%TO.N,unconnected-(U3-Pad6)*%
X172720000Y-111760000D03*
%TO.P,U3,7,7*%
%TO.N,Net-(J2-Pin_1)*%
X169120000Y-114300000D03*
%TO.P,U3,8,8*%
%TO.N,unconnected-(U3-Pad8)*%
X172720000Y-114300000D03*
%TO.P,U3,9,9*%
%TO.N,Net-(J2-Pin_2)*%
X169120000Y-116840000D03*
%TO.P,U3,10,10*%
%TO.N,Net-(U2-M2Fault)*%
X172720000Y-116840000D03*
%TO.P,U3,11,11*%
%TO.N,Net-(J2-Pin_3)*%
X169120000Y-119380000D03*
%TO.P,U3,12,12*%
%TO.N,Net-(U2-M2PWM)*%
X172720000Y-119380000D03*
%TO.P,U3,13,13*%
%TO.N,Net-(J2-Pin_4)*%
X169120000Y-121920000D03*
%TO.P,U3,14,14*%
%TO.N,Net-(J8-Pin_9)*%
X172720000Y-121920000D03*
%TO.P,U3,15,15*%
%TO.N,Net-(U1-M2EN)*%
X169120000Y-124460000D03*
%TO.P,U3,16,16*%
%TO.N,Net-(J8-Pin_8)*%
X172720000Y-124460000D03*
%TO.P,U3,17,17*%
%TO.N,Net-(J6-Pin_1)*%
X169120000Y-127000000D03*
%TO.P,U3,18,18*%
%TO.N,Net-(J8-Pin_7)*%
X172720000Y-127000000D03*
%TO.P,U3,19,19*%
%TO.N,Net-(J6-Pin_2)*%
X169120000Y-129540000D03*
%TO.P,U3,20,20*%
%TO.N,Net-(J8-Pin_6)*%
X172720000Y-129540000D03*
%TO.P,U3,21,21*%
%TO.N,Net-(J6-Pin_3)*%
X169120000Y-132080000D03*
%TO.P,U3,22,22*%
%TO.N,Net-(J8-Pin_5)*%
X172720000Y-132080000D03*
%TO.P,U3,23,23*%
%TO.N,Net-(J6-Pin_4)*%
X169120000Y-134620000D03*
%TO.P,U3,24,24*%
%TO.N,Net-(J8-Pin_4)*%
X172720000Y-134620000D03*
%TO.P,U3,25,25*%
%TO.N,Net-(J6-Pin_5)*%
X169120000Y-137160000D03*
%TO.P,U3,26,26*%
%TO.N,Net-(J8-Pin_3)*%
X172720000Y-137160000D03*
%TO.P,U3,27,27*%
%TO.N,Net-(J6-Pin_6)*%
X169120000Y-139700000D03*
%TO.P,U3,28,28*%
%TO.N,Net-(J8-Pin_2)*%
X172720000Y-139700000D03*
%TO.P,U3,29,29*%
%TO.N,Net-(U1-M1Dir)*%
X169120000Y-142240000D03*
%TO.P,U3,30,30*%
%TO.N,Net-(J8-Pin_1)*%
X172720000Y-142240000D03*
%TO.P,U3,31,31*%
%TO.N,Net-(U1-M2Dir)*%
X169120000Y-144780000D03*
%TO.P,U3,32,32*%
%TO.N,Net-(U2-M1PWM)*%
X172720000Y-144780000D03*
%TO.P,U3,33,33*%
%TO.N,Net-(U1-M1PWM)*%
X169120000Y-147320000D03*
%TO.P,U3,34,34*%
%TO.N,unconnected-(U3-Pad34)*%
X172720000Y-147320000D03*
%TO.P,U3,35,35*%
%TO.N,Net-(U1-M2PWM)*%
X169120000Y-149860000D03*
%TO.P,U3,36,36*%
%TO.N,Net-(U2-M2Dir)*%
X172720000Y-149860000D03*
%TO.P,U3,37,37*%
%TO.N,Net-(U1-M2Fault)*%
X169120000Y-152400000D03*
%TO.P,U3,38,38*%
%TO.N,Net-(U2-M1Dir)*%
X172720000Y-152400000D03*
%TO.P,U3,39,39*%
%TO.N,unconnected-(U3-Pad39)*%
X169120000Y-154940000D03*
%TO.P,U3,40,40*%
%TO.N,Net-(U2-M1EN)*%
X172720000Y-154940000D03*
%TD*%
D13*
%TO.P,SW1,1,A*%
%TO.N,Net-(SW1-A-Pad1)*%
X185420000Y-99060000D03*
D14*
%TO.P,SW1,2,B*%
%TO.N,Net-(J1-Pin_2)*%
X187960000Y-99060000D03*
%TO.P,SW1,3,C*%
%TO.N,unconnected-(SW1-C-Pad3)*%
X190500000Y-99060000D03*
D13*
%TO.P,SW1,4,A*%
%TO.N,unconnected-(SW1-A-Pad4)*%
X185420000Y-93980000D03*
D14*
%TO.P,SW1,5,B*%
%TO.N,unconnected-(SW1-B-Pad5)*%
X187960000Y-93980000D03*
%TO.P,SW1,6,C*%
%TO.N,unconnected-(SW1-C-Pad6)*%
X190500000Y-93980000D03*
%TD*%
D13*
%TO.P,J8,1,Pin_1*%
%TO.N,Net-(J8-Pin_1)*%
X177800000Y-142240000D03*
D14*
%TO.P,J8,2,Pin_2*%
%TO.N,Net-(J8-Pin_2)*%
X177800000Y-139700000D03*
%TO.P,J8,3,Pin_3*%
%TO.N,Net-(J8-Pin_3)*%
X177800000Y-137160000D03*
%TO.P,J8,4,Pin_4*%
%TO.N,Net-(J8-Pin_4)*%
X177800000Y-134620000D03*
%TO.P,J8,5,Pin_5*%
%TO.N,Net-(J8-Pin_5)*%
X177800000Y-132080000D03*
%TO.P,J8,6,Pin_6*%
%TO.N,Net-(J8-Pin_6)*%
X177800000Y-129540000D03*
%TO.P,J8,7,Pin_7*%
%TO.N,Net-(J8-Pin_7)*%
X177800000Y-127000000D03*
%TO.P,J8,8,Pin_8*%
%TO.N,Net-(J8-Pin_8)*%
X177800000Y-124460000D03*
%TO.P,J8,9,Pin_9*%
%TO.N,Net-(J8-Pin_9)*%
X177800000Y-121920000D03*
%TD*%
D21*
%TO.N,Net-(J1-Pin_1)*%
X172722500Y-87217500D02*
X176120000Y-83820000D01*
X167922500Y-87217500D02*
X172722500Y-87217500D01*
D22*
%TO.N,Net-(J4-Pin_2)*%
X136500000Y-95000000D02*
X136500000Y-90620000D01*
X143525000Y-88820000D02*
X148525000Y-83820000D01*
X148525000Y-83820000D02*
X151922500Y-87217500D01*
X136500000Y-88820000D02*
X143525000Y-88820000D01*
D21*
%TO.N,Net-(J1-Pin_2)*%
X187960000Y-101600000D02*
X187960000Y-99060000D01*
X193040000Y-101600000D02*
X187960000Y-101600000D01*
X198160000Y-83860000D02*
X198120000Y-83820000D01*
X198120000Y-83820000D02*
X198120000Y-96520000D01*
X198120000Y-96520000D02*
X193040000Y-101600000D01*
%TO.N,Net-(J5-Pin_2)*%
X132080000Y-104420000D02*
X136500000Y-100000000D01*
X132080000Y-114300000D02*
X132080000Y-104420000D01*
X193800000Y-158500000D02*
X166196289Y-158500000D01*
X142880000Y-114750000D02*
X132530000Y-114750000D01*
X132080000Y-144580000D02*
X132080000Y-114300000D01*
X140000000Y-152500000D02*
X132080000Y-144580000D01*
X201560000Y-150740000D02*
X193800000Y-158500000D01*
X166196289Y-158500000D02*
X160196289Y-152500000D01*
X201560000Y-145380000D02*
X201560000Y-150740000D01*
X160196289Y-152500000D02*
X140000000Y-152500000D01*
X132530000Y-114750000D02*
X132080000Y-114300000D01*
D23*
%TO.N,Net-(U1-M2PWM)*%
X156480000Y-147700000D02*
X158180000Y-146000000D01*
X158180000Y-146000000D02*
X165500000Y-146000000D01*
X165500000Y-146000000D02*
X165500000Y-147500000D01*
X156480000Y-148380000D02*
X156480000Y-147700000D01*
X167860000Y-149860000D02*
X169120000Y-149860000D01*
X165500000Y-147500000D02*
X167860000Y-149860000D01*
%TO.N,Net-(U1-M1PWM)*%
X166800000Y-145000000D02*
X157320000Y-145000000D01*
X157320000Y-145000000D02*
X153940000Y-148380000D01*
X169120000Y-147320000D02*
X166800000Y-145000000D01*
%TO.N,Net-(U1-M2Dir)*%
X155500000Y-143500000D02*
X151400000Y-147600000D01*
X151400000Y-147600000D02*
X151400000Y-148370000D01*
X169120000Y-144780000D02*
X167840000Y-143500000D01*
X167840000Y-143500000D02*
X155500000Y-143500000D01*
%TO.N,Net-(U1-M1Dir)*%
X153260000Y-142240000D02*
X148860000Y-146640000D01*
X148860000Y-146640000D02*
X148860000Y-148380000D01*
X169120000Y-142240000D02*
X153260000Y-142240000D01*
%TO.N,Net-(U1-M2EN)*%
X143780000Y-148380000D02*
X148500000Y-143660000D01*
X148500000Y-143660000D02*
X148500000Y-131500000D01*
X148500000Y-131500000D02*
X155540000Y-124460000D01*
X155540000Y-124460000D02*
X169120000Y-124460000D01*
%TO.N,Net-(U2-M2Fault)*%
X175260000Y-116840000D02*
X172720000Y-116840000D01*
X180350000Y-111750000D02*
X182880000Y-111750000D01*
X175260000Y-116840000D02*
X180350000Y-111750000D01*
%TO.N,Net-(U2-M2PWM)*%
X187960000Y-111750000D02*
X180330000Y-119380000D01*
X180330000Y-119380000D02*
X172720000Y-119380000D01*
%TO.N,Net-(U2-M1PWM)*%
X185420000Y-139700000D02*
X185420000Y-116830000D01*
X172720000Y-144780000D02*
X180340000Y-144780000D01*
X180340000Y-144780000D02*
X185420000Y-139700000D01*
X185420000Y-116830000D02*
X190500000Y-111750000D01*
%TO.N,Net-(U2-M2Dir)*%
X180340000Y-147320000D02*
X177800000Y-147320000D01*
X175260000Y-149860000D02*
X172720000Y-149860000D01*
X187960000Y-116840000D02*
X187960000Y-139700000D01*
X187960000Y-139700000D02*
X180340000Y-147320000D01*
X177800000Y-147320000D02*
X175260000Y-149860000D01*
X193040000Y-111760000D02*
X187960000Y-116840000D01*
%TO.N,Net-(U2-M1Dir)*%
X190500000Y-116830000D02*
X190500000Y-139700000D01*
X190500000Y-139700000D02*
X180340000Y-149860000D01*
X180340000Y-149860000D02*
X177800000Y-149860000D01*
X177800000Y-149860000D02*
X175260000Y-152400000D01*
X195580000Y-111750000D02*
X190500000Y-116830000D01*
X175260000Y-152400000D02*
X172720000Y-152400000D01*
%TO.N,Net-(U2-M1EN)*%
X195580000Y-136530000D02*
X195580000Y-116840000D01*
X179710000Y-152400000D02*
X195580000Y-136530000D01*
X172720000Y-154940000D02*
X175260000Y-154940000D01*
X198110000Y-116840000D02*
X203200000Y-111750000D01*
X175260000Y-154940000D02*
X177800000Y-152400000D01*
X177800000Y-152400000D02*
X179710000Y-152400000D01*
X195580000Y-116840000D02*
X198110000Y-116840000D01*
D21*
%TO.N,Net-(U6-XTAL1{slash}PB3)*%
X153430000Y-64770000D02*
X157480000Y-64770000D01*
X165100000Y-72390000D02*
X165100000Y-71120000D01*
X172720000Y-63500000D02*
X180340000Y-63500000D01*
X157480000Y-64770000D02*
X165100000Y-72390000D01*
X165100000Y-71120000D02*
X172720000Y-63500000D01*
X180340000Y-63500000D02*
X182880000Y-66040000D01*
%TO.N,Net-(SW1-A-Pad1)*%
X177800000Y-106680000D02*
X185420000Y-99060000D01*
X172720000Y-106680000D02*
X177800000Y-106680000D01*
%TO.N,Net-(U6-VCC)*%
X185420000Y-88900000D02*
X185420000Y-73660000D01*
X169120000Y-105200000D02*
X185420000Y-88900000D01*
X169120000Y-106680000D02*
X169120000Y-105200000D01*
%TO.N,Net-(U6-PB2)*%
X172720000Y-76200000D02*
X178870000Y-82350000D01*
X162560000Y-101600000D02*
X162560000Y-106680000D01*
X182880000Y-73660000D02*
X180340000Y-71120000D01*
X172720000Y-71120000D02*
X172720000Y-76200000D01*
X178870000Y-82350000D02*
X178870000Y-85290000D01*
X162560000Y-106680000D02*
X167640000Y-111760000D01*
X167640000Y-111760000D02*
X169120000Y-111760000D01*
X180340000Y-71120000D02*
X172720000Y-71120000D01*
X178870000Y-85290000D02*
X162560000Y-101600000D01*
D22*
%TO.N,+24V*%
X134500000Y-68380000D02*
X134500000Y-83620000D01*
D21*
X144580000Y-63300000D02*
X144580000Y-63540000D01*
D22*
X136500000Y-83820000D02*
X134700000Y-83820000D01*
D21*
X136960000Y-63300000D02*
X144580000Y-63300000D01*
X144580000Y-63540000D02*
X153230000Y-72190000D01*
D22*
X134700000Y-83820000D02*
X134500000Y-83620000D01*
D21*
X134500000Y-68380000D02*
X134500000Y-65760000D01*
X134500000Y-65760000D02*
X136960000Y-63300000D01*
D23*
%TO.N,Net-(U1-M2Fault)*%
X161560000Y-148380000D02*
X161560000Y-152400000D01*
X161560000Y-152400000D02*
X169120000Y-152400000D01*
D21*
%TO.N,Net-(U6-AREF{slash}PB0)*%
X177800000Y-73660000D02*
X177800000Y-76200000D01*
X182880000Y-86360000D02*
X165100000Y-104140000D01*
X165100000Y-104140000D02*
X165100000Y-106680000D01*
X177800000Y-76200000D02*
X182880000Y-81280000D01*
X165100000Y-106680000D02*
X167640000Y-109220000D01*
X182880000Y-81280000D02*
X182880000Y-86360000D01*
X167640000Y-109220000D02*
X169120000Y-109220000D01*
D23*
%TO.N,Net-(J2-Pin_1)*%
X165100000Y-114840000D02*
X168580000Y-114840000D01*
X168580000Y-114840000D02*
X169120000Y-114300000D01*
%TO.N,Net-(J2-Pin_2)*%
X168580000Y-117380000D02*
X169120000Y-116840000D01*
X165100000Y-117380000D02*
X168580000Y-117380000D01*
%TO.N,Net-(J2-Pin_3)*%
X165100000Y-119920000D02*
X168580000Y-119920000D01*
X168580000Y-119920000D02*
X169120000Y-119380000D01*
%TO.N,Net-(J2-Pin_4)*%
X165100000Y-122460000D02*
X168580000Y-122460000D01*
X168580000Y-122460000D02*
X169120000Y-121920000D01*
%TO.N,Net-(J6-Pin_1)*%
X165100000Y-127000000D02*
X169120000Y-127000000D01*
%TO.N,Net-(J6-Pin_2)*%
X165100000Y-129540000D02*
X169120000Y-129540000D01*
%TO.N,Net-(J6-Pin_3)*%
X165100000Y-132080000D02*
X169120000Y-132080000D01*
%TO.N,Net-(J6-Pin_4)*%
X165100000Y-134620000D02*
X169120000Y-134620000D01*
%TO.N,Net-(J6-Pin_5)*%
X165100000Y-137160000D02*
X169120000Y-137160000D01*
%TO.N,Net-(J6-Pin_6)*%
X165100000Y-139700000D02*
X169120000Y-139700000D01*
%TO.N,Net-(J8-Pin_1)*%
X177800000Y-142240000D02*
X172720000Y-142240000D01*
%TO.N,Net-(J8-Pin_2)*%
X177800000Y-139700000D02*
X172720000Y-139700000D01*
%TO.N,Net-(J8-Pin_3)*%
X172720000Y-137160000D02*
X177800000Y-137160000D01*
%TO.N,Net-(J8-Pin_4)*%
X177260000Y-135160000D02*
X177800000Y-135160000D01*
X177800000Y-134620000D02*
X172720000Y-134620000D01*
%TO.N,Net-(J8-Pin_5)*%
X177800000Y-132080000D02*
X172720000Y-132080000D01*
%TO.N,Net-(J8-Pin_6)*%
X177800000Y-129540000D02*
X172720000Y-129540000D01*
%TO.N,Net-(J8-Pin_7)*%
X177800000Y-127000000D02*
X172720000Y-127000000D01*
%TO.N,Net-(J8-Pin_8)*%
X177800000Y-124460000D02*
X172720000Y-124460000D01*
%TO.N,Net-(J8-Pin_9)*%
X177040000Y-121920000D02*
X177800000Y-121160000D01*
X172720000Y-121920000D02*
X177040000Y-121920000D01*
%TD*%
%TA.AperFunction,Conductor*%
%TO.N,GND*%
G36*
X208126288Y-58438954D02*
G01*
X208207070Y-58492930D01*
X208261046Y-58573712D01*
X208280000Y-58669000D01*
X208280000Y-162311000D01*
X208261046Y-162406288D01*
X208207070Y-162487070D01*
X208126288Y-162541046D01*
X208031000Y-162560000D01*
X203967733Y-162560000D01*
X203872445Y-162541046D01*
X203791663Y-162487070D01*
X203737687Y-162406288D01*
X203718733Y-162311000D01*
X203737687Y-162215712D01*
X203791663Y-162134930D01*
X203872445Y-162080954D01*
X203898801Y-162071732D01*
X203956623Y-162055073D01*
X204058724Y-162025659D01*
X204390833Y-161888094D01*
X204705452Y-161714211D01*
X204998623Y-161506194D01*
X205266661Y-161266661D01*
X205506194Y-160998623D01*
X205714211Y-160705452D01*
X205888094Y-160390833D01*
X206025659Y-160058724D01*
X206125173Y-159713300D01*
X206185387Y-159358907D01*
X206185387Y-159358903D01*
X206185388Y-159358899D01*
X206205543Y-159000005D01*
X206205543Y-158999994D01*
X206185388Y-158641100D01*
X206125173Y-158286702D01*
X206125170Y-158286690D01*
X206025660Y-157941281D01*
X206025659Y-157941276D01*
X205888094Y-157609167D01*
X205714211Y-157294548D01*
X205506194Y-157001377D01*
X205266661Y-156733339D01*
X204998623Y-156493806D01*
X204705452Y-156285789D01*
X204390833Y-156111906D01*
X204058724Y-155974341D01*
X204058720Y-155974339D01*
X204058718Y-155974339D01*
X203713309Y-155874829D01*
X203713297Y-155874826D01*
X203358896Y-155814611D01*
X203358901Y-155814611D01*
X203000005Y-155794457D01*
X202999995Y-155794457D01*
X202641100Y-155814611D01*
X202286702Y-155874826D01*
X202286690Y-155874829D01*
X201941281Y-155974339D01*
X201609166Y-156111906D01*
X201294543Y-156285792D01*
X201294540Y-156285794D01*
X201001382Y-156493802D01*
X201001375Y-156493807D01*
X200733348Y-156733330D01*
X200733330Y-156733348D01*
X200493807Y-157001375D01*
X200493802Y-157001382D01*
X200285794Y-157294540D01*
X200285792Y-157294543D01*
X200111906Y-157609166D01*
X199974339Y-157941281D01*
X199874829Y-158286690D01*
X199874826Y-158286702D01*
X199814611Y-158641100D01*
X199794457Y-158999994D01*
X199794457Y-159000005D01*
X199814611Y-159358899D01*
X199874826Y-159713297D01*
X199874829Y-159713309D01*
X199974339Y-160058718D01*
X199974341Y-160058724D01*
X200111906Y-160390833D01*
X200285789Y-160705452D01*
X200493806Y-160998623D01*
X200733339Y-161266661D01*
X201001377Y-161506194D01*
X201294548Y-161714211D01*
X201609167Y-161888094D01*
X201941276Y-162025659D01*
X202023849Y-162049447D01*
X202101199Y-162071732D01*
X202187516Y-162116324D01*
X202250198Y-162190554D01*
X202279701Y-162283121D01*
X202271535Y-162379932D01*
X202226943Y-162466249D01*
X202152713Y-162528931D01*
X202060146Y-162558434D01*
X202032267Y-162560000D01*
X154967733Y-162560000D01*
X154872445Y-162541046D01*
X154791663Y-162487070D01*
X154737687Y-162406288D01*
X154718733Y-162311000D01*
X154737687Y-162215712D01*
X154791663Y-162134930D01*
X154872445Y-162080954D01*
X154898801Y-162071732D01*
X154956623Y-162055073D01*
X155058724Y-162025659D01*
X155390833Y-161888094D01*
X155705452Y-161714211D01*
X155998623Y-161506194D01*
X156266661Y-161266661D01*
X156506194Y-160998623D01*
X156714211Y-160705452D01*
X156888094Y-160390833D01*
X157025659Y-160058724D01*
X157125173Y-159713300D01*
X157185387Y-159358907D01*
X157185387Y-159358903D01*
X157185388Y-159358899D01*
X157205543Y-159000005D01*
X157205543Y-158999994D01*
X157185388Y-158641100D01*
X157125173Y-158286702D01*
X157125170Y-158286690D01*
X157025660Y-157941281D01*
X157025659Y-157941276D01*
X156888094Y-157609167D01*
X156714211Y-157294548D01*
X156506194Y-157001377D01*
X156266661Y-156733339D01*
X155998623Y-156493806D01*
X155705452Y-156285789D01*
X155390833Y-156111906D01*
X155058724Y-155974341D01*
X155058720Y-155974339D01*
X155058718Y-155974339D01*
X154713309Y-155874829D01*
X154713297Y-155874826D01*
X154358896Y-155814611D01*
X154358901Y-155814611D01*
X154000005Y-155794457D01*
X153999995Y-155794457D01*
X153641100Y-155814611D01*
X153286702Y-155874826D01*
X153286690Y-155874829D01*
X152941281Y-155974339D01*
X152609166Y-156111906D01*
X152294543Y-156285792D01*
X152294540Y-156285794D01*
X152001382Y-156493802D01*
X152001375Y-156493807D01*
X151733348Y-156733330D01*
X151733330Y-156733348D01*
X151493807Y-157001375D01*
X151493802Y-157001382D01*
X151285794Y-157294540D01*
X151285792Y-157294543D01*
X151111906Y-157609166D01*
X150974339Y-157941281D01*
X150874829Y-158286690D01*
X150874826Y-158286702D01*
X150814611Y-158641100D01*
X150794457Y-158999994D01*
X150794457Y-159000005D01*
X150814611Y-159358899D01*
X150874826Y-159713297D01*
X150874829Y-159713309D01*
X150974339Y-160058718D01*
X150974341Y-160058724D01*
X151111906Y-160390833D01*
X151285789Y-160705452D01*
X151493806Y-160998623D01*
X151733339Y-161266661D01*
X152001377Y-161506194D01*
X152294548Y-161714211D01*
X152609167Y-161888094D01*
X152941276Y-162025659D01*
X153023849Y-162049447D01*
X153101199Y-162071732D01*
X153187516Y-162116324D01*
X153250198Y-162190554D01*
X153279701Y-162283121D01*
X153271535Y-162379932D01*
X153226943Y-162466249D01*
X153152713Y-162528931D01*
X153060146Y-162558434D01*
X153032267Y-162560000D01*
X127249000Y-162560000D01*
X127153712Y-162541046D01*
X127072930Y-162487070D01*
X127018954Y-162406288D01*
X127000000Y-162311000D01*
X127000000Y-144696839D01*
X130744500Y-144696839D01*
X130753721Y-144749139D01*
X130755139Y-144759910D01*
X130759765Y-144812788D01*
X130759766Y-144812792D01*
X130773506Y-144864077D01*
X130775857Y-144874681D01*
X130785078Y-144926971D01*
X130803238Y-144976868D01*
X130806505Y-144987228D01*
X130820247Y-145038513D01*
X130820249Y-145038517D01*
X130842682Y-145086625D01*
X130846841Y-145096665D01*
X130865001Y-145146560D01*
X130865003Y-145146565D01*
X130891549Y-145192542D01*
X130896566Y-145202181D01*
X130919000Y-145250291D01*
X130919003Y-145250296D01*
X130919005Y-145250300D01*
X130949463Y-145293798D01*
X130955292Y-145302948D01*
X130977464Y-145341351D01*
X130981845Y-145348939D01*
X130981847Y-145348941D01*
X131015966Y-145389602D01*
X131022579Y-145398221D01*
X131053037Y-145441718D01*
X131053040Y-145441722D01*
X131094431Y-145483114D01*
X131094432Y-145483114D01*
X138973040Y-153361722D01*
X138973039Y-153361722D01*
X139138277Y-153526959D01*
X139181771Y-153557414D01*
X139190383Y-153564021D01*
X139231063Y-153598156D01*
X139231066Y-153598158D01*
X139231068Y-153598159D01*
X139277046Y-153624704D01*
X139286210Y-153630543D01*
X139311674Y-153648373D01*
X139329700Y-153660995D01*
X139377828Y-153683437D01*
X139387454Y-153688449D01*
X139433439Y-153714998D01*
X139483327Y-153733155D01*
X139493369Y-153737315D01*
X139541484Y-153759752D01*
X139541486Y-153759752D01*
X139541487Y-153759753D01*
X139551572Y-153762455D01*
X139592770Y-153773495D01*
X139603133Y-153776762D01*
X139626631Y-153785314D01*
X139653026Y-153794921D01*
X139705322Y-153804141D01*
X139715926Y-153806493D01*
X139767207Y-153820234D01*
X139820105Y-153824861D01*
X139830844Y-153826274D01*
X139875803Y-153834202D01*
X139883152Y-153835499D01*
X139883155Y-153835499D01*
X139883159Y-153835500D01*
X139941696Y-153835500D01*
X159539967Y-153835500D01*
X159635255Y-153854454D01*
X159716037Y-153908430D01*
X165169329Y-159361722D01*
X165169328Y-159361722D01*
X165334565Y-159526958D01*
X165334567Y-159526960D01*
X165367063Y-159549714D01*
X165378060Y-159557414D01*
X165386672Y-159564021D01*
X165427352Y-159598156D01*
X165427354Y-159598157D01*
X165427357Y-159598159D01*
X165473335Y-159624704D01*
X165482499Y-159630543D01*
X165507963Y-159648373D01*
X165525989Y-159660995D01*
X165574117Y-159683437D01*
X165583743Y-159688449D01*
X165626802Y-159713309D01*
X165629728Y-159714998D01*
X165679616Y-159733155D01*
X165689658Y-159737315D01*
X165737773Y-159759752D01*
X165737775Y-159759752D01*
X165737776Y-159759753D01*
X165747861Y-159762455D01*
X165789059Y-159773495D01*
X165799422Y-159776762D01*
X165822920Y-159785314D01*
X165849315Y-159794921D01*
X165901611Y-159804141D01*
X165912215Y-159806493D01*
X165963496Y-159820234D01*
X166016394Y-159824861D01*
X166027133Y-159826274D01*
X166072092Y-159834202D01*
X166079441Y-159835499D01*
X166079444Y-159835499D01*
X166079448Y-159835500D01*
X166079450Y-159835500D01*
X193916839Y-159835500D01*
X193916841Y-159835500D01*
X193969151Y-159826275D01*
X193979896Y-159824861D01*
X194032793Y-159820234D01*
X194084079Y-159806491D01*
X194094678Y-159804141D01*
X194146974Y-159794921D01*
X194146979Y-159794919D01*
X194196870Y-159776760D01*
X194207223Y-159773495D01*
X194258513Y-159759753D01*
X194306627Y-159737315D01*
X194316670Y-159733156D01*
X194316673Y-159733155D01*
X194366562Y-159714998D01*
X194412546Y-159688447D01*
X194422167Y-159683438D01*
X194470300Y-159660995D01*
X194513796Y-159630537D01*
X194522951Y-159624704D01*
X194568937Y-159598156D01*
X194609605Y-159564031D01*
X194618228Y-159557414D01*
X194621849Y-159554877D01*
X194661722Y-159526960D01*
X194826960Y-159361722D01*
X194826959Y-159361722D01*
X202545568Y-151643114D01*
X202586960Y-151601722D01*
X202617413Y-151558228D01*
X202624031Y-151549605D01*
X202635205Y-151536288D01*
X202658156Y-151508937D01*
X202684703Y-151462954D01*
X202690532Y-151453803D01*
X202720995Y-151410300D01*
X202743444Y-151362154D01*
X202748447Y-151352545D01*
X202774997Y-151306562D01*
X202793153Y-151256677D01*
X202797312Y-151246636D01*
X202819753Y-151198513D01*
X202833495Y-151147221D01*
X202836757Y-151136876D01*
X202854921Y-151086974D01*
X202864141Y-151034678D01*
X202866493Y-151024071D01*
X202866653Y-151023477D01*
X202880234Y-150972793D01*
X202884861Y-150919896D01*
X202886275Y-150909151D01*
X202895500Y-150856841D01*
X202895500Y-150623159D01*
X202895500Y-146519855D01*
X202914454Y-146424567D01*
X202949826Y-146364604D01*
X202954128Y-146359208D01*
X202968959Y-146340612D01*
X203096393Y-146119888D01*
X203189508Y-145882637D01*
X203246222Y-145634157D01*
X203265268Y-145380000D01*
X203246222Y-145125843D01*
X203189508Y-144877363D01*
X203096393Y-144640112D01*
X202968959Y-144419388D01*
X202855718Y-144277389D01*
X202846037Y-144265249D01*
X202801445Y-144178932D01*
X202793279Y-144082121D01*
X202822782Y-143989554D01*
X202846037Y-143954751D01*
X202874545Y-143919003D01*
X202968959Y-143800612D01*
X203096393Y-143579888D01*
X203189508Y-143342637D01*
X203246222Y-143094157D01*
X203265268Y-142840000D01*
X203246222Y-142585843D01*
X203189508Y-142337363D01*
X203096393Y-142100112D01*
X202968959Y-141879388D01*
X202873262Y-141759388D01*
X202810054Y-141680127D01*
X202623214Y-141506765D01*
X202412637Y-141363196D01*
X202412632Y-141363194D01*
X202183010Y-141252613D01*
X202183005Y-141252611D01*
X201939464Y-141177488D01*
X201939461Y-141177487D01*
X201831448Y-141161206D01*
X201687435Y-141139500D01*
X201432565Y-141139500D01*
X201306553Y-141158493D01*
X201180538Y-141177487D01*
X201180535Y-141177488D01*
X200936994Y-141252611D01*
X200936989Y-141252613D01*
X200707367Y-141363194D01*
X200707362Y-141363196D01*
X200496785Y-141506765D01*
X200309945Y-141680127D01*
X200151045Y-141879382D01*
X200151041Y-141879388D01*
X200023609Y-142100107D01*
X200023600Y-142100127D01*
X199930495Y-142337354D01*
X199930491Y-142337368D01*
X199873777Y-142585845D01*
X199854732Y-142840000D01*
X199873777Y-143094154D01*
X199930489Y-143342629D01*
X199930495Y-143342645D01*
X200023600Y-143579872D01*
X200023609Y-143579892D01*
X200040121Y-143608491D01*
X200151041Y-143800612D01*
X200249183Y-143923678D01*
X200273962Y-143954749D01*
X200318555Y-144041066D01*
X200326721Y-144137877D01*
X200297218Y-144230444D01*
X200273963Y-144265248D01*
X200151045Y-144419382D01*
X200151041Y-144419388D01*
X200023609Y-144640107D01*
X200023600Y-144640127D01*
X199930495Y-144877354D01*
X199930491Y-144877368D01*
X199873777Y-145125845D01*
X199854732Y-145380000D01*
X199873777Y-145634154D01*
X199930489Y-145882629D01*
X199930495Y-145882645D01*
X200023600Y-146119872D01*
X200023609Y-146119892D01*
X200068070Y-146196901D01*
X200151041Y-146340612D01*
X200151043Y-146340615D01*
X200151046Y-146340619D01*
X200170174Y-146364604D01*
X200214768Y-146450920D01*
X200224500Y-146519855D01*
X200224500Y-150083677D01*
X200205546Y-150178965D01*
X200151570Y-150259747D01*
X200151569Y-150259747D01*
X199240871Y-151170444D01*
X199160090Y-151224420D01*
X199064802Y-151243374D01*
X198969514Y-151224420D01*
X198888732Y-151170443D01*
X198834756Y-151089662D01*
X198816499Y-151012984D01*
X198806222Y-150875843D01*
X198767300Y-150705316D01*
X198749510Y-150627370D01*
X198749508Y-150627367D01*
X198749508Y-150627363D01*
X198656393Y-150390112D01*
X198528959Y-150169388D01*
X198458073Y-150080500D01*
X198370054Y-149970127D01*
X198356322Y-149957386D01*
X198220639Y-149831490D01*
X198183214Y-149796765D01*
X197972637Y-149653196D01*
X197972632Y-149653194D01*
X197743010Y-149542613D01*
X197743005Y-149542611D01*
X197499464Y-149467488D01*
X197499461Y-149467487D01*
X197391448Y-149451206D01*
X197247435Y-149429500D01*
X196992565Y-149429500D01*
X196866553Y-149448493D01*
X196740538Y-149467487D01*
X196740535Y-149467488D01*
X196496994Y-149542611D01*
X196496989Y-149542613D01*
X196267367Y-149653194D01*
X196267362Y-149653196D01*
X196056785Y-149796765D01*
X196019361Y-149831490D01*
X195936617Y-149882407D01*
X195840687Y-149897784D01*
X195746174Y-149875279D01*
X195680639Y-149831490D01*
X195643214Y-149796765D01*
X195432637Y-149653196D01*
X195432632Y-149653194D01*
X195203010Y-149542613D01*
X195203005Y-149542611D01*
X194959464Y-149467488D01*
X194959461Y-149467487D01*
X194851448Y-149451206D01*
X194707435Y-149429500D01*
X194452565Y-149429500D01*
X194326553Y-149448493D01*
X194200538Y-149467487D01*
X194200535Y-149467488D01*
X193956994Y-149542611D01*
X193956989Y-149542613D01*
X193727367Y-149653194D01*
X193727362Y-149653196D01*
X193516785Y-149796765D01*
X193479361Y-149831490D01*
X193396617Y-149882407D01*
X193300687Y-149897784D01*
X193206174Y-149875279D01*
X193140639Y-149831490D01*
X193103214Y-149796765D01*
X192892637Y-149653196D01*
X192892632Y-149653194D01*
X192663010Y-149542613D01*
X192663005Y-149542611D01*
X192419464Y-149467488D01*
X192419461Y-149467487D01*
X192311448Y-149451206D01*
X192167435Y-149429500D01*
X191912565Y-149429500D01*
X191786553Y-149448493D01*
X191660538Y-149467487D01*
X191660535Y-149467488D01*
X191416994Y-149542611D01*
X191416989Y-149542613D01*
X191187367Y-149653194D01*
X191187362Y-149653196D01*
X190976785Y-149796765D01*
X190939361Y-149831490D01*
X190856617Y-149882407D01*
X190760687Y-149897784D01*
X190666174Y-149875279D01*
X190600639Y-149831490D01*
X190563214Y-149796765D01*
X190352637Y-149653196D01*
X190352632Y-149653194D01*
X190123010Y-149542613D01*
X190123005Y-149542611D01*
X189879464Y-149467488D01*
X189879461Y-149467487D01*
X189771448Y-149451206D01*
X189627435Y-149429500D01*
X189372565Y-149429500D01*
X189246553Y-149448493D01*
X189120538Y-149467487D01*
X189120535Y-149467488D01*
X188876994Y-149542611D01*
X188876989Y-149542613D01*
X188647367Y-149653194D01*
X188647362Y-149653196D01*
X188436785Y-149796765D01*
X188399361Y-149831490D01*
X188316617Y-149882407D01*
X188220687Y-149897784D01*
X188126174Y-149875279D01*
X188060639Y-149831490D01*
X188023214Y-149796765D01*
X187812637Y-149653196D01*
X187812632Y-149653194D01*
X187583010Y-149542613D01*
X187583005Y-149542611D01*
X187339464Y-149467488D01*
X187339461Y-149467487D01*
X187231448Y-149451206D01*
X187087435Y-149429500D01*
X186832565Y-149429500D01*
X186706553Y-149448493D01*
X186580538Y-149467487D01*
X186580535Y-149467488D01*
X186336994Y-149542611D01*
X186336989Y-149542613D01*
X186107367Y-149653194D01*
X186107362Y-149653196D01*
X185896785Y-149796765D01*
X185859361Y-149831490D01*
X185776617Y-149882407D01*
X185680687Y-149897784D01*
X185586174Y-149875279D01*
X185520639Y-149831490D01*
X185483214Y-149796765D01*
X185272637Y-149653196D01*
X185272632Y-149653194D01*
X185043010Y-149542613D01*
X185043005Y-149542611D01*
X184799464Y-149467488D01*
X184799461Y-149467487D01*
X184680679Y-149449583D01*
X184547435Y-149429500D01*
X184547432Y-149429500D01*
X184547425Y-149429499D01*
X184538138Y-149428803D01*
X184538336Y-149426157D01*
X184459850Y-149410546D01*
X184379068Y-149356570D01*
X184325092Y-149275788D01*
X184306138Y-149180500D01*
X184325092Y-149085212D01*
X184379068Y-149004430D01*
X190242998Y-143140500D01*
X196152785Y-137230712D01*
X196182505Y-137205333D01*
X196185871Y-137202888D01*
X196231249Y-137152490D01*
X196235740Y-137147758D01*
X196250119Y-137133380D01*
X196262947Y-137117537D01*
X196267128Y-137112642D01*
X196312533Y-137062216D01*
X196314613Y-137058611D01*
X196336761Y-137026386D01*
X196339383Y-137023149D01*
X196370184Y-136962696D01*
X196373258Y-136957033D01*
X196407179Y-136898284D01*
X196408469Y-136894312D01*
X196423425Y-136858205D01*
X196425320Y-136854488D01*
X196442867Y-136788998D01*
X196444719Y-136782745D01*
X196445808Y-136779392D01*
X196465674Y-136718256D01*
X196466110Y-136714101D01*
X196473234Y-136675668D01*
X196474312Y-136671646D01*
X196477861Y-136603924D01*
X196478372Y-136597433D01*
X196480499Y-136577201D01*
X196480500Y-136577192D01*
X196480499Y-136556839D01*
X196480670Y-136550321D01*
X196482370Y-136517879D01*
X196484219Y-136482612D01*
X196483566Y-136478488D01*
X196480500Y-136439535D01*
X196480500Y-117989500D01*
X196499454Y-117894212D01*
X196553430Y-117813430D01*
X196634212Y-117759454D01*
X196729500Y-117740500D01*
X198019535Y-117740500D01*
X198058487Y-117743565D01*
X198062612Y-117744219D01*
X198062612Y-117744218D01*
X198062613Y-117744219D01*
X198062614Y-117744219D01*
X198130329Y-117740671D01*
X198136846Y-117740500D01*
X198157184Y-117740500D01*
X198157192Y-117740500D01*
X198177464Y-117738369D01*
X198183921Y-117737861D01*
X198251646Y-117734313D01*
X198255673Y-117733233D01*
X198294116Y-117726108D01*
X198298256Y-117725674D01*
X198362751Y-117704717D01*
X198368976Y-117702873D01*
X198434488Y-117685320D01*
X198438198Y-117683429D01*
X198474318Y-117668467D01*
X198478284Y-117667179D01*
X198537033Y-117633258D01*
X198542696Y-117630184D01*
X198603149Y-117599383D01*
X198606386Y-117596761D01*
X198638611Y-117574613D01*
X198642216Y-117572533D01*
X198692642Y-117527128D01*
X198697537Y-117522947D01*
X198713380Y-117510119D01*
X198727760Y-117495737D01*
X198732490Y-117491249D01*
X198738102Y-117486195D01*
X198782888Y-117445871D01*
X198785333Y-117442505D01*
X198810712Y-117412785D01*
X199509908Y-116713589D01*
X199590687Y-116659616D01*
X199685975Y-116640662D01*
X199781263Y-116659616D01*
X199862045Y-116713592D01*
X199916021Y-116794374D01*
X199934975Y-116889662D01*
X199928732Y-116945069D01*
X199873777Y-117185845D01*
X199854732Y-117440000D01*
X199873777Y-117694154D01*
X199930489Y-117942629D01*
X199930495Y-117942645D01*
X200023600Y-118179872D01*
X200023609Y-118179892D01*
X200064439Y-118250611D01*
X200151041Y-118400612D01*
X200213952Y-118479500D01*
X200273962Y-118554749D01*
X200318555Y-118641066D01*
X200326721Y-118737877D01*
X200297218Y-118830444D01*
X200273963Y-118865248D01*
X200151045Y-119019382D01*
X200151041Y-119019388D01*
X200023609Y-119240107D01*
X200023600Y-119240127D01*
X199930495Y-119477354D01*
X199930491Y-119477368D01*
X199873777Y-119725845D01*
X199854732Y-119980000D01*
X199873777Y-120234154D01*
X199930489Y-120482629D01*
X199930495Y-120482645D01*
X200023600Y-120719872D01*
X200023609Y-120719892D01*
X200059820Y-120782611D01*
X200151041Y-120940612D01*
X200151045Y-120940617D01*
X200273962Y-121094751D01*
X200318555Y-121181068D01*
X200326720Y-121277880D01*
X200297216Y-121370446D01*
X200273962Y-121405249D01*
X200151045Y-121559382D01*
X200151041Y-121559388D01*
X200023609Y-121780107D01*
X200023600Y-121780127D01*
X199930495Y-122017354D01*
X199930491Y-122017368D01*
X199873777Y-122265845D01*
X199854732Y-122519999D01*
X199873777Y-122774154D01*
X199930489Y-123022629D01*
X199930495Y-123022645D01*
X200023600Y-123259872D01*
X200023609Y-123259892D01*
X200064439Y-123330611D01*
X200151041Y-123480612D01*
X200151045Y-123480617D01*
X200273963Y-123634751D01*
X200318555Y-123721068D01*
X200326721Y-123817879D01*
X200297218Y-123910446D01*
X200273963Y-123945249D01*
X200151045Y-124099382D01*
X200151041Y-124099388D01*
X200023609Y-124320107D01*
X200023600Y-124320127D01*
X199930495Y-124557354D01*
X199930491Y-124557368D01*
X199873777Y-124805845D01*
X199854732Y-125059999D01*
X199873777Y-125314154D01*
X199930489Y-125562629D01*
X199930495Y-125562645D01*
X200023600Y-125799872D01*
X200023609Y-125799892D01*
X200058539Y-125860392D01*
X200151041Y-126020612D01*
X200151045Y-126020617D01*
X200273963Y-126174751D01*
X200318555Y-126261068D01*
X200326721Y-126357879D01*
X200297218Y-126450446D01*
X200273963Y-126485249D01*
X200151045Y-126639382D01*
X200151041Y-126639388D01*
X200023609Y-126860107D01*
X200023600Y-126860127D01*
X199930495Y-127097354D01*
X199930491Y-127097368D01*
X199873777Y-127345845D01*
X199854732Y-127600000D01*
X199873777Y-127854154D01*
X199930489Y-128102629D01*
X199930495Y-128102645D01*
X200023600Y-128339872D01*
X200023609Y-128339892D01*
X200039311Y-128367088D01*
X200151041Y-128560612D01*
X200151045Y-128560617D01*
X200273962Y-128714751D01*
X200318555Y-128801068D01*
X200326720Y-128897880D01*
X200297216Y-128990446D01*
X200273962Y-129025249D01*
X200151045Y-129179382D01*
X200151041Y-129179388D01*
X200023609Y-129400107D01*
X200023600Y-129400127D01*
X199930495Y-129637354D01*
X199930491Y-129637368D01*
X199873777Y-129885845D01*
X199854732Y-130139999D01*
X199873777Y-130394154D01*
X199930489Y-130642629D01*
X199930495Y-130642645D01*
X200023600Y-130879872D01*
X200023609Y-130879892D01*
X200042402Y-130912442D01*
X200151041Y-131100612D01*
X200267982Y-131247251D01*
X200273962Y-131254749D01*
X200318555Y-131341066D01*
X200326721Y-131437877D01*
X200297218Y-131530444D01*
X200273963Y-131565248D01*
X200151045Y-131719382D01*
X200151041Y-131719388D01*
X200023609Y-131940107D01*
X200023600Y-131940127D01*
X199930495Y-132177354D01*
X199930491Y-132177368D01*
X199873777Y-132425845D01*
X199854732Y-132679999D01*
X199873777Y-132934154D01*
X199930489Y-133182629D01*
X199930495Y-133182645D01*
X200023600Y-133419872D01*
X200023609Y-133419892D01*
X200064439Y-133490611D01*
X200151041Y-133640612D01*
X200151045Y-133640617D01*
X200273963Y-133794751D01*
X200318555Y-133881068D01*
X200326721Y-133977879D01*
X200297218Y-134070446D01*
X200273963Y-134105249D01*
X200151045Y-134259382D01*
X200151041Y-134259388D01*
X200023609Y-134480107D01*
X200023600Y-134480127D01*
X199930495Y-134717354D01*
X199930491Y-134717368D01*
X199873777Y-134965845D01*
X199854732Y-135220000D01*
X199873777Y-135474154D01*
X199930489Y-135722629D01*
X199930495Y-135722645D01*
X200023600Y-135959872D01*
X200023609Y-135959892D01*
X200064439Y-136030611D01*
X200151041Y-136180612D01*
X200151045Y-136180617D01*
X200273963Y-136334751D01*
X200318555Y-136421068D01*
X200326721Y-136517879D01*
X200297218Y-136610446D01*
X200273963Y-136645249D01*
X200151045Y-136799382D01*
X200151041Y-136799388D01*
X200023609Y-137020107D01*
X200023600Y-137020127D01*
X199930495Y-137257354D01*
X199930491Y-137257368D01*
X199873777Y-137505845D01*
X199854732Y-137760000D01*
X199873777Y-138014154D01*
X199930489Y-138262629D01*
X199930495Y-138262645D01*
X200023600Y-138499872D01*
X200023609Y-138499892D01*
X200064439Y-138570611D01*
X200151041Y-138720612D01*
X200151045Y-138720617D01*
X200309945Y-138919872D01*
X200309948Y-138919875D01*
X200309950Y-138919877D01*
X200389726Y-138993898D01*
X200496785Y-139093234D01*
X200707362Y-139236803D01*
X200707364Y-139236804D01*
X200707366Y-139236805D01*
X200837064Y-139299264D01*
X200936989Y-139347386D01*
X200936993Y-139347387D01*
X200936996Y-139347389D01*
X201107330Y-139399930D01*
X201180535Y-139422511D01*
X201180538Y-139422512D01*
X201180539Y-139422512D01*
X201180542Y-139422513D01*
X201432565Y-139460500D01*
X201432569Y-139460500D01*
X201687431Y-139460500D01*
X201687435Y-139460500D01*
X201939458Y-139422513D01*
X202183004Y-139347389D01*
X202412634Y-139236805D01*
X202623217Y-139093232D01*
X202810050Y-138919877D01*
X202968959Y-138720612D01*
X203096393Y-138499888D01*
X203189508Y-138262637D01*
X203246222Y-138014157D01*
X203265268Y-137760000D01*
X203246222Y-137505843D01*
X203189508Y-137257363D01*
X203096393Y-137020112D01*
X202968959Y-136799388D01*
X202846037Y-136645249D01*
X202801445Y-136558932D01*
X202793279Y-136462121D01*
X202822782Y-136369554D01*
X202846037Y-136334751D01*
X202864084Y-136312121D01*
X202968959Y-136180612D01*
X203096393Y-135959888D01*
X203189508Y-135722637D01*
X203246222Y-135474157D01*
X203265268Y-135220000D01*
X203246222Y-134965843D01*
X203189508Y-134717363D01*
X203096393Y-134480112D01*
X202968959Y-134259388D01*
X202846037Y-134105249D01*
X202801445Y-134018932D01*
X202793279Y-133922121D01*
X202822782Y-133829554D01*
X202846037Y-133794751D01*
X202864085Y-133772120D01*
X202968959Y-133640612D01*
X203096393Y-133419888D01*
X203189508Y-133182637D01*
X203246222Y-132934157D01*
X203265268Y-132680000D01*
X203246222Y-132425843D01*
X203189508Y-132177363D01*
X203096393Y-131940112D01*
X202968959Y-131719388D01*
X202846036Y-131565248D01*
X202801445Y-131478932D01*
X202793279Y-131382121D01*
X202822782Y-131289554D01*
X202846037Y-131254751D01*
X202896824Y-131191066D01*
X202968959Y-131100612D01*
X203096393Y-130879888D01*
X203189508Y-130642637D01*
X203246222Y-130394157D01*
X203265268Y-130140000D01*
X203246222Y-129885843D01*
X203189508Y-129637363D01*
X203096393Y-129400112D01*
X202968959Y-129179388D01*
X202846037Y-129025249D01*
X202801445Y-128938932D01*
X202793279Y-128842121D01*
X202822782Y-128749554D01*
X202846037Y-128714751D01*
X202879125Y-128673260D01*
X202968959Y-128560612D01*
X203096393Y-128339888D01*
X203189508Y-128102637D01*
X203246222Y-127854157D01*
X203265268Y-127600000D01*
X203246222Y-127345843D01*
X203189508Y-127097363D01*
X203096393Y-126860112D01*
X202968959Y-126639388D01*
X202846037Y-126485249D01*
X202801445Y-126398932D01*
X202793279Y-126302121D01*
X202822782Y-126209554D01*
X202846037Y-126174751D01*
X202864085Y-126152120D01*
X202968959Y-126020612D01*
X203096393Y-125799888D01*
X203189508Y-125562637D01*
X203192413Y-125549912D01*
X203215331Y-125449500D01*
X203246222Y-125314157D01*
X203265268Y-125060000D01*
X203246222Y-124805843D01*
X203189508Y-124557363D01*
X203096393Y-124320112D01*
X202968959Y-124099388D01*
X202846037Y-123945249D01*
X202801445Y-123858932D01*
X202793279Y-123762121D01*
X202822782Y-123669554D01*
X202846037Y-123634751D01*
X202877516Y-123595277D01*
X202968959Y-123480612D01*
X203096393Y-123259888D01*
X203189508Y-123022637D01*
X203246222Y-122774157D01*
X203265268Y-122520000D01*
X203246222Y-122265843D01*
X203189508Y-122017363D01*
X203096393Y-121780112D01*
X202968959Y-121559388D01*
X202846037Y-121405249D01*
X202801445Y-121318932D01*
X202793279Y-121222121D01*
X202822782Y-121129554D01*
X202846037Y-121094751D01*
X202905841Y-121019759D01*
X202968959Y-120940612D01*
X203096393Y-120719888D01*
X203189508Y-120482637D01*
X203246222Y-120234157D01*
X203265268Y-119980000D01*
X203246222Y-119725843D01*
X203189508Y-119477363D01*
X203096393Y-119240112D01*
X202968959Y-119019388D01*
X202855718Y-118877389D01*
X202846037Y-118865249D01*
X202801445Y-118778932D01*
X202793279Y-118682121D01*
X202822782Y-118589554D01*
X202846037Y-118554751D01*
X202905841Y-118479759D01*
X202968959Y-118400612D01*
X203096393Y-118179888D01*
X203189508Y-117942637D01*
X203246222Y-117694157D01*
X203265268Y-117440000D01*
X203246222Y-117185843D01*
X203189508Y-116937363D01*
X203096393Y-116700112D01*
X202968959Y-116479388D01*
X202913761Y-116410172D01*
X202810054Y-116280127D01*
X202801852Y-116272517D01*
X202673191Y-116153137D01*
X202623214Y-116106765D01*
X202412637Y-115963196D01*
X202412632Y-115963194D01*
X202183010Y-115852613D01*
X202183005Y-115852611D01*
X201939464Y-115777488D01*
X201939461Y-115777487D01*
X201819819Y-115759454D01*
X201687435Y-115739500D01*
X201432565Y-115739500D01*
X201264549Y-115764824D01*
X201180540Y-115777487D01*
X201077786Y-115809183D01*
X200981144Y-115819157D01*
X200888042Y-115791390D01*
X200812653Y-115730107D01*
X200766454Y-115644639D01*
X200756480Y-115547997D01*
X200784247Y-115454895D01*
X200828319Y-115395178D01*
X202723356Y-113500141D01*
X202804135Y-113446168D01*
X202899423Y-113427214D01*
X202936515Y-113429993D01*
X203072565Y-113450500D01*
X203072571Y-113450500D01*
X203327431Y-113450500D01*
X203327435Y-113450500D01*
X203579458Y-113412513D01*
X203823004Y-113337389D01*
X204052634Y-113226805D01*
X204263217Y-113083232D01*
X204450050Y-112909877D01*
X204608959Y-112710612D01*
X204736393Y-112489888D01*
X204829508Y-112252637D01*
X204832253Y-112240613D01*
X204841003Y-112202270D01*
X204886222Y-112004157D01*
X204905268Y-111750000D01*
X204886222Y-111495843D01*
X204829508Y-111247363D01*
X204736393Y-111010112D01*
X204608959Y-110789388D01*
X204538073Y-110700500D01*
X204450054Y-110590127D01*
X204377475Y-110522784D01*
X204327920Y-110476803D01*
X204263214Y-110416765D01*
X204052637Y-110273196D01*
X204052632Y-110273194D01*
X203823010Y-110162613D01*
X203823005Y-110162611D01*
X203579464Y-110087488D01*
X203579461Y-110087487D01*
X203471448Y-110071206D01*
X203327435Y-110049500D01*
X203072565Y-110049500D01*
X202946553Y-110068493D01*
X202820538Y-110087487D01*
X202820535Y-110087488D01*
X202576994Y-110162611D01*
X202576989Y-110162613D01*
X202347367Y-110273194D01*
X202347362Y-110273196D01*
X202136785Y-110416765D01*
X202099361Y-110451490D01*
X202016617Y-110502407D01*
X201920687Y-110517784D01*
X201826174Y-110495279D01*
X201760639Y-110451490D01*
X201723214Y-110416765D01*
X201512637Y-110273196D01*
X201512632Y-110273194D01*
X201283010Y-110162613D01*
X201283005Y-110162611D01*
X201039464Y-110087488D01*
X201039461Y-110087487D01*
X200931448Y-110071206D01*
X200787435Y-110049500D01*
X200532565Y-110049500D01*
X200406553Y-110068493D01*
X200280538Y-110087487D01*
X200280535Y-110087488D01*
X200036994Y-110162611D01*
X200036989Y-110162613D01*
X199807367Y-110273194D01*
X199807362Y-110273196D01*
X199596785Y-110416765D01*
X199409945Y-110590127D01*
X199251045Y-110789382D01*
X199251041Y-110789388D01*
X199123609Y-111010107D01*
X199123600Y-111010127D01*
X199030495Y-111247354D01*
X199030489Y-111247370D01*
X198973777Y-111495845D01*
X198954732Y-111750000D01*
X198973777Y-112004154D01*
X199030489Y-112252629D01*
X199030495Y-112252645D01*
X199123600Y-112489872D01*
X199123605Y-112489884D01*
X199123607Y-112489888D01*
X199251041Y-112710612D01*
X199251045Y-112710617D01*
X199409945Y-112909872D01*
X199409948Y-112909875D01*
X199409950Y-112909877D01*
X199528369Y-113019753D01*
X199596785Y-113083234D01*
X199807362Y-113226803D01*
X199807364Y-113226804D01*
X199807366Y-113226805D01*
X199853895Y-113249212D01*
X199924730Y-113283325D01*
X200002358Y-113341746D01*
X200051720Y-113425427D01*
X200065301Y-113521628D01*
X200041034Y-113615703D01*
X199992763Y-113683736D01*
X197809931Y-115866570D01*
X197729149Y-115920546D01*
X197633861Y-115939500D01*
X195674646Y-115939500D01*
X195485354Y-115939500D01*
X195485351Y-115939500D01*
X195485347Y-115939501D01*
X195445320Y-115948007D01*
X195432452Y-115950045D01*
X195391741Y-115954326D01*
X195352828Y-115966970D01*
X195340234Y-115970345D01*
X195300190Y-115978857D01*
X195262805Y-115995503D01*
X195250633Y-116000175D01*
X195211714Y-116012821D01*
X195211712Y-116012821D01*
X195176267Y-116033286D01*
X195164654Y-116039203D01*
X195127270Y-116055848D01*
X195094161Y-116079901D01*
X195083235Y-116086997D01*
X195047786Y-116107464D01*
X195017369Y-116134852D01*
X195007237Y-116143057D01*
X194974133Y-116167108D01*
X194974129Y-116167111D01*
X194946740Y-116197528D01*
X194937528Y-116206740D01*
X194907111Y-116234129D01*
X194907108Y-116234133D01*
X194883057Y-116267237D01*
X194874852Y-116277369D01*
X194847464Y-116307786D01*
X194826997Y-116343235D01*
X194819901Y-116354161D01*
X194795848Y-116387270D01*
X194779203Y-116424654D01*
X194773286Y-116436267D01*
X194752821Y-116471712D01*
X194752821Y-116471714D01*
X194740175Y-116510633D01*
X194735503Y-116522805D01*
X194718857Y-116560190D01*
X194710345Y-116600234D01*
X194706970Y-116612828D01*
X194694326Y-116651741D01*
X194690045Y-116692452D01*
X194688007Y-116705320D01*
X194679501Y-116745347D01*
X194679500Y-116745358D01*
X194679500Y-136053860D01*
X194660546Y-136149148D01*
X194606570Y-136229930D01*
X191825570Y-139010930D01*
X191744788Y-139064906D01*
X191649500Y-139083860D01*
X191554212Y-139064906D01*
X191473430Y-139010930D01*
X191419454Y-138930148D01*
X191400500Y-138834860D01*
X191400500Y-117306138D01*
X191419454Y-117210850D01*
X191473427Y-117130071D01*
X195103356Y-113500142D01*
X195184135Y-113446169D01*
X195279423Y-113427215D01*
X195316529Y-113429995D01*
X195452565Y-113450500D01*
X195452569Y-113450500D01*
X195707431Y-113450500D01*
X195707435Y-113450500D01*
X195959458Y-113412513D01*
X196203004Y-113337389D01*
X196432634Y-113226805D01*
X196643217Y-113083232D01*
X196830050Y-112909877D01*
X196988959Y-112710612D01*
X197116393Y-112489888D01*
X197209508Y-112252637D01*
X197212253Y-112240613D01*
X197221003Y-112202270D01*
X197266222Y-112004157D01*
X197285268Y-111750000D01*
X197266222Y-111495843D01*
X197209508Y-111247363D01*
X197116393Y-111010112D01*
X196988959Y-110789388D01*
X196918073Y-110700500D01*
X196830054Y-110590127D01*
X196757475Y-110522784D01*
X196707920Y-110476803D01*
X196643214Y-110416765D01*
X196432637Y-110273196D01*
X196432632Y-110273194D01*
X196203010Y-110162613D01*
X196203005Y-110162611D01*
X195959464Y-110087488D01*
X195959461Y-110087487D01*
X195851448Y-110071206D01*
X195707435Y-110049500D01*
X195452565Y-110049500D01*
X195326553Y-110068493D01*
X195200538Y-110087487D01*
X195200535Y-110087488D01*
X194956994Y-110162611D01*
X194956989Y-110162613D01*
X194727367Y-110273194D01*
X194727362Y-110273196D01*
X194516785Y-110416765D01*
X194473972Y-110456490D01*
X194391228Y-110507407D01*
X194295297Y-110522784D01*
X194200785Y-110500279D01*
X194135250Y-110456490D01*
X194129304Y-110450973D01*
X194103217Y-110426768D01*
X194088550Y-110416768D01*
X193892637Y-110283196D01*
X193892632Y-110283194D01*
X193663010Y-110172613D01*
X193663005Y-110172611D01*
X193419464Y-110097488D01*
X193419461Y-110097487D01*
X193311448Y-110081206D01*
X193167435Y-110059500D01*
X192912565Y-110059500D01*
X192786553Y-110078493D01*
X192660538Y-110097487D01*
X192660535Y-110097488D01*
X192416994Y-110172611D01*
X192416989Y-110172613D01*
X192187367Y-110283194D01*
X192187362Y-110283196D01*
X191976785Y-110426765D01*
X191944747Y-110456492D01*
X191862002Y-110507408D01*
X191766072Y-110522784D01*
X191671560Y-110500278D01*
X191606026Y-110456489D01*
X191563217Y-110416768D01*
X191530867Y-110394712D01*
X191352637Y-110273196D01*
X191352632Y-110273194D01*
X191123010Y-110162613D01*
X191123005Y-110162611D01*
X190879464Y-110087488D01*
X190879461Y-110087487D01*
X190771448Y-110071206D01*
X190627435Y-110049500D01*
X190372565Y-110049500D01*
X190246553Y-110068493D01*
X190120538Y-110087487D01*
X190120535Y-110087488D01*
X189876994Y-110162611D01*
X189876989Y-110162613D01*
X189647367Y-110273194D01*
X189647362Y-110273196D01*
X189436785Y-110416765D01*
X189399361Y-110451490D01*
X189316617Y-110502407D01*
X189220687Y-110517784D01*
X189126174Y-110495279D01*
X189060639Y-110451490D01*
X189023214Y-110416765D01*
X188812637Y-110273196D01*
X188812632Y-110273194D01*
X188583010Y-110162613D01*
X188583005Y-110162611D01*
X188339464Y-110087488D01*
X188339461Y-110087487D01*
X188231448Y-110071206D01*
X188087435Y-110049500D01*
X187832565Y-110049500D01*
X187706553Y-110068493D01*
X187580538Y-110087487D01*
X187580535Y-110087488D01*
X187336994Y-110162611D01*
X187336989Y-110162613D01*
X187107367Y-110273194D01*
X187107362Y-110273196D01*
X186896785Y-110416765D01*
X186859361Y-110451490D01*
X186776617Y-110502407D01*
X186680687Y-110517784D01*
X186586174Y-110495279D01*
X186520639Y-110451490D01*
X186483214Y-110416765D01*
X186272637Y-110273196D01*
X186272632Y-110273194D01*
X186043010Y-110162613D01*
X186043005Y-110162611D01*
X185799464Y-110087488D01*
X185799461Y-110087487D01*
X185691448Y-110071206D01*
X185547435Y-110049500D01*
X185292565Y-110049500D01*
X185166553Y-110068493D01*
X185040538Y-110087487D01*
X185040535Y-110087488D01*
X184796994Y-110162611D01*
X184796989Y-110162613D01*
X184567367Y-110273194D01*
X184567362Y-110273196D01*
X184356785Y-110416765D01*
X184319361Y-110451490D01*
X184236617Y-110502407D01*
X184140687Y-110517784D01*
X184046174Y-110495279D01*
X183980639Y-110451490D01*
X183943214Y-110416765D01*
X183732637Y-110273196D01*
X183732632Y-110273194D01*
X183503010Y-110162613D01*
X183503005Y-110162611D01*
X183259464Y-110087488D01*
X183259461Y-110087487D01*
X183151448Y-110071206D01*
X183007435Y-110049500D01*
X182752565Y-110049500D01*
X182626553Y-110068493D01*
X182500538Y-110087487D01*
X182500535Y-110087488D01*
X182256994Y-110162611D01*
X182256989Y-110162613D01*
X182027367Y-110273194D01*
X182027362Y-110273196D01*
X181816785Y-110416765D01*
X181629945Y-110590127D01*
X181497867Y-110755749D01*
X181423637Y-110818431D01*
X181331070Y-110847934D01*
X181303191Y-110849500D01*
X180440465Y-110849500D01*
X180401512Y-110846434D01*
X180400244Y-110846233D01*
X180397386Y-110845780D01*
X180397385Y-110845780D01*
X180329671Y-110849329D01*
X180323154Y-110849500D01*
X180302803Y-110849500D01*
X180282564Y-110851626D01*
X180276077Y-110852136D01*
X180208353Y-110855686D01*
X180204303Y-110856772D01*
X180165915Y-110863886D01*
X180161755Y-110864323D01*
X180161743Y-110864325D01*
X180097251Y-110885280D01*
X180091005Y-110887130D01*
X180025517Y-110904678D01*
X180025505Y-110904682D01*
X180021778Y-110906582D01*
X179985695Y-110921528D01*
X179981721Y-110922819D01*
X179981711Y-110922823D01*
X179922992Y-110956724D01*
X179917267Y-110959832D01*
X179856852Y-110990616D01*
X179856848Y-110990618D01*
X179853603Y-110993247D01*
X179821412Y-111015371D01*
X179817791Y-111017461D01*
X179817784Y-111017466D01*
X179767384Y-111062844D01*
X179762442Y-111067066D01*
X179746630Y-111079872D01*
X179746617Y-111079883D01*
X179732231Y-111094269D01*
X179727509Y-111098750D01*
X179677111Y-111144128D01*
X179674652Y-111147513D01*
X179649283Y-111177216D01*
X174959931Y-115866570D01*
X174879149Y-115920546D01*
X174783861Y-115939500D01*
X174104732Y-115939500D01*
X174009444Y-115920546D01*
X173928662Y-115866570D01*
X173915404Y-115852227D01*
X173819759Y-115740241D01*
X173819756Y-115740238D01*
X173813404Y-115732801D01*
X173815515Y-115730997D01*
X173771611Y-115665288D01*
X173752657Y-115570000D01*
X173771611Y-115474712D01*
X173815516Y-115409002D01*
X173813405Y-115407199D01*
X173945413Y-115252637D01*
X173978259Y-115214179D01*
X173978260Y-115214176D01*
X173978264Y-115214172D01*
X174045024Y-115105228D01*
X174105777Y-115006089D01*
X174199172Y-114780612D01*
X174256146Y-114543302D01*
X174275294Y-114300000D01*
X174274684Y-114292255D01*
X174256147Y-114056708D01*
X174256145Y-114056693D01*
X174223458Y-113920546D01*
X174199172Y-113819388D01*
X174105777Y-113593911D01*
X174102613Y-113588749D01*
X173978264Y-113385827D01*
X173978257Y-113385818D01*
X173813405Y-113192801D01*
X173815516Y-113190997D01*
X173771611Y-113125288D01*
X173752657Y-113030000D01*
X173771611Y-112934712D01*
X173815516Y-112869002D01*
X173813405Y-112867199D01*
X173978257Y-112674181D01*
X173978264Y-112674172D01*
X174091190Y-112489892D01*
X174105777Y-112466089D01*
X174199172Y-112240612D01*
X174256146Y-112003302D01*
X174275294Y-111760000D01*
X174274684Y-111752255D01*
X174256147Y-111516708D01*
X174256145Y-111516693D01*
X174240291Y-111450661D01*
X174199172Y-111279388D01*
X174105777Y-111053911D01*
X174083444Y-111017467D01*
X173978264Y-110845827D01*
X173978257Y-110845818D01*
X173813405Y-110652801D01*
X173815516Y-110650997D01*
X173771611Y-110585288D01*
X173752657Y-110490000D01*
X173771611Y-110394712D01*
X173815516Y-110329002D01*
X173813405Y-110327199D01*
X173978257Y-110134181D01*
X173978264Y-110134172D01*
X174084621Y-109960612D01*
X174105777Y-109926089D01*
X174199172Y-109700612D01*
X174256146Y-109463302D01*
X174275294Y-109220000D01*
X174274684Y-109212255D01*
X174256147Y-108976708D01*
X174256145Y-108976693D01*
X174200722Y-108745845D01*
X174199172Y-108739388D01*
X174105777Y-108513911D01*
X174095631Y-108497354D01*
X174032665Y-108394602D01*
X173999038Y-108303452D01*
X174002852Y-108206372D01*
X174043527Y-108118141D01*
X174114870Y-108052193D01*
X174206020Y-108018566D01*
X174244972Y-108015500D01*
X177916839Y-108015500D01*
X177916841Y-108015500D01*
X177969151Y-108006275D01*
X177979896Y-108004861D01*
X178032793Y-108000234D01*
X178084079Y-107986491D01*
X178094678Y-107984141D01*
X178146974Y-107974921D01*
X178196866Y-107956760D01*
X178207223Y-107953495D01*
X178258513Y-107939753D01*
X178306627Y-107917315D01*
X178316670Y-107913156D01*
X178366562Y-107894998D01*
X178412546Y-107868447D01*
X178422167Y-107863438D01*
X178470300Y-107840995D01*
X178513796Y-107810537D01*
X178522951Y-107804704D01*
X178568937Y-107778156D01*
X178602066Y-107750356D01*
X178609605Y-107744031D01*
X178618228Y-107737414D01*
X178621849Y-107734877D01*
X178661722Y-107706960D01*
X178826960Y-107541722D01*
X185685252Y-100683429D01*
X185766034Y-100629454D01*
X185861322Y-100610500D01*
X186326610Y-100610500D01*
X186326616Y-100610500D01*
X186352963Y-100608105D01*
X186449571Y-100618355D01*
X186534907Y-100664797D01*
X186595975Y-100740360D01*
X186623478Y-100833541D01*
X186624500Y-100856083D01*
X186624500Y-101536262D01*
X186624026Y-101547108D01*
X186621087Y-101580698D01*
X186619399Y-101599997D01*
X186619399Y-101600005D01*
X186623974Y-101652306D01*
X186623990Y-101652470D01*
X186639764Y-101832780D01*
X186639766Y-101832795D01*
X186660395Y-101909783D01*
X186700247Y-102058513D01*
X186799005Y-102270300D01*
X186933040Y-102461722D01*
X187098278Y-102626960D01*
X187289699Y-102760995D01*
X187501487Y-102859753D01*
X187727207Y-102920234D01*
X187727210Y-102920234D01*
X187727213Y-102920235D01*
X187959994Y-102940601D01*
X187960000Y-102940601D01*
X187960002Y-102940601D01*
X187972867Y-102939475D01*
X188012892Y-102935973D01*
X188023737Y-102935500D01*
X193156839Y-102935500D01*
X193156841Y-102935500D01*
X193209151Y-102926275D01*
X193219896Y-102924861D01*
X193272793Y-102920234D01*
X193324079Y-102906491D01*
X193334678Y-102904141D01*
X193386974Y-102894921D01*
X193436866Y-102876760D01*
X193447223Y-102873495D01*
X193498513Y-102859753D01*
X193546627Y-102837315D01*
X193556670Y-102833156D01*
X193606562Y-102814998D01*
X193652546Y-102788447D01*
X193662167Y-102783438D01*
X193710300Y-102760995D01*
X193753796Y-102730537D01*
X193762951Y-102724704D01*
X193808937Y-102698156D01*
X193849605Y-102664031D01*
X193858228Y-102657414D01*
X193861849Y-102654877D01*
X193901722Y-102626960D01*
X194066960Y-102461722D01*
X194066959Y-102461722D01*
X195528676Y-101000005D01*
X199794457Y-101000005D01*
X199814611Y-101358899D01*
X199874826Y-101713297D01*
X199874829Y-101713309D01*
X199931432Y-101909783D01*
X199974341Y-102058724D01*
X200111906Y-102390833D01*
X200285789Y-102705452D01*
X200493806Y-102998623D01*
X200733339Y-103266661D01*
X201001377Y-103506194D01*
X201294548Y-103714211D01*
X201609167Y-103888094D01*
X201941276Y-104025659D01*
X202286700Y-104125173D01*
X202641093Y-104185387D01*
X202641099Y-104185387D01*
X202641103Y-104185388D01*
X202641098Y-104185388D01*
X202999995Y-104205543D01*
X203000000Y-104205543D01*
X203000005Y-104205543D01*
X203358899Y-104185388D01*
X203358903Y-104185387D01*
X203358907Y-104185387D01*
X203713300Y-104125173D01*
X204058724Y-104025659D01*
X204390833Y-103888094D01*
X204705452Y-103714211D01*
X204998623Y-103506194D01*
X205266661Y-103266661D01*
X205506194Y-102998623D01*
X205714211Y-102705452D01*
X205888094Y-102390833D01*
X206025659Y-102058724D01*
X206125173Y-101713300D01*
X206185387Y-101358907D01*
X206185387Y-101358903D01*
X206185388Y-101358899D01*
X206205543Y-101000005D01*
X206205543Y-100999994D01*
X206185388Y-100641100D01*
X206183409Y-100629454D01*
X206125173Y-100286700D01*
X206025659Y-99941276D01*
X205888094Y-99609167D01*
X205714211Y-99294548D01*
X205506194Y-99001377D01*
X205266661Y-98733339D01*
X204998623Y-98493806D01*
X204705452Y-98285789D01*
X204390833Y-98111906D01*
X204058724Y-97974341D01*
X204058720Y-97974339D01*
X204058718Y-97974339D01*
X203713309Y-97874829D01*
X203713297Y-97874826D01*
X203358896Y-97814611D01*
X203358901Y-97814611D01*
X203000005Y-97794457D01*
X202999995Y-97794457D01*
X202641100Y-97814611D01*
X202286702Y-97874826D01*
X202286690Y-97874829D01*
X201941281Y-97974339D01*
X201609166Y-98111906D01*
X201294543Y-98285792D01*
X201294540Y-98285794D01*
X201001382Y-98493802D01*
X201001375Y-98493807D01*
X200733348Y-98733330D01*
X200733330Y-98733348D01*
X200493807Y-99001375D01*
X200493802Y-99001382D01*
X200285794Y-99294540D01*
X200285792Y-99294543D01*
X200111906Y-99609166D01*
X199974339Y-99941281D01*
X199874829Y-100286690D01*
X199874826Y-100286702D01*
X199814611Y-100641100D01*
X199794457Y-100999994D01*
X199794457Y-101000005D01*
X195528676Y-101000005D01*
X199105568Y-97423114D01*
X199146960Y-97381722D01*
X199177413Y-97338228D01*
X199184031Y-97329605D01*
X199190356Y-97322066D01*
X199218156Y-97288937D01*
X199244704Y-97242951D01*
X199250539Y-97233794D01*
X199280995Y-97190300D01*
X199303438Y-97142167D01*
X199308447Y-97132546D01*
X199334998Y-97086562D01*
X199353157Y-97036667D01*
X199357316Y-97026627D01*
X199379753Y-96978513D01*
X199393495Y-96927223D01*
X199396760Y-96916870D01*
X199414921Y-96866974D01*
X199424140Y-96814685D01*
X199426493Y-96804071D01*
X199440232Y-96752799D01*
X199440234Y-96752793D01*
X199444861Y-96699896D01*
X199446275Y-96689151D01*
X199455500Y-96636841D01*
X199455500Y-96403159D01*
X199455500Y-84959855D01*
X199474454Y-84864567D01*
X199509826Y-84804604D01*
X199528953Y-84780619D01*
X199528959Y-84780612D01*
X199656393Y-84559888D01*
X199749508Y-84322637D01*
X199806222Y-84074157D01*
X199825268Y-83820000D01*
X199806222Y-83565843D01*
X199749508Y-83317363D01*
X199656393Y-83080112D01*
X199528959Y-82859388D01*
X199495609Y-82817568D01*
X199370054Y-82660127D01*
X199183214Y-82486765D01*
X198972637Y-82343196D01*
X198972632Y-82343194D01*
X198743010Y-82232613D01*
X198743005Y-82232611D01*
X198499464Y-82157488D01*
X198499461Y-82157487D01*
X198379175Y-82139357D01*
X198247435Y-82119500D01*
X197992565Y-82119500D01*
X197873357Y-82137468D01*
X197740538Y-82157487D01*
X197740535Y-82157488D01*
X197496994Y-82232611D01*
X197496989Y-82232613D01*
X197267367Y-82343194D01*
X197267362Y-82343196D01*
X197056785Y-82486765D01*
X196869945Y-82660127D01*
X196711045Y-82859382D01*
X196711041Y-82859388D01*
X196583609Y-83080107D01*
X196583600Y-83080127D01*
X196490495Y-83317354D01*
X196490489Y-83317370D01*
X196433777Y-83565845D01*
X196414732Y-83820000D01*
X196433777Y-84074154D01*
X196490489Y-84322629D01*
X196490495Y-84322645D01*
X196583600Y-84559872D01*
X196583605Y-84559884D01*
X196583607Y-84559888D01*
X196711041Y-84780612D01*
X196711043Y-84780615D01*
X196711046Y-84780619D01*
X196730174Y-84804604D01*
X196774768Y-84890920D01*
X196784500Y-84959855D01*
X196784500Y-95863678D01*
X196765546Y-95958966D01*
X196711570Y-96039748D01*
X192559748Y-100191570D01*
X192478966Y-100245546D01*
X192383678Y-100264500D01*
X192024972Y-100264500D01*
X191929684Y-100245546D01*
X191848902Y-100191570D01*
X191794926Y-100110788D01*
X191775972Y-100015500D01*
X191794926Y-99920212D01*
X191812665Y-99885398D01*
X191853369Y-99818973D01*
X191885777Y-99766089D01*
X191979172Y-99540612D01*
X192036146Y-99303302D01*
X192055294Y-99060000D01*
X192050680Y-99001377D01*
X192036147Y-98816708D01*
X192036145Y-98816693D01*
X191997936Y-98657545D01*
X191979172Y-98579388D01*
X191885777Y-98353911D01*
X191844032Y-98285789D01*
X191758264Y-98145827D01*
X191758257Y-98145818D01*
X191599767Y-97960250D01*
X191599764Y-97960247D01*
X191599759Y-97960241D01*
X191599752Y-97960235D01*
X191599749Y-97960232D01*
X191414181Y-97801742D01*
X191414172Y-97801735D01*
X191206101Y-97674230D01*
X191206085Y-97674221D01*
X190980613Y-97580828D01*
X190743306Y-97523854D01*
X190743291Y-97523852D01*
X190500006Y-97504706D01*
X190499994Y-97504706D01*
X190256708Y-97523852D01*
X190256693Y-97523854D01*
X190019386Y-97580828D01*
X189793914Y-97674221D01*
X189793898Y-97674230D01*
X189585827Y-97801735D01*
X189585818Y-97801742D01*
X189392801Y-97966595D01*
X189390997Y-97964483D01*
X189325288Y-98008389D01*
X189230000Y-98027343D01*
X189134712Y-98008389D01*
X189069002Y-97964483D01*
X189067199Y-97966595D01*
X188874181Y-97801742D01*
X188874172Y-97801735D01*
X188666101Y-97674230D01*
X188666085Y-97674221D01*
X188440613Y-97580828D01*
X188203306Y-97523854D01*
X188203291Y-97523852D01*
X187960006Y-97504706D01*
X187959994Y-97504706D01*
X187716708Y-97523852D01*
X187716693Y-97523854D01*
X187479386Y-97580828D01*
X187253914Y-97674221D01*
X187253907Y-97674225D01*
X187093260Y-97772670D01*
X187002110Y-97806296D01*
X186905030Y-97802482D01*
X186816799Y-97761807D01*
X186787094Y-97736437D01*
X186705185Y-97654528D01*
X186683723Y-97641553D01*
X186559608Y-97566522D01*
X186397196Y-97515914D01*
X186397188Y-97515912D01*
X186326630Y-97509500D01*
X186326616Y-97509500D01*
X184513384Y-97509500D01*
X184513369Y-97509500D01*
X184442811Y-97515912D01*
X184442803Y-97515914D01*
X184280391Y-97566522D01*
X184134816Y-97654527D01*
X184014527Y-97774816D01*
X183926522Y-97920391D01*
X183875914Y-98082803D01*
X183875912Y-98082811D01*
X183869500Y-98153369D01*
X183869500Y-98618678D01*
X183850546Y-98713966D01*
X183796570Y-98794748D01*
X177319748Y-105271570D01*
X177238966Y-105325546D01*
X177143678Y-105344500D01*
X174178296Y-105344500D01*
X174083008Y-105325546D01*
X174018249Y-105282276D01*
X174017042Y-105283817D01*
X174005187Y-105274529D01*
X173859608Y-105186522D01*
X173697196Y-105135914D01*
X173697188Y-105135912D01*
X173626630Y-105129500D01*
X173626616Y-105129500D01*
X171813384Y-105129500D01*
X171813369Y-105129500D01*
X171742811Y-105135912D01*
X171742799Y-105135915D01*
X171733946Y-105138674D01*
X171637334Y-105148925D01*
X171544152Y-105121423D01*
X171468589Y-105060356D01*
X171422146Y-104975020D01*
X171411895Y-104878408D01*
X171439397Y-104785226D01*
X171483800Y-104724880D01*
X183464882Y-92743799D01*
X183545659Y-92689827D01*
X183640947Y-92670873D01*
X183736235Y-92689827D01*
X183817017Y-92743803D01*
X183870993Y-92824585D01*
X183889947Y-92919873D01*
X183878674Y-92993946D01*
X183875915Y-93002799D01*
X183875912Y-93002811D01*
X183869500Y-93073369D01*
X183869499Y-93073390D01*
X183869499Y-94886609D01*
X183869500Y-94886630D01*
X183875912Y-94957188D01*
X183875914Y-94957196D01*
X183926522Y-95119608D01*
X183993643Y-95230637D01*
X184014528Y-95265185D01*
X184134815Y-95385472D01*
X184196873Y-95422987D01*
X184280391Y-95473477D01*
X184280393Y-95473477D01*
X184280394Y-95473478D01*
X184442804Y-95524086D01*
X184442808Y-95524086D01*
X184442811Y-95524087D01*
X184513369Y-95530499D01*
X184513377Y-95530499D01*
X184513384Y-95530500D01*
X184513390Y-95530500D01*
X186326610Y-95530500D01*
X186326616Y-95530500D01*
X186326623Y-95530499D01*
X186326630Y-95530499D01*
X186397188Y-95524087D01*
X186397189Y-95524086D01*
X186397196Y-95524086D01*
X186559606Y-95473478D01*
X186705185Y-95385472D01*
X186787093Y-95303563D01*
X186867869Y-95249592D01*
X186963157Y-95230637D01*
X187058445Y-95249590D01*
X187093257Y-95267328D01*
X187253911Y-95365777D01*
X187479388Y-95459172D01*
X187650661Y-95500291D01*
X187716693Y-95516145D01*
X187716694Y-95516145D01*
X187716698Y-95516146D01*
X187716704Y-95516146D01*
X187716708Y-95516147D01*
X187959994Y-95535294D01*
X187960000Y-95535294D01*
X187960006Y-95535294D01*
X188203291Y-95516147D01*
X188203293Y-95516146D01*
X188203302Y-95516146D01*
X188440612Y-95459172D01*
X188666089Y-95365777D01*
X188826740Y-95267330D01*
X188874172Y-95238264D01*
X188874176Y-95238260D01*
X188874179Y-95238259D01*
X189059759Y-95079759D01*
X189067199Y-95073405D01*
X189069002Y-95075516D01*
X189134712Y-95031611D01*
X189230000Y-95012657D01*
X189325288Y-95031611D01*
X189390997Y-95075516D01*
X189392801Y-95073405D01*
X189585818Y-95238257D01*
X189585827Y-95238264D01*
X189788749Y-95362613D01*
X189793911Y-95365777D01*
X190019388Y-95459172D01*
X190190661Y-95500291D01*
X190256693Y-95516145D01*
X190256694Y-95516145D01*
X190256698Y-95516146D01*
X190256704Y-95516146D01*
X190256708Y-95516147D01*
X190499994Y-95535294D01*
X190500000Y-95535294D01*
X190500006Y-95535294D01*
X190743291Y-95516147D01*
X190743293Y-95516146D01*
X190743302Y-95516146D01*
X190980612Y-95459172D01*
X191206089Y-95365777D01*
X191366740Y-95267330D01*
X191414172Y-95238264D01*
X191414176Y-95238260D01*
X191414179Y-95238259D01*
X191599759Y-95079759D01*
X191758259Y-94894179D01*
X191758260Y-94894176D01*
X191758264Y-94894172D01*
X191825024Y-94785228D01*
X191885777Y-94686089D01*
X191979172Y-94460612D01*
X192036146Y-94223302D01*
X192055294Y-93980000D01*
X192036146Y-93736698D01*
X191979172Y-93499388D01*
X191885777Y-93273911D01*
X191882613Y-93268749D01*
X191758264Y-93065827D01*
X191758257Y-93065818D01*
X191599767Y-92880250D01*
X191599764Y-92880247D01*
X191599759Y-92880241D01*
X191599752Y-92880235D01*
X191599749Y-92880232D01*
X191414181Y-92721742D01*
X191414172Y-92721735D01*
X191206101Y-92594230D01*
X191206085Y-92594221D01*
X190980613Y-92500828D01*
X190743306Y-92443854D01*
X190743291Y-92443852D01*
X190500006Y-92424706D01*
X190499994Y-92424706D01*
X190256708Y-92443852D01*
X190256693Y-92443854D01*
X190019386Y-92500828D01*
X189793914Y-92594221D01*
X189793898Y-92594230D01*
X189585827Y-92721735D01*
X189585818Y-92721742D01*
X189392801Y-92886595D01*
X189390997Y-92884483D01*
X189325288Y-92928389D01*
X189230000Y-92947343D01*
X189134712Y-92928389D01*
X189069002Y-92884483D01*
X189067199Y-92886595D01*
X188874181Y-92721742D01*
X188874172Y-92721735D01*
X188666101Y-92594230D01*
X188666085Y-92594221D01*
X188440613Y-92500828D01*
X188203306Y-92443854D01*
X188203291Y-92443852D01*
X187960006Y-92424706D01*
X187959994Y-92424706D01*
X187716708Y-92443852D01*
X187716693Y-92443854D01*
X187479386Y-92500828D01*
X187253914Y-92594221D01*
X187253907Y-92594225D01*
X187093260Y-92692670D01*
X187002110Y-92726296D01*
X186905030Y-92722482D01*
X186816799Y-92681807D01*
X186787094Y-92656437D01*
X186705185Y-92574528D01*
X186683723Y-92561553D01*
X186559608Y-92486522D01*
X186397196Y-92435914D01*
X186397188Y-92435912D01*
X186326630Y-92429500D01*
X186326616Y-92429500D01*
X184513384Y-92429500D01*
X184513369Y-92429500D01*
X184442811Y-92435912D01*
X184442799Y-92435915D01*
X184433946Y-92438674D01*
X184337334Y-92448925D01*
X184244152Y-92421423D01*
X184168589Y-92360356D01*
X184122146Y-92275020D01*
X184111895Y-92178408D01*
X184139397Y-92085226D01*
X184183797Y-92024884D01*
X186405568Y-89803114D01*
X186405568Y-89803113D01*
X186446960Y-89761722D01*
X186477421Y-89718217D01*
X186484031Y-89709604D01*
X186518156Y-89668937D01*
X186544703Y-89622954D01*
X186550532Y-89613803D01*
X186580995Y-89570300D01*
X186603444Y-89522154D01*
X186608447Y-89512545D01*
X186634997Y-89466562D01*
X186653153Y-89416677D01*
X186657312Y-89406636D01*
X186679753Y-89358513D01*
X186693495Y-89307221D01*
X186696757Y-89296876D01*
X186714921Y-89246974D01*
X186724141Y-89194678D01*
X186726493Y-89184071D01*
X186740027Y-89133567D01*
X186740234Y-89132793D01*
X186744861Y-89079896D01*
X186746275Y-89069151D01*
X186755500Y-89016841D01*
X186755500Y-88783159D01*
X186755500Y-88783158D01*
X186755500Y-74402993D01*
X186774454Y-74307706D01*
X186776472Y-74302972D01*
X186844063Y-74148881D01*
X186905108Y-73907821D01*
X186925643Y-73660000D01*
X186905108Y-73412179D01*
X186844063Y-73171119D01*
X186744173Y-72943393D01*
X186652141Y-72802527D01*
X186608169Y-72735221D01*
X186608163Y-72735214D01*
X186439751Y-72552269D01*
X186439746Y-72552264D01*
X186439744Y-72552262D01*
X186409125Y-72528430D01*
X186243514Y-72399529D01*
X186243510Y-72399526D01*
X186243509Y-72399526D01*
X186166502Y-72357852D01*
X186024811Y-72281172D01*
X185789621Y-72200430D01*
X185789610Y-72200428D01*
X185544335Y-72159500D01*
X185295665Y-72159500D01*
X185050389Y-72200428D01*
X185050378Y-72200430D01*
X184815188Y-72281172D01*
X184596485Y-72399529D01*
X184400261Y-72552257D01*
X184400254Y-72552264D01*
X184333195Y-72625110D01*
X184254713Y-72682378D01*
X184160289Y-72705253D01*
X184064299Y-72690253D01*
X183981356Y-72639661D01*
X183966805Y-72625110D01*
X183899750Y-72552269D01*
X183899744Y-72552262D01*
X183869125Y-72528430D01*
X183703512Y-72399527D01*
X183484816Y-72281174D01*
X183394700Y-72250237D01*
X183310729Y-72201370D01*
X183299481Y-72190799D01*
X181278135Y-70169453D01*
X181278130Y-70169446D01*
X181201722Y-70093039D01*
X181201718Y-70093037D01*
X181158221Y-70062580D01*
X181149610Y-70055972D01*
X181108937Y-70021844D01*
X181062948Y-69995292D01*
X181053798Y-69989463D01*
X181010300Y-69959005D01*
X181010297Y-69959003D01*
X181010291Y-69959000D01*
X180962181Y-69936566D01*
X180952542Y-69931549D01*
X180906565Y-69905003D01*
X180906560Y-69905001D01*
X180856665Y-69886841D01*
X180846625Y-69882682D01*
X180798517Y-69860249D01*
X180798517Y-69860248D01*
X180747228Y-69846505D01*
X180736868Y-69843238D01*
X180686971Y-69825078D01*
X180634681Y-69815857D01*
X180624077Y-69813506D01*
X180581618Y-69802130D01*
X180572793Y-69799766D01*
X180572791Y-69799765D01*
X180572788Y-69799765D01*
X180519910Y-69795139D01*
X180509139Y-69793721D01*
X180468120Y-69786488D01*
X180456841Y-69784500D01*
X180456840Y-69784500D01*
X172783737Y-69784500D01*
X172772892Y-69784026D01*
X172732867Y-69780524D01*
X172720002Y-69779399D01*
X172719997Y-69779399D01*
X172676272Y-69783224D01*
X172661696Y-69784500D01*
X172487207Y-69799766D01*
X172487204Y-69799766D01*
X172261489Y-69860246D01*
X172261486Y-69860247D01*
X172261487Y-69860247D01*
X172102747Y-69934269D01*
X172049698Y-69959006D01*
X171858279Y-70093039D01*
X171693039Y-70258279D01*
X171559004Y-70449701D01*
X171460246Y-70661489D01*
X171399764Y-70887213D01*
X171379399Y-71119994D01*
X171379399Y-71120000D01*
X171384026Y-71172891D01*
X171384500Y-71183736D01*
X171384500Y-76316839D01*
X171393721Y-76369139D01*
X171395139Y-76379910D01*
X171399765Y-76432788D01*
X171399766Y-76432792D01*
X171413506Y-76484077D01*
X171415857Y-76494681D01*
X171425078Y-76546971D01*
X171443238Y-76596868D01*
X171446505Y-76607228D01*
X171460247Y-76658513D01*
X171460249Y-76658517D01*
X171482682Y-76706625D01*
X171486841Y-76716665D01*
X171505001Y-76766560D01*
X171505003Y-76766565D01*
X171531549Y-76812542D01*
X171536566Y-76822181D01*
X171559000Y-76870291D01*
X171559003Y-76870296D01*
X171559005Y-76870300D01*
X171589463Y-76913798D01*
X171595292Y-76922948D01*
X171617464Y-76961351D01*
X171621845Y-76968939D01*
X171621847Y-76968941D01*
X171655966Y-77009602D01*
X171662579Y-77018221D01*
X171693037Y-77061718D01*
X171693040Y-77061722D01*
X171734431Y-77103114D01*
X171734432Y-77103114D01*
X176325748Y-81694430D01*
X176379724Y-81775212D01*
X176398678Y-81870500D01*
X176379724Y-81965788D01*
X176325748Y-82046570D01*
X176244966Y-82100546D01*
X176149678Y-82119500D01*
X175992565Y-82119500D01*
X175873357Y-82137468D01*
X175740538Y-82157487D01*
X175740535Y-82157488D01*
X175496994Y-82232611D01*
X175496989Y-82232613D01*
X175267367Y-82343194D01*
X175267362Y-82343196D01*
X175056785Y-82486765D01*
X174869945Y-82660127D01*
X174711045Y-82859382D01*
X174711041Y-82859388D01*
X174583609Y-83080107D01*
X174583600Y-83080127D01*
X174490495Y-83317354D01*
X174490490Y-83317368D01*
X174434452Y-83562889D01*
X174394770Y-83651570D01*
X174367765Y-83683551D01*
X172242248Y-85809070D01*
X172161466Y-85863046D01*
X172066178Y-85882000D01*
X169059196Y-85882000D01*
X168963908Y-85863046D01*
X168918929Y-85838733D01*
X168775137Y-85740696D01*
X168775132Y-85740694D01*
X168545510Y-85630113D01*
X168545505Y-85630111D01*
X168301964Y-85554988D01*
X168301961Y-85554987D01*
X168193948Y-85538706D01*
X168049935Y-85517000D01*
X167795065Y-85517000D01*
X167669053Y-85535993D01*
X167543038Y-85554987D01*
X167543035Y-85554988D01*
X167299494Y-85630111D01*
X167299489Y-85630113D01*
X167069867Y-85740694D01*
X167069862Y-85740696D01*
X166859285Y-85884265D01*
X166672445Y-86057627D01*
X166513545Y-86256882D01*
X166513541Y-86256888D01*
X166386109Y-86477607D01*
X166386100Y-86477627D01*
X166292995Y-86714854D01*
X166292989Y-86714870D01*
X166236277Y-86963345D01*
X166217232Y-87217500D01*
X166236277Y-87471654D01*
X166292989Y-87720129D01*
X166292995Y-87720145D01*
X166386100Y-87957372D01*
X166386109Y-87957392D01*
X166426501Y-88027353D01*
X166513541Y-88178112D01*
X166513545Y-88178117D01*
X166672445Y-88377372D01*
X166672448Y-88377375D01*
X166672450Y-88377377D01*
X166731857Y-88432498D01*
X166859285Y-88550734D01*
X167069862Y-88694303D01*
X167069864Y-88694304D01*
X167069866Y-88694305D01*
X167131510Y-88723991D01*
X167299489Y-88804886D01*
X167299493Y-88804887D01*
X167299496Y-88804889D01*
X167417382Y-88841252D01*
X167543035Y-88880011D01*
X167543038Y-88880012D01*
X167543039Y-88880012D01*
X167543042Y-88880013D01*
X167795065Y-88918000D01*
X167795069Y-88918000D01*
X168049931Y-88918000D01*
X168049935Y-88918000D01*
X168301958Y-88880013D01*
X168545504Y-88804889D01*
X168775134Y-88694305D01*
X168918929Y-88596266D01*
X169008336Y-88558250D01*
X169059196Y-88553000D01*
X172839339Y-88553000D01*
X172839341Y-88553000D01*
X172891651Y-88543775D01*
X172902396Y-88542361D01*
X172955293Y-88537734D01*
X173006579Y-88523991D01*
X173017178Y-88521641D01*
X173069474Y-88512421D01*
X173097981Y-88502044D01*
X173194005Y-88487263D01*
X173288376Y-88510353D01*
X173366728Y-88567799D01*
X173417131Y-88650857D01*
X173431913Y-88746881D01*
X173408823Y-88841252D01*
X173359220Y-88912096D01*
X170246440Y-92024877D01*
X161698278Y-100573039D01*
X161698278Y-100573040D01*
X161698277Y-100573039D01*
X161533039Y-100738278D01*
X161533036Y-100738281D01*
X161502583Y-100781772D01*
X161495972Y-100790388D01*
X161461848Y-100831056D01*
X161461841Y-100831067D01*
X161435297Y-100877042D01*
X161429461Y-100886202D01*
X161399007Y-100929696D01*
X161399002Y-100929704D01*
X161376566Y-100977820D01*
X161371549Y-100987456D01*
X161345002Y-101033437D01*
X161345001Y-101033439D01*
X161326840Y-101083334D01*
X161322684Y-101093368D01*
X161300247Y-101141485D01*
X161286506Y-101192767D01*
X161283240Y-101203124D01*
X161265079Y-101253023D01*
X161265078Y-101253027D01*
X161255857Y-101305320D01*
X161253506Y-101315925D01*
X161239767Y-101367199D01*
X161239765Y-101367211D01*
X161235139Y-101420090D01*
X161233721Y-101430861D01*
X161224500Y-101483156D01*
X161224500Y-106796839D01*
X161233721Y-106849139D01*
X161235139Y-106859910D01*
X161239765Y-106912788D01*
X161239766Y-106912792D01*
X161253506Y-106964077D01*
X161255857Y-106974681D01*
X161265078Y-107026971D01*
X161283238Y-107076868D01*
X161286505Y-107087228D01*
X161300247Y-107138513D01*
X161300249Y-107138517D01*
X161322682Y-107186625D01*
X161326841Y-107196665D01*
X161345001Y-107246560D01*
X161345004Y-107246566D01*
X161371546Y-107292538D01*
X161376559Y-107302166D01*
X161379381Y-107308216D01*
X161402483Y-107402585D01*
X161387713Y-107498610D01*
X161337320Y-107581674D01*
X161258976Y-107639131D01*
X161164607Y-107662233D01*
X161068582Y-107647463D01*
X161013454Y-107619204D01*
X160872637Y-107523196D01*
X160872632Y-107523194D01*
X160643010Y-107412613D01*
X160643005Y-107412611D01*
X160399464Y-107337488D01*
X160399461Y-107337487D01*
X160291448Y-107321206D01*
X160147435Y-107299500D01*
X159892565Y-107299500D01*
X159766553Y-107318493D01*
X159640538Y-107337487D01*
X159640535Y-107337488D01*
X159396994Y-107412611D01*
X159396989Y-107412613D01*
X159167367Y-107523194D01*
X159167362Y-107523196D01*
X158956785Y-107666765D01*
X158919361Y-107701490D01*
X158836617Y-107752407D01*
X158740687Y-107767784D01*
X158646174Y-107745279D01*
X158580639Y-107701490D01*
X158543214Y-107666765D01*
X158332637Y-107523196D01*
X158332632Y-107523194D01*
X158103010Y-107412613D01*
X158103005Y-107412611D01*
X157859464Y-107337488D01*
X157859461Y-107337487D01*
X157751448Y-107321206D01*
X157607435Y-107299500D01*
X157352565Y-107299500D01*
X157226553Y-107318493D01*
X157100538Y-107337487D01*
X157100535Y-107337488D01*
X156856994Y-107412611D01*
X156856989Y-107412613D01*
X156627367Y-107523194D01*
X156627362Y-107523196D01*
X156416785Y-107666765D01*
X156379361Y-107701490D01*
X156296617Y-107752407D01*
X156200687Y-107767784D01*
X156106174Y-107745279D01*
X156040639Y-107701490D01*
X156003214Y-107666765D01*
X155792637Y-107523196D01*
X155792632Y-107523194D01*
X155563010Y-107412613D01*
X155563005Y-107412611D01*
X155319464Y-107337488D01*
X155319461Y-107337487D01*
X155211448Y-107321206D01*
X155067435Y-107299500D01*
X154812565Y-107299500D01*
X154686553Y-107318493D01*
X154560538Y-107337487D01*
X154560535Y-107337488D01*
X154316994Y-107412611D01*
X154316989Y-107412613D01*
X154087367Y-107523194D01*
X154087362Y-107523196D01*
X153876785Y-107666765D01*
X153839361Y-107701490D01*
X153756617Y-107752407D01*
X153660687Y-107767784D01*
X153566174Y-107745279D01*
X153500639Y-107701490D01*
X153463214Y-107666765D01*
X153252637Y-107523196D01*
X153252632Y-107523194D01*
X153023010Y-107412613D01*
X153023005Y-107412611D01*
X152779464Y-107337488D01*
X152779461Y-107337487D01*
X152671448Y-107321206D01*
X152527435Y-107299500D01*
X152272565Y-107299500D01*
X152146553Y-107318493D01*
X152020538Y-107337487D01*
X152020535Y-107337488D01*
X151776994Y-107412611D01*
X151776989Y-107412613D01*
X151547367Y-107523194D01*
X151547362Y-107523196D01*
X151336785Y-107666765D01*
X151299361Y-107701490D01*
X151216617Y-107752407D01*
X151120687Y-107767784D01*
X151026174Y-107745279D01*
X150960639Y-107701490D01*
X150923214Y-107666765D01*
X150712637Y-107523196D01*
X150712632Y-107523194D01*
X150483010Y-107412613D01*
X150483005Y-107412611D01*
X150239464Y-107337488D01*
X150239461Y-107337487D01*
X150131448Y-107321206D01*
X149987435Y-107299500D01*
X149732565Y-107299500D01*
X149606553Y-107318493D01*
X149480538Y-107337487D01*
X149480535Y-107337488D01*
X149236994Y-107412611D01*
X149236989Y-107412613D01*
X149007367Y-107523194D01*
X149007362Y-107523196D01*
X148796785Y-107666765D01*
X148759361Y-107701490D01*
X148676617Y-107752407D01*
X148580687Y-107767784D01*
X148486174Y-107745279D01*
X148420639Y-107701490D01*
X148383214Y-107666765D01*
X148172637Y-107523196D01*
X148172632Y-107523194D01*
X147943010Y-107412613D01*
X147943005Y-107412611D01*
X147699464Y-107337488D01*
X147699461Y-107337487D01*
X147591448Y-107321206D01*
X147447435Y-107299500D01*
X147192565Y-107299500D01*
X147066553Y-107318493D01*
X146940538Y-107337487D01*
X146940535Y-107337488D01*
X146696994Y-107412611D01*
X146696989Y-107412613D01*
X146467367Y-107523194D01*
X146467362Y-107523196D01*
X146256785Y-107666765D01*
X146069945Y-107840127D01*
X145911045Y-108039382D01*
X145911041Y-108039388D01*
X145783609Y-108260107D01*
X145783600Y-108260127D01*
X145690495Y-108497354D01*
X145690489Y-108497370D01*
X145633777Y-108745845D01*
X145614732Y-109000000D01*
X145633777Y-109254154D01*
X145690489Y-109502629D01*
X145690495Y-109502645D01*
X145783600Y-109739872D01*
X145783605Y-109739884D01*
X145783607Y-109739888D01*
X145911041Y-109960612D01*
X145911045Y-109960617D01*
X146069945Y-110159872D01*
X146069948Y-110159875D01*
X146069950Y-110159877D01*
X146147912Y-110232215D01*
X146256785Y-110333234D01*
X146467362Y-110476803D01*
X146467364Y-110476804D01*
X146467366Y-110476805D01*
X146597064Y-110539264D01*
X146696989Y-110587386D01*
X146696993Y-110587387D01*
X146696996Y-110587389D01*
X146803169Y-110620139D01*
X146940535Y-110662511D01*
X146940538Y-110662512D01*
X146940539Y-110662512D01*
X146940542Y-110662513D01*
X147192565Y-110700500D01*
X147192569Y-110700500D01*
X147447431Y-110700500D01*
X147447435Y-110700500D01*
X147699458Y-110662513D01*
X147943004Y-110587389D01*
X148172634Y-110476805D01*
X148383217Y-110333232D01*
X148420638Y-110298510D01*
X148503380Y-110247593D01*
X148599310Y-110232215D01*
X148693823Y-110254719D01*
X148759363Y-110298511D01*
X148796785Y-110333234D01*
X149007362Y-110476803D01*
X149007364Y-110476804D01*
X149007366Y-110476805D01*
X149137064Y-110539264D01*
X149236989Y-110587386D01*
X149236993Y-110587387D01*
X149236996Y-110587389D01*
X149343169Y-110620139D01*
X149480535Y-110662511D01*
X149480538Y-110662512D01*
X149480539Y-110662512D01*
X149480542Y-110662513D01*
X149732565Y-110700500D01*
X149732569Y-110700500D01*
X149987431Y-110700500D01*
X149987435Y-110700500D01*
X150239458Y-110662513D01*
X150483004Y-110587389D01*
X150712634Y-110476805D01*
X150923217Y-110333232D01*
X150960638Y-110298510D01*
X151043380Y-110247593D01*
X151139310Y-110232215D01*
X151233823Y-110254719D01*
X151299363Y-110298511D01*
X151336785Y-110333234D01*
X151547362Y-110476803D01*
X151547364Y-110476804D01*
X151547366Y-110476805D01*
X151677064Y-110539264D01*
X151776989Y-110587386D01*
X151776993Y-110587387D01*
X151776996Y-110587389D01*
X151883169Y-110620139D01*
X152020535Y-110662511D01*
X152020538Y-110662512D01*
X152020539Y-110662512D01*
X152020542Y-110662513D01*
X152272565Y-110700500D01*
X152272569Y-110700500D01*
X152527431Y-110700500D01*
X152527435Y-110700500D01*
X152779458Y-110662513D01*
X153023004Y-110587389D01*
X153252634Y-110476805D01*
X153463217Y-110333232D01*
X153500638Y-110298510D01*
X153583380Y-110247593D01*
X153679310Y-110232215D01*
X153773823Y-110254719D01*
X153839363Y-110298511D01*
X153876785Y-110333234D01*
X154087362Y-110476803D01*
X154087364Y-110476804D01*
X154087366Y-110476805D01*
X154217064Y-110539264D01*
X154316989Y-110587386D01*
X154316993Y-110587387D01*
X154316996Y-110587389D01*
X154423169Y-110620139D01*
X154560535Y-110662511D01*
X154560538Y-110662512D01*
X154560539Y-110662512D01*
X154560542Y-110662513D01*
X154812565Y-110700500D01*
X154812569Y-110700500D01*
X155067431Y-110700500D01*
X155067435Y-110700500D01*
X155319458Y-110662513D01*
X155563004Y-110587389D01*
X155792634Y-110476805D01*
X156003217Y-110333232D01*
X156040638Y-110298510D01*
X156123380Y-110247593D01*
X156219310Y-110232215D01*
X156313823Y-110254719D01*
X156379363Y-110298511D01*
X156416785Y-110333234D01*
X156627362Y-110476803D01*
X156627364Y-110476804D01*
X156627366Y-110476805D01*
X156757064Y-110539264D01*
X156856989Y-110587386D01*
X156856993Y-110587387D01*
X156856996Y-110587389D01*
X156963169Y-110620139D01*
X157100535Y-110662511D01*
X157100538Y-110662512D01*
X157100539Y-110662512D01*
X157100542Y-110662513D01*
X157352565Y-110700500D01*
X157352569Y-110700500D01*
X157607431Y-110700500D01*
X157607435Y-110700500D01*
X157859458Y-110662513D01*
X158103004Y-110587389D01*
X158332634Y-110476805D01*
X158543217Y-110333232D01*
X158580638Y-110298510D01*
X158663380Y-110247593D01*
X158759310Y-110232215D01*
X158853823Y-110254719D01*
X158919363Y-110298511D01*
X158956785Y-110333234D01*
X159167362Y-110476803D01*
X159167364Y-110476804D01*
X159167366Y-110476805D01*
X159297064Y-110539264D01*
X159396989Y-110587386D01*
X159396993Y-110587387D01*
X159396996Y-110587389D01*
X159503169Y-110620139D01*
X159640535Y-110662511D01*
X159640538Y-110662512D01*
X159640539Y-110662512D01*
X159640542Y-110662513D01*
X159892565Y-110700500D01*
X159892569Y-110700500D01*
X160147431Y-110700500D01*
X160147435Y-110700500D01*
X160399458Y-110662513D01*
X160643004Y-110587389D01*
X160872634Y-110476805D01*
X161083217Y-110333232D01*
X161270050Y-110159877D01*
X161428959Y-109960612D01*
X161556393Y-109739888D01*
X161649508Y-109502637D01*
X161658489Y-109463291D01*
X161661003Y-109452270D01*
X161706222Y-109254157D01*
X161725268Y-109000000D01*
X161706222Y-108745843D01*
X161653284Y-108513907D01*
X161649510Y-108497370D01*
X161649508Y-108497367D01*
X161649508Y-108497363D01*
X161556393Y-108260112D01*
X161556390Y-108260107D01*
X161556388Y-108260102D01*
X161552629Y-108253592D01*
X161521398Y-108161594D01*
X161527750Y-108064647D01*
X161570720Y-107977510D01*
X161643764Y-107913451D01*
X161735762Y-107882220D01*
X161832709Y-107888572D01*
X161919846Y-107931542D01*
X161944337Y-107953019D01*
X166613040Y-112621722D01*
X166613039Y-112621722D01*
X166778277Y-112786959D01*
X166821771Y-112817414D01*
X166830383Y-112824021D01*
X166871063Y-112858156D01*
X166917041Y-112884701D01*
X166926203Y-112890538D01*
X166969700Y-112920995D01*
X167009860Y-112939721D01*
X167017811Y-112943429D01*
X167027453Y-112948448D01*
X167039734Y-112955538D01*
X167073438Y-112974998D01*
X167073442Y-112974999D01*
X167073443Y-112975000D01*
X167123340Y-112993160D01*
X167133362Y-112997311D01*
X167181487Y-113019753D01*
X167232780Y-113033496D01*
X167243114Y-113036754D01*
X167293026Y-113054921D01*
X167345322Y-113064141D01*
X167355926Y-113066493D01*
X167407207Y-113080234D01*
X167460105Y-113084861D01*
X167470844Y-113086274D01*
X167515803Y-113094202D01*
X167523152Y-113095499D01*
X167523155Y-113095499D01*
X167523159Y-113095500D01*
X167581696Y-113095500D01*
X167595028Y-113095500D01*
X167690316Y-113114454D01*
X167771098Y-113168430D01*
X167825074Y-113249212D01*
X167844028Y-113344500D01*
X167825074Y-113439788D01*
X167807335Y-113474602D01*
X167734230Y-113593898D01*
X167734221Y-113593914D01*
X167654745Y-113785788D01*
X167600768Y-113866570D01*
X167519987Y-113920546D01*
X167424699Y-113939500D01*
X166851204Y-113939500D01*
X166755916Y-113920546D01*
X166675134Y-113866570D01*
X166621158Y-113785788D01*
X166613478Y-113764578D01*
X166593478Y-113700394D01*
X166505472Y-113554815D01*
X166385185Y-113434528D01*
X166348768Y-113412513D01*
X166239608Y-113346522D01*
X166077196Y-113295914D01*
X166077188Y-113295912D01*
X166006630Y-113289500D01*
X166006616Y-113289500D01*
X164193384Y-113289500D01*
X164193369Y-113289500D01*
X164122811Y-113295912D01*
X164122803Y-113295914D01*
X163960391Y-113346522D01*
X163814816Y-113434527D01*
X163694527Y-113554816D01*
X163606522Y-113700391D01*
X163555914Y-113862803D01*
X163555912Y-113862811D01*
X163549500Y-113933369D01*
X163549499Y-113933390D01*
X163549499Y-115746609D01*
X163549500Y-115746630D01*
X163555912Y-115817188D01*
X163555914Y-115817196D01*
X163606522Y-115979608D01*
X163670107Y-116084788D01*
X163694528Y-116125185D01*
X163776434Y-116207091D01*
X163830408Y-116287870D01*
X163849362Y-116383158D01*
X163830408Y-116478446D01*
X163812670Y-116513260D01*
X163714225Y-116673907D01*
X163714221Y-116673914D01*
X163620828Y-116899386D01*
X163563854Y-117136693D01*
X163563852Y-117136708D01*
X163544706Y-117379994D01*
X163544706Y-117380005D01*
X163563852Y-117623291D01*
X163563854Y-117623306D01*
X163620828Y-117860613D01*
X163714221Y-118086085D01*
X163714230Y-118086101D01*
X163841735Y-118294172D01*
X163841742Y-118294181D01*
X164006595Y-118487199D01*
X164004483Y-118489002D01*
X164048389Y-118554712D01*
X164067343Y-118650000D01*
X164048389Y-118745288D01*
X164004483Y-118810997D01*
X164006595Y-118812801D01*
X163841742Y-119005818D01*
X163841735Y-119005827D01*
X163714230Y-119213898D01*
X163714221Y-119213914D01*
X163620828Y-119439386D01*
X163563854Y-119676693D01*
X163563852Y-119676708D01*
X163544706Y-119919994D01*
X163544706Y-119920005D01*
X163563852Y-120163291D01*
X163563854Y-120163306D01*
X163620828Y-120400613D01*
X163714221Y-120626085D01*
X163714230Y-120626101D01*
X163841735Y-120834172D01*
X163841742Y-120834181D01*
X164006595Y-121027199D01*
X164004483Y-121029002D01*
X164048389Y-121094712D01*
X164067343Y-121190000D01*
X164048389Y-121285288D01*
X164004483Y-121350997D01*
X164006595Y-121352801D01*
X163841742Y-121545818D01*
X163841735Y-121545827D01*
X163714230Y-121753898D01*
X163714221Y-121753914D01*
X163620828Y-121979386D01*
X163563854Y-122216693D01*
X163563852Y-122216708D01*
X163544706Y-122459994D01*
X163544706Y-122460005D01*
X163563852Y-122703291D01*
X163563854Y-122703306D01*
X163620828Y-122940613D01*
X163714221Y-123166085D01*
X163714227Y-123166095D01*
X163722991Y-123180397D01*
X163756618Y-123271547D01*
X163752804Y-123368627D01*
X163712130Y-123456858D01*
X163640787Y-123522807D01*
X163549637Y-123556434D01*
X163510684Y-123559500D01*
X155630465Y-123559500D01*
X155591512Y-123556434D01*
X155590244Y-123556233D01*
X155587386Y-123555780D01*
X155519678Y-123559329D01*
X155513161Y-123559500D01*
X155492808Y-123559500D01*
X155481916Y-123560644D01*
X155472561Y-123561627D01*
X155466072Y-123562137D01*
X155398355Y-123565686D01*
X155398354Y-123565687D01*
X155394309Y-123566771D01*
X155355911Y-123573887D01*
X155355540Y-123573926D01*
X155351748Y-123574325D01*
X155351736Y-123574328D01*
X155287261Y-123595277D01*
X155281015Y-123597127D01*
X155215513Y-123614679D01*
X155215507Y-123614682D01*
X155211778Y-123616582D01*
X155175695Y-123631528D01*
X155171721Y-123632819D01*
X155171711Y-123632823D01*
X155112992Y-123666724D01*
X155107267Y-123669832D01*
X155046852Y-123700616D01*
X155046848Y-123700618D01*
X155043603Y-123703247D01*
X155011412Y-123725371D01*
X155007791Y-123727461D01*
X155007784Y-123727466D01*
X154957384Y-123772844D01*
X154952442Y-123777066D01*
X154936630Y-123789872D01*
X154936617Y-123789883D01*
X154922231Y-123804269D01*
X154917509Y-123808750D01*
X154867111Y-123854128D01*
X154864652Y-123857513D01*
X154839283Y-123887216D01*
X147927216Y-130799283D01*
X147897513Y-130824652D01*
X147894128Y-130827111D01*
X147848750Y-130877509D01*
X147844269Y-130882231D01*
X147829883Y-130896617D01*
X147829872Y-130896630D01*
X147817066Y-130912442D01*
X147812844Y-130917384D01*
X147767466Y-130967784D01*
X147767461Y-130967791D01*
X147765371Y-130971412D01*
X147743247Y-131003603D01*
X147740618Y-131006848D01*
X147740616Y-131006852D01*
X147709832Y-131067267D01*
X147706724Y-131072992D01*
X147672823Y-131131711D01*
X147672819Y-131131721D01*
X147671528Y-131135695D01*
X147656582Y-131171778D01*
X147654682Y-131175505D01*
X147654678Y-131175517D01*
X147637130Y-131241005D01*
X147635280Y-131247251D01*
X147614325Y-131311743D01*
X147614323Y-131311755D01*
X147613886Y-131315915D01*
X147606772Y-131354303D01*
X147605686Y-131358353D01*
X147602136Y-131426077D01*
X147601626Y-131432564D01*
X147599500Y-131452803D01*
X147599500Y-131473154D01*
X147599329Y-131479671D01*
X147595780Y-131547386D01*
X147595781Y-131547389D01*
X147596433Y-131551508D01*
X147599500Y-131590466D01*
X147599500Y-143183860D01*
X147580546Y-143279148D01*
X147526570Y-143359930D01*
X144256645Y-146629854D01*
X144175863Y-146683830D01*
X144080575Y-146702784D01*
X144043464Y-146700003D01*
X143977892Y-146690119D01*
X143907435Y-146679500D01*
X143652565Y-146679500D01*
X143526553Y-146698493D01*
X143400538Y-146717487D01*
X143400535Y-146717488D01*
X143156994Y-146792611D01*
X143156989Y-146792613D01*
X142927367Y-146903194D01*
X142927362Y-146903196D01*
X142716785Y-147046765D01*
X142679361Y-147081490D01*
X142596617Y-147132407D01*
X142500687Y-147147784D01*
X142406174Y-147125279D01*
X142340639Y-147081490D01*
X142303214Y-147046765D01*
X142092637Y-146903196D01*
X142092632Y-146903194D01*
X141863010Y-146792613D01*
X141863005Y-146792611D01*
X141619464Y-146717488D01*
X141619461Y-146717487D01*
X141503461Y-146700003D01*
X141367435Y-146679500D01*
X141112565Y-146679500D01*
X140986553Y-146698493D01*
X140860538Y-146717487D01*
X140860535Y-146717488D01*
X140616994Y-146792611D01*
X140616989Y-146792613D01*
X140387367Y-146903194D01*
X140387362Y-146903196D01*
X140176785Y-147046765D01*
X139989945Y-147220127D01*
X139831045Y-147419382D01*
X139831041Y-147419388D01*
X139703609Y-147640107D01*
X139703600Y-147640127D01*
X139610495Y-147877354D01*
X139610489Y-147877370D01*
X139553777Y-148125845D01*
X139534732Y-148380000D01*
X139553777Y-148634154D01*
X139610489Y-148882629D01*
X139610495Y-148882645D01*
X139703600Y-149119872D01*
X139703609Y-149119892D01*
X139723250Y-149153911D01*
X139831041Y-149340612D01*
X139831045Y-149340617D01*
X139989945Y-149539872D01*
X139989948Y-149539875D01*
X139989950Y-149539877D01*
X140079097Y-149622593D01*
X140176785Y-149713234D01*
X140387362Y-149856803D01*
X140387364Y-149856804D01*
X140387366Y-149856805D01*
X140472460Y-149897784D01*
X140616989Y-149967386D01*
X140616993Y-149967387D01*
X140616996Y-149967389D01*
X140789033Y-150020455D01*
X140860535Y-150042511D01*
X140860538Y-150042512D01*
X140860539Y-150042512D01*
X140860542Y-150042513D01*
X141112565Y-150080500D01*
X141112569Y-150080500D01*
X141367431Y-150080500D01*
X141367435Y-150080500D01*
X141619458Y-150042513D01*
X141863004Y-149967389D01*
X142092634Y-149856805D01*
X142303217Y-149713232D01*
X142340638Y-149678510D01*
X142423380Y-149627593D01*
X142519310Y-149612215D01*
X142613823Y-149634719D01*
X142679363Y-149678511D01*
X142716785Y-149713234D01*
X142927362Y-149856803D01*
X142927364Y-149856804D01*
X142927366Y-149856805D01*
X143012460Y-149897784D01*
X143156989Y-149967386D01*
X143156993Y-149967387D01*
X143156996Y-149967389D01*
X143329033Y-150020455D01*
X143400535Y-150042511D01*
X143400538Y-150042512D01*
X143400539Y-150042512D01*
X143400542Y-150042513D01*
X143652565Y-150080500D01*
X143652569Y-150080500D01*
X143907431Y-150080500D01*
X143907435Y-150080500D01*
X144159458Y-150042513D01*
X144403004Y-149967389D01*
X144632634Y-149856805D01*
X144843217Y-149713232D01*
X145030050Y-149539877D01*
X145188959Y-149340612D01*
X145316393Y-149119888D01*
X145409508Y-148882637D01*
X145411888Y-148872212D01*
X145437444Y-148760241D01*
X145466222Y-148634157D01*
X145485268Y-148380000D01*
X145466222Y-148125843D01*
X145466221Y-148125838D01*
X145464835Y-148116639D01*
X145466971Y-148116316D01*
X145464649Y-148033815D01*
X145499289Y-147943045D01*
X145534061Y-147899436D01*
X149072785Y-144360712D01*
X149102505Y-144335333D01*
X149105871Y-144332888D01*
X149151249Y-144282490D01*
X149155740Y-144277758D01*
X149156112Y-144277386D01*
X149170119Y-144263380D01*
X149182947Y-144247537D01*
X149187128Y-144242642D01*
X149232533Y-144192216D01*
X149234613Y-144188611D01*
X149256761Y-144156386D01*
X149259383Y-144153149D01*
X149290184Y-144092696D01*
X149293258Y-144087033D01*
X149327179Y-144028284D01*
X149328467Y-144024318D01*
X149343429Y-143988198D01*
X149345320Y-143984488D01*
X149362873Y-143918976D01*
X149364718Y-143912751D01*
X149376443Y-143876665D01*
X149385674Y-143848256D01*
X149386108Y-143844116D01*
X149393233Y-143805673D01*
X149394313Y-143801646D01*
X149397861Y-143733921D01*
X149398369Y-143727464D01*
X149400500Y-143707192D01*
X149400500Y-143686844D01*
X149400671Y-143680327D01*
X149404219Y-143612611D01*
X149403566Y-143608491D01*
X149400500Y-143569535D01*
X149400500Y-131976139D01*
X149419454Y-131880851D01*
X149473430Y-131800069D01*
X155840069Y-125433430D01*
X155920851Y-125379454D01*
X156016139Y-125360500D01*
X163467231Y-125360500D01*
X163562519Y-125379454D01*
X163643301Y-125433430D01*
X163697277Y-125514212D01*
X163716231Y-125609500D01*
X163697277Y-125704788D01*
X163680323Y-125738311D01*
X163678251Y-125741741D01*
X163606522Y-125860393D01*
X163555914Y-126022803D01*
X163555912Y-126022811D01*
X163549500Y-126093369D01*
X163549499Y-126093390D01*
X163549499Y-127906609D01*
X163549500Y-127906630D01*
X163555912Y-127977188D01*
X163555914Y-127977196D01*
X163606522Y-128139608D01*
X163678251Y-128258259D01*
X163694528Y-128285185D01*
X163776434Y-128367091D01*
X163830408Y-128447870D01*
X163849362Y-128543158D01*
X163830408Y-128638446D01*
X163812670Y-128673260D01*
X163714225Y-128833907D01*
X163714221Y-128833914D01*
X163620828Y-129059386D01*
X163563854Y-129296693D01*
X163563852Y-129296708D01*
X163544706Y-129539994D01*
X163544706Y-129540005D01*
X163563852Y-129783291D01*
X163563854Y-129783306D01*
X163620828Y-130020613D01*
X163714221Y-130246085D01*
X163714230Y-130246101D01*
X163841735Y-130454172D01*
X163841742Y-130454181D01*
X164006595Y-130647199D01*
X164004483Y-130649002D01*
X164048389Y-130714712D01*
X164067343Y-130810000D01*
X164048389Y-130905288D01*
X164004483Y-130970997D01*
X164006595Y-130972801D01*
X163841742Y-131165818D01*
X163841735Y-131165827D01*
X163714230Y-131373898D01*
X163714221Y-131373914D01*
X163620828Y-131599386D01*
X163563854Y-131836693D01*
X163563852Y-131836708D01*
X163544706Y-132079994D01*
X163544706Y-132080005D01*
X163563852Y-132323291D01*
X163563854Y-132323306D01*
X163620828Y-132560613D01*
X163714221Y-132786085D01*
X163714230Y-132786101D01*
X163841735Y-132994172D01*
X163841742Y-132994181D01*
X164006595Y-133187199D01*
X164004483Y-133189002D01*
X164048389Y-133254712D01*
X164067343Y-133350000D01*
X164048389Y-133445288D01*
X164004483Y-133510997D01*
X164006595Y-133512801D01*
X163841742Y-133705818D01*
X163841735Y-133705827D01*
X163714230Y-133913898D01*
X163714221Y-133913914D01*
X163620828Y-134139386D01*
X163563854Y-134376693D01*
X163563852Y-134376708D01*
X163544706Y-134619994D01*
X163544706Y-134620005D01*
X163563852Y-134863291D01*
X163563854Y-134863306D01*
X163620828Y-135100613D01*
X163714221Y-135326085D01*
X163714230Y-135326101D01*
X163841735Y-135534172D01*
X163841742Y-135534181D01*
X164006595Y-135727199D01*
X164004483Y-135729002D01*
X164048389Y-135794712D01*
X164067343Y-135890000D01*
X164048389Y-135985288D01*
X164004483Y-136050997D01*
X164006595Y-136052801D01*
X163841742Y-136245818D01*
X163841735Y-136245827D01*
X163714230Y-136453898D01*
X163714221Y-136453914D01*
X163620828Y-136679386D01*
X163563854Y-136916693D01*
X163563852Y-136916708D01*
X163544706Y-137159994D01*
X163544706Y-137160005D01*
X163563852Y-137403291D01*
X163563854Y-137403306D01*
X163620828Y-137640613D01*
X163714221Y-137866085D01*
X163714230Y-137866101D01*
X163841735Y-138074172D01*
X163841742Y-138074181D01*
X164006595Y-138267199D01*
X164004483Y-138269002D01*
X164048389Y-138334712D01*
X164067343Y-138430000D01*
X164048389Y-138525288D01*
X164004483Y-138590997D01*
X164006595Y-138592801D01*
X163841742Y-138785818D01*
X163841735Y-138785827D01*
X163714230Y-138993898D01*
X163714221Y-138993914D01*
X163620828Y-139219386D01*
X163563854Y-139456693D01*
X163563852Y-139456708D01*
X163544706Y-139699994D01*
X163544706Y-139700005D01*
X163563852Y-139943291D01*
X163563854Y-139943306D01*
X163620828Y-140180613D01*
X163714221Y-140406085D01*
X163714230Y-140406101D01*
X163841735Y-140614172D01*
X163841742Y-140614181D01*
X163956686Y-140748763D01*
X164000241Y-140799759D01*
X164000247Y-140799764D01*
X164000250Y-140799767D01*
X164118965Y-140901159D01*
X164179114Y-140977456D01*
X164205485Y-141070963D01*
X164194066Y-141167445D01*
X164146594Y-141252212D01*
X164070297Y-141312361D01*
X163976790Y-141338732D01*
X163957253Y-141339500D01*
X153350465Y-141339500D01*
X153311512Y-141336434D01*
X153310244Y-141336233D01*
X153307386Y-141335780D01*
X153239672Y-141339329D01*
X153233155Y-141339500D01*
X153212803Y-141339500D01*
X153192565Y-141341626D01*
X153186077Y-141342136D01*
X153118353Y-141345687D01*
X153114299Y-141346773D01*
X153075920Y-141353886D01*
X153071750Y-141354324D01*
X153071746Y-141354325D01*
X153007255Y-141375278D01*
X153001009Y-141377128D01*
X152935523Y-141394676D01*
X152935506Y-141394682D01*
X152931774Y-141396584D01*
X152895702Y-141411525D01*
X152891726Y-141412816D01*
X152891711Y-141412823D01*
X152832992Y-141446724D01*
X152827267Y-141449832D01*
X152766850Y-141480617D01*
X152766843Y-141480621D01*
X152763594Y-141483253D01*
X152731414Y-141505371D01*
X152727781Y-141507468D01*
X152677403Y-141552829D01*
X152672451Y-141557059D01*
X152656623Y-141569876D01*
X152656618Y-141569880D01*
X152642219Y-141584279D01*
X152637498Y-141588759D01*
X152587111Y-141634129D01*
X152584652Y-141637514D01*
X152559287Y-141667211D01*
X148287216Y-145939283D01*
X148257513Y-145964652D01*
X148254128Y-145967111D01*
X148208750Y-146017509D01*
X148204269Y-146022231D01*
X148189883Y-146036617D01*
X148189872Y-146036630D01*
X148177066Y-146052442D01*
X148172844Y-146057384D01*
X148127466Y-146107784D01*
X148127461Y-146107791D01*
X148125371Y-146111412D01*
X148103247Y-146143603D01*
X148100618Y-146146848D01*
X148100616Y-146146852D01*
X148069832Y-146207267D01*
X148066724Y-146212992D01*
X148032823Y-146271711D01*
X148032819Y-146271721D01*
X148031528Y-146275695D01*
X148016582Y-146311778D01*
X148014682Y-146315505D01*
X148014678Y-146315517D01*
X147997130Y-146381005D01*
X147995280Y-146387251D01*
X147974325Y-146451743D01*
X147974323Y-146451755D01*
X147973886Y-146455915D01*
X147966772Y-146494303D01*
X147965686Y-146498353D01*
X147962136Y-146566077D01*
X147961626Y-146572564D01*
X147959500Y-146592803D01*
X147959500Y-146613154D01*
X147959329Y-146619671D01*
X147955780Y-146687386D01*
X147955781Y-146687389D01*
X147956433Y-146691508D01*
X147959500Y-146730466D01*
X147959500Y-146804228D01*
X147940546Y-146899516D01*
X147886570Y-146980298D01*
X147850769Y-147009960D01*
X147796784Y-147046766D01*
X147609945Y-147220127D01*
X147451045Y-147419382D01*
X147451041Y-147419388D01*
X147323609Y-147640107D01*
X147323600Y-147640127D01*
X147230495Y-147877354D01*
X147230489Y-147877370D01*
X147173777Y-148125845D01*
X147154732Y-148379999D01*
X147173777Y-148634154D01*
X147230489Y-148882629D01*
X147230495Y-148882645D01*
X147323600Y-149119872D01*
X147323609Y-149119892D01*
X147343250Y-149153911D01*
X147451041Y-149340612D01*
X147451045Y-149340617D01*
X147609945Y-149539872D01*
X147609948Y-149539875D01*
X147609950Y-149539877D01*
X147699097Y-149622593D01*
X147796785Y-149713234D01*
X148007362Y-149856803D01*
X148007364Y-149856804D01*
X148007366Y-149856805D01*
X148092460Y-149897784D01*
X148236989Y-149967386D01*
X148236993Y-149967387D01*
X148236996Y-149967389D01*
X148409033Y-150020455D01*
X148480535Y-150042511D01*
X148480538Y-150042512D01*
X148480539Y-150042512D01*
X148480542Y-150042513D01*
X148732565Y-150080500D01*
X148732569Y-150080500D01*
X148987431Y-150080500D01*
X148987435Y-150080500D01*
X149239458Y-150042513D01*
X149483004Y-149967389D01*
X149712634Y-149856805D01*
X149923217Y-149713232D01*
X149966027Y-149673509D01*
X150048766Y-149622594D01*
X150144697Y-149607215D01*
X150239210Y-149629718D01*
X150304749Y-149673510D01*
X150336781Y-149703231D01*
X150547362Y-149846803D01*
X150547364Y-149846804D01*
X150547366Y-149846805D01*
X150677064Y-149909264D01*
X150776989Y-149957386D01*
X150776993Y-149957387D01*
X150776996Y-149957389D01*
X150949033Y-150010455D01*
X151020535Y-150032511D01*
X151020538Y-150032512D01*
X151020539Y-150032512D01*
X151020542Y-150032513D01*
X151272565Y-150070500D01*
X151272569Y-150070500D01*
X151527431Y-150070500D01*
X151527435Y-150070500D01*
X151779458Y-150032513D01*
X152023004Y-149957389D01*
X152252634Y-149846805D01*
X152285834Y-149824170D01*
X152463214Y-149703234D01*
X152463213Y-149703234D01*
X152463217Y-149703232D01*
X152495248Y-149673510D01*
X152577990Y-149622593D01*
X152673921Y-149607215D01*
X152768433Y-149629718D01*
X152833973Y-149673511D01*
X152866008Y-149703234D01*
X152876783Y-149713232D01*
X152876786Y-149713234D01*
X153087362Y-149856803D01*
X153087364Y-149856804D01*
X153087366Y-149856805D01*
X153172460Y-149897784D01*
X153316989Y-149967386D01*
X153316993Y-149967387D01*
X153316996Y-149967389D01*
X153489033Y-150020455D01*
X153560535Y-150042511D01*
X153560538Y-150042512D01*
X153560539Y-150042512D01*
X153560542Y-150042513D01*
X153812565Y-150080500D01*
X153812569Y-150080500D01*
X154067431Y-150080500D01*
X154067435Y-150080500D01*
X154319458Y-150042513D01*
X154563004Y-149967389D01*
X154792634Y-149856805D01*
X155003217Y-149713232D01*
X155040638Y-149678510D01*
X155123380Y-149627593D01*
X155219310Y-149612215D01*
X155313823Y-149634719D01*
X155379363Y-149678511D01*
X155416785Y-149713234D01*
X155627362Y-149856803D01*
X155627364Y-149856804D01*
X155627366Y-149856805D01*
X155712460Y-149897784D01*
X155856989Y-149967386D01*
X155856993Y-149967387D01*
X155856996Y-149967389D01*
X156029033Y-150020455D01*
X156100535Y-150042511D01*
X156100538Y-150042512D01*
X156100539Y-150042512D01*
X156100542Y-150042513D01*
X156352565Y-150080500D01*
X156352569Y-150080500D01*
X156607431Y-150080500D01*
X156607435Y-150080500D01*
X156859458Y-150042513D01*
X157103004Y-149967389D01*
X157332634Y-149856805D01*
X157543217Y-149713232D01*
X157580638Y-149678510D01*
X157663380Y-149627593D01*
X157759310Y-149612215D01*
X157853823Y-149634719D01*
X157919363Y-149678511D01*
X157956785Y-149713234D01*
X158167362Y-149856803D01*
X158167364Y-149856804D01*
X158167366Y-149856805D01*
X158252460Y-149897784D01*
X158396989Y-149967386D01*
X158396993Y-149967387D01*
X158396996Y-149967389D01*
X158569033Y-150020455D01*
X158640535Y-150042511D01*
X158640538Y-150042512D01*
X158640539Y-150042512D01*
X158640542Y-150042513D01*
X158892565Y-150080500D01*
X158892569Y-150080500D01*
X159147431Y-150080500D01*
X159147435Y-150080500D01*
X159399458Y-150042513D01*
X159643004Y-149967389D01*
X159872634Y-149856805D01*
X160083217Y-149713232D01*
X160120638Y-149678510D01*
X160203380Y-149627593D01*
X160299310Y-149612215D01*
X160393823Y-149634719D01*
X160459361Y-149678509D01*
X160496783Y-149713232D01*
X160550768Y-149750038D01*
X160618820Y-149819374D01*
X160655159Y-149909477D01*
X160659500Y-149955770D01*
X160659500Y-150928189D01*
X160640546Y-151023477D01*
X160586570Y-151104259D01*
X160505788Y-151158235D01*
X160410500Y-151177189D01*
X160388795Y-151176241D01*
X160384797Y-151175891D01*
X160376192Y-151175138D01*
X160365426Y-151173720D01*
X160318881Y-151165514D01*
X160313130Y-151164500D01*
X160313129Y-151164500D01*
X140656322Y-151164500D01*
X140561034Y-151145546D01*
X140480252Y-151091570D01*
X137028789Y-147640107D01*
X133488426Y-144099744D01*
X133434453Y-144018966D01*
X133415500Y-143923683D01*
X133415500Y-142690000D01*
X141174732Y-142690000D01*
X141193777Y-142944154D01*
X141250489Y-143192629D01*
X141250495Y-143192645D01*
X141343600Y-143429872D01*
X141343605Y-143429884D01*
X141343607Y-143429888D01*
X141471041Y-143650612D01*
X141471045Y-143650617D01*
X141629945Y-143849872D01*
X141629948Y-143849875D01*
X141629950Y-143849877D01*
X141709489Y-143923678D01*
X141816785Y-144023234D01*
X142027362Y-144166803D01*
X142027364Y-144166804D01*
X142027366Y-144166805D01*
X142080135Y-144192217D01*
X142256989Y-144277386D01*
X142256993Y-144277387D01*
X142256996Y-144277389D01*
X142429033Y-144330455D01*
X142500535Y-144352511D01*
X142500538Y-144352512D01*
X142500539Y-144352512D01*
X142500542Y-144352513D01*
X142752565Y-144390500D01*
X142752569Y-144390500D01*
X143007431Y-144390500D01*
X143007435Y-144390500D01*
X143259458Y-144352513D01*
X143503004Y-144277389D01*
X143732634Y-144166805D01*
X143943217Y-144023232D01*
X144130050Y-143849877D01*
X144288959Y-143650612D01*
X144416393Y-143429888D01*
X144509508Y-143192637D01*
X144566222Y-142944157D01*
X144585268Y-142690000D01*
X144566222Y-142435843D01*
X144531749Y-142284808D01*
X144509510Y-142187370D01*
X144509508Y-142187367D01*
X144509508Y-142187363D01*
X144416393Y-141950112D01*
X144288959Y-141729388D01*
X144176811Y-141588759D01*
X144166037Y-141575249D01*
X144121445Y-141488932D01*
X144113279Y-141392121D01*
X144142782Y-141299554D01*
X144166037Y-141264751D01*
X144234284Y-141179172D01*
X144288959Y-141110612D01*
X144416393Y-140889888D01*
X144509508Y-140652637D01*
X144566222Y-140404157D01*
X144585268Y-140150000D01*
X144566222Y-139895843D01*
X144526904Y-139723580D01*
X144509510Y-139647370D01*
X144509508Y-139647367D01*
X144509508Y-139647363D01*
X144416393Y-139410112D01*
X144288959Y-139189388D01*
X144166036Y-139035248D01*
X144121445Y-138948932D01*
X144113279Y-138852121D01*
X144142782Y-138759554D01*
X144166037Y-138724751D01*
X144178131Y-138709584D01*
X144288959Y-138570612D01*
X144416393Y-138349888D01*
X144509508Y-138112637D01*
X144566222Y-137864157D01*
X144585268Y-137610000D01*
X144566222Y-137355843D01*
X144531311Y-137202887D01*
X144509510Y-137107370D01*
X144509508Y-137107367D01*
X144509508Y-137107363D01*
X144416393Y-136870112D01*
X144288959Y-136649388D01*
X144166037Y-136495249D01*
X144121445Y-136408932D01*
X144113279Y-136312121D01*
X144142782Y-136219554D01*
X144166037Y-136184751D01*
X144205022Y-136135865D01*
X144288959Y-136030612D01*
X144416393Y-135809888D01*
X144509508Y-135572637D01*
X144566222Y-135324157D01*
X144585268Y-135070000D01*
X144566222Y-134815843D01*
X144531749Y-134664808D01*
X144509510Y-134567370D01*
X144509508Y-134567367D01*
X144509508Y-134567363D01*
X144416393Y-134330112D01*
X144288959Y-134109388D01*
X144257904Y-134070446D01*
X144166037Y-133955248D01*
X144121444Y-133868931D01*
X144113279Y-133772120D01*
X144142783Y-133679553D01*
X144166038Y-133644749D01*
X144288959Y-133490612D01*
X144416393Y-133269888D01*
X144509508Y-133032637D01*
X144566222Y-132784157D01*
X144585268Y-132530000D01*
X144566222Y-132275843D01*
X144531749Y-132124808D01*
X144509510Y-132027370D01*
X144509508Y-132027367D01*
X144509508Y-132027363D01*
X144416393Y-131790112D01*
X144288959Y-131569388D01*
X144166036Y-131415248D01*
X144121445Y-131328932D01*
X144113279Y-131232121D01*
X144142782Y-131139554D01*
X144166037Y-131104751D01*
X144195929Y-131067267D01*
X144288959Y-130950612D01*
X144416393Y-130729888D01*
X144509508Y-130492637D01*
X144566222Y-130244157D01*
X144585268Y-129990000D01*
X144566222Y-129735843D01*
X144531749Y-129584808D01*
X144509510Y-129487370D01*
X144509508Y-129487367D01*
X144509508Y-129487363D01*
X144416393Y-129250112D01*
X144288959Y-129029388D01*
X144166037Y-128875249D01*
X144121445Y-128788932D01*
X144113279Y-128692121D01*
X144142782Y-128599554D01*
X144166037Y-128564751D01*
X144229008Y-128485788D01*
X144288959Y-128410612D01*
X144416393Y-128189888D01*
X144509508Y-127952637D01*
X144566222Y-127704157D01*
X144585268Y-127450000D01*
X144566222Y-127195843D01*
X144531749Y-127044808D01*
X144509510Y-126947370D01*
X144509508Y-126947367D01*
X144509508Y-126947363D01*
X144416393Y-126710112D01*
X144288959Y-126489388D01*
X144257904Y-126450446D01*
X144166037Y-126335248D01*
X144121444Y-126248931D01*
X144113279Y-126152120D01*
X144142783Y-126059553D01*
X144166038Y-126024749D01*
X144288959Y-125870612D01*
X144416393Y-125649888D01*
X144509508Y-125412637D01*
X144513212Y-125396411D01*
X144565778Y-125166101D01*
X144566222Y-125164157D01*
X144585268Y-124910000D01*
X144566222Y-124655843D01*
X144531749Y-124504808D01*
X144509510Y-124407370D01*
X144509508Y-124407367D01*
X144509508Y-124407363D01*
X144416393Y-124170112D01*
X144288959Y-123949388D01*
X144166036Y-123795248D01*
X144121445Y-123708932D01*
X144113279Y-123612121D01*
X144142782Y-123519554D01*
X144166037Y-123484751D01*
X144254215Y-123374179D01*
X144288959Y-123330612D01*
X144416393Y-123109888D01*
X144509508Y-122872637D01*
X144566222Y-122624157D01*
X144585268Y-122370000D01*
X144566222Y-122115843D01*
X144531749Y-121964808D01*
X144509510Y-121867370D01*
X144509508Y-121867367D01*
X144509508Y-121867363D01*
X144416393Y-121630112D01*
X144288959Y-121409388D01*
X144216823Y-121318932D01*
X144130054Y-121210127D01*
X144095708Y-121178259D01*
X143943217Y-121036768D01*
X143943214Y-121036765D01*
X143732637Y-120893196D01*
X143732632Y-120893194D01*
X143503010Y-120782613D01*
X143503005Y-120782611D01*
X143259464Y-120707488D01*
X143259461Y-120707487D01*
X143151448Y-120691206D01*
X143007435Y-120669500D01*
X142752565Y-120669500D01*
X142626553Y-120688493D01*
X142500538Y-120707487D01*
X142500535Y-120707488D01*
X142256994Y-120782611D01*
X142256989Y-120782613D01*
X142027367Y-120893194D01*
X142027362Y-120893196D01*
X141816785Y-121036765D01*
X141629945Y-121210127D01*
X141471045Y-121409382D01*
X141471041Y-121409388D01*
X141343609Y-121630107D01*
X141343600Y-121630127D01*
X141250495Y-121867354D01*
X141250489Y-121867370D01*
X141193777Y-122115845D01*
X141174732Y-122370000D01*
X141193777Y-122624154D01*
X141250489Y-122872629D01*
X141250495Y-122872645D01*
X141343600Y-123109872D01*
X141343605Y-123109884D01*
X141343607Y-123109888D01*
X141471041Y-123330612D01*
X141590666Y-123480617D01*
X141593962Y-123484749D01*
X141638555Y-123571066D01*
X141646721Y-123667877D01*
X141617218Y-123760444D01*
X141593963Y-123795248D01*
X141471045Y-123949382D01*
X141471041Y-123949388D01*
X141343609Y-124170107D01*
X141343600Y-124170127D01*
X141250495Y-124407354D01*
X141250489Y-124407370D01*
X141193777Y-124655845D01*
X141174732Y-124910000D01*
X141193777Y-125164154D01*
X141250489Y-125412629D01*
X141250495Y-125412645D01*
X141343600Y-125649872D01*
X141343605Y-125649884D01*
X141343607Y-125649888D01*
X141471041Y-125870612D01*
X141471045Y-125870617D01*
X141593963Y-126024751D01*
X141638555Y-126111068D01*
X141646721Y-126207879D01*
X141617218Y-126300446D01*
X141593963Y-126335249D01*
X141471045Y-126489382D01*
X141471041Y-126489388D01*
X141343609Y-126710107D01*
X141343600Y-126710127D01*
X141250495Y-126947354D01*
X141250489Y-126947370D01*
X141193777Y-127195845D01*
X141174732Y-127449999D01*
X141193777Y-127704154D01*
X141250489Y-127952629D01*
X141250495Y-127952645D01*
X141343600Y-128189872D01*
X141343605Y-128189884D01*
X141343607Y-128189888D01*
X141471041Y-128410612D01*
X141471045Y-128410617D01*
X141593963Y-128564751D01*
X141638555Y-128651068D01*
X141646721Y-128747879D01*
X141617218Y-128840446D01*
X141593963Y-128875249D01*
X141471045Y-129029382D01*
X141471041Y-129029388D01*
X141343609Y-129250107D01*
X141343600Y-129250127D01*
X141250495Y-129487354D01*
X141250489Y-129487370D01*
X141193777Y-129735845D01*
X141174732Y-129989999D01*
X141193777Y-130244154D01*
X141250489Y-130492629D01*
X141250495Y-130492645D01*
X141343600Y-130729872D01*
X141343605Y-130729884D01*
X141343607Y-130729888D01*
X141471041Y-130950612D01*
X141590667Y-131100618D01*
X141593962Y-131104749D01*
X141638555Y-131191066D01*
X141646721Y-131287877D01*
X141617218Y-131380444D01*
X141593963Y-131415248D01*
X141471045Y-131569382D01*
X141471041Y-131569388D01*
X141343609Y-131790107D01*
X141343600Y-131790127D01*
X141250495Y-132027354D01*
X141250489Y-132027370D01*
X141193777Y-132275845D01*
X141174732Y-132530000D01*
X141193777Y-132784154D01*
X141250489Y-133032629D01*
X141250495Y-133032645D01*
X141343600Y-133269872D01*
X141343605Y-133269884D01*
X141343607Y-133269888D01*
X141471041Y-133490612D01*
X141471045Y-133490617D01*
X141593963Y-133644751D01*
X141638555Y-133731068D01*
X141646721Y-133827879D01*
X141617218Y-133920446D01*
X141593963Y-133955249D01*
X141471045Y-134109382D01*
X141471041Y-134109388D01*
X141343609Y-134330107D01*
X141343600Y-134330127D01*
X141250495Y-134567354D01*
X141250489Y-134567370D01*
X141193777Y-134815845D01*
X141174732Y-135070000D01*
X141193777Y-135324154D01*
X141250489Y-135572629D01*
X141250495Y-135572645D01*
X141343600Y-135809872D01*
X141343605Y-135809884D01*
X141343607Y-135809888D01*
X141471041Y-136030612D01*
X141471045Y-136030617D01*
X141593963Y-136184751D01*
X141638555Y-136271068D01*
X141646721Y-136367879D01*
X141617218Y-136460446D01*
X141593963Y-136495249D01*
X141471045Y-136649382D01*
X141471041Y-136649388D01*
X141343609Y-136870107D01*
X141343600Y-136870127D01*
X141250495Y-137107354D01*
X141250489Y-137107370D01*
X141193777Y-137355845D01*
X141174732Y-137609999D01*
X141193777Y-137864154D01*
X141250489Y-138112629D01*
X141250495Y-138112645D01*
X141343600Y-138349872D01*
X141343605Y-138349884D01*
X141343607Y-138349888D01*
X141471041Y-138570612D01*
X141590666Y-138720617D01*
X141593962Y-138724749D01*
X141638555Y-138811066D01*
X141646721Y-138907877D01*
X141617218Y-139000444D01*
X141593963Y-139035248D01*
X141471045Y-139189382D01*
X141471041Y-139189388D01*
X141343609Y-139410107D01*
X141343600Y-139410127D01*
X141250495Y-139647354D01*
X141250489Y-139647370D01*
X141193777Y-139895845D01*
X141174732Y-140150000D01*
X141193777Y-140404154D01*
X141250489Y-140652629D01*
X141250495Y-140652645D01*
X141343600Y-140889872D01*
X141343605Y-140889884D01*
X141343607Y-140889888D01*
X141471041Y-141110612D01*
X141471045Y-141110617D01*
X141593963Y-141264751D01*
X141638555Y-141351068D01*
X141646721Y-141447879D01*
X141617218Y-141540446D01*
X141593963Y-141575249D01*
X141471045Y-141729382D01*
X141471041Y-141729388D01*
X141343609Y-141950107D01*
X141343600Y-141950127D01*
X141250495Y-142187354D01*
X141250489Y-142187370D01*
X141193777Y-142435845D01*
X141174732Y-142690000D01*
X133415500Y-142690000D01*
X133415500Y-116334499D01*
X133434454Y-116239212D01*
X133488430Y-116158430D01*
X133569212Y-116104454D01*
X133664500Y-116085500D01*
X141180570Y-116085500D01*
X141275858Y-116104454D01*
X141356640Y-116158430D01*
X141410616Y-116239212D01*
X141429570Y-116334500D01*
X141410616Y-116429788D01*
X141396210Y-116459000D01*
X141343611Y-116550103D01*
X141343600Y-116550127D01*
X141250495Y-116787354D01*
X141250489Y-116787370D01*
X141193777Y-117035845D01*
X141174732Y-117290000D01*
X141193777Y-117544154D01*
X141250489Y-117792629D01*
X141250495Y-117792645D01*
X141343600Y-118029872D01*
X141343605Y-118029884D01*
X141343607Y-118029888D01*
X141471041Y-118250612D01*
X141471045Y-118250617D01*
X141629945Y-118449872D01*
X141629948Y-118449875D01*
X141629950Y-118449877D01*
X141670174Y-118487199D01*
X141816785Y-118623234D01*
X142027362Y-118766803D01*
X142027364Y-118766804D01*
X142027366Y-118766805D01*
X142119132Y-118810997D01*
X142256989Y-118877386D01*
X142256993Y-118877387D01*
X142256996Y-118877389D01*
X142429033Y-118930455D01*
X142500535Y-118952511D01*
X142500538Y-118952512D01*
X142500539Y-118952512D01*
X142500542Y-118952513D01*
X142752565Y-118990500D01*
X142752569Y-118990500D01*
X143007431Y-118990500D01*
X143007435Y-118990500D01*
X143259458Y-118952513D01*
X143503004Y-118877389D01*
X143732634Y-118766805D01*
X143943217Y-118623232D01*
X144130050Y-118449877D01*
X144288959Y-118250612D01*
X144416393Y-118029888D01*
X144509508Y-117792637D01*
X144566222Y-117544157D01*
X144585268Y-117290000D01*
X144566222Y-117035843D01*
X144530056Y-116877388D01*
X144509510Y-116787370D01*
X144509508Y-116787367D01*
X144509508Y-116787363D01*
X144416393Y-116550112D01*
X144288959Y-116329388D01*
X144166037Y-116175249D01*
X144121445Y-116088932D01*
X144113279Y-115992121D01*
X144142782Y-115899554D01*
X144166037Y-115864751D01*
X144178131Y-115849584D01*
X144288959Y-115710612D01*
X144416393Y-115489888D01*
X144509508Y-115252637D01*
X144566222Y-115004157D01*
X144585268Y-114750000D01*
X144566222Y-114495843D01*
X144531749Y-114344808D01*
X144509510Y-114247370D01*
X144509508Y-114247367D01*
X144509508Y-114247363D01*
X144416393Y-114010112D01*
X144288959Y-113789388D01*
X144255609Y-113747568D01*
X144130054Y-113590127D01*
X143943214Y-113416765D01*
X143732637Y-113273196D01*
X143732632Y-113273194D01*
X143503010Y-113162613D01*
X143503005Y-113162611D01*
X143259464Y-113087488D01*
X143259461Y-113087487D01*
X143151448Y-113071206D01*
X143007435Y-113049500D01*
X142752565Y-113049500D01*
X142626553Y-113068493D01*
X142500538Y-113087487D01*
X142500535Y-113087488D01*
X142256994Y-113162611D01*
X142256989Y-113162613D01*
X142027367Y-113273194D01*
X142027362Y-113273196D01*
X141883571Y-113371233D01*
X141794164Y-113409250D01*
X141743304Y-113414500D01*
X133664500Y-113414500D01*
X133569212Y-113395546D01*
X133488430Y-113341570D01*
X133434454Y-113260788D01*
X133415500Y-113165500D01*
X133415500Y-105076321D01*
X133434454Y-104981033D01*
X133488428Y-104900253D01*
X136123157Y-102265523D01*
X136203936Y-102211550D01*
X136299224Y-102192596D01*
X136315483Y-102193128D01*
X136500000Y-102205222D01*
X136787839Y-102186356D01*
X137070753Y-102130081D01*
X137070758Y-102130079D01*
X137070760Y-102130079D01*
X137143482Y-102105392D01*
X137343902Y-102037359D01*
X137343911Y-102037354D01*
X137343915Y-102037353D01*
X137471134Y-101974614D01*
X137602611Y-101909778D01*
X137842454Y-101749520D01*
X138059327Y-101559327D01*
X138249520Y-101342454D01*
X138409778Y-101102611D01*
X138460378Y-101000005D01*
X150794457Y-101000005D01*
X150814611Y-101358899D01*
X150874826Y-101713297D01*
X150874829Y-101713309D01*
X150931432Y-101909783D01*
X150974341Y-102058724D01*
X151111906Y-102390833D01*
X151285789Y-102705452D01*
X151493806Y-102998623D01*
X151733339Y-103266661D01*
X152001377Y-103506194D01*
X152294548Y-103714211D01*
X152609167Y-103888094D01*
X152941276Y-104025659D01*
X153286700Y-104125173D01*
X153641093Y-104185387D01*
X153641099Y-104185387D01*
X153641103Y-104185388D01*
X153641098Y-104185388D01*
X153999995Y-104205543D01*
X154000000Y-104205543D01*
X154000005Y-104205543D01*
X154358899Y-104185388D01*
X154358903Y-104185387D01*
X154358907Y-104185387D01*
X154713300Y-104125173D01*
X155058724Y-104025659D01*
X155390833Y-103888094D01*
X155705452Y-103714211D01*
X155998623Y-103506194D01*
X156266661Y-103266661D01*
X156506194Y-102998623D01*
X156714211Y-102705452D01*
X156888094Y-102390833D01*
X157025659Y-102058724D01*
X157125173Y-101713300D01*
X157185387Y-101358907D01*
X157185387Y-101358903D01*
X157185388Y-101358899D01*
X157205543Y-101000005D01*
X157205543Y-100999994D01*
X157185388Y-100641100D01*
X157183409Y-100629454D01*
X157125173Y-100286700D01*
X157025659Y-99941276D01*
X156888094Y-99609167D01*
X156714211Y-99294548D01*
X156506194Y-99001377D01*
X156266661Y-98733339D01*
X155998623Y-98493806D01*
X155705452Y-98285789D01*
X155390833Y-98111906D01*
X155058724Y-97974341D01*
X155058720Y-97974339D01*
X155058718Y-97974339D01*
X154713309Y-97874829D01*
X154713297Y-97874826D01*
X154358896Y-97814611D01*
X154358901Y-97814611D01*
X154000005Y-97794457D01*
X153999995Y-97794457D01*
X153641100Y-97814611D01*
X153286702Y-97874826D01*
X153286690Y-97874829D01*
X152941281Y-97974339D01*
X152609166Y-98111906D01*
X152294543Y-98285792D01*
X152294540Y-98285794D01*
X152001382Y-98493802D01*
X152001375Y-98493807D01*
X151733348Y-98733330D01*
X151733330Y-98733348D01*
X151493807Y-99001375D01*
X151493802Y-99001382D01*
X151285794Y-99294540D01*
X151285792Y-99294543D01*
X151111906Y-99609166D01*
X150974339Y-99941281D01*
X150874829Y-100286690D01*
X150874826Y-100286702D01*
X150814611Y-100641100D01*
X150794457Y-100999994D01*
X150794457Y-101000005D01*
X138460378Y-101000005D01*
X138516499Y-100886202D01*
X138537353Y-100843915D01*
X138537354Y-100843911D01*
X138537359Y-100843902D01*
X138630081Y-100570753D01*
X138686356Y-100287839D01*
X138705222Y-100000000D01*
X138686356Y-99712161D01*
X138630081Y-99429247D01*
X138630079Y-99429242D01*
X138630079Y-99429239D01*
X138583116Y-99290895D01*
X138537359Y-99156098D01*
X138537355Y-99156091D01*
X138537353Y-99156084D01*
X138409783Y-98897399D01*
X138409782Y-98897398D01*
X138409778Y-98897389D01*
X138249520Y-98657546D01*
X138059327Y-98440673D01*
X137842454Y-98250480D01*
X137602611Y-98090222D01*
X137602606Y-98090219D01*
X137602600Y-98090216D01*
X137343915Y-97962646D01*
X137343903Y-97962641D01*
X137343902Y-97962641D01*
X137336794Y-97960228D01*
X137070760Y-97869920D01*
X137070753Y-97869919D01*
X136787849Y-97813645D01*
X136787837Y-97813643D01*
X136500000Y-97794778D01*
X136212162Y-97813643D01*
X136212150Y-97813645D01*
X135929246Y-97869919D01*
X135929239Y-97869920D01*
X135656103Y-97962639D01*
X135656084Y-97962646D01*
X135397399Y-98090216D01*
X135397382Y-98090226D01*
X135157545Y-98250480D01*
X134940674Y-98440672D01*
X134940672Y-98440674D01*
X134750480Y-98657545D01*
X134590226Y-98897382D01*
X134590216Y-98897399D01*
X134462646Y-99156084D01*
X134462639Y-99156103D01*
X134369920Y-99429239D01*
X134369919Y-99429246D01*
X134313645Y-99712150D01*
X134313643Y-99712162D01*
X134294778Y-99999999D01*
X134306870Y-100184488D01*
X134294189Y-100280812D01*
X134245611Y-100364950D01*
X134234473Y-100376843D01*
X132728294Y-101883022D01*
X131218277Y-103393039D01*
X131145347Y-103465970D01*
X131053036Y-103558281D01*
X131022583Y-103601772D01*
X131015972Y-103610388D01*
X130981848Y-103651056D01*
X130981841Y-103651067D01*
X130955297Y-103697042D01*
X130949461Y-103706202D01*
X130919007Y-103749696D01*
X130919002Y-103749704D01*
X130896566Y-103797820D01*
X130891549Y-103807456D01*
X130865002Y-103853437D01*
X130865001Y-103853439D01*
X130846840Y-103903334D01*
X130842684Y-103913368D01*
X130820247Y-103961485D01*
X130806506Y-104012767D01*
X130803240Y-104023124D01*
X130785079Y-104073023D01*
X130785078Y-104073027D01*
X130775857Y-104125320D01*
X130773506Y-104135925D01*
X130759767Y-104187199D01*
X130759765Y-104187211D01*
X130755139Y-104240090D01*
X130753721Y-104250861D01*
X130744500Y-104303156D01*
X130744500Y-144696839D01*
X127000000Y-144696839D01*
X127000000Y-88819997D01*
X134294778Y-88819997D01*
X134296687Y-88849142D01*
X134296884Y-88861440D01*
X134295806Y-88893691D01*
X134295806Y-88893693D01*
X134306498Y-88999977D01*
X134306856Y-89004294D01*
X134313643Y-89107835D01*
X134319974Y-89139667D01*
X134321740Y-89151493D01*
X134325294Y-89186818D01*
X134325298Y-89186838D01*
X134349311Y-89287600D01*
X134350310Y-89292172D01*
X134369918Y-89390751D01*
X134369919Y-89390753D01*
X134380735Y-89422617D01*
X134381388Y-89424539D01*
X134384605Y-89435701D01*
X134393588Y-89473400D01*
X134393594Y-89473419D01*
X134429665Y-89567073D01*
X134431377Y-89571802D01*
X134455529Y-89642953D01*
X134468210Y-89739277D01*
X134448986Y-89820193D01*
X134416603Y-89896563D01*
X134416602Y-89896564D01*
X134338768Y-90180710D01*
X134338765Y-90180724D01*
X134299500Y-90472688D01*
X134299500Y-96556630D01*
X134305912Y-96627188D01*
X134305914Y-96627196D01*
X134356522Y-96789608D01*
X134431553Y-96913723D01*
X134444528Y-96935185D01*
X134564815Y-97055472D01*
X134616244Y-97086562D01*
X134710391Y-97143477D01*
X134710393Y-97143477D01*
X134710394Y-97143478D01*
X134872804Y-97194086D01*
X134872808Y-97194086D01*
X134872811Y-97194087D01*
X134943369Y-97200499D01*
X134943377Y-97200499D01*
X134943384Y-97200500D01*
X136461149Y-97200500D01*
X136465309Y-97200570D01*
X136501972Y-97201795D01*
X136573694Y-97204193D01*
X136589143Y-97202638D01*
X136604190Y-97201126D01*
X136616659Y-97200500D01*
X138056610Y-97200500D01*
X138056616Y-97200500D01*
X138056623Y-97200499D01*
X138056630Y-97200499D01*
X138127188Y-97194087D01*
X138127189Y-97194086D01*
X138127196Y-97194086D01*
X138289606Y-97143478D01*
X138299904Y-97137253D01*
X138311067Y-97130503D01*
X138435185Y-97055472D01*
X138555472Y-96935185D01*
X138643478Y-96789606D01*
X138694086Y-96627196D01*
X138700500Y-96556616D01*
X138700500Y-93443384D01*
X138700500Y-91269500D01*
X138719454Y-91174212D01*
X138773430Y-91093430D01*
X138854212Y-91039454D01*
X138949500Y-91020500D01*
X143506603Y-91020500D01*
X143635516Y-91022654D01*
X143723974Y-91012259D01*
X143730089Y-91011695D01*
X143818954Y-91005747D01*
X143868077Y-90995761D01*
X143878330Y-90994121D01*
X143881242Y-90993778D01*
X143928115Y-90988271D01*
X144014382Y-90966181D01*
X144020412Y-90964797D01*
X144107663Y-90947064D01*
X144155023Y-90930618D01*
X144164948Y-90927630D01*
X144213520Y-90915194D01*
X144296094Y-90881795D01*
X144301831Y-90879640D01*
X144385974Y-90850424D01*
X144430707Y-90827818D01*
X144440157Y-90823528D01*
X144486639Y-90804729D01*
X144564048Y-90760608D01*
X144569429Y-90757718D01*
X144648921Y-90717551D01*
X144690259Y-90689173D01*
X144699029Y-90683677D01*
X144742597Y-90658847D01*
X144813397Y-90604831D01*
X144818396Y-90601211D01*
X144891812Y-90550816D01*
X144928991Y-90517187D01*
X144936961Y-90510562D01*
X144976827Y-90480150D01*
X145039781Y-90417194D01*
X145044286Y-90412911D01*
X145054898Y-90403312D01*
X145110312Y-90353195D01*
X145142668Y-90314922D01*
X145149700Y-90307275D01*
X148348932Y-87108044D01*
X148429712Y-87054070D01*
X148525000Y-87035116D01*
X148620288Y-87054070D01*
X148701066Y-87108043D01*
X150418534Y-88825511D01*
X150584801Y-88970914D01*
X150830444Y-89133567D01*
X151095574Y-89262027D01*
X151375461Y-89354004D01*
X151375468Y-89354005D01*
X151375474Y-89354007D01*
X151665108Y-89407854D01*
X151699151Y-89409562D01*
X151959353Y-89422618D01*
X152252938Y-89398030D01*
X152540625Y-89334531D01*
X152817282Y-89233255D01*
X153077972Y-89096006D01*
X153318043Y-88925236D01*
X153533210Y-88723991D01*
X153719634Y-88495862D01*
X153873988Y-88244922D01*
X153993518Y-87975647D01*
X154076090Y-87692843D01*
X154120232Y-87401556D01*
X154125154Y-87106984D01*
X154090771Y-86814386D01*
X154017694Y-86528981D01*
X153907230Y-86255861D01*
X153905157Y-86252225D01*
X153761350Y-85999907D01*
X153761345Y-85999900D01*
X153582656Y-85765680D01*
X153582653Y-85765677D01*
X153582650Y-85765673D01*
X151134331Y-83317354D01*
X150108451Y-82291473D01*
X150105559Y-82288483D01*
X150056977Y-82236541D01*
X150031490Y-82209291D01*
X150011323Y-82192811D01*
X149970989Y-82159850D01*
X149947518Y-82140669D01*
X149944363Y-82138002D01*
X149862708Y-82066593D01*
X149862702Y-82066589D01*
X149862700Y-82066587D01*
X149837128Y-82049655D01*
X149827102Y-82042266D01*
X149812570Y-82030391D01*
X149803368Y-82022870D01*
X149803359Y-82022864D01*
X149710971Y-81966036D01*
X149707463Y-81963797D01*
X149617064Y-81903938D01*
X149617049Y-81903930D01*
X149589484Y-81890573D01*
X149578540Y-81884576D01*
X149552419Y-81868510D01*
X149453277Y-81824502D01*
X149449503Y-81822751D01*
X149351925Y-81775472D01*
X149351923Y-81775471D01*
X149322810Y-81765903D01*
X149311168Y-81761419D01*
X149283145Y-81748981D01*
X149179006Y-81718575D01*
X149175032Y-81717342D01*
X149072045Y-81683499D01*
X149072039Y-81683497D01*
X149041909Y-81677895D01*
X149029774Y-81675003D01*
X149000336Y-81666408D01*
X148893094Y-81650156D01*
X148888992Y-81649464D01*
X148782402Y-81629647D01*
X148782386Y-81629645D01*
X148751779Y-81628109D01*
X148739361Y-81626860D01*
X148709056Y-81622267D01*
X148600611Y-81620455D01*
X148596454Y-81620316D01*
X148488147Y-81614882D01*
X148457595Y-81617441D01*
X148445125Y-81617857D01*
X148414487Y-81617345D01*
X148306753Y-81630004D01*
X148302640Y-81630418D01*
X148273652Y-81632846D01*
X148194572Y-81639468D01*
X148194553Y-81639471D01*
X148164629Y-81646076D01*
X148152326Y-81648151D01*
X148121894Y-81651727D01*
X148121889Y-81651728D01*
X148121886Y-81651729D01*
X148083147Y-81661647D01*
X148016812Y-81678631D01*
X148012768Y-81679595D01*
X147906874Y-81702969D01*
X147878091Y-81713505D01*
X147866178Y-81717200D01*
X147836479Y-81724806D01*
X147836475Y-81724807D01*
X147735939Y-81765469D01*
X147732059Y-81766963D01*
X147630218Y-81804245D01*
X147603098Y-81818523D01*
X147591780Y-81823775D01*
X147563363Y-81835269D01*
X147563358Y-81835272D01*
X147505037Y-81868512D01*
X147469132Y-81888975D01*
X147465498Y-81890967D01*
X147369533Y-81941490D01*
X147369526Y-81941494D01*
X147344549Y-81959260D01*
X147334035Y-81965972D01*
X147307407Y-81981149D01*
X147221170Y-82046940D01*
X147217843Y-82049391D01*
X147194592Y-82065931D01*
X147129459Y-82112262D01*
X147129453Y-82112267D01*
X147107069Y-82133202D01*
X147097543Y-82141256D01*
X147073179Y-82159844D01*
X147073171Y-82159851D01*
X146996480Y-82236541D01*
X146993491Y-82239432D01*
X146914289Y-82313511D01*
X146914287Y-82313512D01*
X146894899Y-82337237D01*
X146886528Y-82346492D01*
X142686453Y-86546570D01*
X142605671Y-86600546D01*
X142510383Y-86619500D01*
X136576123Y-86619500D01*
X136567978Y-86619233D01*
X136500000Y-86614778D01*
X136431534Y-86619265D01*
X136427555Y-86619462D01*
X136426430Y-86619499D01*
X136354975Y-86624283D01*
X136211307Y-86633700D01*
X136206923Y-86634135D01*
X136206045Y-86634253D01*
X136066152Y-86662686D01*
X135929238Y-86689920D01*
X135923686Y-86691407D01*
X135918208Y-86692697D01*
X135917337Y-86692935D01*
X135785580Y-86738686D01*
X135656100Y-86782640D01*
X135655866Y-86782736D01*
X135655779Y-86782780D01*
X135641813Y-86788606D01*
X135639046Y-86789567D01*
X135639029Y-86789574D01*
X135517181Y-86851147D01*
X135397394Y-86910218D01*
X135397366Y-86910235D01*
X135394686Y-86912025D01*
X135381702Y-86919606D01*
X135376088Y-86922443D01*
X135376076Y-86922450D01*
X135266060Y-86997971D01*
X135157541Y-87070482D01*
X135157540Y-87070483D01*
X135152666Y-87074757D01*
X135141055Y-87083782D01*
X135133191Y-87089180D01*
X135133185Y-87089185D01*
X135036445Y-87176680D01*
X134940666Y-87260678D01*
X134940666Y-87260679D01*
X134934268Y-87267974D01*
X134924181Y-87278216D01*
X134914694Y-87286798D01*
X134832457Y-87384067D01*
X134750478Y-87477547D01*
X134750467Y-87477562D01*
X134743272Y-87488329D01*
X134734834Y-87499534D01*
X134724481Y-87511781D01*
X134724476Y-87511789D01*
X134658286Y-87615473D01*
X134656865Y-87617647D01*
X134590224Y-87717385D01*
X134583049Y-87731934D01*
X134576327Y-87743861D01*
X134565954Y-87760110D01*
X134515539Y-87868750D01*
X134514267Y-87871408D01*
X134462643Y-87976091D01*
X134462639Y-87976100D01*
X134456383Y-87994527D01*
X134451427Y-88006904D01*
X134441942Y-88027347D01*
X134441937Y-88027358D01*
X134407411Y-88138659D01*
X134406394Y-88141789D01*
X134369918Y-88249249D01*
X134369916Y-88249257D01*
X134365486Y-88271523D01*
X134362291Y-88284112D01*
X134354655Y-88308732D01*
X134354652Y-88308745D01*
X134349555Y-88338965D01*
X134335805Y-88420474D01*
X134335154Y-88424019D01*
X134313643Y-88532162D01*
X134311946Y-88558059D01*
X134310478Y-88570627D01*
X134306154Y-88596267D01*
X134305651Y-88599247D01*
X134305650Y-88599255D01*
X134301973Y-88709235D01*
X134301776Y-88713217D01*
X134294778Y-88819997D01*
X127000000Y-88819997D01*
X127000000Y-83730516D01*
X132297346Y-83730516D01*
X132307733Y-83818924D01*
X132308305Y-83825135D01*
X132314253Y-83913957D01*
X132324234Y-83963064D01*
X132325878Y-83973331D01*
X132331728Y-84023112D01*
X132331729Y-84023118D01*
X132353814Y-84109374D01*
X132355210Y-84115455D01*
X132372934Y-84202656D01*
X132372939Y-84202673D01*
X132389375Y-84250011D01*
X132392372Y-84259966D01*
X132404804Y-84308516D01*
X132404806Y-84308522D01*
X132438177Y-84391028D01*
X132440372Y-84396871D01*
X132469576Y-84480974D01*
X132492176Y-84525699D01*
X132496475Y-84535170D01*
X132515268Y-84581634D01*
X132515277Y-84581651D01*
X132559351Y-84658979D01*
X132562294Y-84664457D01*
X132602448Y-84743919D01*
X132602451Y-84743925D01*
X132630814Y-84785243D01*
X132636332Y-84794049D01*
X132655803Y-84828211D01*
X132661154Y-84837599D01*
X132715154Y-84908382D01*
X132718813Y-84913436D01*
X132769182Y-84986810D01*
X132802799Y-85023978D01*
X132809444Y-85031972D01*
X132839850Y-85071826D01*
X132839850Y-85071827D01*
X132902795Y-85134773D01*
X132907097Y-85139296D01*
X132966803Y-85205310D01*
X133005075Y-85237667D01*
X133012732Y-85244710D01*
X133131036Y-85363014D01*
X133220635Y-85455658D01*
X133225023Y-85459123D01*
X133290490Y-85510822D01*
X133295289Y-85514811D01*
X133362301Y-85573414D01*
X133404085Y-85601081D01*
X133412510Y-85607180D01*
X133451846Y-85638244D01*
X133528452Y-85683617D01*
X133533696Y-85686903D01*
X133582366Y-85719130D01*
X133607940Y-85736065D01*
X133607943Y-85736066D01*
X133607944Y-85736067D01*
X133653052Y-85757922D01*
X133662196Y-85762835D01*
X133705331Y-85788383D01*
X133744966Y-85805189D01*
X133787277Y-85823132D01*
X133792960Y-85825711D01*
X133873074Y-85864527D01*
X133920680Y-85880171D01*
X133930411Y-85883825D01*
X133976566Y-85903397D01*
X134043821Y-85921820D01*
X134062415Y-85926914D01*
X134068391Y-85928712D01*
X134152961Y-85956504D01*
X134202254Y-85965667D01*
X134212369Y-85967989D01*
X134260710Y-85981232D01*
X134348964Y-85993100D01*
X134355087Y-85994081D01*
X134442611Y-86010354D01*
X134492680Y-86012865D01*
X134503025Y-86013820D01*
X134552694Y-86020500D01*
X134641698Y-86020500D01*
X134647914Y-86020655D01*
X134736852Y-86025118D01*
X134782226Y-86021317D01*
X134786799Y-86020935D01*
X134797195Y-86020500D01*
X138056610Y-86020500D01*
X138056616Y-86020500D01*
X138056623Y-86020499D01*
X138056630Y-86020499D01*
X138127188Y-86014087D01*
X138127189Y-86014086D01*
X138127196Y-86014086D01*
X138289606Y-85963478D01*
X138294867Y-85960298D01*
X138311067Y-85950503D01*
X138435185Y-85875472D01*
X138555472Y-85755185D01*
X138643478Y-85609606D01*
X138694086Y-85447196D01*
X138697704Y-85407389D01*
X138700499Y-85376630D01*
X138700500Y-85376609D01*
X138700500Y-83858850D01*
X138700570Y-83854690D01*
X138701768Y-83818823D01*
X138704193Y-83746306D01*
X138702605Y-83730516D01*
X138701126Y-83715810D01*
X138700500Y-83703341D01*
X138700500Y-82263390D01*
X138700499Y-82263369D01*
X138694087Y-82192811D01*
X138694086Y-82192808D01*
X138694086Y-82192804D01*
X138643478Y-82030394D01*
X138643477Y-82030393D01*
X138643477Y-82030391D01*
X138567032Y-81903938D01*
X138555472Y-81884815D01*
X138435185Y-81764528D01*
X138409467Y-81748981D01*
X138289608Y-81676522D01*
X138127196Y-81625914D01*
X138127188Y-81625912D01*
X138056630Y-81619500D01*
X138056616Y-81619500D01*
X136949500Y-81619500D01*
X136854212Y-81600546D01*
X136773430Y-81546570D01*
X136719454Y-81465788D01*
X136700500Y-81370500D01*
X136700500Y-69556703D01*
X136719454Y-69461415D01*
X136726179Y-69446573D01*
X136728029Y-69442819D01*
X136737359Y-69423902D01*
X136830081Y-69150753D01*
X136886356Y-68867839D01*
X136905222Y-68580000D01*
X136886356Y-68292161D01*
X136830081Y-68009247D01*
X136830079Y-68009242D01*
X136830079Y-68009239D01*
X136783116Y-67870895D01*
X136737359Y-67736098D01*
X136737355Y-67736091D01*
X136737353Y-67736084D01*
X136609783Y-67477399D01*
X136609782Y-67477398D01*
X136609778Y-67477389D01*
X136449520Y-67237546D01*
X136259327Y-67020673D01*
X136216094Y-66982759D01*
X136159628Y-66933238D01*
X136149373Y-66923139D01*
X136087374Y-66854592D01*
X136033195Y-66794688D01*
X135923737Y-66702147D01*
X135863209Y-66626153D01*
X135836369Y-66532779D01*
X135835500Y-66511999D01*
X135835500Y-66416321D01*
X135854454Y-66321033D01*
X135908430Y-66240251D01*
X137440252Y-64708430D01*
X137521034Y-64654454D01*
X137616322Y-64635500D01*
X143683678Y-64635500D01*
X143778966Y-64654454D01*
X143859748Y-64708430D01*
X151953845Y-72802527D01*
X152005803Y-72878575D01*
X152105825Y-73106603D01*
X152105828Y-73106608D01*
X152241830Y-73314778D01*
X152241836Y-73314785D01*
X152410248Y-73497730D01*
X152410252Y-73497733D01*
X152410256Y-73497738D01*
X152410260Y-73497741D01*
X152410261Y-73497742D01*
X152606485Y-73650470D01*
X152606487Y-73650471D01*
X152606491Y-73650474D01*
X152825190Y-73768828D01*
X152894736Y-73792703D01*
X153060378Y-73849569D01*
X153060382Y-73849569D01*
X153060386Y-73849571D01*
X153305665Y-73890500D01*
X153554335Y-73890500D01*
X153799614Y-73849571D01*
X153799618Y-73849569D01*
X153799621Y-73849569D01*
X153889077Y-73818858D01*
X154034810Y-73768828D01*
X154253509Y-73650474D01*
X154449744Y-73497738D01*
X154618164Y-73314785D01*
X154754173Y-73106607D01*
X154854063Y-72878881D01*
X154915108Y-72637821D01*
X154935643Y-72390000D01*
X154915108Y-72142179D01*
X154854063Y-71901119D01*
X154754173Y-71673393D01*
X154680628Y-71560823D01*
X154618169Y-71465221D01*
X154618163Y-71465214D01*
X154449751Y-71282269D01*
X154449747Y-71282265D01*
X154449744Y-71282262D01*
X154449738Y-71282257D01*
X154253512Y-71129527D01*
X154034816Y-71011174D01*
X153944700Y-70980237D01*
X153860729Y-70931370D01*
X153849481Y-70920799D01*
X147698682Y-64770000D01*
X151924357Y-64770000D01*
X151944892Y-65017823D01*
X151944894Y-65017831D01*
X152005935Y-65258874D01*
X152005936Y-65258878D01*
X152105825Y-65486603D01*
X152105828Y-65486608D01*
X152241830Y-65694778D01*
X152241836Y-65694785D01*
X152410248Y-65877730D01*
X152410252Y-65877733D01*
X152410256Y-65877738D01*
X152410260Y-65877741D01*
X152410261Y-65877742D01*
X152606485Y-66030470D01*
X152606487Y-66030471D01*
X152606491Y-66030474D01*
X152825190Y-66148828D01*
X152894736Y-66172703D01*
X153060378Y-66229569D01*
X153060382Y-66229569D01*
X153060386Y-66229571D01*
X153305665Y-66270500D01*
X153554335Y-66270500D01*
X153799614Y-66229571D01*
X153799618Y-66229569D01*
X153799621Y-66229569D01*
X153868662Y-66205866D01*
X154034810Y-66148828D01*
X154059415Y-66135512D01*
X154152240Y-66106829D01*
X154177929Y-66105500D01*
X156823678Y-66105500D01*
X156918966Y-66124454D01*
X156999748Y-66178430D01*
X163623845Y-72802527D01*
X163675803Y-72878575D01*
X163775825Y-73106603D01*
X163775828Y-73106608D01*
X163911830Y-73314778D01*
X163911836Y-73314785D01*
X164080248Y-73497730D01*
X164080252Y-73497733D01*
X164080256Y-73497738D01*
X164080260Y-73497741D01*
X164080261Y-73497742D01*
X164276485Y-73650470D01*
X164276487Y-73650471D01*
X164276491Y-73650474D01*
X164495190Y-73768828D01*
X164564736Y-73792703D01*
X164730378Y-73849569D01*
X164730382Y-73849569D01*
X164730386Y-73849571D01*
X164975665Y-73890500D01*
X165224335Y-73890500D01*
X165469614Y-73849571D01*
X165469618Y-73849569D01*
X165469621Y-73849569D01*
X165559077Y-73818858D01*
X165704810Y-73768828D01*
X165923509Y-73650474D01*
X166119744Y-73497738D01*
X166288164Y-73314785D01*
X166424173Y-73106607D01*
X166524063Y-72878881D01*
X166585108Y-72637821D01*
X166605643Y-72390000D01*
X166585108Y-72142179D01*
X166524063Y-71901119D01*
X166495900Y-71836914D01*
X166474981Y-71742041D01*
X166491961Y-71646381D01*
X166544256Y-71564501D01*
X166547810Y-71560871D01*
X173200252Y-64908429D01*
X173281034Y-64854454D01*
X173376322Y-64835500D01*
X178874471Y-64835500D01*
X178969759Y-64854454D01*
X179050541Y-64908430D01*
X179104517Y-64989212D01*
X179123471Y-65084500D01*
X179104517Y-65179788D01*
X179082927Y-65220688D01*
X179015826Y-65323394D01*
X179015825Y-65323396D01*
X178915936Y-65551121D01*
X178915935Y-65551125D01*
X178854894Y-65792168D01*
X178854892Y-65792176D01*
X178834357Y-66040000D01*
X178854892Y-66287823D01*
X178854894Y-66287831D01*
X178915935Y-66528874D01*
X178915936Y-66528878D01*
X179015825Y-66756603D01*
X179015828Y-66756608D01*
X179151830Y-66964778D01*
X179151836Y-66964785D01*
X179320248Y-67147730D01*
X179320252Y-67147733D01*
X179320256Y-67147738D01*
X179320260Y-67147741D01*
X179320261Y-67147742D01*
X179516485Y-67300470D01*
X179516487Y-67300471D01*
X179516491Y-67300474D01*
X179735190Y-67418828D01*
X179804736Y-67442703D01*
X179970378Y-67499569D01*
X179970382Y-67499569D01*
X179970386Y-67499571D01*
X180215665Y-67540500D01*
X180464335Y-67540500D01*
X180709614Y-67499571D01*
X180709618Y-67499569D01*
X180709621Y-67499569D01*
X180799077Y-67468858D01*
X180944810Y-67418828D01*
X181163509Y-67300474D01*
X181359744Y-67147738D01*
X181426807Y-67074887D01*
X181505286Y-67017622D01*
X181599709Y-66994746D01*
X181695699Y-67009745D01*
X181778643Y-67060337D01*
X181793180Y-67074874D01*
X181860256Y-67147738D01*
X181860260Y-67147741D01*
X181860261Y-67147742D01*
X182056485Y-67300470D01*
X182056487Y-67300471D01*
X182056491Y-67300474D01*
X182275190Y-67418828D01*
X182344736Y-67442703D01*
X182510378Y-67499569D01*
X182510382Y-67499569D01*
X182510386Y-67499571D01*
X182755665Y-67540500D01*
X183004335Y-67540500D01*
X183249614Y-67499571D01*
X183249618Y-67499569D01*
X183249621Y-67499569D01*
X183339077Y-67468858D01*
X183484810Y-67418828D01*
X183703509Y-67300474D01*
X183747213Y-67266457D01*
X183834051Y-67222886D01*
X183930952Y-67215863D01*
X184023164Y-67246457D01*
X184076220Y-67286877D01*
X184184815Y-67395472D01*
X184246873Y-67432987D01*
X184330391Y-67483477D01*
X184330393Y-67483477D01*
X184330394Y-67483478D01*
X184492804Y-67534086D01*
X184492808Y-67534086D01*
X184492811Y-67534087D01*
X184563369Y-67540499D01*
X184563377Y-67540499D01*
X184563384Y-67540500D01*
X184563390Y-67540500D01*
X186276610Y-67540500D01*
X186276616Y-67540500D01*
X186276623Y-67540499D01*
X186276630Y-67540499D01*
X186347188Y-67534087D01*
X186347189Y-67534086D01*
X186347196Y-67534086D01*
X186509606Y-67483478D01*
X186519679Y-67477389D01*
X186531067Y-67470503D01*
X186655185Y-67395472D01*
X186775472Y-67275185D01*
X186863478Y-67129606D01*
X186914086Y-66967196D01*
X186920500Y-66896616D01*
X186920500Y-66240929D01*
X194049501Y-66240929D01*
X194049501Y-72249071D01*
X194049502Y-72249071D01*
X204329070Y-72249071D01*
X204329071Y-72249071D01*
X204329071Y-66240929D01*
X194049501Y-66240929D01*
X186920500Y-66240929D01*
X186920500Y-65183384D01*
X186920499Y-65183369D01*
X186914087Y-65112811D01*
X186914086Y-65112808D01*
X186914086Y-65112804D01*
X186863478Y-64950394D01*
X186863477Y-64950393D01*
X186863477Y-64950391D01*
X186805480Y-64854454D01*
X186775472Y-64804815D01*
X186655185Y-64684528D01*
X186605437Y-64654454D01*
X186509608Y-64596522D01*
X186347196Y-64545914D01*
X186347188Y-64545912D01*
X186276630Y-64539500D01*
X186276616Y-64539500D01*
X184563384Y-64539500D01*
X184563369Y-64539500D01*
X184492811Y-64545912D01*
X184492803Y-64545914D01*
X184330391Y-64596522D01*
X184184814Y-64684528D01*
X184076224Y-64793118D01*
X183995442Y-64847094D01*
X183900154Y-64866048D01*
X183804866Y-64847094D01*
X183747216Y-64813544D01*
X183703511Y-64779527D01*
X183484816Y-64661174D01*
X183394700Y-64630237D01*
X183310729Y-64581370D01*
X183299481Y-64570799D01*
X181243114Y-62514432D01*
X181243114Y-62514431D01*
X181201722Y-62473040D01*
X181201718Y-62473037D01*
X181158221Y-62442579D01*
X181149602Y-62435966D01*
X181108941Y-62401847D01*
X181108939Y-62401845D01*
X181101351Y-62397464D01*
X181062948Y-62375292D01*
X181053798Y-62369463D01*
X181053794Y-62369460D01*
X181010300Y-62339005D01*
X181010297Y-62339003D01*
X181010291Y-62339000D01*
X180962181Y-62316566D01*
X180952542Y-62311549D01*
X180906565Y-62285003D01*
X180906560Y-62285001D01*
X180856665Y-62266841D01*
X180846625Y-62262682D01*
X180820951Y-62250710D01*
X180798517Y-62240248D01*
X180747228Y-62226505D01*
X180736868Y-62223238D01*
X180694484Y-62207812D01*
X180686974Y-62205079D01*
X180686973Y-62205078D01*
X180686971Y-62205078D01*
X180634681Y-62195857D01*
X180624077Y-62193506D01*
X180581618Y-62182130D01*
X180572793Y-62179766D01*
X180572791Y-62179765D01*
X180572788Y-62179765D01*
X180519910Y-62175139D01*
X180509139Y-62173721D01*
X180468120Y-62166488D01*
X180456841Y-62164500D01*
X180398304Y-62164500D01*
X172836841Y-62164500D01*
X172603159Y-62164500D01*
X172603156Y-62164500D01*
X172550861Y-62173721D01*
X172540090Y-62175139D01*
X172487211Y-62179765D01*
X172487199Y-62179767D01*
X172435925Y-62193506D01*
X172425320Y-62195857D01*
X172373030Y-62205078D01*
X172373028Y-62205078D01*
X172373026Y-62205079D01*
X172323141Y-62223235D01*
X172312783Y-62226501D01*
X172261485Y-62240247D01*
X172213364Y-62262686D01*
X172203331Y-62266841D01*
X172153441Y-62285001D01*
X172153436Y-62285004D01*
X172107467Y-62311544D01*
X172097832Y-62316559D01*
X172049700Y-62339004D01*
X172006203Y-62369460D01*
X171997042Y-62375296D01*
X171951068Y-62401840D01*
X171951056Y-62401848D01*
X171910388Y-62435972D01*
X171901772Y-62442583D01*
X171858281Y-62473036D01*
X171858277Y-62473040D01*
X171816885Y-62514431D01*
X171816886Y-62514432D01*
X164641070Y-69690248D01*
X164560288Y-69744224D01*
X164465000Y-69763178D01*
X164369712Y-69744224D01*
X164288930Y-69690248D01*
X158383113Y-63784431D01*
X158383113Y-63784430D01*
X158341722Y-63743040D01*
X158341718Y-63743037D01*
X158298221Y-63712579D01*
X158289602Y-63705966D01*
X158248941Y-63671847D01*
X158248939Y-63671845D01*
X158241351Y-63667464D01*
X158202948Y-63645292D01*
X158193798Y-63639463D01*
X158150300Y-63609005D01*
X158150297Y-63609003D01*
X158150291Y-63609000D01*
X158102181Y-63586566D01*
X158092542Y-63581549D01*
X158046565Y-63555003D01*
X158046560Y-63555001D01*
X157996665Y-63536841D01*
X157986625Y-63532682D01*
X157938517Y-63510249D01*
X157938517Y-63510248D01*
X157887228Y-63496505D01*
X157876868Y-63493238D01*
X157826971Y-63475078D01*
X157774681Y-63465857D01*
X157764077Y-63463506D01*
X157721618Y-63452130D01*
X157712793Y-63449766D01*
X157712791Y-63449765D01*
X157712788Y-63449765D01*
X157659910Y-63445139D01*
X157649139Y-63443721D01*
X157608120Y-63436488D01*
X157596841Y-63434500D01*
X157596840Y-63434500D01*
X154177929Y-63434500D01*
X154082641Y-63415546D01*
X154059416Y-63404488D01*
X154034813Y-63391173D01*
X153799621Y-63310430D01*
X153799610Y-63310428D01*
X153554335Y-63269500D01*
X153305665Y-63269500D01*
X153060389Y-63310428D01*
X153060378Y-63310430D01*
X152825188Y-63391172D01*
X152606485Y-63509529D01*
X152410261Y-63662257D01*
X152410248Y-63662269D01*
X152241836Y-63845214D01*
X152241830Y-63845221D01*
X152105828Y-64053391D01*
X152105825Y-64053396D01*
X152005936Y-64281121D01*
X152005935Y-64281125D01*
X151944894Y-64522168D01*
X151944892Y-64522176D01*
X151924357Y-64770000D01*
X147698682Y-64770000D01*
X145912399Y-62983717D01*
X145858423Y-62902935D01*
X145847953Y-62872091D01*
X145839753Y-62841487D01*
X145740995Y-62629700D01*
X145606960Y-62438278D01*
X145441722Y-62273040D01*
X145394892Y-62240249D01*
X145344665Y-62205079D01*
X145344665Y-62205080D01*
X145344664Y-62205079D01*
X145250301Y-62139005D01*
X145038513Y-62040247D01*
X145038510Y-62040246D01*
X144812786Y-61979764D01*
X144580006Y-61959399D01*
X144579998Y-61959399D01*
X144567132Y-61960524D01*
X144527107Y-61964026D01*
X144516263Y-61964500D01*
X136843156Y-61964500D01*
X136790861Y-61973721D01*
X136780090Y-61975139D01*
X136727211Y-61979765D01*
X136727199Y-61979767D01*
X136675925Y-61993506D01*
X136665320Y-61995857D01*
X136613030Y-62005078D01*
X136613028Y-62005078D01*
X136613026Y-62005079D01*
X136563141Y-62023235D01*
X136552783Y-62026501D01*
X136501485Y-62040247D01*
X136453364Y-62062686D01*
X136443331Y-62066841D01*
X136393441Y-62085001D01*
X136393436Y-62085004D01*
X136347467Y-62111544D01*
X136337832Y-62116559D01*
X136289700Y-62139004D01*
X136246203Y-62169460D01*
X136237042Y-62175296D01*
X136191068Y-62201840D01*
X136191061Y-62201845D01*
X136150387Y-62235973D01*
X136141772Y-62242583D01*
X136098276Y-62273041D01*
X136098274Y-62273042D01*
X136021864Y-62349451D01*
X136021865Y-62349452D01*
X135434777Y-62936540D01*
X133638277Y-64733039D01*
X133565346Y-64805971D01*
X133565345Y-64805970D01*
X133473040Y-64898277D01*
X133473036Y-64898281D01*
X133442583Y-64941772D01*
X133435972Y-64950388D01*
X133401848Y-64991056D01*
X133401841Y-64991067D01*
X133375297Y-65037042D01*
X133369461Y-65046202D01*
X133339007Y-65089696D01*
X133339002Y-65089704D01*
X133316566Y-65137820D01*
X133311549Y-65147456D01*
X133285002Y-65193437D01*
X133285001Y-65193439D01*
X133266840Y-65243334D01*
X133262684Y-65253368D01*
X133240247Y-65301485D01*
X133226506Y-65352767D01*
X133223240Y-65363124D01*
X133205079Y-65413023D01*
X133205078Y-65413027D01*
X133195857Y-65465320D01*
X133193506Y-65475925D01*
X133179767Y-65527199D01*
X133179765Y-65527211D01*
X133175139Y-65580090D01*
X133173721Y-65590861D01*
X133164500Y-65643156D01*
X133164500Y-66505549D01*
X133145546Y-66600837D01*
X133091570Y-66681619D01*
X133076279Y-66695683D01*
X133076127Y-66695810D01*
X132864343Y-66900634D01*
X132864336Y-66900641D01*
X132681750Y-67131853D01*
X132531620Y-67385323D01*
X132531619Y-67385325D01*
X132416605Y-67656560D01*
X132338767Y-67940714D01*
X132338765Y-67940724D01*
X132299500Y-68232688D01*
X132299500Y-83601617D01*
X132297346Y-83730516D01*
X127000000Y-83730516D01*
X127000000Y-58669000D01*
X127018954Y-58573712D01*
X127072930Y-58492930D01*
X127153712Y-58438954D01*
X127249000Y-58420000D01*
X208031000Y-58420000D01*
X208126288Y-58438954D01*
G37*
%TD.AperFunction*%
%TD*%
M02*
