M48
; DRILL file {KiCad 7.0.5} date Fri Jun  9 13:26:23 2023
; FORMAT={-:-/ absolute / inch / decimal}
; #@! TF.CreationDate,2023-06-09T13:26:23-05:00
; #@! TF.GenerationSoftware,Kicad,Pcbnew,7.0.5
; #@! TF.FileFunction,Plated,1,2,PTH
FMAT,2
INCH
; #@! TA.AperFunction,Plated,PTH,ComponentDrill
T1C0.0256
; #@! TA.AperFunction,Plated,PTH,ComponentDrill
T2C0.0315
; #@! TA.AperFunction,Plated,PTH,ComponentDrill
T3C0.0354
; #@! TA.AperFunction,Plated,PTH,ComponentDrill
T4C0.0394
; #@! TA.AperFunction,Plated,PTH,ComponentDrill
T5C0.0402
; #@! TA.AperFunction,Plated,PTH,ComponentDrill
T6C0.0472
; #@! TA.AperFunction,Plated,PTH,ComponentDrill
T7C0.0551
; #@! TA.AperFunction,Plated,PTH,ComponentDrill
T8C0.0591
%
G90
G05
T1
X6.5Y-4.3
X6.8Y-2.9
T2
X6.0406Y-2.55
X6.0406Y-2.85
X6.5Y-2.55
X6.5Y-2.85
X7.0Y-2.6
X7.0Y-2.9
X7.1Y-2.6
X7.1Y-2.9
X7.2Y-2.6
X7.2Y-2.9
X7.3Y-2.6
X7.3Y-2.9
T3
X8.0Y-3.2031
X8.0Y-3.3016
X8.0Y-3.4
X8.1299Y-3.2031
X8.1299Y-3.3016
X8.1299Y-3.4
T4
X6.6583Y-4.2
X6.6583Y-4.3
X6.6583Y-4.4
X6.6583Y-4.5
X6.6583Y-4.6
X6.6583Y-4.7
X6.6583Y-4.8
X6.6583Y-4.9
X6.6583Y-5.0
X6.6583Y-5.1
X6.6583Y-5.2
X6.6583Y-5.3
X6.6583Y-5.4
X6.6583Y-5.5
X6.6583Y-5.6
X6.6583Y-5.7
X6.6583Y-5.8
X6.6583Y-5.9
X6.6583Y-6.0
X6.6583Y-6.1
X6.8Y-4.2
X6.8Y-4.3
X6.8Y-4.4
X6.8Y-4.5
X6.8Y-4.6
X6.8Y-4.7
X6.8Y-4.8
X6.8Y-4.9
X6.8Y-5.0
X6.8Y-5.1
X6.8Y-5.2
X6.8Y-5.3
X6.8Y-5.4
X6.8Y-5.5
X6.8Y-5.6
X6.8Y-5.7
X6.8Y-5.8
X6.8Y-5.9
X6.8Y-6.0
X6.8Y-6.1
T5
X5.5606Y-6.0
X5.6252Y-4.676
X5.6252Y-4.776
X5.6252Y-4.876
X5.6252Y-4.976
X5.6252Y-5.076
X5.6252Y-5.176
X5.6252Y-5.276
X5.6252Y-5.376
X5.6252Y-5.476
X5.6252Y-5.576
X5.6252Y-5.676
X5.6252Y-5.776
X5.6606Y-6.0
X5.8Y-4.4496
X5.8606Y-6.0
X5.9Y-4.4496
X5.9606Y-5.9996
X6.0Y-4.4496
X6.0606Y-6.0
X6.1Y-4.4496
X6.1606Y-6.0
X6.2Y-4.4496
X6.2606Y-6.0
X6.3Y-4.4496
X6.3606Y-6.0
X7.1Y-4.3996
X7.1606Y-5.95
X7.2Y-4.3996
X7.2606Y-5.95
X7.3Y-4.3996
X7.3606Y-5.95
X7.4Y-4.3996
X7.4606Y-5.95
X7.5Y-4.4
X7.5606Y-5.95
X7.6Y-4.3996
X7.6606Y-5.95
X7.8Y-4.3996
X7.8354Y-4.6236
X7.8354Y-4.7236
X7.8354Y-4.8236
X7.8354Y-4.9236
X7.8354Y-5.0236
X7.8354Y-5.1236
X7.8354Y-5.2236
X7.8354Y-5.3236
X7.8354Y-5.4236
X7.8354Y-5.5236
X7.8354Y-5.6236
X7.8354Y-5.7236
X7.9Y-4.3996
T6
X5.9812Y-3.1582
X5.9812Y-3.4338
X6.6111Y-3.1582
X6.6111Y-3.4338
T7
X6.9339Y-3.3
X7.8Y-3.3
T8
X5.3031Y-2.7
X5.3031Y-3.3
X5.3031Y-3.9364
X5.5Y-2.7
X5.5Y-3.3
X5.5Y-3.9364
T0
M30
