%TF.GenerationSoftware,KiCad,Pcbnew,7.0.5*%
%TF.CreationDate,2023-06-09T18:15:06-05:00*%
%TF.ProjectId,pcbpai,70636270-6169-42e6-9b69-6361645f7063,rev?*%
%TF.SameCoordinates,Original*%
%TF.FileFunction,Copper,L1,Top*%
%TF.FilePolarity,Positive*%
%FSLAX46Y46*%
G04 Gerber Fmt 4.6, Leading zero omitted, Abs format (unit mm)*
G04 Created by KiCad (PCBNEW 7.0.5) date 2023-06-09 18:15:06*
%MOMM*%
%LPD*%
G01*
G04 APERTURE LIST*
%TA.AperFunction,ComponentPad*%
%ADD10C,2.000000*%
%TD*%
%TA.AperFunction,ComponentPad*%
%ADD11R,1.700000X1.700000*%
%TD*%
%TA.AperFunction,ComponentPad*%
%ADD12O,1.700000X1.700000*%
%TD*%
%TA.AperFunction,ComponentPad*%
%ADD13C,5.000000*%
%TD*%
%TA.AperFunction,ComponentPad*%
%ADD14C,1.600000*%
%TD*%
%TA.AperFunction,ComponentPad*%
%ADD15O,1.600000X1.600000*%
%TD*%
%TA.AperFunction,ComponentPad*%
%ADD16R,1.600000X1.600000*%
%TD*%
%TA.AperFunction,ComponentPad*%
%ADD17R,3.000000X3.000000*%
%TD*%
%TA.AperFunction,ComponentPad*%
%ADD18C,3.000000*%
%TD*%
G04 APERTURE END LIST*
D10*
%TO.P,U4,1,in1*%
%TO.N,Net-(J4-Pin_2)*%
X151922500Y-87217500D03*
%TO.P,U4,2,in2*%
%TO.N,GND*%
X151922500Y-80217500D03*
%TO.P,U4,3,out1*%
%TO.N,Net-(J1-Pin_1)*%
X167922500Y-87217500D03*
%TO.P,U4,4,out2*%
%TO.N,GND*%
X167922500Y-80217500D03*
%TD*%
D11*
%TO.P,J6,1,Pin_1*%
%TO.N,Net-(J6-Pin_1)*%
X165100000Y-127000000D03*
D12*
%TO.P,J6,2,Pin_2*%
%TO.N,Net-(J6-Pin_2)*%
X165100000Y-129540000D03*
%TO.P,J6,3,Pin_3*%
%TO.N,Net-(J6-Pin_3)*%
X165100000Y-132080000D03*
%TO.P,J6,4,Pin_4*%
%TO.N,Net-(J6-Pin_4)*%
X165100000Y-134620000D03*
%TO.P,J6,5,Pin_5*%
%TO.N,Net-(J6-Pin_5)*%
X165100000Y-137160000D03*
%TO.P,J6,6,Pin_6*%
%TO.N,Net-(J6-Pin_6)*%
X165100000Y-139700000D03*
%TD*%
D10*
%TO.P,J1,1,Pin_1*%
%TO.N,Net-(J1-Pin_1)*%
X176120000Y-83820000D03*
%TO.P,J1,2,Pin_2*%
%TO.N,Net-(J1-Pin_2)*%
X198120000Y-83820000D03*
%TD*%
D13*
%TO.P,M1,1*%
%TO.N,N/C*%
X154000000Y-159000000D03*
%TD*%
D14*
%TO.P,R1,1*%
%TO.N,+24V*%
X153430000Y-72390000D03*
D15*
%TO.P,R1,2*%
%TO.N,Net-(U6-XTAL1{slash}PB3)*%
X153430000Y-64770000D03*
%TD*%
D11*
%TO.P,J2,1,Pin_1*%
%TO.N,Net-(J2-Pin_1)*%
X165100000Y-114840000D03*
D12*
%TO.P,J2,2,Pin_2*%
%TO.N,Net-(J2-Pin_2)*%
X165100000Y-117380000D03*
%TO.P,J2,3,Pin_3*%
%TO.N,Net-(J2-Pin_3)*%
X165100000Y-119920000D03*
%TO.P,J2,4,Pin_4*%
%TO.N,Net-(J2-Pin_4)*%
X165100000Y-122460000D03*
%TD*%
D13*
%TO.P,REF\u002A\u002A,3*%
%TO.N,N/C*%
X203000000Y-101000000D03*
%TD*%
D16*
%TO.P,U6,1,~{RESET}/PB5*%
%TO.N,unconnected-(U6-~{RESET}{slash}PB5-Pad1)*%
X185420000Y-66040000D03*
D15*
%TO.P,U6,2,XTAL1/PB3*%
%TO.N,Net-(U6-XTAL1{slash}PB3)*%
X182880000Y-66040000D03*
%TO.P,U6,3,XTAL2/PB4*%
%TO.N,unconnected-(U6-XTAL2{slash}PB4-Pad3)*%
X180340000Y-66040000D03*
%TO.P,U6,4,GND*%
%TO.N,GND*%
X177800000Y-66040000D03*
%TO.P,U6,5,AREF/PB0*%
%TO.N,Net-(U6-AREF{slash}PB0)*%
X177800000Y-73660000D03*
%TO.P,U6,6,PB1*%
%TO.N,unconnected-(U6-PB1-Pad6)*%
X180340000Y-73660000D03*
%TO.P,U6,7,PB2*%
%TO.N,Net-(U6-PB2)*%
X182880000Y-73660000D03*
%TO.P,U6,8,VCC*%
%TO.N,Net-(U6-VCC)*%
X185420000Y-73660000D03*
%TD*%
D13*
%TO.P,REF\u002A\u002A,2*%
%TO.N,N/C*%
X203000000Y-159000000D03*
%TD*%
D17*
%TO.P,J3,1,Pin_1*%
%TO.N,GND*%
X139700000Y-68580000D03*
D18*
%TO.P,J3,2,Pin_2*%
%TO.N,+24V*%
X134700000Y-68580000D03*
%TD*%
D17*
%TO.P,J4,1,Pin_1*%
%TO.N,+24V*%
X136500000Y-83820000D03*
D18*
%TO.P,J4,2,Pin_2*%
%TO.N,Net-(J4-Pin_2)*%
X136500000Y-88820000D03*
%TD*%
D10*
%TO.P,U2,1,?*%
%TO.N,unconnected-(U2-?-Pad1)*%
X197120000Y-151130000D03*
%TO.P,U2,2,GND*%
%TO.N,unconnected-(U2-GND-Pad2)*%
X194580000Y-151130000D03*
%TO.P,U2,3,VM*%
%TO.N,unconnected-(U2-VM-Pad3)*%
X192040000Y-151130000D03*
%TO.P,U2,4,VCC*%
%TO.N,unconnected-(U2-VCC-Pad4)*%
X189500000Y-151130000D03*
%TO.P,U2,5,3v3*%
%TO.N,unconnected-(U2-3v3-Pad5)*%
X186960000Y-151130000D03*
%TO.P,U2,6,RST*%
%TO.N,unconnected-(U2-RST-Pad6)*%
X184420000Y-151130000D03*
%TO.P,U2,7,Vin1*%
%TO.N,Net-(J5-Pin_2)*%
X201560000Y-145380000D03*
%TO.P,U2,8,Vin_2*%
%TO.N,unconnected-(U2-Vin_2-Pad8)*%
X201560000Y-142840000D03*
%TO.P,U2,9,GND_1*%
%TO.N,GND*%
X201560000Y-140300000D03*
%TO.P,U2,10,GND_2*%
%TO.N,unconnected-(U2-GND_2-Pad10)*%
X201560000Y-137760000D03*
%TO.P,U2,11,M1A_1*%
%TO.N,unconnected-(U2-M1A_1-Pad11)*%
X201560000Y-135220000D03*
%TO.P,U2,12,M1A_2*%
%TO.N,unconnected-(U2-M1A_2-Pad12)*%
X201560000Y-132680000D03*
%TO.P,U2,13,M1B_1*%
%TO.N,unconnected-(U2-M1B_1-Pad13)*%
X201560000Y-130140000D03*
%TO.P,U2,14,M1B_2*%
%TO.N,unconnected-(U2-M1B_2-Pad14)*%
X201560000Y-127600000D03*
%TO.P,U2,15,M2A_2*%
%TO.N,unconnected-(U2-M2A_2-Pad15)*%
X201560000Y-125060000D03*
%TO.P,U2,16,m2A_1*%
%TO.N,unconnected-(U2-m2A_1-Pad16)*%
X201560000Y-122520000D03*
%TO.P,U2,17,M2B_2*%
%TO.N,unconnected-(U2-M2B_2-Pad17)*%
X201560000Y-119980000D03*
%TO.P,U2,18,M2B_1*%
%TO.N,unconnected-(U2-M2B_1-Pad18)*%
X201560000Y-117440000D03*
%TO.P,U2,19,M2Fault*%
%TO.N,Net-(U2-M2Fault)*%
X182880000Y-111750000D03*
%TO.P,U2,20,M1Fault*%
%TO.N,unconnected-(U2-M1Fault-Pad20)*%
X185420000Y-111750000D03*
%TO.P,U2,21,M2PWM*%
%TO.N,Net-(U2-M2PWM)*%
X187960000Y-111750000D03*
%TO.P,U2,22,M1PWM*%
%TO.N,Net-(U2-M1PWM)*%
X190500000Y-111750000D03*
%TO.P,U2,23,M2Dir*%
%TO.N,Net-(U2-M2Dir)*%
X193040000Y-111760000D03*
%TO.P,U2,24,M1Dir*%
%TO.N,Net-(U2-M1Dir)*%
X195580000Y-111750000D03*
%TO.P,U2,25,M2EN*%
%TO.N,unconnected-(U2-M2EN-Pad25)*%
X200660000Y-111750000D03*
%TO.P,U2,26,M1EN*%
%TO.N,Net-(U2-M1EN)*%
X203200000Y-111750000D03*
%TD*%
D13*
%TO.P,REF\u002A\u002A,4*%
%TO.N,N/C*%
X154000000Y-101000000D03*
%TD*%
D14*
%TO.P,R2,1*%
%TO.N,Net-(U6-XTAL1{slash}PB3)*%
X165100000Y-72390000D03*
D15*
%TO.P,R2,2*%
%TO.N,GND*%
X165100000Y-64770000D03*
%TD*%
D10*
%TO.P,U1,1,?*%
%TO.N,unconnected-(U1-?-Pad1)*%
X147320000Y-109000000D03*
%TO.P,U1,2,GND*%
%TO.N,unconnected-(U1-GND-Pad2)*%
X149860000Y-109000000D03*
%TO.P,U1,3,VM*%
%TO.N,unconnected-(U1-VM-Pad3)*%
X152400000Y-109000000D03*
%TO.P,U1,4,VCC*%
%TO.N,unconnected-(U1-VCC-Pad4)*%
X154940000Y-109000000D03*
%TO.P,U1,5,3v3*%
%TO.N,unconnected-(U1-3v3-Pad5)*%
X157480000Y-109000000D03*
%TO.P,U1,6,RST*%
%TO.N,unconnected-(U1-RST-Pad6)*%
X160020000Y-109000000D03*
%TO.P,U1,7,Vin1*%
%TO.N,Net-(J5-Pin_2)*%
X142880000Y-114750000D03*
%TO.P,U1,8,Vin_2*%
%TO.N,unconnected-(U1-Vin_2-Pad8)*%
X142880000Y-117290000D03*
%TO.P,U1,9,GND_1*%
%TO.N,GND*%
X142880000Y-119830000D03*
%TO.P,U1,10,GND_2*%
%TO.N,unconnected-(U1-GND_2-Pad10)*%
X142880000Y-122370000D03*
%TO.P,U1,11,M1A_1*%
%TO.N,unconnected-(U1-M1A_1-Pad11)*%
X142880000Y-124910000D03*
%TO.P,U1,12,M1A_2*%
%TO.N,unconnected-(U1-M1A_2-Pad12)*%
X142880000Y-127450000D03*
%TO.P,U1,13,M1B_1*%
%TO.N,unconnected-(U1-M1B_1-Pad13)*%
X142880000Y-129990000D03*
%TO.P,U1,14,M1B_2*%
%TO.N,unconnected-(U1-M1B_2-Pad14)*%
X142880000Y-132530000D03*
%TO.P,U1,15,M2A_2*%
%TO.N,unconnected-(U1-M2A_2-Pad15)*%
X142880000Y-135070000D03*
%TO.P,U1,16,m2A_1*%
%TO.N,unconnected-(U1-m2A_1-Pad16)*%
X142880000Y-137610000D03*
%TO.P,U1,17,M2B_2*%
%TO.N,unconnected-(U1-M2B_2-Pad17)*%
X142880000Y-140150000D03*
%TO.P,U1,18,M2B_1*%
%TO.N,unconnected-(U1-M2B_1-Pad18)*%
X142880000Y-142690000D03*
%TO.P,U1,19,M2Fault*%
%TO.N,Net-(U1-M2Fault)*%
X161560000Y-148380000D03*
%TO.P,U1,20,M1Fault*%
%TO.N,unconnected-(U1-M1Fault-Pad20)*%
X159020000Y-148380000D03*
%TO.P,U1,21,M2PWM*%
%TO.N,Net-(U1-M2PWM)*%
X156480000Y-148380000D03*
%TO.P,U1,22,M1PWM*%
%TO.N,Net-(U1-M1PWM)*%
X153940000Y-148380000D03*
%TO.P,U1,23,M2Dir*%
%TO.N,Net-(U1-M2Dir)*%
X151400000Y-148370000D03*
%TO.P,U1,24,M1Dir*%
%TO.N,Net-(U1-M1Dir)*%
X148860000Y-148380000D03*
%TO.P,U1,25,M2EN*%
%TO.N,Net-(U1-M2EN)*%
X143780000Y-148380000D03*
%TO.P,U1,26,M1EN*%
%TO.N,unconnected-(U1-M1EN-Pad26)*%
X141240000Y-148380000D03*
%TD*%
D17*
%TO.P,J5,1,Pin_1*%
%TO.N,Net-(J4-Pin_2)*%
X136500000Y-95000000D03*
D18*
%TO.P,J5,2,Pin_2*%
%TO.N,Net-(J5-Pin_2)*%
X136500000Y-100000000D03*
%TD*%
D11*
%TO.P,U3,1,1*%
%TO.N,Net-(U6-VCC)*%
X169120000Y-106680000D03*
%TO.P,U3,2,2*%
%TO.N,Net-(SW1-A-Pad1)*%
X172720000Y-106680000D03*
D12*
%TO.P,U3,3,3*%
%TO.N,Net-(U6-AREF{slash}PB0)*%
X169120000Y-109220000D03*
%TO.P,U3,4,4*%
%TO.N,unconnected-(U3-Pad4)*%
X172720000Y-109220000D03*
%TO.P,U3,5,5*%
%TO.N,Net-(U6-PB2)*%
X169120000Y-111760000D03*
%TO.P,U3,6,6*%
%TO.N,unconnected-(U3-Pad6)*%
X172720000Y-111760000D03*
%TO.P,U3,7,7*%
%TO.N,Net-(J2-Pin_1)*%
X169120000Y-114300000D03*
%TO.P,U3,8,8*%
%TO.N,unconnected-(U3-Pad8)*%
X172720000Y-114300000D03*
%TO.P,U3,9,9*%
%TO.N,Net-(J2-Pin_2)*%
X169120000Y-116840000D03*
%TO.P,U3,10,10*%
%TO.N,Net-(U2-M2Fault)*%
X172720000Y-116840000D03*
%TO.P,U3,11,11*%
%TO.N,Net-(J2-Pin_3)*%
X169120000Y-119380000D03*
%TO.P,U3,12,12*%
%TO.N,Net-(U2-M2PWM)*%
X172720000Y-119380000D03*
%TO.P,U3,13,13*%
%TO.N,Net-(J2-Pin_4)*%
X169120000Y-121920000D03*
%TO.P,U3,14,14*%
%TO.N,Net-(J8-Pin_9)*%
X172720000Y-121920000D03*
%TO.P,U3,15,15*%
%TO.N,Net-(U1-M2EN)*%
X169120000Y-124460000D03*
%TO.P,U3,16,16*%
%TO.N,Net-(J8-Pin_8)*%
X172720000Y-124460000D03*
%TO.P,U3,17,17*%
%TO.N,Net-(J6-Pin_1)*%
X169120000Y-127000000D03*
%TO.P,U3,18,18*%
%TO.N,Net-(J8-Pin_7)*%
X172720000Y-127000000D03*
%TO.P,U3,19,19*%
%TO.N,Net-(J6-Pin_2)*%
X169120000Y-129540000D03*
%TO.P,U3,20,20*%
%TO.N,Net-(J8-Pin_6)*%
X172720000Y-129540000D03*
%TO.P,U3,21,21*%
%TO.N,Net-(J6-Pin_3)*%
X169120000Y-132080000D03*
%TO.P,U3,22,22*%
%TO.N,Net-(J8-Pin_5)*%
X172720000Y-132080000D03*
%TO.P,U3,23,23*%
%TO.N,Net-(J6-Pin_4)*%
X169120000Y-134620000D03*
%TO.P,U3,24,24*%
%TO.N,Net-(J8-Pin_4)*%
X172720000Y-134620000D03*
%TO.P,U3,25,25*%
%TO.N,Net-(J6-Pin_5)*%
X169120000Y-137160000D03*
%TO.P,U3,26,26*%
%TO.N,Net-(J8-Pin_3)*%
X172720000Y-137160000D03*
%TO.P,U3,27,27*%
%TO.N,Net-(J6-Pin_6)*%
X169120000Y-139700000D03*
%TO.P,U3,28,28*%
%TO.N,Net-(J8-Pin_2)*%
X172720000Y-139700000D03*
%TO.P,U3,29,29*%
%TO.N,Net-(U1-M1Dir)*%
X169120000Y-142240000D03*
%TO.P,U3,30,30*%
%TO.N,Net-(J8-Pin_1)*%
X172720000Y-142240000D03*
%TO.P,U3,31,31*%
%TO.N,Net-(U1-M2Dir)*%
X169120000Y-144780000D03*
%TO.P,U3,32,32*%
%TO.N,Net-(U2-M1PWM)*%
X172720000Y-144780000D03*
%TO.P,U3,33,33*%
%TO.N,Net-(U1-M1PWM)*%
X169120000Y-147320000D03*
%TO.P,U3,34,34*%
%TO.N,unconnected-(U3-Pad34)*%
X172720000Y-147320000D03*
%TO.P,U3,35,35*%
%TO.N,Net-(U1-M2PWM)*%
X169120000Y-149860000D03*
%TO.P,U3,36,36*%
%TO.N,Net-(U2-M2Dir)*%
X172720000Y-149860000D03*
%TO.P,U3,37,37*%
%TO.N,Net-(U1-M2Fault)*%
X169120000Y-152400000D03*
%TO.P,U3,38,38*%
%TO.N,Net-(U2-M1Dir)*%
X172720000Y-152400000D03*
%TO.P,U3,39,39*%
%TO.N,unconnected-(U3-Pad39)*%
X169120000Y-154940000D03*
%TO.P,U3,40,40*%
%TO.N,Net-(U2-M1EN)*%
X172720000Y-154940000D03*
%TD*%
D11*
%TO.P,SW1,1,A*%
%TO.N,Net-(SW1-A-Pad1)*%
X185420000Y-99060000D03*
D12*
%TO.P,SW1,2,B*%
%TO.N,Net-(J1-Pin_2)*%
X187960000Y-99060000D03*
%TO.P,SW1,3,C*%
%TO.N,unconnected-(SW1-C-Pad3)*%
X190500000Y-99060000D03*
D11*
%TO.P,SW1,4,A*%
%TO.N,unconnected-(SW1-A-Pad4)*%
X185420000Y-93980000D03*
D12*
%TO.P,SW1,5,B*%
%TO.N,unconnected-(SW1-B-Pad5)*%
X187960000Y-93980000D03*
%TO.P,SW1,6,C*%
%TO.N,unconnected-(SW1-C-Pad6)*%
X190500000Y-93980000D03*
%TD*%
D11*
%TO.P,J8,1,Pin_1*%
%TO.N,Net-(J8-Pin_1)*%
X177800000Y-142240000D03*
D12*
%TO.P,J8,2,Pin_2*%
%TO.N,Net-(J8-Pin_2)*%
X177800000Y-139700000D03*
%TO.P,J8,3,Pin_3*%
%TO.N,Net-(J8-Pin_3)*%
X177800000Y-137160000D03*
%TO.P,J8,4,Pin_4*%
%TO.N,Net-(J8-Pin_4)*%
X177800000Y-134620000D03*
%TO.P,J8,5,Pin_5*%
%TO.N,Net-(J8-Pin_5)*%
X177800000Y-132080000D03*
%TO.P,J8,6,Pin_6*%
%TO.N,Net-(J8-Pin_6)*%
X177800000Y-129540000D03*
%TO.P,J8,7,Pin_7*%
%TO.N,Net-(J8-Pin_7)*%
X177800000Y-127000000D03*
%TO.P,J8,8,Pin_8*%
%TO.N,Net-(J8-Pin_8)*%
X177800000Y-124460000D03*
%TO.P,J8,9,Pin_9*%
%TO.N,Net-(J8-Pin_9)*%
X177800000Y-121920000D03*
%TD*%
M02*
