%TF.GenerationSoftware,KiCad,Pcbnew,7.0.5*%
%TF.CreationDate,2023-06-09T13:26:19-05:00*%
%TF.ProjectId,pcbpai,70636270-6169-42e6-9b69-6361645f7063,rev?*%
%TF.SameCoordinates,Original*%
%TF.FileFunction,Profile,NP*%
%FSLAX46Y46*%
G04 Gerber Fmt 4.6, Leading zero omitted, Abs format (unit mm)*
G04 Created by KiCad (PCBNEW 7.0.5) date 2023-06-09 13:26:19*
%MOMM*%
%LPD*%
G01*
G04 APERTURE LIST*
%ADD10C,0.150000*%
%TA.AperFunction,Profile*%
%ADD11C,0.100000*%
%TD*%
G04 APERTURE END LIST*
D10*
X163211429Y-179073389D02*
X163116191Y-179025770D01*
X163116191Y-179025770D02*
X163068572Y-178978151D01*
X163068572Y-178978151D02*
X163020953Y-178882913D01*
X163020953Y-178882913D02*
X163020953Y-178835294D01*
X163020953Y-178835294D02*
X163068572Y-178740056D01*
X163068572Y-178740056D02*
X163116191Y-178692437D01*
X163116191Y-178692437D02*
X163211429Y-178644818D01*
X163211429Y-178644818D02*
X163401905Y-178644818D01*
X163401905Y-178644818D02*
X163497143Y-178692437D01*
X163497143Y-178692437D02*
X163544762Y-178740056D01*
X163544762Y-178740056D02*
X163592381Y-178835294D01*
X163592381Y-178835294D02*
X163592381Y-178882913D01*
X163592381Y-178882913D02*
X163544762Y-178978151D01*
X163544762Y-178978151D02*
X163497143Y-179025770D01*
X163497143Y-179025770D02*
X163401905Y-179073389D01*
X163401905Y-179073389D02*
X163211429Y-179073389D01*
X163211429Y-179073389D02*
X163116191Y-179121008D01*
X163116191Y-179121008D02*
X163068572Y-179168627D01*
X163068572Y-179168627D02*
X163020953Y-179263865D01*
X163020953Y-179263865D02*
X163020953Y-179454341D01*
X163020953Y-179454341D02*
X163068572Y-179549579D01*
X163068572Y-179549579D02*
X163116191Y-179597199D01*
X163116191Y-179597199D02*
X163211429Y-179644818D01*
X163211429Y-179644818D02*
X163401905Y-179644818D01*
X163401905Y-179644818D02*
X163497143Y-179597199D01*
X163497143Y-179597199D02*
X163544762Y-179549579D01*
X163544762Y-179549579D02*
X163592381Y-179454341D01*
X163592381Y-179454341D02*
X163592381Y-179263865D01*
X163592381Y-179263865D02*
X163544762Y-179168627D01*
X163544762Y-179168627D02*
X163497143Y-179121008D01*
X163497143Y-179121008D02*
X163401905Y-179073389D01*
X164544762Y-179644818D02*
X163973334Y-179644818D01*
X164259048Y-179644818D02*
X164259048Y-178644818D01*
X164259048Y-178644818D02*
X164163810Y-178787675D01*
X164163810Y-178787675D02*
X164068572Y-178882913D01*
X164068572Y-178882913D02*
X163973334Y-178930532D01*
X165020953Y-179597199D02*
X165020953Y-179644818D01*
X165020953Y-179644818D02*
X164973334Y-179740056D01*
X164973334Y-179740056D02*
X164925715Y-179787675D01*
X165401905Y-178740056D02*
X165449524Y-178692437D01*
X165449524Y-178692437D02*
X165544762Y-178644818D01*
X165544762Y-178644818D02*
X165782857Y-178644818D01*
X165782857Y-178644818D02*
X165878095Y-178692437D01*
X165878095Y-178692437D02*
X165925714Y-178740056D01*
X165925714Y-178740056D02*
X165973333Y-178835294D01*
X165973333Y-178835294D02*
X165973333Y-178930532D01*
X165973333Y-178930532D02*
X165925714Y-179073389D01*
X165925714Y-179073389D02*
X165354286Y-179644818D01*
X165354286Y-179644818D02*
X165973333Y-179644818D01*
X166544762Y-179073389D02*
X166449524Y-179025770D01*
X166449524Y-179025770D02*
X166401905Y-178978151D01*
X166401905Y-178978151D02*
X166354286Y-178882913D01*
X166354286Y-178882913D02*
X166354286Y-178835294D01*
X166354286Y-178835294D02*
X166401905Y-178740056D01*
X166401905Y-178740056D02*
X166449524Y-178692437D01*
X166449524Y-178692437D02*
X166544762Y-178644818D01*
X166544762Y-178644818D02*
X166735238Y-178644818D01*
X166735238Y-178644818D02*
X166830476Y-178692437D01*
X166830476Y-178692437D02*
X166878095Y-178740056D01*
X166878095Y-178740056D02*
X166925714Y-178835294D01*
X166925714Y-178835294D02*
X166925714Y-178882913D01*
X166925714Y-178882913D02*
X166878095Y-178978151D01*
X166878095Y-178978151D02*
X166830476Y-179025770D01*
X166830476Y-179025770D02*
X166735238Y-179073389D01*
X166735238Y-179073389D02*
X166544762Y-179073389D01*
X166544762Y-179073389D02*
X166449524Y-179121008D01*
X166449524Y-179121008D02*
X166401905Y-179168627D01*
X166401905Y-179168627D02*
X166354286Y-179263865D01*
X166354286Y-179263865D02*
X166354286Y-179454341D01*
X166354286Y-179454341D02*
X166401905Y-179549579D01*
X166401905Y-179549579D02*
X166449524Y-179597199D01*
X166449524Y-179597199D02*
X166544762Y-179644818D01*
X166544762Y-179644818D02*
X166735238Y-179644818D01*
X166735238Y-179644818D02*
X166830476Y-179597199D01*
X166830476Y-179597199D02*
X166878095Y-179549579D01*
X166878095Y-179549579D02*
X166925714Y-179454341D01*
X166925714Y-179454341D02*
X166925714Y-179263865D01*
X166925714Y-179263865D02*
X166878095Y-179168627D01*
X166878095Y-179168627D02*
X166830476Y-179121008D01*
X166830476Y-179121008D02*
X166735238Y-179073389D01*
X167544762Y-178644818D02*
X167640000Y-178644818D01*
X167640000Y-178644818D02*
X167735238Y-178692437D01*
X167735238Y-178692437D02*
X167782857Y-178740056D01*
X167782857Y-178740056D02*
X167830476Y-178835294D01*
X167830476Y-178835294D02*
X167878095Y-179025770D01*
X167878095Y-179025770D02*
X167878095Y-179263865D01*
X167878095Y-179263865D02*
X167830476Y-179454341D01*
X167830476Y-179454341D02*
X167782857Y-179549579D01*
X167782857Y-179549579D02*
X167735238Y-179597199D01*
X167735238Y-179597199D02*
X167640000Y-179644818D01*
X167640000Y-179644818D02*
X167544762Y-179644818D01*
X167544762Y-179644818D02*
X167449524Y-179597199D01*
X167449524Y-179597199D02*
X167401905Y-179549579D01*
X167401905Y-179549579D02*
X167354286Y-179454341D01*
X167354286Y-179454341D02*
X167306667Y-179263865D01*
X167306667Y-179263865D02*
X167306667Y-179025770D01*
X167306667Y-179025770D02*
X167354286Y-178835294D01*
X167354286Y-178835294D02*
X167401905Y-178740056D01*
X167401905Y-178740056D02*
X167449524Y-178692437D01*
X167449524Y-178692437D02*
X167544762Y-178644818D01*
X168497143Y-178644818D02*
X168592381Y-178644818D01*
X168592381Y-178644818D02*
X168687619Y-178692437D01*
X168687619Y-178692437D02*
X168735238Y-178740056D01*
X168735238Y-178740056D02*
X168782857Y-178835294D01*
X168782857Y-178835294D02*
X168830476Y-179025770D01*
X168830476Y-179025770D02*
X168830476Y-179263865D01*
X168830476Y-179263865D02*
X168782857Y-179454341D01*
X168782857Y-179454341D02*
X168735238Y-179549579D01*
X168735238Y-179549579D02*
X168687619Y-179597199D01*
X168687619Y-179597199D02*
X168592381Y-179644818D01*
X168592381Y-179644818D02*
X168497143Y-179644818D01*
X168497143Y-179644818D02*
X168401905Y-179597199D01*
X168401905Y-179597199D02*
X168354286Y-179549579D01*
X168354286Y-179549579D02*
X168306667Y-179454341D01*
X168306667Y-179454341D02*
X168259048Y-179263865D01*
X168259048Y-179263865D02*
X168259048Y-179025770D01*
X168259048Y-179025770D02*
X168306667Y-178835294D01*
X168306667Y-178835294D02*
X168354286Y-178740056D01*
X168354286Y-178740056D02*
X168401905Y-178692437D01*
X168401905Y-178692437D02*
X168497143Y-178644818D01*
X170020953Y-179644818D02*
X170020953Y-178978151D01*
X170020953Y-179073389D02*
X170068572Y-179025770D01*
X170068572Y-179025770D02*
X170163810Y-178978151D01*
X170163810Y-178978151D02*
X170306667Y-178978151D01*
X170306667Y-178978151D02*
X170401905Y-179025770D01*
X170401905Y-179025770D02*
X170449524Y-179121008D01*
X170449524Y-179121008D02*
X170449524Y-179644818D01*
X170449524Y-179121008D02*
X170497143Y-179025770D01*
X170497143Y-179025770D02*
X170592381Y-178978151D01*
X170592381Y-178978151D02*
X170735238Y-178978151D01*
X170735238Y-178978151D02*
X170830477Y-179025770D01*
X170830477Y-179025770D02*
X170878096Y-179121008D01*
X170878096Y-179121008D02*
X170878096Y-179644818D01*
X171354286Y-179644818D02*
X171354286Y-178978151D01*
X171354286Y-179073389D02*
X171401905Y-179025770D01*
X171401905Y-179025770D02*
X171497143Y-178978151D01*
X171497143Y-178978151D02*
X171640000Y-178978151D01*
X171640000Y-178978151D02*
X171735238Y-179025770D01*
X171735238Y-179025770D02*
X171782857Y-179121008D01*
X171782857Y-179121008D02*
X171782857Y-179644818D01*
X171782857Y-179121008D02*
X171830476Y-179025770D01*
X171830476Y-179025770D02*
X171925714Y-178978151D01*
X171925714Y-178978151D02*
X172068571Y-178978151D01*
X172068571Y-178978151D02*
X172163810Y-179025770D01*
X172163810Y-179025770D02*
X172211429Y-179121008D01*
X172211429Y-179121008D02*
X172211429Y-179644818D01*
D11*
X127000000Y-160520000D02*
X127000000Y-180926419D01*
X208280000Y-160520000D02*
X208280000Y-180926419D01*
X127000000Y-180339999D02*
X208280000Y-180339999D01*
X127000000Y-180339999D02*
X208280000Y-180339999D01*
X127000000Y-180339999D02*
X128126504Y-179753578D01*
X127000000Y-180339999D02*
X128126504Y-180926420D01*
X208280000Y-180339999D02*
X207153496Y-180926420D01*
X208280000Y-180339999D02*
X207153496Y-179753578D01*
D10*
X163211429Y-49533390D02*
X163116191Y-49485771D01*
X163116191Y-49485771D02*
X163068572Y-49438152D01*
X163068572Y-49438152D02*
X163020953Y-49342914D01*
X163020953Y-49342914D02*
X163020953Y-49295295D01*
X163020953Y-49295295D02*
X163068572Y-49200057D01*
X163068572Y-49200057D02*
X163116191Y-49152438D01*
X163116191Y-49152438D02*
X163211429Y-49104819D01*
X163211429Y-49104819D02*
X163401905Y-49104819D01*
X163401905Y-49104819D02*
X163497143Y-49152438D01*
X163497143Y-49152438D02*
X163544762Y-49200057D01*
X163544762Y-49200057D02*
X163592381Y-49295295D01*
X163592381Y-49295295D02*
X163592381Y-49342914D01*
X163592381Y-49342914D02*
X163544762Y-49438152D01*
X163544762Y-49438152D02*
X163497143Y-49485771D01*
X163497143Y-49485771D02*
X163401905Y-49533390D01*
X163401905Y-49533390D02*
X163211429Y-49533390D01*
X163211429Y-49533390D02*
X163116191Y-49581009D01*
X163116191Y-49581009D02*
X163068572Y-49628628D01*
X163068572Y-49628628D02*
X163020953Y-49723866D01*
X163020953Y-49723866D02*
X163020953Y-49914342D01*
X163020953Y-49914342D02*
X163068572Y-50009580D01*
X163068572Y-50009580D02*
X163116191Y-50057200D01*
X163116191Y-50057200D02*
X163211429Y-50104819D01*
X163211429Y-50104819D02*
X163401905Y-50104819D01*
X163401905Y-50104819D02*
X163497143Y-50057200D01*
X163497143Y-50057200D02*
X163544762Y-50009580D01*
X163544762Y-50009580D02*
X163592381Y-49914342D01*
X163592381Y-49914342D02*
X163592381Y-49723866D01*
X163592381Y-49723866D02*
X163544762Y-49628628D01*
X163544762Y-49628628D02*
X163497143Y-49581009D01*
X163497143Y-49581009D02*
X163401905Y-49533390D01*
X164544762Y-50104819D02*
X163973334Y-50104819D01*
X164259048Y-50104819D02*
X164259048Y-49104819D01*
X164259048Y-49104819D02*
X164163810Y-49247676D01*
X164163810Y-49247676D02*
X164068572Y-49342914D01*
X164068572Y-49342914D02*
X163973334Y-49390533D01*
X165020953Y-50057200D02*
X165020953Y-50104819D01*
X165020953Y-50104819D02*
X164973334Y-50200057D01*
X164973334Y-50200057D02*
X164925715Y-50247676D01*
X165401905Y-49200057D02*
X165449524Y-49152438D01*
X165449524Y-49152438D02*
X165544762Y-49104819D01*
X165544762Y-49104819D02*
X165782857Y-49104819D01*
X165782857Y-49104819D02*
X165878095Y-49152438D01*
X165878095Y-49152438D02*
X165925714Y-49200057D01*
X165925714Y-49200057D02*
X165973333Y-49295295D01*
X165973333Y-49295295D02*
X165973333Y-49390533D01*
X165973333Y-49390533D02*
X165925714Y-49533390D01*
X165925714Y-49533390D02*
X165354286Y-50104819D01*
X165354286Y-50104819D02*
X165973333Y-50104819D01*
X166544762Y-49533390D02*
X166449524Y-49485771D01*
X166449524Y-49485771D02*
X166401905Y-49438152D01*
X166401905Y-49438152D02*
X166354286Y-49342914D01*
X166354286Y-49342914D02*
X166354286Y-49295295D01*
X166354286Y-49295295D02*
X166401905Y-49200057D01*
X166401905Y-49200057D02*
X166449524Y-49152438D01*
X166449524Y-49152438D02*
X166544762Y-49104819D01*
X166544762Y-49104819D02*
X166735238Y-49104819D01*
X166735238Y-49104819D02*
X166830476Y-49152438D01*
X166830476Y-49152438D02*
X166878095Y-49200057D01*
X166878095Y-49200057D02*
X166925714Y-49295295D01*
X166925714Y-49295295D02*
X166925714Y-49342914D01*
X166925714Y-49342914D02*
X166878095Y-49438152D01*
X166878095Y-49438152D02*
X166830476Y-49485771D01*
X166830476Y-49485771D02*
X166735238Y-49533390D01*
X166735238Y-49533390D02*
X166544762Y-49533390D01*
X166544762Y-49533390D02*
X166449524Y-49581009D01*
X166449524Y-49581009D02*
X166401905Y-49628628D01*
X166401905Y-49628628D02*
X166354286Y-49723866D01*
X166354286Y-49723866D02*
X166354286Y-49914342D01*
X166354286Y-49914342D02*
X166401905Y-50009580D01*
X166401905Y-50009580D02*
X166449524Y-50057200D01*
X166449524Y-50057200D02*
X166544762Y-50104819D01*
X166544762Y-50104819D02*
X166735238Y-50104819D01*
X166735238Y-50104819D02*
X166830476Y-50057200D01*
X166830476Y-50057200D02*
X166878095Y-50009580D01*
X166878095Y-50009580D02*
X166925714Y-49914342D01*
X166925714Y-49914342D02*
X166925714Y-49723866D01*
X166925714Y-49723866D02*
X166878095Y-49628628D01*
X166878095Y-49628628D02*
X166830476Y-49581009D01*
X166830476Y-49581009D02*
X166735238Y-49533390D01*
X167544762Y-49104819D02*
X167640000Y-49104819D01*
X167640000Y-49104819D02*
X167735238Y-49152438D01*
X167735238Y-49152438D02*
X167782857Y-49200057D01*
X167782857Y-49200057D02*
X167830476Y-49295295D01*
X167830476Y-49295295D02*
X167878095Y-49485771D01*
X167878095Y-49485771D02*
X167878095Y-49723866D01*
X167878095Y-49723866D02*
X167830476Y-49914342D01*
X167830476Y-49914342D02*
X167782857Y-50009580D01*
X167782857Y-50009580D02*
X167735238Y-50057200D01*
X167735238Y-50057200D02*
X167640000Y-50104819D01*
X167640000Y-50104819D02*
X167544762Y-50104819D01*
X167544762Y-50104819D02*
X167449524Y-50057200D01*
X167449524Y-50057200D02*
X167401905Y-50009580D01*
X167401905Y-50009580D02*
X167354286Y-49914342D01*
X167354286Y-49914342D02*
X167306667Y-49723866D01*
X167306667Y-49723866D02*
X167306667Y-49485771D01*
X167306667Y-49485771D02*
X167354286Y-49295295D01*
X167354286Y-49295295D02*
X167401905Y-49200057D01*
X167401905Y-49200057D02*
X167449524Y-49152438D01*
X167449524Y-49152438D02*
X167544762Y-49104819D01*
X168497143Y-49104819D02*
X168592381Y-49104819D01*
X168592381Y-49104819D02*
X168687619Y-49152438D01*
X168687619Y-49152438D02*
X168735238Y-49200057D01*
X168735238Y-49200057D02*
X168782857Y-49295295D01*
X168782857Y-49295295D02*
X168830476Y-49485771D01*
X168830476Y-49485771D02*
X168830476Y-49723866D01*
X168830476Y-49723866D02*
X168782857Y-49914342D01*
X168782857Y-49914342D02*
X168735238Y-50009580D01*
X168735238Y-50009580D02*
X168687619Y-50057200D01*
X168687619Y-50057200D02*
X168592381Y-50104819D01*
X168592381Y-50104819D02*
X168497143Y-50104819D01*
X168497143Y-50104819D02*
X168401905Y-50057200D01*
X168401905Y-50057200D02*
X168354286Y-50009580D01*
X168354286Y-50009580D02*
X168306667Y-49914342D01*
X168306667Y-49914342D02*
X168259048Y-49723866D01*
X168259048Y-49723866D02*
X168259048Y-49485771D01*
X168259048Y-49485771D02*
X168306667Y-49295295D01*
X168306667Y-49295295D02*
X168354286Y-49200057D01*
X168354286Y-49200057D02*
X168401905Y-49152438D01*
X168401905Y-49152438D02*
X168497143Y-49104819D01*
X170020953Y-50104819D02*
X170020953Y-49438152D01*
X170020953Y-49533390D02*
X170068572Y-49485771D01*
X170068572Y-49485771D02*
X170163810Y-49438152D01*
X170163810Y-49438152D02*
X170306667Y-49438152D01*
X170306667Y-49438152D02*
X170401905Y-49485771D01*
X170401905Y-49485771D02*
X170449524Y-49581009D01*
X170449524Y-49581009D02*
X170449524Y-50104819D01*
X170449524Y-49581009D02*
X170497143Y-49485771D01*
X170497143Y-49485771D02*
X170592381Y-49438152D01*
X170592381Y-49438152D02*
X170735238Y-49438152D01*
X170735238Y-49438152D02*
X170830477Y-49485771D01*
X170830477Y-49485771D02*
X170878096Y-49581009D01*
X170878096Y-49581009D02*
X170878096Y-50104819D01*
X171354286Y-50104819D02*
X171354286Y-49438152D01*
X171354286Y-49533390D02*
X171401905Y-49485771D01*
X171401905Y-49485771D02*
X171497143Y-49438152D01*
X171497143Y-49438152D02*
X171640000Y-49438152D01*
X171640000Y-49438152D02*
X171735238Y-49485771D01*
X171735238Y-49485771D02*
X171782857Y-49581009D01*
X171782857Y-49581009D02*
X171782857Y-50104819D01*
X171782857Y-49581009D02*
X171830476Y-49485771D01*
X171830476Y-49485771D02*
X171925714Y-49438152D01*
X171925714Y-49438152D02*
X172068571Y-49438152D01*
X172068571Y-49438152D02*
X172163810Y-49485771D01*
X172163810Y-49485771D02*
X172211429Y-49581009D01*
X172211429Y-49581009D02*
X172211429Y-50104819D01*
D11*
X127000000Y-60460000D02*
X127000000Y-50213580D01*
X208280000Y-60460000D02*
X208280000Y-50213580D01*
X127000000Y-50800000D02*
X208280000Y-50800000D01*
X127000000Y-50800000D02*
X208280000Y-50800000D01*
X127000000Y-50800000D02*
X128126504Y-50213579D01*
X127000000Y-50800000D02*
X128126504Y-51386421D01*
X208280000Y-50800000D02*
X207153496Y-51386421D01*
X208280000Y-50800000D02*
X207153496Y-50213579D01*
D10*
X255844819Y-115013808D02*
X255844819Y-114823332D01*
X255844819Y-114823332D02*
X255797200Y-114728094D01*
X255797200Y-114728094D02*
X255749580Y-114680475D01*
X255749580Y-114680475D02*
X255606723Y-114585237D01*
X255606723Y-114585237D02*
X255416247Y-114537618D01*
X255416247Y-114537618D02*
X255035295Y-114537618D01*
X255035295Y-114537618D02*
X254940057Y-114585237D01*
X254940057Y-114585237D02*
X254892438Y-114632856D01*
X254892438Y-114632856D02*
X254844819Y-114728094D01*
X254844819Y-114728094D02*
X254844819Y-114918570D01*
X254844819Y-114918570D02*
X254892438Y-115013808D01*
X254892438Y-115013808D02*
X254940057Y-115061427D01*
X254940057Y-115061427D02*
X255035295Y-115109046D01*
X255035295Y-115109046D02*
X255273390Y-115109046D01*
X255273390Y-115109046D02*
X255368628Y-115061427D01*
X255368628Y-115061427D02*
X255416247Y-115013808D01*
X255416247Y-115013808D02*
X255463866Y-114918570D01*
X255463866Y-114918570D02*
X255463866Y-114728094D01*
X255463866Y-114728094D02*
X255416247Y-114632856D01*
X255416247Y-114632856D02*
X255368628Y-114585237D01*
X255368628Y-114585237D02*
X255273390Y-114537618D01*
X255844819Y-114061427D02*
X255844819Y-113870951D01*
X255844819Y-113870951D02*
X255797200Y-113775713D01*
X255797200Y-113775713D02*
X255749580Y-113728094D01*
X255749580Y-113728094D02*
X255606723Y-113632856D01*
X255606723Y-113632856D02*
X255416247Y-113585237D01*
X255416247Y-113585237D02*
X255035295Y-113585237D01*
X255035295Y-113585237D02*
X254940057Y-113632856D01*
X254940057Y-113632856D02*
X254892438Y-113680475D01*
X254892438Y-113680475D02*
X254844819Y-113775713D01*
X254844819Y-113775713D02*
X254844819Y-113966189D01*
X254844819Y-113966189D02*
X254892438Y-114061427D01*
X254892438Y-114061427D02*
X254940057Y-114109046D01*
X254940057Y-114109046D02*
X255035295Y-114156665D01*
X255035295Y-114156665D02*
X255273390Y-114156665D01*
X255273390Y-114156665D02*
X255368628Y-114109046D01*
X255368628Y-114109046D02*
X255416247Y-114061427D01*
X255416247Y-114061427D02*
X255463866Y-113966189D01*
X255463866Y-113966189D02*
X255463866Y-113775713D01*
X255463866Y-113775713D02*
X255416247Y-113680475D01*
X255416247Y-113680475D02*
X255368628Y-113632856D01*
X255368628Y-113632856D02*
X255273390Y-113585237D01*
X255797200Y-113109046D02*
X255844819Y-113109046D01*
X255844819Y-113109046D02*
X255940057Y-113156665D01*
X255940057Y-113156665D02*
X255987676Y-113204284D01*
X254844819Y-112489999D02*
X254844819Y-112394761D01*
X254844819Y-112394761D02*
X254892438Y-112299523D01*
X254892438Y-112299523D02*
X254940057Y-112251904D01*
X254940057Y-112251904D02*
X255035295Y-112204285D01*
X255035295Y-112204285D02*
X255225771Y-112156666D01*
X255225771Y-112156666D02*
X255463866Y-112156666D01*
X255463866Y-112156666D02*
X255654342Y-112204285D01*
X255654342Y-112204285D02*
X255749580Y-112251904D01*
X255749580Y-112251904D02*
X255797200Y-112299523D01*
X255797200Y-112299523D02*
X255844819Y-112394761D01*
X255844819Y-112394761D02*
X255844819Y-112489999D01*
X255844819Y-112489999D02*
X255797200Y-112585237D01*
X255797200Y-112585237D02*
X255749580Y-112632856D01*
X255749580Y-112632856D02*
X255654342Y-112680475D01*
X255654342Y-112680475D02*
X255463866Y-112728094D01*
X255463866Y-112728094D02*
X255225771Y-112728094D01*
X255225771Y-112728094D02*
X255035295Y-112680475D01*
X255035295Y-112680475D02*
X254940057Y-112632856D01*
X254940057Y-112632856D02*
X254892438Y-112585237D01*
X254892438Y-112585237D02*
X254844819Y-112489999D01*
X254844819Y-111299523D02*
X254844819Y-111489999D01*
X254844819Y-111489999D02*
X254892438Y-111585237D01*
X254892438Y-111585237D02*
X254940057Y-111632856D01*
X254940057Y-111632856D02*
X255082914Y-111728094D01*
X255082914Y-111728094D02*
X255273390Y-111775713D01*
X255273390Y-111775713D02*
X255654342Y-111775713D01*
X255654342Y-111775713D02*
X255749580Y-111728094D01*
X255749580Y-111728094D02*
X255797200Y-111680475D01*
X255797200Y-111680475D02*
X255844819Y-111585237D01*
X255844819Y-111585237D02*
X255844819Y-111394761D01*
X255844819Y-111394761D02*
X255797200Y-111299523D01*
X255797200Y-111299523D02*
X255749580Y-111251904D01*
X255749580Y-111251904D02*
X255654342Y-111204285D01*
X255654342Y-111204285D02*
X255416247Y-111204285D01*
X255416247Y-111204285D02*
X255321009Y-111251904D01*
X255321009Y-111251904D02*
X255273390Y-111299523D01*
X255273390Y-111299523D02*
X255225771Y-111394761D01*
X255225771Y-111394761D02*
X255225771Y-111585237D01*
X255225771Y-111585237D02*
X255273390Y-111680475D01*
X255273390Y-111680475D02*
X255321009Y-111728094D01*
X255321009Y-111728094D02*
X255416247Y-111775713D01*
X254844819Y-110585237D02*
X254844819Y-110489999D01*
X254844819Y-110489999D02*
X254892438Y-110394761D01*
X254892438Y-110394761D02*
X254940057Y-110347142D01*
X254940057Y-110347142D02*
X255035295Y-110299523D01*
X255035295Y-110299523D02*
X255225771Y-110251904D01*
X255225771Y-110251904D02*
X255463866Y-110251904D01*
X255463866Y-110251904D02*
X255654342Y-110299523D01*
X255654342Y-110299523D02*
X255749580Y-110347142D01*
X255749580Y-110347142D02*
X255797200Y-110394761D01*
X255797200Y-110394761D02*
X255844819Y-110489999D01*
X255844819Y-110489999D02*
X255844819Y-110585237D01*
X255844819Y-110585237D02*
X255797200Y-110680475D01*
X255797200Y-110680475D02*
X255749580Y-110728094D01*
X255749580Y-110728094D02*
X255654342Y-110775713D01*
X255654342Y-110775713D02*
X255463866Y-110823332D01*
X255463866Y-110823332D02*
X255225771Y-110823332D01*
X255225771Y-110823332D02*
X255035295Y-110775713D01*
X255035295Y-110775713D02*
X254940057Y-110728094D01*
X254940057Y-110728094D02*
X254892438Y-110680475D01*
X254892438Y-110680475D02*
X254844819Y-110585237D01*
X254844819Y-109632856D02*
X254844819Y-109537618D01*
X254844819Y-109537618D02*
X254892438Y-109442380D01*
X254892438Y-109442380D02*
X254940057Y-109394761D01*
X254940057Y-109394761D02*
X255035295Y-109347142D01*
X255035295Y-109347142D02*
X255225771Y-109299523D01*
X255225771Y-109299523D02*
X255463866Y-109299523D01*
X255463866Y-109299523D02*
X255654342Y-109347142D01*
X255654342Y-109347142D02*
X255749580Y-109394761D01*
X255749580Y-109394761D02*
X255797200Y-109442380D01*
X255797200Y-109442380D02*
X255844819Y-109537618D01*
X255844819Y-109537618D02*
X255844819Y-109632856D01*
X255844819Y-109632856D02*
X255797200Y-109728094D01*
X255797200Y-109728094D02*
X255749580Y-109775713D01*
X255749580Y-109775713D02*
X255654342Y-109823332D01*
X255654342Y-109823332D02*
X255463866Y-109870951D01*
X255463866Y-109870951D02*
X255225771Y-109870951D01*
X255225771Y-109870951D02*
X255035295Y-109823332D01*
X255035295Y-109823332D02*
X254940057Y-109775713D01*
X254940057Y-109775713D02*
X254892438Y-109728094D01*
X254892438Y-109728094D02*
X254844819Y-109632856D01*
X255844819Y-108109046D02*
X255178152Y-108109046D01*
X255273390Y-108109046D02*
X255225771Y-108061427D01*
X255225771Y-108061427D02*
X255178152Y-107966189D01*
X255178152Y-107966189D02*
X255178152Y-107823332D01*
X255178152Y-107823332D02*
X255225771Y-107728094D01*
X255225771Y-107728094D02*
X255321009Y-107680475D01*
X255321009Y-107680475D02*
X255844819Y-107680475D01*
X255321009Y-107680475D02*
X255225771Y-107632856D01*
X255225771Y-107632856D02*
X255178152Y-107537618D01*
X255178152Y-107537618D02*
X255178152Y-107394761D01*
X255178152Y-107394761D02*
X255225771Y-107299522D01*
X255225771Y-107299522D02*
X255321009Y-107251903D01*
X255321009Y-107251903D02*
X255844819Y-107251903D01*
X255844819Y-106775713D02*
X255178152Y-106775713D01*
X255273390Y-106775713D02*
X255225771Y-106728094D01*
X255225771Y-106728094D02*
X255178152Y-106632856D01*
X255178152Y-106632856D02*
X255178152Y-106489999D01*
X255178152Y-106489999D02*
X255225771Y-106394761D01*
X255225771Y-106394761D02*
X255321009Y-106347142D01*
X255321009Y-106347142D02*
X255844819Y-106347142D01*
X255321009Y-106347142D02*
X255225771Y-106299523D01*
X255225771Y-106299523D02*
X255178152Y-106204285D01*
X255178152Y-106204285D02*
X255178152Y-106061428D01*
X255178152Y-106061428D02*
X255225771Y-105966189D01*
X255225771Y-105966189D02*
X255321009Y-105918570D01*
X255321009Y-105918570D02*
X255844819Y-105918570D01*
D11*
X208780000Y-160020000D02*
X257126420Y-160020000D01*
X208780000Y-60960000D02*
X257126420Y-60960000D01*
X256540000Y-160020000D02*
X256540000Y-60960000D01*
X256540000Y-160020000D02*
X256540000Y-60960000D01*
X256540000Y-160020000D02*
X255953579Y-158893496D01*
X256540000Y-160020000D02*
X257126421Y-158893496D01*
X256540000Y-60960000D02*
X257126421Y-62086504D01*
X256540000Y-60960000D02*
X255953579Y-62086504D01*
D10*
X113604819Y-115013808D02*
X113604819Y-114823332D01*
X113604819Y-114823332D02*
X113557200Y-114728094D01*
X113557200Y-114728094D02*
X113509580Y-114680475D01*
X113509580Y-114680475D02*
X113366723Y-114585237D01*
X113366723Y-114585237D02*
X113176247Y-114537618D01*
X113176247Y-114537618D02*
X112795295Y-114537618D01*
X112795295Y-114537618D02*
X112700057Y-114585237D01*
X112700057Y-114585237D02*
X112652438Y-114632856D01*
X112652438Y-114632856D02*
X112604819Y-114728094D01*
X112604819Y-114728094D02*
X112604819Y-114918570D01*
X112604819Y-114918570D02*
X112652438Y-115013808D01*
X112652438Y-115013808D02*
X112700057Y-115061427D01*
X112700057Y-115061427D02*
X112795295Y-115109046D01*
X112795295Y-115109046D02*
X113033390Y-115109046D01*
X113033390Y-115109046D02*
X113128628Y-115061427D01*
X113128628Y-115061427D02*
X113176247Y-115013808D01*
X113176247Y-115013808D02*
X113223866Y-114918570D01*
X113223866Y-114918570D02*
X113223866Y-114728094D01*
X113223866Y-114728094D02*
X113176247Y-114632856D01*
X113176247Y-114632856D02*
X113128628Y-114585237D01*
X113128628Y-114585237D02*
X113033390Y-114537618D01*
X113604819Y-114061427D02*
X113604819Y-113870951D01*
X113604819Y-113870951D02*
X113557200Y-113775713D01*
X113557200Y-113775713D02*
X113509580Y-113728094D01*
X113509580Y-113728094D02*
X113366723Y-113632856D01*
X113366723Y-113632856D02*
X113176247Y-113585237D01*
X113176247Y-113585237D02*
X112795295Y-113585237D01*
X112795295Y-113585237D02*
X112700057Y-113632856D01*
X112700057Y-113632856D02*
X112652438Y-113680475D01*
X112652438Y-113680475D02*
X112604819Y-113775713D01*
X112604819Y-113775713D02*
X112604819Y-113966189D01*
X112604819Y-113966189D02*
X112652438Y-114061427D01*
X112652438Y-114061427D02*
X112700057Y-114109046D01*
X112700057Y-114109046D02*
X112795295Y-114156665D01*
X112795295Y-114156665D02*
X113033390Y-114156665D01*
X113033390Y-114156665D02*
X113128628Y-114109046D01*
X113128628Y-114109046D02*
X113176247Y-114061427D01*
X113176247Y-114061427D02*
X113223866Y-113966189D01*
X113223866Y-113966189D02*
X113223866Y-113775713D01*
X113223866Y-113775713D02*
X113176247Y-113680475D01*
X113176247Y-113680475D02*
X113128628Y-113632856D01*
X113128628Y-113632856D02*
X113033390Y-113585237D01*
X113557200Y-113109046D02*
X113604819Y-113109046D01*
X113604819Y-113109046D02*
X113700057Y-113156665D01*
X113700057Y-113156665D02*
X113747676Y-113204284D01*
X112604819Y-112489999D02*
X112604819Y-112394761D01*
X112604819Y-112394761D02*
X112652438Y-112299523D01*
X112652438Y-112299523D02*
X112700057Y-112251904D01*
X112700057Y-112251904D02*
X112795295Y-112204285D01*
X112795295Y-112204285D02*
X112985771Y-112156666D01*
X112985771Y-112156666D02*
X113223866Y-112156666D01*
X113223866Y-112156666D02*
X113414342Y-112204285D01*
X113414342Y-112204285D02*
X113509580Y-112251904D01*
X113509580Y-112251904D02*
X113557200Y-112299523D01*
X113557200Y-112299523D02*
X113604819Y-112394761D01*
X113604819Y-112394761D02*
X113604819Y-112489999D01*
X113604819Y-112489999D02*
X113557200Y-112585237D01*
X113557200Y-112585237D02*
X113509580Y-112632856D01*
X113509580Y-112632856D02*
X113414342Y-112680475D01*
X113414342Y-112680475D02*
X113223866Y-112728094D01*
X113223866Y-112728094D02*
X112985771Y-112728094D01*
X112985771Y-112728094D02*
X112795295Y-112680475D01*
X112795295Y-112680475D02*
X112700057Y-112632856D01*
X112700057Y-112632856D02*
X112652438Y-112585237D01*
X112652438Y-112585237D02*
X112604819Y-112489999D01*
X112604819Y-111299523D02*
X112604819Y-111489999D01*
X112604819Y-111489999D02*
X112652438Y-111585237D01*
X112652438Y-111585237D02*
X112700057Y-111632856D01*
X112700057Y-111632856D02*
X112842914Y-111728094D01*
X112842914Y-111728094D02*
X113033390Y-111775713D01*
X113033390Y-111775713D02*
X113414342Y-111775713D01*
X113414342Y-111775713D02*
X113509580Y-111728094D01*
X113509580Y-111728094D02*
X113557200Y-111680475D01*
X113557200Y-111680475D02*
X113604819Y-111585237D01*
X113604819Y-111585237D02*
X113604819Y-111394761D01*
X113604819Y-111394761D02*
X113557200Y-111299523D01*
X113557200Y-111299523D02*
X113509580Y-111251904D01*
X113509580Y-111251904D02*
X113414342Y-111204285D01*
X113414342Y-111204285D02*
X113176247Y-111204285D01*
X113176247Y-111204285D02*
X113081009Y-111251904D01*
X113081009Y-111251904D02*
X113033390Y-111299523D01*
X113033390Y-111299523D02*
X112985771Y-111394761D01*
X112985771Y-111394761D02*
X112985771Y-111585237D01*
X112985771Y-111585237D02*
X113033390Y-111680475D01*
X113033390Y-111680475D02*
X113081009Y-111728094D01*
X113081009Y-111728094D02*
X113176247Y-111775713D01*
X112604819Y-110585237D02*
X112604819Y-110489999D01*
X112604819Y-110489999D02*
X112652438Y-110394761D01*
X112652438Y-110394761D02*
X112700057Y-110347142D01*
X112700057Y-110347142D02*
X112795295Y-110299523D01*
X112795295Y-110299523D02*
X112985771Y-110251904D01*
X112985771Y-110251904D02*
X113223866Y-110251904D01*
X113223866Y-110251904D02*
X113414342Y-110299523D01*
X113414342Y-110299523D02*
X113509580Y-110347142D01*
X113509580Y-110347142D02*
X113557200Y-110394761D01*
X113557200Y-110394761D02*
X113604819Y-110489999D01*
X113604819Y-110489999D02*
X113604819Y-110585237D01*
X113604819Y-110585237D02*
X113557200Y-110680475D01*
X113557200Y-110680475D02*
X113509580Y-110728094D01*
X113509580Y-110728094D02*
X113414342Y-110775713D01*
X113414342Y-110775713D02*
X113223866Y-110823332D01*
X113223866Y-110823332D02*
X112985771Y-110823332D01*
X112985771Y-110823332D02*
X112795295Y-110775713D01*
X112795295Y-110775713D02*
X112700057Y-110728094D01*
X112700057Y-110728094D02*
X112652438Y-110680475D01*
X112652438Y-110680475D02*
X112604819Y-110585237D01*
X112604819Y-109632856D02*
X112604819Y-109537618D01*
X112604819Y-109537618D02*
X112652438Y-109442380D01*
X112652438Y-109442380D02*
X112700057Y-109394761D01*
X112700057Y-109394761D02*
X112795295Y-109347142D01*
X112795295Y-109347142D02*
X112985771Y-109299523D01*
X112985771Y-109299523D02*
X113223866Y-109299523D01*
X113223866Y-109299523D02*
X113414342Y-109347142D01*
X113414342Y-109347142D02*
X113509580Y-109394761D01*
X113509580Y-109394761D02*
X113557200Y-109442380D01*
X113557200Y-109442380D02*
X113604819Y-109537618D01*
X113604819Y-109537618D02*
X113604819Y-109632856D01*
X113604819Y-109632856D02*
X113557200Y-109728094D01*
X113557200Y-109728094D02*
X113509580Y-109775713D01*
X113509580Y-109775713D02*
X113414342Y-109823332D01*
X113414342Y-109823332D02*
X113223866Y-109870951D01*
X113223866Y-109870951D02*
X112985771Y-109870951D01*
X112985771Y-109870951D02*
X112795295Y-109823332D01*
X112795295Y-109823332D02*
X112700057Y-109775713D01*
X112700057Y-109775713D02*
X112652438Y-109728094D01*
X112652438Y-109728094D02*
X112604819Y-109632856D01*
X113604819Y-108109046D02*
X112938152Y-108109046D01*
X113033390Y-108109046D02*
X112985771Y-108061427D01*
X112985771Y-108061427D02*
X112938152Y-107966189D01*
X112938152Y-107966189D02*
X112938152Y-107823332D01*
X112938152Y-107823332D02*
X112985771Y-107728094D01*
X112985771Y-107728094D02*
X113081009Y-107680475D01*
X113081009Y-107680475D02*
X113604819Y-107680475D01*
X113081009Y-107680475D02*
X112985771Y-107632856D01*
X112985771Y-107632856D02*
X112938152Y-107537618D01*
X112938152Y-107537618D02*
X112938152Y-107394761D01*
X112938152Y-107394761D02*
X112985771Y-107299522D01*
X112985771Y-107299522D02*
X113081009Y-107251903D01*
X113081009Y-107251903D02*
X113604819Y-107251903D01*
X113604819Y-106775713D02*
X112938152Y-106775713D01*
X113033390Y-106775713D02*
X112985771Y-106728094D01*
X112985771Y-106728094D02*
X112938152Y-106632856D01*
X112938152Y-106632856D02*
X112938152Y-106489999D01*
X112938152Y-106489999D02*
X112985771Y-106394761D01*
X112985771Y-106394761D02*
X113081009Y-106347142D01*
X113081009Y-106347142D02*
X113604819Y-106347142D01*
X113081009Y-106347142D02*
X112985771Y-106299523D01*
X112985771Y-106299523D02*
X112938152Y-106204285D01*
X112938152Y-106204285D02*
X112938152Y-106061428D01*
X112938152Y-106061428D02*
X112985771Y-105966189D01*
X112985771Y-105966189D02*
X113081009Y-105918570D01*
X113081009Y-105918570D02*
X113604819Y-105918570D01*
D11*
X126500000Y-160020000D02*
X113713580Y-160020000D01*
X126500000Y-60960000D02*
X113713580Y-60960000D01*
X114300000Y-160020000D02*
X114300000Y-60960000D01*
X114300000Y-160020000D02*
X114300000Y-60960000D01*
X114300000Y-160020000D02*
X113713579Y-158893496D01*
X114300000Y-160020000D02*
X114886421Y-158893496D01*
X114300000Y-60960000D02*
X114886421Y-62086504D01*
X114300000Y-60960000D02*
X113713579Y-62086504D01*
X121920000Y-55880000D02*
X213360000Y-55880000D01*
X213360000Y-165100000D01*
X121920000Y-165100000D01*
X121920000Y-55880000D01*
D10*
X232984819Y-115013809D02*
X232984819Y-115585237D01*
X232984819Y-115299523D02*
X231984819Y-115299523D01*
X231984819Y-115299523D02*
X232127676Y-115394761D01*
X232127676Y-115394761D02*
X232222914Y-115489999D01*
X232222914Y-115489999D02*
X232270533Y-115585237D01*
X231984819Y-114394761D02*
X231984819Y-114299523D01*
X231984819Y-114299523D02*
X232032438Y-114204285D01*
X232032438Y-114204285D02*
X232080057Y-114156666D01*
X232080057Y-114156666D02*
X232175295Y-114109047D01*
X232175295Y-114109047D02*
X232365771Y-114061428D01*
X232365771Y-114061428D02*
X232603866Y-114061428D01*
X232603866Y-114061428D02*
X232794342Y-114109047D01*
X232794342Y-114109047D02*
X232889580Y-114156666D01*
X232889580Y-114156666D02*
X232937200Y-114204285D01*
X232937200Y-114204285D02*
X232984819Y-114299523D01*
X232984819Y-114299523D02*
X232984819Y-114394761D01*
X232984819Y-114394761D02*
X232937200Y-114489999D01*
X232937200Y-114489999D02*
X232889580Y-114537618D01*
X232889580Y-114537618D02*
X232794342Y-114585237D01*
X232794342Y-114585237D02*
X232603866Y-114632856D01*
X232603866Y-114632856D02*
X232365771Y-114632856D01*
X232365771Y-114632856D02*
X232175295Y-114585237D01*
X232175295Y-114585237D02*
X232080057Y-114537618D01*
X232080057Y-114537618D02*
X232032438Y-114489999D01*
X232032438Y-114489999D02*
X231984819Y-114394761D01*
X232984819Y-113585237D02*
X232984819Y-113394761D01*
X232984819Y-113394761D02*
X232937200Y-113299523D01*
X232937200Y-113299523D02*
X232889580Y-113251904D01*
X232889580Y-113251904D02*
X232746723Y-113156666D01*
X232746723Y-113156666D02*
X232556247Y-113109047D01*
X232556247Y-113109047D02*
X232175295Y-113109047D01*
X232175295Y-113109047D02*
X232080057Y-113156666D01*
X232080057Y-113156666D02*
X232032438Y-113204285D01*
X232032438Y-113204285D02*
X231984819Y-113299523D01*
X231984819Y-113299523D02*
X231984819Y-113489999D01*
X231984819Y-113489999D02*
X232032438Y-113585237D01*
X232032438Y-113585237D02*
X232080057Y-113632856D01*
X232080057Y-113632856D02*
X232175295Y-113680475D01*
X232175295Y-113680475D02*
X232413390Y-113680475D01*
X232413390Y-113680475D02*
X232508628Y-113632856D01*
X232508628Y-113632856D02*
X232556247Y-113585237D01*
X232556247Y-113585237D02*
X232603866Y-113489999D01*
X232603866Y-113489999D02*
X232603866Y-113299523D01*
X232603866Y-113299523D02*
X232556247Y-113204285D01*
X232556247Y-113204285D02*
X232508628Y-113156666D01*
X232508628Y-113156666D02*
X232413390Y-113109047D01*
X232937200Y-112632856D02*
X232984819Y-112632856D01*
X232984819Y-112632856D02*
X233080057Y-112680475D01*
X233080057Y-112680475D02*
X233127676Y-112728094D01*
X232080057Y-112251904D02*
X232032438Y-112204285D01*
X232032438Y-112204285D02*
X231984819Y-112109047D01*
X231984819Y-112109047D02*
X231984819Y-111870952D01*
X231984819Y-111870952D02*
X232032438Y-111775714D01*
X232032438Y-111775714D02*
X232080057Y-111728095D01*
X232080057Y-111728095D02*
X232175295Y-111680476D01*
X232175295Y-111680476D02*
X232270533Y-111680476D01*
X232270533Y-111680476D02*
X232413390Y-111728095D01*
X232413390Y-111728095D02*
X232984819Y-112299523D01*
X232984819Y-112299523D02*
X232984819Y-111680476D01*
X232080057Y-111299523D02*
X232032438Y-111251904D01*
X232032438Y-111251904D02*
X231984819Y-111156666D01*
X231984819Y-111156666D02*
X231984819Y-110918571D01*
X231984819Y-110918571D02*
X232032438Y-110823333D01*
X232032438Y-110823333D02*
X232080057Y-110775714D01*
X232080057Y-110775714D02*
X232175295Y-110728095D01*
X232175295Y-110728095D02*
X232270533Y-110728095D01*
X232270533Y-110728095D02*
X232413390Y-110775714D01*
X232413390Y-110775714D02*
X232984819Y-111347142D01*
X232984819Y-111347142D02*
X232984819Y-110728095D01*
X231984819Y-110109047D02*
X231984819Y-110013809D01*
X231984819Y-110013809D02*
X232032438Y-109918571D01*
X232032438Y-109918571D02*
X232080057Y-109870952D01*
X232080057Y-109870952D02*
X232175295Y-109823333D01*
X232175295Y-109823333D02*
X232365771Y-109775714D01*
X232365771Y-109775714D02*
X232603866Y-109775714D01*
X232603866Y-109775714D02*
X232794342Y-109823333D01*
X232794342Y-109823333D02*
X232889580Y-109870952D01*
X232889580Y-109870952D02*
X232937200Y-109918571D01*
X232937200Y-109918571D02*
X232984819Y-110013809D01*
X232984819Y-110013809D02*
X232984819Y-110109047D01*
X232984819Y-110109047D02*
X232937200Y-110204285D01*
X232937200Y-110204285D02*
X232889580Y-110251904D01*
X232889580Y-110251904D02*
X232794342Y-110299523D01*
X232794342Y-110299523D02*
X232603866Y-110347142D01*
X232603866Y-110347142D02*
X232365771Y-110347142D01*
X232365771Y-110347142D02*
X232175295Y-110299523D01*
X232175295Y-110299523D02*
X232080057Y-110251904D01*
X232080057Y-110251904D02*
X232032438Y-110204285D01*
X232032438Y-110204285D02*
X231984819Y-110109047D01*
X231984819Y-109156666D02*
X231984819Y-109061428D01*
X231984819Y-109061428D02*
X232032438Y-108966190D01*
X232032438Y-108966190D02*
X232080057Y-108918571D01*
X232080057Y-108918571D02*
X232175295Y-108870952D01*
X232175295Y-108870952D02*
X232365771Y-108823333D01*
X232365771Y-108823333D02*
X232603866Y-108823333D01*
X232603866Y-108823333D02*
X232794342Y-108870952D01*
X232794342Y-108870952D02*
X232889580Y-108918571D01*
X232889580Y-108918571D02*
X232937200Y-108966190D01*
X232937200Y-108966190D02*
X232984819Y-109061428D01*
X232984819Y-109061428D02*
X232984819Y-109156666D01*
X232984819Y-109156666D02*
X232937200Y-109251904D01*
X232937200Y-109251904D02*
X232889580Y-109299523D01*
X232889580Y-109299523D02*
X232794342Y-109347142D01*
X232794342Y-109347142D02*
X232603866Y-109394761D01*
X232603866Y-109394761D02*
X232365771Y-109394761D01*
X232365771Y-109394761D02*
X232175295Y-109347142D01*
X232175295Y-109347142D02*
X232080057Y-109299523D01*
X232080057Y-109299523D02*
X232032438Y-109251904D01*
X232032438Y-109251904D02*
X231984819Y-109156666D01*
X232984819Y-107632856D02*
X232318152Y-107632856D01*
X232413390Y-107632856D02*
X232365771Y-107585237D01*
X232365771Y-107585237D02*
X232318152Y-107489999D01*
X232318152Y-107489999D02*
X232318152Y-107347142D01*
X232318152Y-107347142D02*
X232365771Y-107251904D01*
X232365771Y-107251904D02*
X232461009Y-107204285D01*
X232461009Y-107204285D02*
X232984819Y-107204285D01*
X232461009Y-107204285D02*
X232365771Y-107156666D01*
X232365771Y-107156666D02*
X232318152Y-107061428D01*
X232318152Y-107061428D02*
X232318152Y-106918571D01*
X232318152Y-106918571D02*
X232365771Y-106823332D01*
X232365771Y-106823332D02*
X232461009Y-106775713D01*
X232461009Y-106775713D02*
X232984819Y-106775713D01*
X232984819Y-106299523D02*
X232318152Y-106299523D01*
X232413390Y-106299523D02*
X232365771Y-106251904D01*
X232365771Y-106251904D02*
X232318152Y-106156666D01*
X232318152Y-106156666D02*
X232318152Y-106013809D01*
X232318152Y-106013809D02*
X232365771Y-105918571D01*
X232365771Y-105918571D02*
X232461009Y-105870952D01*
X232461009Y-105870952D02*
X232984819Y-105870952D01*
X232461009Y-105870952D02*
X232365771Y-105823333D01*
X232365771Y-105823333D02*
X232318152Y-105728095D01*
X232318152Y-105728095D02*
X232318152Y-105585238D01*
X232318152Y-105585238D02*
X232365771Y-105489999D01*
X232365771Y-105489999D02*
X232461009Y-105442380D01*
X232461009Y-105442380D02*
X232984819Y-105442380D01*
D11*
X213860000Y-55880000D02*
X234266420Y-55880000D01*
X213860000Y-165100000D02*
X234266420Y-165100000D01*
X233680000Y-55880000D02*
X233680000Y-165100000D01*
X233680000Y-55880000D02*
X233680000Y-165100000D01*
X233680000Y-55880000D02*
X234266421Y-57006504D01*
X233680000Y-55880000D02*
X233093579Y-57006504D01*
X233680000Y-165100000D02*
X233093579Y-163973496D01*
X233680000Y-165100000D02*
X234266421Y-163973496D01*
D10*
X163116191Y-45024819D02*
X163306667Y-45024819D01*
X163306667Y-45024819D02*
X163401905Y-44977200D01*
X163401905Y-44977200D02*
X163449524Y-44929580D01*
X163449524Y-44929580D02*
X163544762Y-44786723D01*
X163544762Y-44786723D02*
X163592381Y-44596247D01*
X163592381Y-44596247D02*
X163592381Y-44215295D01*
X163592381Y-44215295D02*
X163544762Y-44120057D01*
X163544762Y-44120057D02*
X163497143Y-44072438D01*
X163497143Y-44072438D02*
X163401905Y-44024819D01*
X163401905Y-44024819D02*
X163211429Y-44024819D01*
X163211429Y-44024819D02*
X163116191Y-44072438D01*
X163116191Y-44072438D02*
X163068572Y-44120057D01*
X163068572Y-44120057D02*
X163020953Y-44215295D01*
X163020953Y-44215295D02*
X163020953Y-44453390D01*
X163020953Y-44453390D02*
X163068572Y-44548628D01*
X163068572Y-44548628D02*
X163116191Y-44596247D01*
X163116191Y-44596247D02*
X163211429Y-44643866D01*
X163211429Y-44643866D02*
X163401905Y-44643866D01*
X163401905Y-44643866D02*
X163497143Y-44596247D01*
X163497143Y-44596247D02*
X163544762Y-44548628D01*
X163544762Y-44548628D02*
X163592381Y-44453390D01*
X164544762Y-45024819D02*
X163973334Y-45024819D01*
X164259048Y-45024819D02*
X164259048Y-44024819D01*
X164259048Y-44024819D02*
X164163810Y-44167676D01*
X164163810Y-44167676D02*
X164068572Y-44262914D01*
X164068572Y-44262914D02*
X163973334Y-44310533D01*
X165020953Y-44977200D02*
X165020953Y-45024819D01*
X165020953Y-45024819D02*
X164973334Y-45120057D01*
X164973334Y-45120057D02*
X164925715Y-45167676D01*
X165878095Y-44358152D02*
X165878095Y-45024819D01*
X165640000Y-43977200D02*
X165401905Y-44691485D01*
X165401905Y-44691485D02*
X166020952Y-44691485D01*
X166830476Y-44358152D02*
X166830476Y-45024819D01*
X166592381Y-43977200D02*
X166354286Y-44691485D01*
X166354286Y-44691485D02*
X166973333Y-44691485D01*
X167544762Y-44024819D02*
X167640000Y-44024819D01*
X167640000Y-44024819D02*
X167735238Y-44072438D01*
X167735238Y-44072438D02*
X167782857Y-44120057D01*
X167782857Y-44120057D02*
X167830476Y-44215295D01*
X167830476Y-44215295D02*
X167878095Y-44405771D01*
X167878095Y-44405771D02*
X167878095Y-44643866D01*
X167878095Y-44643866D02*
X167830476Y-44834342D01*
X167830476Y-44834342D02*
X167782857Y-44929580D01*
X167782857Y-44929580D02*
X167735238Y-44977200D01*
X167735238Y-44977200D02*
X167640000Y-45024819D01*
X167640000Y-45024819D02*
X167544762Y-45024819D01*
X167544762Y-45024819D02*
X167449524Y-44977200D01*
X167449524Y-44977200D02*
X167401905Y-44929580D01*
X167401905Y-44929580D02*
X167354286Y-44834342D01*
X167354286Y-44834342D02*
X167306667Y-44643866D01*
X167306667Y-44643866D02*
X167306667Y-44405771D01*
X167306667Y-44405771D02*
X167354286Y-44215295D01*
X167354286Y-44215295D02*
X167401905Y-44120057D01*
X167401905Y-44120057D02*
X167449524Y-44072438D01*
X167449524Y-44072438D02*
X167544762Y-44024819D01*
X168497143Y-44024819D02*
X168592381Y-44024819D01*
X168592381Y-44024819D02*
X168687619Y-44072438D01*
X168687619Y-44072438D02*
X168735238Y-44120057D01*
X168735238Y-44120057D02*
X168782857Y-44215295D01*
X168782857Y-44215295D02*
X168830476Y-44405771D01*
X168830476Y-44405771D02*
X168830476Y-44643866D01*
X168830476Y-44643866D02*
X168782857Y-44834342D01*
X168782857Y-44834342D02*
X168735238Y-44929580D01*
X168735238Y-44929580D02*
X168687619Y-44977200D01*
X168687619Y-44977200D02*
X168592381Y-45024819D01*
X168592381Y-45024819D02*
X168497143Y-45024819D01*
X168497143Y-45024819D02*
X168401905Y-44977200D01*
X168401905Y-44977200D02*
X168354286Y-44929580D01*
X168354286Y-44929580D02*
X168306667Y-44834342D01*
X168306667Y-44834342D02*
X168259048Y-44643866D01*
X168259048Y-44643866D02*
X168259048Y-44405771D01*
X168259048Y-44405771D02*
X168306667Y-44215295D01*
X168306667Y-44215295D02*
X168354286Y-44120057D01*
X168354286Y-44120057D02*
X168401905Y-44072438D01*
X168401905Y-44072438D02*
X168497143Y-44024819D01*
X170020953Y-45024819D02*
X170020953Y-44358152D01*
X170020953Y-44453390D02*
X170068572Y-44405771D01*
X170068572Y-44405771D02*
X170163810Y-44358152D01*
X170163810Y-44358152D02*
X170306667Y-44358152D01*
X170306667Y-44358152D02*
X170401905Y-44405771D01*
X170401905Y-44405771D02*
X170449524Y-44501009D01*
X170449524Y-44501009D02*
X170449524Y-45024819D01*
X170449524Y-44501009D02*
X170497143Y-44405771D01*
X170497143Y-44405771D02*
X170592381Y-44358152D01*
X170592381Y-44358152D02*
X170735238Y-44358152D01*
X170735238Y-44358152D02*
X170830477Y-44405771D01*
X170830477Y-44405771D02*
X170878096Y-44501009D01*
X170878096Y-44501009D02*
X170878096Y-45024819D01*
X171354286Y-45024819D02*
X171354286Y-44358152D01*
X171354286Y-44453390D02*
X171401905Y-44405771D01*
X171401905Y-44405771D02*
X171497143Y-44358152D01*
X171497143Y-44358152D02*
X171640000Y-44358152D01*
X171640000Y-44358152D02*
X171735238Y-44405771D01*
X171735238Y-44405771D02*
X171782857Y-44501009D01*
X171782857Y-44501009D02*
X171782857Y-45024819D01*
X171782857Y-44501009D02*
X171830476Y-44405771D01*
X171830476Y-44405771D02*
X171925714Y-44358152D01*
X171925714Y-44358152D02*
X172068571Y-44358152D01*
X172068571Y-44358152D02*
X172163810Y-44405771D01*
X172163810Y-44405771D02*
X172211429Y-44501009D01*
X172211429Y-44501009D02*
X172211429Y-45024819D01*
D11*
X213360000Y-55380000D02*
X213360000Y-45133580D01*
X121920000Y-55380000D02*
X121920000Y-45133580D01*
X213360000Y-45720000D02*
X121920000Y-45720000D01*
X213360000Y-45720000D02*
X121920000Y-45720000D01*
X213360000Y-45720000D02*
X212233496Y-46306421D01*
X213360000Y-45720000D02*
X212233496Y-45133579D01*
X121920000Y-45720000D02*
X123046504Y-45133579D01*
X121920000Y-45720000D02*
X123046504Y-46306421D01*
M02*
