%TF.GenerationSoftware,KiCad,Pcbnew,7.0.5*%
%TF.CreationDate,2023-06-09T18:15:06-05:00*%
%TF.ProjectId,pcbpai,70636270-6169-42e6-9b69-6361645f7063,rev?*%
%TF.SameCoordinates,Original*%
%TF.FileFunction,Soldermask,Bot*%
%TF.FilePolarity,Negative*%
%FSLAX46Y46*%
G04 Gerber Fmt 4.6, Leading zero omitted, Abs format (unit mm)*
G04 Created by KiCad (PCBNEW 7.0.5) date 2023-06-09 18:15:06*
%MOMM*%
%LPD*%
G01*
G04 APERTURE LIST*
%ADD10C,2.000000*%
%ADD11R,1.700000X1.700000*%
%ADD12O,1.700000X1.700000*%
%ADD13C,5.000000*%
%ADD14C,1.600000*%
%ADD15O,1.600000X1.600000*%
%ADD16R,1.600000X1.600000*%
%ADD17R,3.000000X3.000000*%
%ADD18C,3.000000*%
G04 APERTURE END LIST*
D10*
%TO.C,U4*%
X151922500Y-87217500D03*
X151922500Y-80217500D03*
X167922500Y-87217500D03*
X167922500Y-80217500D03*
%TD*%
D11*
%TO.C,J6*%
X165100000Y-127000000D03*
D12*
X165100000Y-129540000D03*
X165100000Y-132080000D03*
X165100000Y-134620000D03*
X165100000Y-137160000D03*
X165100000Y-139700000D03*
%TD*%
D10*
%TO.C,J1*%
X176120000Y-83820000D03*
X198120000Y-83820000D03*
%TD*%
D13*
%TO.C,M1*%
X154000000Y-159000000D03*
%TD*%
D14*
%TO.C,R1*%
X153430000Y-72390000D03*
D15*
X153430000Y-64770000D03*
%TD*%
D11*
%TO.C,J2*%
X165100000Y-114840000D03*
D12*
X165100000Y-117380000D03*
X165100000Y-119920000D03*
X165100000Y-122460000D03*
%TD*%
D13*
%TO.C,REF\u002A\u002A*%
X203000000Y-101000000D03*
%TD*%
D16*
%TO.C,U6*%
X185420000Y-66040000D03*
D15*
X182880000Y-66040000D03*
X180340000Y-66040000D03*
X177800000Y-66040000D03*
X177800000Y-73660000D03*
X180340000Y-73660000D03*
X182880000Y-73660000D03*
X185420000Y-73660000D03*
%TD*%
D13*
%TO.C,REF\u002A\u002A*%
X203000000Y-159000000D03*
%TD*%
D17*
%TO.C,J3*%
X139700000Y-68580000D03*
D18*
X134700000Y-68580000D03*
%TD*%
D17*
%TO.C,J4*%
X136500000Y-83820000D03*
D18*
X136500000Y-88820000D03*
%TD*%
D10*
%TO.C,U2*%
X197120000Y-151130000D03*
X194580000Y-151130000D03*
X192040000Y-151130000D03*
X189500000Y-151130000D03*
X186960000Y-151130000D03*
X184420000Y-151130000D03*
X201560000Y-145380000D03*
X201560000Y-142840000D03*
X201560000Y-140300000D03*
X201560000Y-137760000D03*
X201560000Y-135220000D03*
X201560000Y-132680000D03*
X201560000Y-130140000D03*
X201560000Y-127600000D03*
X201560000Y-125060000D03*
X201560000Y-122520000D03*
X201560000Y-119980000D03*
X201560000Y-117440000D03*
X182880000Y-111750000D03*
X185420000Y-111750000D03*
X187960000Y-111750000D03*
X190500000Y-111750000D03*
X193040000Y-111760000D03*
X195580000Y-111750000D03*
X200660000Y-111750000D03*
X203200000Y-111750000D03*
%TD*%
D13*
%TO.C,REF\u002A\u002A*%
X154000000Y-101000000D03*
%TD*%
D14*
%TO.C,R2*%
X165100000Y-72390000D03*
D15*
X165100000Y-64770000D03*
%TD*%
D10*
%TO.C,U1*%
X147320000Y-109000000D03*
X149860000Y-109000000D03*
X152400000Y-109000000D03*
X154940000Y-109000000D03*
X157480000Y-109000000D03*
X160020000Y-109000000D03*
X142880000Y-114750000D03*
X142880000Y-117290000D03*
X142880000Y-119830000D03*
X142880000Y-122370000D03*
X142880000Y-124910000D03*
X142880000Y-127450000D03*
X142880000Y-129990000D03*
X142880000Y-132530000D03*
X142880000Y-135070000D03*
X142880000Y-137610000D03*
X142880000Y-140150000D03*
X142880000Y-142690000D03*
X161560000Y-148380000D03*
X159020000Y-148380000D03*
X156480000Y-148380000D03*
X153940000Y-148380000D03*
X151400000Y-148370000D03*
X148860000Y-148380000D03*
X143780000Y-148380000D03*
X141240000Y-148380000D03*
%TD*%
D17*
%TO.C,J5*%
X136500000Y-95000000D03*
D18*
X136500000Y-100000000D03*
%TD*%
D11*
%TO.C,U3*%
X169120000Y-106680000D03*
X172720000Y-106680000D03*
D12*
X169120000Y-109220000D03*
X172720000Y-109220000D03*
X169120000Y-111760000D03*
X172720000Y-111760000D03*
X169120000Y-114300000D03*
X172720000Y-114300000D03*
X169120000Y-116840000D03*
X172720000Y-116840000D03*
X169120000Y-119380000D03*
X172720000Y-119380000D03*
X169120000Y-121920000D03*
X172720000Y-121920000D03*
X169120000Y-124460000D03*
X172720000Y-124460000D03*
X169120000Y-127000000D03*
X172720000Y-127000000D03*
X169120000Y-129540000D03*
X172720000Y-129540000D03*
X169120000Y-132080000D03*
X172720000Y-132080000D03*
X169120000Y-134620000D03*
X172720000Y-134620000D03*
X169120000Y-137160000D03*
X172720000Y-137160000D03*
X169120000Y-139700000D03*
X172720000Y-139700000D03*
X169120000Y-142240000D03*
X172720000Y-142240000D03*
X169120000Y-144780000D03*
X172720000Y-144780000D03*
X169120000Y-147320000D03*
X172720000Y-147320000D03*
X169120000Y-149860000D03*
X172720000Y-149860000D03*
X169120000Y-152400000D03*
X172720000Y-152400000D03*
X169120000Y-154940000D03*
X172720000Y-154940000D03*
%TD*%
D11*
%TO.C,SW1*%
X185420000Y-99060000D03*
D12*
X187960000Y-99060000D03*
X190500000Y-99060000D03*
D11*
X185420000Y-93980000D03*
D12*
X187960000Y-93980000D03*
X190500000Y-93980000D03*
%TD*%
D11*
%TO.C,J8*%
X177800000Y-142240000D03*
D12*
X177800000Y-139700000D03*
X177800000Y-137160000D03*
X177800000Y-134620000D03*
X177800000Y-132080000D03*
X177800000Y-129540000D03*
X177800000Y-127000000D03*
X177800000Y-124460000D03*
X177800000Y-121920000D03*
%TD*%
M02*
