M48
; DRILL file {KiCad 7.0.5} date Fri Jun  9 18:15:10 2023
; FORMAT={-:-/ absolute / inch / decimal}
; #@! TF.CreationDate,2023-06-09T18:15:10-05:00
; #@! TF.GenerationSoftware,Kicad,Pcbnew,7.0.5
; #@! TF.FileFunction,Plated,1,2,PTH
FMAT,2
INCH
; #@! TA.AperFunction,Plated,PTH,ComponentDrill
T1C0.0315
; #@! TA.AperFunction,Plated,PTH,ComponentDrill
T2C0.0394
; #@! TA.AperFunction,Plated,PTH,ComponentDrill
T3C0.0402
; #@! TA.AperFunction,Plated,PTH,ComponentDrill
T4C0.0472
; #@! TA.AperFunction,Plated,PTH,ComponentDrill
T5C0.0551
; #@! TA.AperFunction,Plated,PTH,ComponentDrill
T6C0.0591
; #@! TA.AperFunction,Plated,PTH,ComponentDrill
T7C0.0984
%
G90
G05
T1
X6.0406Y-2.55
X6.0406Y-2.85
X6.5Y-2.55
X6.5Y-2.85
X7.0Y-2.6
X7.0Y-2.9
X7.1Y-2.6
X7.1Y-2.9
X7.2Y-2.6
X7.2Y-2.9
X7.3Y-2.6
X7.3Y-2.9
T2
X6.5Y-4.5213
X6.5Y-4.6213
X6.5Y-4.7213
X6.5Y-4.8213
X6.5Y-5.0
X6.5Y-5.1
X6.5Y-5.2
X6.5Y-5.3
X6.5Y-5.4
X6.5Y-5.5
X6.6583Y-4.2
X6.6583Y-4.3
X6.6583Y-4.4
X6.6583Y-4.5
X6.6583Y-4.6
X6.6583Y-4.7
X6.6583Y-4.8
X6.6583Y-4.9
X6.6583Y-5.0
X6.6583Y-5.1
X6.6583Y-5.2
X6.6583Y-5.3
X6.6583Y-5.4
X6.6583Y-5.5
X6.6583Y-5.6
X6.6583Y-5.7
X6.6583Y-5.8
X6.6583Y-5.9
X6.6583Y-6.0
X6.6583Y-6.1
X6.8Y-4.2
X6.8Y-4.3
X6.8Y-4.4
X6.8Y-4.5
X6.8Y-4.6
X6.8Y-4.7
X6.8Y-4.8
X6.8Y-4.9
X6.8Y-5.0
X6.8Y-5.1
X6.8Y-5.2
X6.8Y-5.3
X6.8Y-5.4
X6.8Y-5.5
X6.8Y-5.6
X6.8Y-5.7
X6.8Y-5.8
X6.8Y-5.9
X6.8Y-6.0
X6.8Y-6.1
X7.0Y-4.8
X7.0Y-4.9
X7.0Y-5.0
X7.0Y-5.1
X7.0Y-5.2
X7.0Y-5.3
X7.0Y-5.4
X7.0Y-5.5
X7.0Y-5.6
X7.3Y-3.7
X7.3Y-3.9
X7.4Y-3.7
X7.4Y-3.9
X7.5Y-3.7
X7.5Y-3.9
T3
X5.5606Y-5.8417
X5.6252Y-4.5177
X5.6252Y-4.6177
X5.6252Y-4.7177
X5.6252Y-4.8177
X5.6252Y-4.9177
X5.6252Y-5.0177
X5.6252Y-5.1177
X5.6252Y-5.2177
X5.6252Y-5.3177
X5.6252Y-5.4177
X5.6252Y-5.5177
X5.6252Y-5.6177
X5.6606Y-5.8417
X5.8Y-4.2913
X5.8606Y-5.8417
X5.9Y-4.2913
X5.9606Y-5.8413
X6.0Y-4.2913
X6.0606Y-5.8417
X6.1Y-4.2913
X6.1606Y-5.8417
X6.2Y-4.2913
X6.2606Y-5.8417
X6.3Y-4.2913
X6.3606Y-5.8417
X7.2Y-4.3996
X7.2606Y-5.95
X7.3Y-4.3996
X7.3606Y-5.95
X7.4Y-4.3996
X7.4606Y-5.95
X7.5Y-4.3996
X7.5606Y-5.95
X7.6Y-4.4
X7.6606Y-5.95
X7.7Y-4.3996
X7.7606Y-5.95
X7.9Y-4.3996
X7.9354Y-4.6236
X7.9354Y-4.7236
X7.9354Y-4.8236
X7.9354Y-4.9236
X7.9354Y-5.0236
X7.9354Y-5.1236
X7.9354Y-5.2236
X7.9354Y-5.3236
X7.9354Y-5.4236
X7.9354Y-5.5236
X7.9354Y-5.6236
X7.9354Y-5.7236
X8.0Y-4.3996
T4
X5.9812Y-3.1582
X5.9812Y-3.4338
X6.6111Y-3.1582
X6.6111Y-3.4338
T5
X6.9339Y-3.3
X7.8Y-3.3
T6
X5.3031Y-2.7
X5.374Y-3.3
X5.374Y-3.4969
X5.374Y-3.7402
X5.374Y-3.937
X5.5Y-2.7
T7
X6.063Y-3.9764
X6.063Y-6.2598
X7.9921Y-3.9764
X7.9921Y-6.2598
T0
M30
