%TF.GenerationSoftware,KiCad,Pcbnew,7.0.5*%
%TF.CreationDate,2023-06-21T07:28:41-05:00*%
%TF.ProjectId,pcbpai,70636270-6169-42e6-9b69-6361645f7063,rev?*%
%TF.SameCoordinates,Original*%
%TF.FileFunction,Drillmap*%
%TF.FilePolarity,Positive*%
%FSLAX45Y45*%
G04 Gerber Fmt 4.5, Leading zero omitted, Abs format (unit mm)*
G04 Created by KiCad (PCBNEW 7.0.5) date 2023-06-21 07:28:41*
%MOMM*%
%LPD*%
G01*
G04 APERTURE LIST*
%ADD10C,0.100000*%
%ADD11C,0.200000*%
G04 APERTURE END LIST*
D10*
X11000000Y-4400000D02*
X17800000Y-4400000D01*
X17800000Y-14200000D01*
X11000000Y-14200000D01*
X11000000Y-4400000D01*
D11*
X11255777Y-14516484D02*
X11255777Y-14316484D01*
X11255777Y-14316484D02*
X11303396Y-14316484D01*
X11303396Y-14316484D02*
X11331967Y-14326008D01*
X11331967Y-14326008D02*
X11351015Y-14345055D01*
X11351015Y-14345055D02*
X11360539Y-14364103D01*
X11360539Y-14364103D02*
X11370062Y-14402198D01*
X11370062Y-14402198D02*
X11370062Y-14430769D01*
X11370062Y-14430769D02*
X11360539Y-14468865D01*
X11360539Y-14468865D02*
X11351015Y-14487912D01*
X11351015Y-14487912D02*
X11331967Y-14506960D01*
X11331967Y-14506960D02*
X11303396Y-14516484D01*
X11303396Y-14516484D02*
X11255777Y-14516484D01*
X11455777Y-14516484D02*
X11455777Y-14383150D01*
X11455777Y-14421246D02*
X11465301Y-14402198D01*
X11465301Y-14402198D02*
X11474824Y-14392674D01*
X11474824Y-14392674D02*
X11493872Y-14383150D01*
X11493872Y-14383150D02*
X11512920Y-14383150D01*
X11579586Y-14516484D02*
X11579586Y-14383150D01*
X11579586Y-14316484D02*
X11570062Y-14326008D01*
X11570062Y-14326008D02*
X11579586Y-14335531D01*
X11579586Y-14335531D02*
X11589110Y-14326008D01*
X11589110Y-14326008D02*
X11579586Y-14316484D01*
X11579586Y-14316484D02*
X11579586Y-14335531D01*
X11703396Y-14516484D02*
X11684348Y-14506960D01*
X11684348Y-14506960D02*
X11674824Y-14487912D01*
X11674824Y-14487912D02*
X11674824Y-14316484D01*
X11808158Y-14516484D02*
X11789110Y-14506960D01*
X11789110Y-14506960D02*
X11779586Y-14487912D01*
X11779586Y-14487912D02*
X11779586Y-14316484D01*
X12036729Y-14516484D02*
X12036729Y-14316484D01*
X12036729Y-14316484D02*
X12103396Y-14459341D01*
X12103396Y-14459341D02*
X12170062Y-14316484D01*
X12170062Y-14316484D02*
X12170062Y-14516484D01*
X12351015Y-14516484D02*
X12351015Y-14411722D01*
X12351015Y-14411722D02*
X12341491Y-14392674D01*
X12341491Y-14392674D02*
X12322443Y-14383150D01*
X12322443Y-14383150D02*
X12284348Y-14383150D01*
X12284348Y-14383150D02*
X12265301Y-14392674D01*
X12351015Y-14506960D02*
X12331967Y-14516484D01*
X12331967Y-14516484D02*
X12284348Y-14516484D01*
X12284348Y-14516484D02*
X12265301Y-14506960D01*
X12265301Y-14506960D02*
X12255777Y-14487912D01*
X12255777Y-14487912D02*
X12255777Y-14468865D01*
X12255777Y-14468865D02*
X12265301Y-14449817D01*
X12265301Y-14449817D02*
X12284348Y-14440293D01*
X12284348Y-14440293D02*
X12331967Y-14440293D01*
X12331967Y-14440293D02*
X12351015Y-14430769D01*
X12446253Y-14383150D02*
X12446253Y-14583150D01*
X12446253Y-14392674D02*
X12465301Y-14383150D01*
X12465301Y-14383150D02*
X12503396Y-14383150D01*
X12503396Y-14383150D02*
X12522443Y-14392674D01*
X12522443Y-14392674D02*
X12531967Y-14402198D01*
X12531967Y-14402198D02*
X12541491Y-14421246D01*
X12541491Y-14421246D02*
X12541491Y-14478388D01*
X12541491Y-14478388D02*
X12531967Y-14497436D01*
X12531967Y-14497436D02*
X12522443Y-14506960D01*
X12522443Y-14506960D02*
X12503396Y-14516484D01*
X12503396Y-14516484D02*
X12465301Y-14516484D01*
X12465301Y-14516484D02*
X12446253Y-14506960D01*
X12627205Y-14497436D02*
X12636729Y-14506960D01*
X12636729Y-14506960D02*
X12627205Y-14516484D01*
X12627205Y-14516484D02*
X12617682Y-14506960D01*
X12617682Y-14506960D02*
X12627205Y-14497436D01*
X12627205Y-14497436D02*
X12627205Y-14516484D01*
X12627205Y-14392674D02*
X12636729Y-14402198D01*
X12636729Y-14402198D02*
X12627205Y-14411722D01*
X12627205Y-14411722D02*
X12617682Y-14402198D01*
X12617682Y-14402198D02*
X12627205Y-14392674D01*
X12627205Y-14392674D02*
X12627205Y-14411722D01*
M02*
