%TF.GenerationSoftware,KiCad,Pcbnew,7.0.5*%
%TF.CreationDate,2023-06-21T07:23:55-05:00*%
%TF.ProjectId,pcbpai,70636270-6169-42e6-9b69-6361645f7063,rev?*%
%TF.SameCoordinates,Original*%
%TF.FileFunction,Legend,Bot*%
%TF.FilePolarity,Positive*%
%FSLAX46Y46*%
G04 Gerber Fmt 4.6, Leading zero omitted, Abs format (unit mm)*
G04 Created by KiCad (PCBNEW 7.0.5) date 2023-06-21 07:23:55*
%MOMM*%
%LPD*%
G01*
G04 APERTURE LIST*
G04 Aperture macros list*
%AMRoundRect*
0 Rectangle with rounded corners*
0 $1 Rounding radius*
0 $2 $3 $4 $5 $6 $7 $8 $9 X,Y pos of 4 corners*
0 Add a 4 corners polygon primitive as box body*
4,1,4,$2,$3,$4,$5,$6,$7,$8,$9,$2,$3,0*
0 Add four circle primitives for the rounded corners*
1,1,$1+$1,$2,$3*
1,1,$1+$1,$4,$5*
1,1,$1+$1,$6,$7*
1,1,$1+$1,$8,$9*
0 Add four rect primitives between the rounded corners*
20,1,$1+$1,$2,$3,$4,$5,0*
20,1,$1+$1,$4,$5,$6,$7,0*
20,1,$1+$1,$6,$7,$8,$9,0*
20,1,$1+$1,$8,$9,$2,$3,0*%
G04 Aperture macros list end*
%TA.AperFunction,ComponentPad*%
%ADD10R,2.000000X2.000000*%
%TD*%
%TA.AperFunction,ComponentPad*%
%ADD11C,2.000000*%
%TD*%
%TA.AperFunction,ComponentPad*%
%ADD12C,3.200000*%
%TD*%
%TA.AperFunction,ComponentPad*%
%ADD13C,5.000000*%
%TD*%
%TA.AperFunction,ComponentPad*%
%ADD14RoundRect,1.500000X-1.500000X-1.500000X1.500000X-1.500000X1.500000X1.500000X-1.500000X1.500000X0*%
%TD*%
%TA.AperFunction,ComponentPad*%
%ADD15C,6.000000*%
%TD*%
%TA.AperFunction,ComponentPad*%
%ADD16RoundRect,0.250000X0.750000X1.550000X-0.750000X1.550000X-0.750000X-1.550000X0.750000X-1.550000X0*%
%TD*%
%TA.AperFunction,ComponentPad*%
%ADD17O,2.000000X3.600000*%
%TD*%
%TA.AperFunction,ComponentPad*%
%ADD18RoundRect,0.250000X-0.600000X-0.600000X0.600000X-0.600000X0.600000X0.600000X-0.600000X0.600000X0*%
%TD*%
%TA.AperFunction,ComponentPad*%
%ADD19C,1.700000*%
%TD*%
%TA.AperFunction,ComponentPad*%
%ADD20RoundRect,0.250000X0.600000X0.600000X-0.600000X0.600000X-0.600000X-0.600000X0.600000X-0.600000X0*%
%TD*%
%TA.AperFunction,ComponentPad*%
%ADD21RoundRect,0.250000X1.550000X-0.750000X1.550000X0.750000X-1.550000X0.750000X-1.550000X-0.750000X0*%
%TD*%
%TA.AperFunction,ComponentPad*%
%ADD22O,3.600000X2.000000*%
%TD*%
%TA.AperFunction,ComponentPad*%
%ADD23C,1.600000*%
%TD*%
%TA.AperFunction,ComponentPad*%
%ADD24O,1.600000X1.600000*%
%TD*%
%TA.AperFunction,ComponentPad*%
%ADD25RoundRect,0.250000X-1.550000X0.750000X-1.550000X-0.750000X1.550000X-0.750000X1.550000X0.750000X0*%
%TD*%
%TA.AperFunction,ComponentPad*%
%ADD26R,1.600000X1.600000*%
%TD*%
%TA.AperFunction,ComponentPad*%
%ADD27R,1.700000X1.700000*%
%TD*%
%TA.AperFunction,ComponentPad*%
%ADD28O,1.700000X1.700000*%
%TD*%
%TA.AperFunction,ComponentPad*%
%ADD29R,2.600000X2.600000*%
%TD*%
%TA.AperFunction,ComponentPad*%
%ADD30C,2.600000*%
%TD*%
%ADD31C,0.300000*%
%TA.AperFunction,Conductor*%
%ADD32C,0.400000*%
%TD*%
%TA.AperFunction,Conductor*%
%ADD33C,2.001600*%
%TD*%
%TA.AperFunction,Conductor*%
%ADD34C,7.000000*%
%TD*%
%TA.AperFunction,Conductor*%
%ADD35C,1.370000*%
%TD*%
%ADD36C,0.100000*%
%ADD37C,0.150000*%
%ADD38C,0.120000*%
%ADD39R,2.000000X2.000000*%
%ADD40C,2.000000*%
%ADD41C,3.200000*%
%ADD42C,5.000000*%
%ADD43RoundRect,1.500000X-1.500000X-1.500000X1.500000X-1.500000X1.500000X1.500000X-1.500000X1.500000X0*%
%ADD44C,6.000000*%
%ADD45RoundRect,0.250000X0.750000X1.550000X-0.750000X1.550000X-0.750000X-1.550000X0.750000X-1.550000X0*%
%ADD46O,2.000000X3.600000*%
%ADD47RoundRect,0.250000X-0.600000X-0.600000X0.600000X-0.600000X0.600000X0.600000X-0.600000X0.600000X0*%
%ADD48C,1.700000*%
%ADD49RoundRect,0.250000X0.600000X0.600000X-0.600000X0.600000X-0.600000X-0.600000X0.600000X-0.600000X0*%
%ADD50RoundRect,0.250000X1.550000X-0.750000X1.550000X0.750000X-1.550000X0.750000X-1.550000X-0.750000X0*%
%ADD51O,3.600000X2.000000*%
%ADD52C,1.600000*%
%ADD53O,1.600000X1.600000*%
%ADD54RoundRect,0.250000X-1.550000X0.750000X-1.550000X-0.750000X1.550000X-0.750000X1.550000X0.750000X0*%
%ADD55R,1.600000X1.600000*%
%ADD56R,1.700000X1.700000*%
%ADD57O,1.700000X1.700000*%
%ADD58R,2.600000X2.600000*%
%ADD59C,2.600000*%
%TA.AperFunction,Profile*%
%ADD60C,0.100000*%
%TD*%
G04 APERTURE END LIST*
D10*
%TO.P,U4,1,in1*%
%TO.N,Net-(J4-Pin_2)*%
X123600000Y-70200000D03*
D11*
%TO.P,U4,2,in2*%
%TO.N,GND*%
X123600000Y-60400000D03*
%TO.P,U4,3,out1*%
%TO.N,Net-(J1-Pin_1)*%
X139600000Y-70200000D03*
%TO.P,U4,4,out2*%
%TO.N,GND*%
X139600000Y-60400000D03*
%TD*%
D12*
%TO.P,J1,1,Pin_1*%
%TO.N,Net-(J1-Pin_1)*%
X146537500Y-64000000D03*
%TO.P,J1,2,Pin_2*%
%TO.N,Net-(J1-Pin_2)*%
X169037500Y-64000000D03*
%TD*%
D13*
%TO.P,M3,1*%
%TO.N,N/C*%
X169350000Y-80000000D03*
%TD*%
D14*
%TO.P,J3,1,Pin_1*%
%TO.N,+24V*%
X151700000Y-50000000D03*
D15*
%TO.P,J3,2,Pin_2*%
%TO.N,GND*%
X158900000Y-50000000D03*
%TD*%
D16*
%TO.P,J5,1,Pin_1*%
%TO.N,Net-(J4-Pin_2)*%
X119500000Y-54777500D03*
D17*
%TO.P,J5,2,Pin_2*%
%TO.N,Net-(J10-Pin_2)*%
X114500000Y-54777500D03*
%TD*%
D18*
%TO.P,D1,1,RPWM*%
%TO.N,Net-(D1-RPWM)*%
X158060000Y-90500000D03*
D19*
%TO.P,D1,2,LPWM*%
%TO.N,Net-(D1-LPWM)*%
X160600000Y-90500000D03*
%TO.P,D1,3,R_EN*%
%TO.N,Net-(D1-L_EN)*%
X158060000Y-93040000D03*
%TO.P,D1,4,L_EN*%
X160600000Y-93040000D03*
%TO.P,D1,5,R_IS*%
%TO.N,unconnected-(D1-R_IS-Pad5)*%
X158060000Y-95580000D03*
%TO.P,D1,6,L_IS*%
%TO.N,unconnected-(D1-L_IS-Pad6)*%
X160600000Y-95580000D03*
%TO.P,D1,7,VCC*%
%TO.N,+3.3V*%
X158060000Y-98120000D03*
%TO.P,D1,8,GND*%
%TO.N,GND*%
X160600000Y-98120000D03*
%TO.P,D1,9,NC*%
%TO.N,unconnected-(D1-NC-Pad9)*%
X158060000Y-100660000D03*
%TO.P,D1,10,NC*%
%TO.N,unconnected-(D1-NC-Pad10)*%
X160600000Y-100660000D03*
%TD*%
D20*
%TO.P,D3,1,RPWM*%
%TO.N,Net-(D3-RPWM)*%
X130100000Y-101140000D03*
D19*
%TO.P,D3,2,LPWM*%
%TO.N,Net-(D3-LPWM)*%
X127560000Y-101140000D03*
%TO.P,D3,3,R_EN*%
%TO.N,Net-(D3-L_EN)*%
X130100000Y-98600000D03*
%TO.P,D3,4,L_EN*%
X127560000Y-98600000D03*
%TO.P,D3,5,R_IS*%
%TO.N,unconnected-(D3-R_IS-Pad5)*%
X130100000Y-96060000D03*
%TO.P,D3,6,L_IS*%
%TO.N,unconnected-(D3-L_IS-Pad6)*%
X127560000Y-96060000D03*
%TO.P,D3,7,VCC*%
%TO.N,+3.3V*%
X130100000Y-93520000D03*
%TO.P,D3,8,GND*%
%TO.N,GND*%
X127560000Y-93520000D03*
%TO.P,D3,9,NC*%
%TO.N,unconnected-(D3-NC-Pad9)*%
X130100000Y-90980000D03*
%TO.P,D3,10,NC*%
%TO.N,unconnected-(D3-NC-Pad10)*%
X127560000Y-90980000D03*
%TD*%
D20*
%TO.P,D4,1,RPWM*%
%TO.N,Net-(D4-RPWM)*%
X130400000Y-131360000D03*
D19*
%TO.P,D4,2,LPWM*%
%TO.N,Net-(D4-LPWM)*%
X127860000Y-131360000D03*
%TO.P,D4,3,R_EN*%
%TO.N,Net-(D4-L_EN)*%
X130400000Y-128820000D03*
%TO.P,D4,4,L_EN*%
X127860000Y-128820000D03*
%TO.P,D4,5,R_IS*%
%TO.N,unconnected-(D4-R_IS-Pad5)*%
X130400000Y-126280000D03*
%TO.P,D4,6,L_IS*%
%TO.N,unconnected-(D4-L_IS-Pad6)*%
X127860000Y-126280000D03*
%TO.P,D4,7,VCC*%
%TO.N,+3.3V*%
X130400000Y-123740000D03*
%TO.P,D4,8,GND*%
%TO.N,GND*%
X127860000Y-123740000D03*
%TO.P,D4,9,NC*%
%TO.N,unconnected-(D4-NC-Pad9)*%
X130400000Y-121200000D03*
%TO.P,D4,10,NC*%
%TO.N,unconnected-(D4-NC-Pad10)*%
X127860000Y-121200000D03*
%TD*%
D21*
%TO.P,J10,1,Pin_1*%
%TO.N,GND*%
X167522500Y-97600000D03*
D22*
%TO.P,J10,2,Pin_2*%
%TO.N,Net-(J10-Pin_2)*%
X167522500Y-92600000D03*
%TD*%
D18*
%TO.P,D2,1,RPWM*%
%TO.N,Net-(D2-RPWM)*%
X158160000Y-121300000D03*
D19*
%TO.P,D2,2,LPWM*%
%TO.N,Net-(D2-LPWM)*%
X160700000Y-121300000D03*
%TO.P,D2,3,R_EN*%
%TO.N,Net-(D2-L_EN)*%
X158160000Y-123840000D03*
%TO.P,D2,4,L_EN*%
X160700000Y-123840000D03*
%TO.P,D2,5,R_IS*%
%TO.N,unconnected-(D2-R_IS-Pad5)*%
X158160000Y-126380000D03*
%TO.P,D2,6,L_IS*%
%TO.N,unconnected-(D2-L_IS-Pad6)*%
X160700000Y-126380000D03*
%TO.P,D2,7,VCC*%
%TO.N,+3.3V*%
X158160000Y-128920000D03*
%TO.P,D2,8,GND*%
%TO.N,GND*%
X160700000Y-128920000D03*
%TO.P,D2,9,NC*%
%TO.N,unconnected-(D2-NC-Pad9)*%
X158160000Y-131460000D03*
%TO.P,D2,10,NC*%
%TO.N,unconnected-(D2-NC-Pad10)*%
X160700000Y-131460000D03*
%TD*%
D23*
%TO.P,R2,1*%
%TO.N,Net-(U6-XTAL1{slash}PB3)*%
X137000000Y-81810000D03*
D24*
%TO.P,R2,2*%
%TO.N,GND*%
X137000000Y-74190000D03*
%TD*%
D13*
%TO.P,M1,1*%
%TO.N,N/C*%
X169350000Y-138000000D03*
%TD*%
D25*
%TO.P,J11,1,Pin_1*%
%TO.N,GND*%
X120477500Y-123300000D03*
D22*
%TO.P,J11,2,Pin_2*%
%TO.N,Net-(J10-Pin_2)*%
X120477500Y-128300000D03*
%TD*%
D26*
%TO.P,U6,1,~{RESET}/PB5*%
%TO.N,unconnected-(U6-~{RESET}{slash}PB5-Pad1)*%
X160800000Y-72000000D03*
D24*
%TO.P,U6,2,XTAL1/PB3*%
%TO.N,Net-(U6-XTAL1{slash}PB3)*%
X158260000Y-72000000D03*
%TO.P,U6,3,XTAL2/PB4*%
%TO.N,unconnected-(U6-XTAL2{slash}PB4-Pad3)*%
X155720000Y-72000000D03*
%TO.P,U6,4,GND*%
%TO.N,GND*%
X153180000Y-72000000D03*
%TO.P,U6,5,AREF/PB0*%
%TO.N,Net-(J7-Pin_3)*%
X153180000Y-79620000D03*
%TO.P,U6,6,PB1*%
%TO.N,unconnected-(U6-PB1-Pad6)*%
X155720000Y-79620000D03*
%TO.P,U6,7,PB2*%
%TO.N,Net-(J7-Pin_5)*%
X158260000Y-79620000D03*
%TO.P,U6,8,VCC*%
%TO.N,+3.3V*%
X160800000Y-79620000D03*
%TD*%
D25*
%TO.P,J12,1,Pin_1*%
%TO.N,GND*%
X120877500Y-93400000D03*
D22*
%TO.P,J12,2,Pin_2*%
%TO.N,Net-(J10-Pin_2)*%
X120877500Y-98400000D03*
%TD*%
D13*
%TO.P,M2,1*%
%TO.N,N/C*%
X120350000Y-138000000D03*
%TD*%
D27*
%TO.P,J6,1,Pin_1*%
%TO.N,Net-(J6-Pin_1)*%
X151600000Y-102820000D03*
D28*
%TO.P,J6,2,Pin_2*%
%TO.N,Net-(J6-Pin_2)*%
X151600000Y-105360000D03*
%TO.P,J6,3,Pin_3*%
%TO.N,Net-(J6-Pin_3)*%
X151600000Y-107900000D03*
%TO.P,J6,4,Pin_4*%
%TO.N,Net-(J6-Pin_4)*%
X151600000Y-110440000D03*
%TO.P,J6,5,Pin_5*%
%TO.N,Net-(J6-Pin_5)*%
X151600000Y-112980000D03*
%TO.P,J6,6,Pin_6*%
%TO.N,Net-(J6-Pin_6)*%
X151600000Y-115520000D03*
%TO.P,J6,7,Pin_7*%
%TO.N,Net-(J6-Pin_7)*%
X151600000Y-118060000D03*
%TO.P,J6,8,Pin_8*%
%TO.N,Net-(J6-Pin_8)*%
X151600000Y-120600000D03*
%TD*%
D23*
%TO.P,R1,1*%
%TO.N,Net-(J4-Pin_2)*%
X130000000Y-74190000D03*
D24*
%TO.P,R1,2*%
%TO.N,Net-(U6-XTAL1{slash}PB3)*%
X130000000Y-81810000D03*
%TD*%
D13*
%TO.P,M4,1*%
%TO.N,N/C*%
X120350000Y-80000000D03*
%TD*%
D18*
%TO.P,J7,1,Pin_1*%
%TO.N,+3.3V*%
X142850000Y-84960000D03*
D19*
%TO.P,J7,2,Pin_2*%
%TO.N,unconnected-(J7-Pin_2-Pad2)*%
X145390000Y-84960000D03*
%TO.P,J7,3,Pin_3*%
%TO.N,Net-(J7-Pin_3)*%
X142850000Y-87500000D03*
%TO.P,J7,4,Pin_4*%
%TO.N,unconnected-(J7-Pin_4-Pad4)*%
X145390000Y-87500000D03*
%TO.P,J7,5,Pin_5*%
%TO.N,Net-(J7-Pin_5)*%
X142850000Y-90040000D03*
%TO.P,J7,6,Pin_6*%
%TO.N,unconnected-(J7-Pin_6-Pad6)*%
X145390000Y-90040000D03*
%TO.P,J7,7,Pin_7*%
%TO.N,unconnected-(J7-Pin_7-Pad7)*%
X142850000Y-92580000D03*
%TO.P,J7,8,Pin_8*%
%TO.N,unconnected-(J7-Pin_8-Pad8)*%
X145390000Y-92580000D03*
%TO.P,J7,9,Pin_9*%
%TO.N,unconnected-(J7-Pin_9-Pad9)*%
X142850000Y-95120000D03*
%TO.P,J7,10,Pin_10*%
%TO.N,unconnected-(J7-Pin_10-Pad10)*%
X145390000Y-95120000D03*
%TO.P,J7,11,Pin_11*%
%TO.N,Net-(D3-L_EN)*%
X142850000Y-97660000D03*
%TO.P,J7,12,Pin_12*%
%TO.N,Net-(D1-L_EN)*%
X145390000Y-97660000D03*
%TO.P,J7,13,Pin_13*%
%TO.N,Net-(D3-RPWM)*%
X142850000Y-100200000D03*
%TO.P,J7,14,Pin_14*%
%TO.N,unconnected-(J7-Pin_14-Pad14)*%
X145390000Y-100200000D03*
%TO.P,J7,15,Pin_15*%
%TO.N,Net-(D3-LPWM)*%
X142850000Y-102740000D03*
%TO.P,J7,16,Pin_16*%
%TO.N,Net-(D1-RPWM)*%
X145390000Y-102740000D03*
%TO.P,J7,17,Pin_17*%
%TO.N,Net-(J2-Pin_8)*%
X142850000Y-105280000D03*
%TO.P,J7,18,Pin_18*%
%TO.N,Net-(D1-LPWM)*%
X145390000Y-105280000D03*
%TO.P,J7,19,Pin_19*%
%TO.N,Net-(J2-Pin_7)*%
X142850000Y-107820000D03*
%TO.P,J7,20,Pin_20*%
%TO.N,Net-(J6-Pin_1)*%
X145390000Y-107820000D03*
%TO.P,J7,21,Pin_21*%
%TO.N,Net-(J2-Pin_6)*%
X142850000Y-110360000D03*
%TO.P,J7,22,Pin_22*%
%TO.N,Net-(J6-Pin_2)*%
X145390000Y-110360000D03*
%TO.P,J7,23,Pin_23*%
%TO.N,Net-(J2-Pin_5)*%
X142850000Y-112900000D03*
%TO.P,J7,24,Pin_24*%
%TO.N,Net-(J6-Pin_3)*%
X145390000Y-112900000D03*
%TO.P,J7,25,Pin_25*%
%TO.N,Net-(J2-Pin_4)*%
X142850000Y-115440000D03*
%TO.P,J7,26,Pin_26*%
%TO.N,Net-(J6-Pin_4)*%
X145390000Y-115440000D03*
%TO.P,J7,27,Pin_27*%
%TO.N,Net-(J2-Pin_3)*%
X142850000Y-117980000D03*
%TO.P,J7,28,Pin_28*%
%TO.N,Net-(J6-Pin_5)*%
X145390000Y-117980000D03*
%TO.P,J7,29,Pin_29*%
%TO.N,Net-(J2-Pin_2)*%
X142850000Y-120520000D03*
%TO.P,J7,30,Pin_30*%
%TO.N,Net-(J6-Pin_6)*%
X145390000Y-120520000D03*
%TO.P,J7,31,Pin_31*%
%TO.N,Net-(J2-Pin_1)*%
X142850000Y-123060000D03*
%TO.P,J7,32,Pin_32*%
%TO.N,Net-(J6-Pin_7)*%
X145390000Y-123060000D03*
%TO.P,J7,33,Pin_33*%
%TO.N,Net-(D4-L_EN)*%
X142850000Y-125600000D03*
%TO.P,J7,34,Pin_34*%
%TO.N,Net-(J6-Pin_8)*%
X145390000Y-125600000D03*
%TO.P,J7,35,Pin_35*%
%TO.N,Net-(D4-RPWM)*%
X142850000Y-128140000D03*
%TO.P,J7,36,Pin_36*%
%TO.N,Net-(D2-L_EN)*%
X145390000Y-128140000D03*
%TO.P,J7,37,Pin_37*%
%TO.N,Net-(D4-LPWM)*%
X142850000Y-130680000D03*
%TO.P,J7,38,Pin_38*%
%TO.N,Net-(D2-RPWM)*%
X145390000Y-130680000D03*
%TO.P,J7,39,Pin_39*%
%TO.N,GND*%
X142850000Y-133220000D03*
%TO.P,J7,40,Pin_40*%
%TO.N,Net-(D2-LPWM)*%
X145390000Y-133220000D03*
%TD*%
D27*
%TO.P,J2,1,Pin_1*%
%TO.N,Net-(J2-Pin_1)*%
X136500000Y-120280000D03*
D28*
%TO.P,J2,2,Pin_2*%
%TO.N,Net-(J2-Pin_2)*%
X136500000Y-117740000D03*
%TO.P,J2,3,Pin_3*%
%TO.N,Net-(J2-Pin_3)*%
X136500000Y-115200000D03*
%TO.P,J2,4,Pin_4*%
%TO.N,Net-(J2-Pin_4)*%
X136500000Y-112660000D03*
%TO.P,J2,5,Pin_5*%
%TO.N,Net-(J2-Pin_5)*%
X136500000Y-110120000D03*
%TO.P,J2,6,Pin_6*%
%TO.N,Net-(J2-Pin_6)*%
X136500000Y-107580000D03*
%TO.P,J2,7,Pin_7*%
%TO.N,Net-(J2-Pin_7)*%
X136500000Y-105040000D03*
%TO.P,J2,8,Pin_8*%
%TO.N,Net-(J2-Pin_8)*%
X136500000Y-102500000D03*
%TD*%
D29*
%TO.P,J9,1,Pin_1*%
%TO.N,Net-(J1-Pin_2)*%
X173500000Y-51300000D03*
D30*
%TO.P,J9,2,Pin_2*%
%TO.N,GND*%
X168500000Y-51300000D03*
%TD*%
D16*
%TO.P,J4,1,Pin_1*%
%TO.N,+24V*%
X141500000Y-54777500D03*
D17*
%TO.P,J4,2,Pin_2*%
%TO.N,Net-(J4-Pin_2)*%
X136500000Y-54777500D03*
%TD*%
D21*
%TO.P,J8,1,Pin_1*%
%TO.N,GND*%
X167400000Y-129100000D03*
D22*
%TO.P,J8,2,Pin_2*%
%TO.N,Net-(J10-Pin_2)*%
X167400000Y-124100000D03*
%TD*%
D31*
G36*
X166789756Y-75614161D02*
G01*
X166015508Y-75614161D01*
X166402632Y-74452788D01*
X166789756Y-75614161D01*
G37*
G36*
X174907143Y-77607143D02*
G01*
X164471429Y-77607143D01*
X164471429Y-76517041D01*
X165417804Y-76517041D01*
X165462720Y-76592818D01*
X165541473Y-76632284D01*
X165629059Y-76622907D01*
X165697674Y-76567665D01*
X165915508Y-75914161D01*
X166889756Y-75914161D01*
X167100483Y-76546342D01*
X167137925Y-76600218D01*
X167219324Y-76633891D01*
X167306006Y-76618212D01*
X167370449Y-76558159D01*
X167392195Y-76472796D01*
X167151393Y-75750389D01*
X167152612Y-75741912D01*
X167137636Y-75709121D01*
X166568586Y-74001968D01*
X167914746Y-74001968D01*
X167919299Y-74011724D01*
X167919299Y-76500015D01*
X167937783Y-76562967D01*
X168004356Y-76620652D01*
X168091548Y-76633189D01*
X168171675Y-76596596D01*
X168219299Y-76522491D01*
X168219299Y-74654581D01*
X168766176Y-75826462D01*
X168783645Y-75865561D01*
X168803506Y-75878557D01*
X168819197Y-75896367D01*
X168839601Y-75902176D01*
X168857356Y-75913794D01*
X168881092Y-75913989D01*
X168903918Y-75920488D01*
X168924222Y-75914344D01*
X168945440Y-75914519D01*
X168965512Y-75901851D01*
X168988232Y-75894977D01*
X169001994Y-75878827D01*
X169019934Y-75867506D01*
X169029970Y-75845998D01*
X169045367Y-75827932D01*
X169048213Y-75806907D01*
X169585965Y-74654581D01*
X169585965Y-76500015D01*
X169604449Y-76562967D01*
X169671022Y-76620652D01*
X169758214Y-76633189D01*
X169838341Y-76596596D01*
X169885965Y-76522491D01*
X169885965Y-76500015D01*
X170776441Y-76500015D01*
X170794925Y-76562967D01*
X170861498Y-76620652D01*
X170948690Y-76633189D01*
X171028817Y-76596596D01*
X171076441Y-76522491D01*
X171076441Y-74080854D01*
X171842426Y-74080854D01*
X171858105Y-74167536D01*
X171918158Y-74231980D01*
X172003521Y-74253725D01*
X172379354Y-74128447D01*
X172914841Y-74128447D01*
X173099492Y-74220773D01*
X173184114Y-74305395D01*
X173276441Y-74490048D01*
X173276441Y-74657321D01*
X173184113Y-74841975D01*
X173099492Y-74926597D01*
X172897896Y-75027395D01*
X172463600Y-75135969D01*
X172446372Y-75134110D01*
X172421704Y-75146443D01*
X172416756Y-75147681D01*
X172402482Y-75156054D01*
X172185705Y-75264444D01*
X172161044Y-75269809D01*
X172131828Y-75299023D01*
X172101552Y-75327186D01*
X172100825Y-75330026D01*
X172024147Y-75406703D01*
X172002450Y-75419590D01*
X171983976Y-75456537D01*
X171964157Y-75492834D01*
X171964366Y-75495757D01*
X171867315Y-75689858D01*
X171847870Y-75720117D01*
X171847870Y-75750768D01*
X171842440Y-75780943D01*
X171847870Y-75794035D01*
X171847870Y-75994181D01*
X171844009Y-76029945D01*
X171857716Y-76057360D01*
X171866354Y-76086777D01*
X171877065Y-76096058D01*
X171974342Y-76290613D01*
X171979707Y-76315274D01*
X172008918Y-76344485D01*
X172037084Y-76374765D01*
X172039924Y-76375491D01*
X172116600Y-76452167D01*
X172129489Y-76473867D01*
X172166448Y-76492346D01*
X172202734Y-76512160D01*
X172205656Y-76511950D01*
X172399757Y-76609001D01*
X172430016Y-76628447D01*
X172460667Y-76628447D01*
X172490841Y-76633877D01*
X172503933Y-76628447D01*
X173050493Y-76628447D01*
X173074948Y-76634677D01*
X173114136Y-76621614D01*
X173153818Y-76609963D01*
X173155737Y-76607747D01*
X173494337Y-76494882D01*
X173548213Y-76457440D01*
X173581886Y-76376041D01*
X173566207Y-76289359D01*
X173506153Y-76224916D01*
X173420791Y-76203169D01*
X173044957Y-76328447D01*
X172509470Y-76328447D01*
X172324818Y-76236121D01*
X172240195Y-76151498D01*
X172147870Y-75966846D01*
X172147870Y-75799571D01*
X172240195Y-75614919D01*
X172324818Y-75530296D01*
X172526413Y-75429499D01*
X172960711Y-75320924D01*
X172977939Y-75322784D01*
X173002606Y-75310450D01*
X173007556Y-75309213D01*
X173021829Y-75300838D01*
X173238606Y-75192451D01*
X173263269Y-75187086D01*
X173292489Y-75157865D01*
X173322759Y-75129709D01*
X173323485Y-75126869D01*
X173400161Y-75050191D01*
X173421860Y-75037304D01*
X173440336Y-75000352D01*
X173460154Y-74964058D01*
X173459944Y-74961134D01*
X173556995Y-74767035D01*
X173576441Y-74736777D01*
X173576441Y-74706126D01*
X173581871Y-74675952D01*
X173576441Y-74662859D01*
X173576441Y-74462713D01*
X173580302Y-74426950D01*
X173566594Y-74399534D01*
X173557957Y-74370118D01*
X173547245Y-74360836D01*
X173449967Y-74166280D01*
X173444603Y-74141620D01*
X173415391Y-74112408D01*
X173387226Y-74082129D01*
X173384385Y-74081402D01*
X173307712Y-74004729D01*
X173294823Y-73983028D01*
X173257858Y-73964545D01*
X173221577Y-73944734D01*
X173218653Y-73944943D01*
X173024553Y-73847892D01*
X172994295Y-73828447D01*
X172963644Y-73828447D01*
X172933470Y-73823017D01*
X172920378Y-73828447D01*
X172373818Y-73828447D01*
X172349361Y-73822217D01*
X172310169Y-73835280D01*
X172270492Y-73846931D01*
X172268572Y-73849146D01*
X171929974Y-73962013D01*
X171876098Y-73999456D01*
X171842426Y-74080854D01*
X171076441Y-74080854D01*
X171076441Y-73956879D01*
X171057957Y-73893927D01*
X170991384Y-73836242D01*
X170904192Y-73823705D01*
X170824065Y-73860298D01*
X170776441Y-73934403D01*
X170776441Y-76500015D01*
X169885965Y-76500015D01*
X169885965Y-73989799D01*
X169890885Y-73957473D01*
X169877041Y-73926489D01*
X169867481Y-73893927D01*
X169859343Y-73886875D01*
X169854952Y-73877047D01*
X169826556Y-73858466D01*
X169800908Y-73836242D01*
X169790250Y-73834709D01*
X169781241Y-73828814D01*
X169747305Y-73828534D01*
X169713716Y-73823705D01*
X169703922Y-73828177D01*
X169693157Y-73828089D01*
X169664462Y-73846198D01*
X169633589Y-73860298D01*
X169627766Y-73869357D01*
X169618663Y-73875103D01*
X169604313Y-73905851D01*
X169585965Y-73934403D01*
X169585965Y-73945170D01*
X168902632Y-75409455D01*
X168210026Y-73925300D01*
X168200815Y-73893927D01*
X168175168Y-73871704D01*
X168152734Y-73846240D01*
X168142377Y-73843291D01*
X168134242Y-73836242D01*
X168100651Y-73831412D01*
X168068013Y-73822120D01*
X168057709Y-73825237D01*
X168047050Y-73823705D01*
X168016178Y-73837803D01*
X167983699Y-73847631D01*
X167976715Y-73855825D01*
X167966923Y-73860298D01*
X167948577Y-73888843D01*
X167926564Y-73914676D01*
X167925119Y-73925346D01*
X167919299Y-73934403D01*
X167919299Y-73968337D01*
X167914746Y-74001968D01*
X166568586Y-74001968D01*
X166553515Y-73956756D01*
X166554127Y-73939854D01*
X166539855Y-73915777D01*
X166538114Y-73910552D01*
X166528899Y-73897293D01*
X166509211Y-73864077D01*
X166504000Y-73861465D01*
X166500671Y-73856675D01*
X166464979Y-73841910D01*
X166430458Y-73824610D01*
X166424658Y-73825230D01*
X166419273Y-73823003D01*
X166381282Y-73829874D01*
X166342871Y-73833987D01*
X166338328Y-73837644D01*
X166332591Y-73838682D01*
X166304337Y-73865010D01*
X166274257Y-73889229D01*
X166272413Y-73894760D01*
X166268148Y-73898735D01*
X166258615Y-73936152D01*
X165674515Y-75688454D01*
X165665189Y-75699218D01*
X165660835Y-75729494D01*
X165420176Y-76451474D01*
X165417804Y-76517041D01*
X164471429Y-76517041D01*
X164471429Y-72742857D01*
X174907143Y-72742857D01*
X174907143Y-77607143D01*
G37*
G36*
X128808803Y-48122257D02*
G01*
X128510745Y-48122257D01*
X128659774Y-47675169D01*
X128808803Y-48122257D01*
G37*
G36*
X125366918Y-48550828D02*
G01*
X124980899Y-48550828D01*
X124891485Y-48506121D01*
X124854480Y-48469116D01*
X124809775Y-48379703D01*
X124809775Y-48236237D01*
X124854481Y-48146824D01*
X124883659Y-48117646D01*
X125028029Y-48069523D01*
X125033699Y-48070544D01*
X125046791Y-48065114D01*
X125366918Y-48065114D01*
X125366918Y-48550828D01*
G37*
G36*
X125366918Y-47765114D02*
G01*
X125052328Y-47765114D01*
X124962915Y-47720407D01*
X124925909Y-47683402D01*
X124881203Y-47593990D01*
X124881202Y-47521953D01*
X124925910Y-47432538D01*
X124962914Y-47395534D01*
X125052328Y-47350828D01*
X125366918Y-47350828D01*
X125366918Y-47765114D01*
G37*
G36*
X130295489Y-47836542D02*
G01*
X129909470Y-47836542D01*
X129820056Y-47791835D01*
X129783051Y-47754830D01*
X129738346Y-47665417D01*
X129738346Y-47521951D01*
X129783052Y-47432538D01*
X129820056Y-47395534D01*
X129909470Y-47350828D01*
X130295489Y-47350828D01*
X130295489Y-47836542D01*
G37*
G36*
X131664286Y-49564286D02*
G01*
X123457143Y-49564286D01*
X123457143Y-48217610D01*
X124504345Y-48217610D01*
X124509775Y-48230702D01*
X124509774Y-48407037D01*
X124505914Y-48442801D01*
X124519621Y-48470215D01*
X124528259Y-48499634D01*
X124538970Y-48508915D01*
X124588628Y-48608231D01*
X124593993Y-48632893D01*
X124623198Y-48662098D01*
X124651370Y-48692384D01*
X124654210Y-48693110D01*
X124683267Y-48722167D01*
X124696156Y-48743867D01*
X124733105Y-48762341D01*
X124769401Y-48782161D01*
X124772325Y-48781951D01*
X124871183Y-48831380D01*
X124901445Y-48850828D01*
X124932097Y-48850828D01*
X124962271Y-48856258D01*
X124975363Y-48850828D01*
X125506187Y-48850828D01*
X125539167Y-48855570D01*
X125569473Y-48841729D01*
X125601438Y-48832344D01*
X125608912Y-48823718D01*
X125619294Y-48818977D01*
X125637306Y-48790949D01*
X125659123Y-48765771D01*
X125660747Y-48754473D01*
X125666918Y-48744872D01*
X125666918Y-48711558D01*
X125671660Y-48678579D01*
X125666918Y-48668195D01*
X125666918Y-48074752D01*
X126004344Y-48074752D01*
X126009774Y-48087844D01*
X126009774Y-48407038D01*
X126005913Y-48442802D01*
X126019620Y-48470216D01*
X126028258Y-48499634D01*
X126038970Y-48508916D01*
X126088627Y-48608229D01*
X126093993Y-48632893D01*
X126123213Y-48662113D01*
X126151370Y-48692384D01*
X126154210Y-48693110D01*
X126183267Y-48722167D01*
X126196156Y-48743867D01*
X126233105Y-48762341D01*
X126269401Y-48782161D01*
X126272325Y-48781951D01*
X126371183Y-48831380D01*
X126401445Y-48850828D01*
X126432097Y-48850828D01*
X126462271Y-48856258D01*
X126475363Y-48850828D01*
X126865984Y-48850828D01*
X126901747Y-48854689D01*
X126929161Y-48840981D01*
X126958580Y-48832344D01*
X126967861Y-48821632D01*
X127067177Y-48771974D01*
X127091839Y-48766610D01*
X127121050Y-48737398D01*
X127137179Y-48722396D01*
X127509775Y-48722396D01*
X127528259Y-48785348D01*
X127594832Y-48843033D01*
X127682024Y-48855570D01*
X127762151Y-48818977D01*
X127809775Y-48744872D01*
X127809775Y-48739422D01*
X128008279Y-48739422D01*
X128053194Y-48815199D01*
X128131948Y-48854665D01*
X128219534Y-48845288D01*
X128288149Y-48790046D01*
X128410745Y-48422257D01*
X128908803Y-48422257D01*
X129024292Y-48768724D01*
X129061735Y-48822600D01*
X129143133Y-48856272D01*
X129229815Y-48840594D01*
X129294258Y-48780540D01*
X129316004Y-48695178D01*
X129170440Y-48258485D01*
X129171659Y-48250008D01*
X129156683Y-48217217D01*
X128918719Y-47503324D01*
X129432916Y-47503324D01*
X129438346Y-47516416D01*
X129438346Y-47692751D01*
X129434485Y-47728515D01*
X129448192Y-47755929D01*
X129456830Y-47785348D01*
X129467541Y-47794629D01*
X129517199Y-47893945D01*
X129522564Y-47918607D01*
X129551769Y-47947812D01*
X129579941Y-47978098D01*
X129582781Y-47978824D01*
X129611838Y-48007881D01*
X129624727Y-48029581D01*
X129661676Y-48048055D01*
X129697972Y-48067875D01*
X129700896Y-48067665D01*
X129799754Y-48117094D01*
X129830016Y-48136542D01*
X129860668Y-48136542D01*
X129890842Y-48141972D01*
X129903934Y-48136542D01*
X130295489Y-48136542D01*
X130295489Y-48722396D01*
X130313973Y-48785348D01*
X130380546Y-48843033D01*
X130467738Y-48855570D01*
X130547865Y-48818977D01*
X130595489Y-48744872D01*
X130595489Y-47997272D01*
X130600231Y-47964293D01*
X130595489Y-47953909D01*
X130595489Y-47211558D01*
X130600231Y-47178579D01*
X130586390Y-47148272D01*
X130577005Y-47116308D01*
X130568379Y-47108833D01*
X130563638Y-47098452D01*
X130535610Y-47080439D01*
X130510432Y-47058623D01*
X130499134Y-47056998D01*
X130489533Y-47050828D01*
X130456220Y-47050828D01*
X130423240Y-47046086D01*
X130412857Y-47050828D01*
X129882135Y-47050828D01*
X129846371Y-47046967D01*
X129818955Y-47060675D01*
X129789540Y-47069312D01*
X129780258Y-47080023D01*
X129680943Y-47129682D01*
X129656282Y-47135047D01*
X129627067Y-47164261D01*
X129596790Y-47192424D01*
X129596063Y-47195264D01*
X129567007Y-47224319D01*
X129545307Y-47237209D01*
X129526826Y-47274169D01*
X129507014Y-47310453D01*
X129507223Y-47313376D01*
X129457791Y-47412239D01*
X129438346Y-47442498D01*
X129438346Y-47473149D01*
X129432916Y-47503324D01*
X128918719Y-47503324D01*
X128810657Y-47179137D01*
X128811269Y-47162234D01*
X128796996Y-47138154D01*
X128795256Y-47132933D01*
X128786049Y-47119685D01*
X128766354Y-47086457D01*
X128761140Y-47083844D01*
X128757813Y-47079056D01*
X128722132Y-47064296D01*
X128687601Y-47046991D01*
X128681800Y-47047611D01*
X128676415Y-47045384D01*
X128638423Y-47052255D01*
X128600014Y-47056368D01*
X128595471Y-47060024D01*
X128589733Y-47061063D01*
X128561476Y-47087394D01*
X128531399Y-47111610D01*
X128529555Y-47117141D01*
X128525290Y-47121116D01*
X128515757Y-47158533D01*
X128169751Y-48196552D01*
X128160427Y-48207314D01*
X128156074Y-48237583D01*
X128010651Y-48673855D01*
X128008279Y-48739422D01*
X127809775Y-48739422D01*
X127809775Y-47179260D01*
X127791291Y-47116308D01*
X127724718Y-47058623D01*
X127637526Y-47046086D01*
X127557399Y-47082679D01*
X127509775Y-47156784D01*
X127509775Y-48722396D01*
X127137179Y-48722396D01*
X127151330Y-48709233D01*
X127152056Y-48706392D01*
X127209663Y-48648786D01*
X127241107Y-48591202D01*
X127234822Y-48503338D01*
X127182033Y-48432819D01*
X127099499Y-48402036D01*
X127013424Y-48420761D01*
X126928062Y-48506122D01*
X126838650Y-48550828D01*
X126480899Y-48550828D01*
X126391485Y-48506121D01*
X126354481Y-48469117D01*
X126309774Y-48379704D01*
X126309774Y-48093381D01*
X126354481Y-48003968D01*
X126391486Y-47966962D01*
X126480899Y-47922257D01*
X126616123Y-47922257D01*
X126616455Y-47922468D01*
X126660085Y-47922257D01*
X126681342Y-47922257D01*
X126681697Y-47922152D01*
X126704542Y-47922042D01*
X126723079Y-47910002D01*
X126744294Y-47903773D01*
X126759256Y-47886504D01*
X126778416Y-47874061D01*
X126787502Y-47853906D01*
X126801979Y-47837200D01*
X126805230Y-47814586D01*
X126814621Y-47793758D01*
X126811369Y-47771893D01*
X126814516Y-47750008D01*
X126805023Y-47729221D01*
X126801663Y-47706628D01*
X126787108Y-47689994D01*
X126777923Y-47669881D01*
X126758699Y-47657527D01*
X126490339Y-47350828D01*
X127109914Y-47350828D01*
X127172866Y-47332344D01*
X127230551Y-47265771D01*
X127243088Y-47178579D01*
X127206495Y-47098452D01*
X127132390Y-47050828D01*
X126203426Y-47050828D01*
X126203093Y-47050616D01*
X126159359Y-47050828D01*
X126138206Y-47050828D01*
X126137850Y-47050932D01*
X126115006Y-47051043D01*
X126096468Y-47063082D01*
X126075254Y-47069312D01*
X126060291Y-47086580D01*
X126041132Y-47099024D01*
X126032045Y-47119178D01*
X126017569Y-47135885D01*
X126014317Y-47158498D01*
X126004927Y-47179327D01*
X126008178Y-47201192D01*
X126005032Y-47223077D01*
X126014523Y-47243860D01*
X126017884Y-47266457D01*
X126032440Y-47283093D01*
X126041625Y-47303204D01*
X126060846Y-47315556D01*
X126353213Y-47649691D01*
X126351687Y-47651452D01*
X126252371Y-47701110D01*
X126227710Y-47706475D01*
X126198498Y-47735686D01*
X126168219Y-47763852D01*
X126167492Y-47766692D01*
X126138435Y-47795749D01*
X126116736Y-47808638D01*
X126098260Y-47845589D01*
X126078442Y-47881883D01*
X126078651Y-47884807D01*
X126029224Y-47983661D01*
X126009774Y-48013927D01*
X126009773Y-48044580D01*
X126004344Y-48074752D01*
X125666918Y-48074752D01*
X125666918Y-47925844D01*
X125671660Y-47892865D01*
X125666918Y-47882481D01*
X125666918Y-47211558D01*
X125671660Y-47178579D01*
X125657819Y-47148272D01*
X125648434Y-47116308D01*
X125639808Y-47108833D01*
X125635067Y-47098452D01*
X125607039Y-47080439D01*
X125581861Y-47058623D01*
X125570563Y-47056998D01*
X125560962Y-47050828D01*
X125527649Y-47050828D01*
X125494669Y-47046086D01*
X125484286Y-47050828D01*
X125024993Y-47050828D01*
X124989229Y-47046967D01*
X124961813Y-47060675D01*
X124932398Y-47069312D01*
X124923116Y-47080023D01*
X124823801Y-47129682D01*
X124799140Y-47135047D01*
X124769925Y-47164261D01*
X124739648Y-47192424D01*
X124738921Y-47195264D01*
X124709865Y-47224319D01*
X124688165Y-47237209D01*
X124669684Y-47274169D01*
X124649872Y-47310453D01*
X124650081Y-47313376D01*
X124600653Y-47412232D01*
X124581203Y-47442498D01*
X124581203Y-47473151D01*
X124575773Y-47503323D01*
X124581203Y-47516415D01*
X124581203Y-47621324D01*
X124577342Y-47657088D01*
X124591049Y-47684502D01*
X124599687Y-47713920D01*
X124610399Y-47723202D01*
X124660057Y-47822517D01*
X124665423Y-47847180D01*
X124694636Y-47876392D01*
X124696068Y-47877933D01*
X124680861Y-47888502D01*
X124675442Y-47901599D01*
X124638435Y-47938606D01*
X124616736Y-47951495D01*
X124598260Y-47988446D01*
X124578442Y-48024740D01*
X124578651Y-48027664D01*
X124529220Y-48126525D01*
X124509775Y-48156784D01*
X124509775Y-48187435D01*
X124504345Y-48217610D01*
X123457143Y-48217610D01*
X123457143Y-45985714D01*
X131664286Y-45985714D01*
X131664286Y-49564286D01*
G37*
D10*
%TO.P,U4,1,in1*%
%TO.N,Net-(J4-Pin_2)*%
X123600000Y-70200000D03*
D11*
%TO.P,U4,2,in2*%
%TO.N,GND*%
X123600000Y-60400000D03*
%TO.P,U4,3,out1*%
%TO.N,Net-(J1-Pin_1)*%
X139600000Y-70200000D03*
%TO.P,U4,4,out2*%
%TO.N,GND*%
X139600000Y-60400000D03*
%TD*%
D12*
%TO.P,J1,1,Pin_1*%
%TO.N,Net-(J1-Pin_1)*%
X146537500Y-64000000D03*
%TO.P,J1,2,Pin_2*%
%TO.N,Net-(J1-Pin_2)*%
X169037500Y-64000000D03*
%TD*%
D13*
%TO.P,M3,1*%
%TO.N,N/C*%
X169350000Y-80000000D03*
%TD*%
D14*
%TO.P,J3,1,Pin_1*%
%TO.N,+24V*%
X151700000Y-50000000D03*
D15*
%TO.P,J3,2,Pin_2*%
%TO.N,GND*%
X158900000Y-50000000D03*
%TD*%
D16*
%TO.P,J5,1,Pin_1*%
%TO.N,Net-(J4-Pin_2)*%
X119500000Y-54777500D03*
D17*
%TO.P,J5,2,Pin_2*%
%TO.N,Net-(J10-Pin_2)*%
X114500000Y-54777500D03*
%TD*%
D18*
%TO.P,D1,1,RPWM*%
%TO.N,Net-(D1-RPWM)*%
X158060000Y-90500000D03*
D19*
%TO.P,D1,2,LPWM*%
%TO.N,Net-(D1-LPWM)*%
X160600000Y-90500000D03*
%TO.P,D1,3,R_EN*%
%TO.N,Net-(D1-L_EN)*%
X158060000Y-93040000D03*
%TO.P,D1,4,L_EN*%
X160600000Y-93040000D03*
%TO.P,D1,5,R_IS*%
%TO.N,unconnected-(D1-R_IS-Pad5)*%
X158060000Y-95580000D03*
%TO.P,D1,6,L_IS*%
%TO.N,unconnected-(D1-L_IS-Pad6)*%
X160600000Y-95580000D03*
%TO.P,D1,7,VCC*%
%TO.N,+3.3V*%
X158060000Y-98120000D03*
%TO.P,D1,8,GND*%
%TO.N,GND*%
X160600000Y-98120000D03*
%TO.P,D1,9,NC*%
%TO.N,unconnected-(D1-NC-Pad9)*%
X158060000Y-100660000D03*
%TO.P,D1,10,NC*%
%TO.N,unconnected-(D1-NC-Pad10)*%
X160600000Y-100660000D03*
%TD*%
D20*
%TO.P,D3,1,RPWM*%
%TO.N,Net-(D3-RPWM)*%
X130100000Y-101140000D03*
D19*
%TO.P,D3,2,LPWM*%
%TO.N,Net-(D3-LPWM)*%
X127560000Y-101140000D03*
%TO.P,D3,3,R_EN*%
%TO.N,Net-(D3-L_EN)*%
X130100000Y-98600000D03*
%TO.P,D3,4,L_EN*%
X127560000Y-98600000D03*
%TO.P,D3,5,R_IS*%
%TO.N,unconnected-(D3-R_IS-Pad5)*%
X130100000Y-96060000D03*
%TO.P,D3,6,L_IS*%
%TO.N,unconnected-(D3-L_IS-Pad6)*%
X127560000Y-96060000D03*
%TO.P,D3,7,VCC*%
%TO.N,+3.3V*%
X130100000Y-93520000D03*
%TO.P,D3,8,GND*%
%TO.N,GND*%
X127560000Y-93520000D03*
%TO.P,D3,9,NC*%
%TO.N,unconnected-(D3-NC-Pad9)*%
X130100000Y-90980000D03*
%TO.P,D3,10,NC*%
%TO.N,unconnected-(D3-NC-Pad10)*%
X127560000Y-90980000D03*
%TD*%
D20*
%TO.P,D4,1,RPWM*%
%TO.N,Net-(D4-RPWM)*%
X130400000Y-131360000D03*
D19*
%TO.P,D4,2,LPWM*%
%TO.N,Net-(D4-LPWM)*%
X127860000Y-131360000D03*
%TO.P,D4,3,R_EN*%
%TO.N,Net-(D4-L_EN)*%
X130400000Y-128820000D03*
%TO.P,D4,4,L_EN*%
X127860000Y-128820000D03*
%TO.P,D4,5,R_IS*%
%TO.N,unconnected-(D4-R_IS-Pad5)*%
X130400000Y-126280000D03*
%TO.P,D4,6,L_IS*%
%TO.N,unconnected-(D4-L_IS-Pad6)*%
X127860000Y-126280000D03*
%TO.P,D4,7,VCC*%
%TO.N,+3.3V*%
X130400000Y-123740000D03*
%TO.P,D4,8,GND*%
%TO.N,GND*%
X127860000Y-123740000D03*
%TO.P,D4,9,NC*%
%TO.N,unconnected-(D4-NC-Pad9)*%
X130400000Y-121200000D03*
%TO.P,D4,10,NC*%
%TO.N,unconnected-(D4-NC-Pad10)*%
X127860000Y-121200000D03*
%TD*%
D21*
%TO.P,J10,1,Pin_1*%
%TO.N,GND*%
X167522500Y-97600000D03*
D22*
%TO.P,J10,2,Pin_2*%
%TO.N,Net-(J10-Pin_2)*%
X167522500Y-92600000D03*
%TD*%
D18*
%TO.P,D2,1,RPWM*%
%TO.N,Net-(D2-RPWM)*%
X158160000Y-121300000D03*
D19*
%TO.P,D2,2,LPWM*%
%TO.N,Net-(D2-LPWM)*%
X160700000Y-121300000D03*
%TO.P,D2,3,R_EN*%
%TO.N,Net-(D2-L_EN)*%
X158160000Y-123840000D03*
%TO.P,D2,4,L_EN*%
X160700000Y-123840000D03*
%TO.P,D2,5,R_IS*%
%TO.N,unconnected-(D2-R_IS-Pad5)*%
X158160000Y-126380000D03*
%TO.P,D2,6,L_IS*%
%TO.N,unconnected-(D2-L_IS-Pad6)*%
X160700000Y-126380000D03*
%TO.P,D2,7,VCC*%
%TO.N,+3.3V*%
X158160000Y-128920000D03*
%TO.P,D2,8,GND*%
%TO.N,GND*%
X160700000Y-128920000D03*
%TO.P,D2,9,NC*%
%TO.N,unconnected-(D2-NC-Pad9)*%
X158160000Y-131460000D03*
%TO.P,D2,10,NC*%
%TO.N,unconnected-(D2-NC-Pad10)*%
X160700000Y-131460000D03*
%TD*%
D23*
%TO.P,R2,1*%
%TO.N,Net-(U6-XTAL1{slash}PB3)*%
X137000000Y-81810000D03*
D24*
%TO.P,R2,2*%
%TO.N,GND*%
X137000000Y-74190000D03*
%TD*%
D13*
%TO.P,M1,1*%
%TO.N,N/C*%
X169350000Y-138000000D03*
%TD*%
D25*
%TO.P,J11,1,Pin_1*%
%TO.N,GND*%
X120477500Y-123300000D03*
D22*
%TO.P,J11,2,Pin_2*%
%TO.N,Net-(J10-Pin_2)*%
X120477500Y-128300000D03*
%TD*%
D26*
%TO.P,U6,1,~{RESET}/PB5*%
%TO.N,unconnected-(U6-~{RESET}{slash}PB5-Pad1)*%
X160800000Y-72000000D03*
D24*
%TO.P,U6,2,XTAL1/PB3*%
%TO.N,Net-(U6-XTAL1{slash}PB3)*%
X158260000Y-72000000D03*
%TO.P,U6,3,XTAL2/PB4*%
%TO.N,unconnected-(U6-XTAL2{slash}PB4-Pad3)*%
X155720000Y-72000000D03*
%TO.P,U6,4,GND*%
%TO.N,GND*%
X153180000Y-72000000D03*
%TO.P,U6,5,AREF/PB0*%
%TO.N,Net-(J7-Pin_3)*%
X153180000Y-79620000D03*
%TO.P,U6,6,PB1*%
%TO.N,unconnected-(U6-PB1-Pad6)*%
X155720000Y-79620000D03*
%TO.P,U6,7,PB2*%
%TO.N,Net-(J7-Pin_5)*%
X158260000Y-79620000D03*
%TO.P,U6,8,VCC*%
%TO.N,+3.3V*%
X160800000Y-79620000D03*
%TD*%
D25*
%TO.P,J12,1,Pin_1*%
%TO.N,GND*%
X120877500Y-93400000D03*
D22*
%TO.P,J12,2,Pin_2*%
%TO.N,Net-(J10-Pin_2)*%
X120877500Y-98400000D03*
%TD*%
D13*
%TO.P,M2,1*%
%TO.N,N/C*%
X120350000Y-138000000D03*
%TD*%
D27*
%TO.P,J6,1,Pin_1*%
%TO.N,Net-(J6-Pin_1)*%
X151600000Y-102820000D03*
D28*
%TO.P,J6,2,Pin_2*%
%TO.N,Net-(J6-Pin_2)*%
X151600000Y-105360000D03*
%TO.P,J6,3,Pin_3*%
%TO.N,Net-(J6-Pin_3)*%
X151600000Y-107900000D03*
%TO.P,J6,4,Pin_4*%
%TO.N,Net-(J6-Pin_4)*%
X151600000Y-110440000D03*
%TO.P,J6,5,Pin_5*%
%TO.N,Net-(J6-Pin_5)*%
X151600000Y-112980000D03*
%TO.P,J6,6,Pin_6*%
%TO.N,Net-(J6-Pin_6)*%
X151600000Y-115520000D03*
%TO.P,J6,7,Pin_7*%
%TO.N,Net-(J6-Pin_7)*%
X151600000Y-118060000D03*
%TO.P,J6,8,Pin_8*%
%TO.N,Net-(J6-Pin_8)*%
X151600000Y-120600000D03*
%TD*%
D23*
%TO.P,R1,1*%
%TO.N,Net-(J4-Pin_2)*%
X130000000Y-74190000D03*
D24*
%TO.P,R1,2*%
%TO.N,Net-(U6-XTAL1{slash}PB3)*%
X130000000Y-81810000D03*
%TD*%
D13*
%TO.P,M4,1*%
%TO.N,N/C*%
X120350000Y-80000000D03*
%TD*%
D18*
%TO.P,J7,1,Pin_1*%
%TO.N,+3.3V*%
X142850000Y-84960000D03*
D19*
%TO.P,J7,2,Pin_2*%
%TO.N,unconnected-(J7-Pin_2-Pad2)*%
X145390000Y-84960000D03*
%TO.P,J7,3,Pin_3*%
%TO.N,Net-(J7-Pin_3)*%
X142850000Y-87500000D03*
%TO.P,J7,4,Pin_4*%
%TO.N,unconnected-(J7-Pin_4-Pad4)*%
X145390000Y-87500000D03*
%TO.P,J7,5,Pin_5*%
%TO.N,Net-(J7-Pin_5)*%
X142850000Y-90040000D03*
%TO.P,J7,6,Pin_6*%
%TO.N,unconnected-(J7-Pin_6-Pad6)*%
X145390000Y-90040000D03*
%TO.P,J7,7,Pin_7*%
%TO.N,unconnected-(J7-Pin_7-Pad7)*%
X142850000Y-92580000D03*
%TO.P,J7,8,Pin_8*%
%TO.N,unconnected-(J7-Pin_8-Pad8)*%
X145390000Y-92580000D03*
%TO.P,J7,9,Pin_9*%
%TO.N,unconnected-(J7-Pin_9-Pad9)*%
X142850000Y-95120000D03*
%TO.P,J7,10,Pin_10*%
%TO.N,unconnected-(J7-Pin_10-Pad10)*%
X145390000Y-95120000D03*
%TO.P,J7,11,Pin_11*%
%TO.N,Net-(D3-L_EN)*%
X142850000Y-97660000D03*
%TO.P,J7,12,Pin_12*%
%TO.N,Net-(D1-L_EN)*%
X145390000Y-97660000D03*
%TO.P,J7,13,Pin_13*%
%TO.N,Net-(D3-RPWM)*%
X142850000Y-100200000D03*
%TO.P,J7,14,Pin_14*%
%TO.N,unconnected-(J7-Pin_14-Pad14)*%
X145390000Y-100200000D03*
%TO.P,J7,15,Pin_15*%
%TO.N,Net-(D3-LPWM)*%
X142850000Y-102740000D03*
%TO.P,J7,16,Pin_16*%
%TO.N,Net-(D1-RPWM)*%
X145390000Y-102740000D03*
%TO.P,J7,17,Pin_17*%
%TO.N,Net-(J2-Pin_8)*%
X142850000Y-105280000D03*
%TO.P,J7,18,Pin_18*%
%TO.N,Net-(D1-LPWM)*%
X145390000Y-105280000D03*
%TO.P,J7,19,Pin_19*%
%TO.N,Net-(J2-Pin_7)*%
X142850000Y-107820000D03*
%TO.P,J7,20,Pin_20*%
%TO.N,Net-(J6-Pin_1)*%
X145390000Y-107820000D03*
%TO.P,J7,21,Pin_21*%
%TO.N,Net-(J2-Pin_6)*%
X142850000Y-110360000D03*
%TO.P,J7,22,Pin_22*%
%TO.N,Net-(J6-Pin_2)*%
X145390000Y-110360000D03*
%TO.P,J7,23,Pin_23*%
%TO.N,Net-(J2-Pin_5)*%
X142850000Y-112900000D03*
%TO.P,J7,24,Pin_24*%
%TO.N,Net-(J6-Pin_3)*%
X145390000Y-112900000D03*
%TO.P,J7,25,Pin_25*%
%TO.N,Net-(J2-Pin_4)*%
X142850000Y-115440000D03*
%TO.P,J7,26,Pin_26*%
%TO.N,Net-(J6-Pin_4)*%
X145390000Y-115440000D03*
%TO.P,J7,27,Pin_27*%
%TO.N,Net-(J2-Pin_3)*%
X142850000Y-117980000D03*
%TO.P,J7,28,Pin_28*%
%TO.N,Net-(J6-Pin_5)*%
X145390000Y-117980000D03*
%TO.P,J7,29,Pin_29*%
%TO.N,Net-(J2-Pin_2)*%
X142850000Y-120520000D03*
%TO.P,J7,30,Pin_30*%
%TO.N,Net-(J6-Pin_6)*%
X145390000Y-120520000D03*
%TO.P,J7,31,Pin_31*%
%TO.N,Net-(J2-Pin_1)*%
X142850000Y-123060000D03*
%TO.P,J7,32,Pin_32*%
%TO.N,Net-(J6-Pin_7)*%
X145390000Y-123060000D03*
%TO.P,J7,33,Pin_33*%
%TO.N,Net-(D4-L_EN)*%
X142850000Y-125600000D03*
%TO.P,J7,34,Pin_34*%
%TO.N,Net-(J6-Pin_8)*%
X145390000Y-125600000D03*
%TO.P,J7,35,Pin_35*%
%TO.N,Net-(D4-RPWM)*%
X142850000Y-128140000D03*
%TO.P,J7,36,Pin_36*%
%TO.N,Net-(D2-L_EN)*%
X145390000Y-128140000D03*
%TO.P,J7,37,Pin_37*%
%TO.N,Net-(D4-LPWM)*%
X142850000Y-130680000D03*
%TO.P,J7,38,Pin_38*%
%TO.N,Net-(D2-RPWM)*%
X145390000Y-130680000D03*
%TO.P,J7,39,Pin_39*%
%TO.N,GND*%
X142850000Y-133220000D03*
%TO.P,J7,40,Pin_40*%
%TO.N,Net-(D2-LPWM)*%
X145390000Y-133220000D03*
%TD*%
D27*
%TO.P,J2,1,Pin_1*%
%TO.N,Net-(J2-Pin_1)*%
X136500000Y-120280000D03*
D28*
%TO.P,J2,2,Pin_2*%
%TO.N,Net-(J2-Pin_2)*%
X136500000Y-117740000D03*
%TO.P,J2,3,Pin_3*%
%TO.N,Net-(J2-Pin_3)*%
X136500000Y-115200000D03*
%TO.P,J2,4,Pin_4*%
%TO.N,Net-(J2-Pin_4)*%
X136500000Y-112660000D03*
%TO.P,J2,5,Pin_5*%
%TO.N,Net-(J2-Pin_5)*%
X136500000Y-110120000D03*
%TO.P,J2,6,Pin_6*%
%TO.N,Net-(J2-Pin_6)*%
X136500000Y-107580000D03*
%TO.P,J2,7,Pin_7*%
%TO.N,Net-(J2-Pin_7)*%
X136500000Y-105040000D03*
%TO.P,J2,8,Pin_8*%
%TO.N,Net-(J2-Pin_8)*%
X136500000Y-102500000D03*
%TD*%
D29*
%TO.P,J9,1,Pin_1*%
%TO.N,Net-(J1-Pin_2)*%
X173500000Y-51300000D03*
D30*
%TO.P,J9,2,Pin_2*%
%TO.N,GND*%
X168500000Y-51300000D03*
%TD*%
D16*
%TO.P,J4,1,Pin_1*%
%TO.N,+24V*%
X141500000Y-54777500D03*
D17*
%TO.P,J4,2,Pin_2*%
%TO.N,Net-(J4-Pin_2)*%
X136500000Y-54777500D03*
%TD*%
D21*
%TO.P,J8,1,Pin_1*%
%TO.N,GND*%
X167400000Y-129100000D03*
D22*
%TO.P,J8,2,Pin_2*%
%TO.N,Net-(J10-Pin_2)*%
X167400000Y-124100000D03*
%TD*%
D32*
%TO.N,Net-(D4-LPWM)*%
X142259500Y-130089500D02*
X142850000Y-130680000D01*
X129130500Y-130089500D02*
X142259500Y-130089500D01*
X127860000Y-131360000D02*
X129130500Y-130089500D01*
%TO.N,Net-(D4-RPWM)*%
X130990000Y-131950000D02*
X130400000Y-131360000D01*
X143416200Y-131950000D02*
X130990000Y-131950000D01*
X144120000Y-131246200D02*
X143416200Y-131950000D01*
X144120000Y-129410000D02*
X144120000Y-131246200D01*
X142850000Y-128140000D02*
X144120000Y-129410000D01*
%TO.N,Net-(D3-LPWM)*%
X128822600Y-102402600D02*
X127560000Y-101140000D01*
X131051500Y-102402600D02*
X128822600Y-102402600D01*
X132227000Y-101227100D02*
X131051500Y-102402600D01*
X141337100Y-101227100D02*
X132227000Y-101227100D01*
X142850000Y-102740000D02*
X141337100Y-101227100D01*
%TO.N,Net-(D3-RPWM)*%
X131040000Y-100200000D02*
X130100000Y-101140000D01*
X142850000Y-100200000D02*
X131040000Y-100200000D01*
%TO.N,Net-(D2-LPWM)*%
X159429400Y-122570600D02*
X160700000Y-121300000D01*
X156039400Y-122570600D02*
X159429400Y-122570600D01*
X145390000Y-133220000D02*
X156039400Y-122570600D01*
%TO.N,Net-(D2-RPWM)*%
X154770000Y-121300000D02*
X158160000Y-121300000D01*
X145390000Y-130680000D02*
X154770000Y-121300000D01*
%TO.N,Net-(D1-LPWM)*%
X159329400Y-91770600D02*
X160600000Y-90500000D01*
X157535900Y-91770600D02*
X159329400Y-91770600D01*
X146875000Y-102431500D02*
X157535900Y-91770600D01*
X146875000Y-103795000D02*
X146875000Y-102431500D01*
X145390000Y-105280000D02*
X146875000Y-103795000D01*
%TO.N,Net-(D1-RPWM)*%
X157630000Y-90500000D02*
X145390000Y-102740000D01*
X158060000Y-90500000D02*
X157630000Y-90500000D01*
%TO.N,Net-(J6-Pin_8)*%
X150348100Y-120641900D02*
X150348100Y-120600000D01*
X145390000Y-125600000D02*
X150348100Y-120641900D01*
X151600000Y-120600000D02*
X150348100Y-120600000D01*
%TO.N,Net-(J6-Pin_7)*%
X150348100Y-118101900D02*
X150348100Y-118060000D01*
X145390000Y-123060000D02*
X150348100Y-118101900D01*
X151600000Y-118060000D02*
X150348100Y-118060000D01*
%TO.N,Net-(J2-Pin_8)*%
X140070000Y-102500000D02*
X136500000Y-102500000D01*
X142850000Y-105280000D02*
X140070000Y-102500000D01*
%TO.N,Net-(J2-Pin_7)*%
X140070000Y-105040000D02*
X136500000Y-105040000D01*
X142850000Y-107820000D02*
X140070000Y-105040000D01*
%TO.N,Net-(J2-Pin_6)*%
X140070000Y-107580000D02*
X136500000Y-107580000D01*
X142850000Y-110360000D02*
X140070000Y-107580000D01*
%TO.N,Net-(J2-Pin_5)*%
X140070000Y-110120000D02*
X136500000Y-110120000D01*
X142850000Y-112900000D02*
X140070000Y-110120000D01*
%TO.N,+3.3V*%
X129148100Y-122488100D02*
X130400000Y-123740000D01*
X129148100Y-111291200D02*
X129148100Y-122488100D01*
X126305200Y-108448300D02*
X129148100Y-111291200D01*
X126305200Y-98001200D02*
X126305200Y-108448300D01*
X126976400Y-97330000D02*
X126305200Y-98001200D01*
X128072200Y-97330000D02*
X126976400Y-97330000D01*
X128830000Y-96572200D02*
X128072200Y-97330000D01*
X128830000Y-94790000D02*
X128830000Y-96572200D01*
X130100000Y-93520000D02*
X128830000Y-94790000D01*
X160800000Y-80220900D02*
X160800000Y-80821900D01*
X160800000Y-80220900D02*
X160800000Y-79620000D01*
X160800000Y-80821900D02*
X160800000Y-87207800D01*
X141577000Y-86233000D02*
X141577000Y-91310000D01*
X142850000Y-84960000D02*
X141577000Y-86233000D01*
X139367000Y-93520000D02*
X141577000Y-91310000D01*
X130100000Y-93520000D02*
X139367000Y-93520000D01*
X152369900Y-87207800D02*
X160800000Y-87207800D01*
X148267700Y-91310000D02*
X152369900Y-87207800D01*
X141577000Y-91310000D02*
X148267700Y-91310000D01*
X159330000Y-96850000D02*
X158060000Y-98120000D01*
X161136900Y-96850000D02*
X159330000Y-96850000D01*
X162495000Y-95491900D02*
X161136900Y-96850000D01*
X162495000Y-88902800D02*
X162495000Y-95491900D01*
X160800000Y-87207800D02*
X162495000Y-88902800D01*
X159330000Y-99390000D02*
X158060000Y-98120000D01*
X159330000Y-114364500D02*
X159330000Y-99390000D01*
X162652700Y-117687200D02*
X159330000Y-114364500D01*
X162652700Y-123689800D02*
X162652700Y-117687200D01*
X161232500Y-125110000D02*
X162652700Y-123689800D01*
X160133800Y-125110000D02*
X161232500Y-125110000D01*
X159430000Y-125813800D02*
X160133800Y-125110000D01*
X159430000Y-127650000D02*
X159430000Y-125813800D01*
X158160000Y-128920000D02*
X159430000Y-127650000D01*
%TO.N,Net-(D4-L_EN)*%
X133620000Y-125600000D02*
X130400000Y-128820000D01*
X142850000Y-125600000D02*
X133620000Y-125600000D01*
X127860000Y-128820000D02*
X130400000Y-128820000D01*
%TO.N,Net-(D3-L_EN)*%
X131040000Y-97660000D02*
X130100000Y-98600000D01*
X142850000Y-97660000D02*
X131040000Y-97660000D01*
X127560000Y-98600000D02*
X130100000Y-98600000D01*
%TO.N,Net-(D2-L_EN)*%
X158160000Y-123840000D02*
X160700000Y-123840000D01*
X162000600Y-122539400D02*
X160700000Y-123840000D01*
X162000600Y-120771700D02*
X162000600Y-122539400D01*
X161250800Y-120021900D02*
X162000600Y-120771700D01*
X153992100Y-120021900D02*
X161250800Y-120021900D01*
X145874000Y-128140000D02*
X153992100Y-120021900D01*
X145390000Y-128140000D02*
X145874000Y-128140000D01*
%TO.N,Net-(D1-L_EN)*%
X161889600Y-91750400D02*
X160600000Y-93040000D01*
X161889600Y-89954500D02*
X161889600Y-91750400D01*
X161126200Y-89191100D02*
X161889600Y-89954500D01*
X153858900Y-89191100D02*
X161126200Y-89191100D01*
X145390000Y-97660000D02*
X153858900Y-89191100D01*
X160600000Y-93040000D02*
X158060000Y-93040000D01*
%TO.N,Net-(J7-Pin_5)*%
X157058100Y-79993600D02*
X157058100Y-79620000D01*
X148281700Y-88770000D02*
X157058100Y-79993600D01*
X144120000Y-88770000D02*
X148281700Y-88770000D01*
X142850000Y-90040000D02*
X144120000Y-88770000D01*
X158260000Y-79620000D02*
X157058100Y-79620000D01*
%TO.N,Net-(J7-Pin_3)*%
X151978100Y-80206100D02*
X151978100Y-79620000D01*
X145954200Y-86230000D02*
X151978100Y-80206100D01*
X144120000Y-86230000D02*
X145954200Y-86230000D01*
X142850000Y-87500000D02*
X144120000Y-86230000D01*
X153180000Y-79620000D02*
X151978100Y-79620000D01*
%TO.N,Net-(J6-Pin_6)*%
X150348100Y-115561900D02*
X150348100Y-115520000D01*
X145390000Y-120520000D02*
X150348100Y-115561900D01*
X151600000Y-115520000D02*
X150348100Y-115520000D01*
%TO.N,Net-(J6-Pin_5)*%
X150348100Y-113021900D02*
X150348100Y-112980000D01*
X145390000Y-117980000D02*
X150348100Y-113021900D01*
X151600000Y-112980000D02*
X150348100Y-112980000D01*
%TO.N,Net-(J6-Pin_4)*%
X150348100Y-110481900D02*
X150348100Y-110440000D01*
X145390000Y-115440000D02*
X150348100Y-110481900D01*
X151600000Y-110440000D02*
X150348100Y-110440000D01*
%TO.N,Net-(J6-Pin_3)*%
X150348100Y-107941900D02*
X150348100Y-107900000D01*
X145390000Y-112900000D02*
X150348100Y-107941900D01*
X151600000Y-107900000D02*
X150348100Y-107900000D01*
%TO.N,Net-(J6-Pin_2)*%
X150348100Y-105401900D02*
X150348100Y-105360000D01*
X145390000Y-110360000D02*
X150348100Y-105401900D01*
X151600000Y-105360000D02*
X150348100Y-105360000D01*
%TO.N,Net-(J6-Pin_1)*%
X150348100Y-102861900D02*
X150348100Y-102820000D01*
X145390000Y-107820000D02*
X150348100Y-102861900D01*
X151600000Y-102820000D02*
X150348100Y-102820000D01*
%TO.N,Net-(J2-Pin_4)*%
X140070000Y-112660000D02*
X136500000Y-112660000D01*
X142850000Y-115440000D02*
X140070000Y-112660000D01*
%TO.N,Net-(J2-Pin_3)*%
X140070000Y-115200000D02*
X136500000Y-115200000D01*
X142850000Y-117980000D02*
X140070000Y-115200000D01*
%TO.N,Net-(J2-Pin_2)*%
X140070000Y-117740000D02*
X136500000Y-117740000D01*
X142850000Y-120520000D02*
X140070000Y-117740000D01*
%TO.N,Net-(J2-Pin_1)*%
X140531900Y-123060000D02*
X137751900Y-120280000D01*
X142850000Y-123060000D02*
X140531900Y-123060000D01*
X136500000Y-120280000D02*
X137751900Y-120280000D01*
D33*
%TO.N,+24V*%
X144300200Y-54777500D02*
X141500000Y-54777500D01*
D34*
X146922500Y-54777500D02*
X151700000Y-50000000D01*
X144300200Y-54777500D02*
X146922500Y-54777500D01*
D32*
%TO.N,Net-(U6-XTAL1{slash}PB3)*%
X147623700Y-81810000D02*
X137000000Y-81810000D01*
X157058100Y-72375600D02*
X147623700Y-81810000D01*
X157058100Y-72000000D02*
X157058100Y-72375600D01*
X158260000Y-72000000D02*
X157058100Y-72000000D01*
X130000000Y-81810000D02*
X137000000Y-81810000D01*
D35*
%TO.N,Net-(J1-Pin_2)*%
X169037500Y-57949400D02*
X169037500Y-64000000D01*
X173500000Y-53486900D02*
X169037500Y-57949400D01*
X173500000Y-51300000D02*
X173500000Y-53486900D01*
D34*
%TO.N,Net-(J4-Pin_2)*%
X136500000Y-54777500D02*
X131798100Y-54777500D01*
X129150600Y-57425000D02*
X131798100Y-54777500D01*
X126503100Y-54777500D02*
X119500000Y-54777500D01*
X129150600Y-57425000D02*
X126503100Y-54777500D01*
X123600000Y-70200000D02*
X128301900Y-70200000D01*
X129150600Y-70200000D02*
X128301900Y-70200000D01*
X130000000Y-71049400D02*
X129150600Y-70200000D01*
X130000000Y-74190000D02*
X130000000Y-71049400D01*
X129150600Y-70200000D02*
X129150600Y-57425000D01*
D35*
%TO.N,Net-(J1-Pin_1)*%
X145800000Y-64000000D02*
X139600000Y-70200000D01*
X146537500Y-64000000D02*
X145800000Y-64000000D01*
D32*
%TO.N,GND*%
X166709300Y-129790700D02*
X167400000Y-129100000D01*
X122629800Y-95152300D02*
X120877500Y-93400000D01*
X122011600Y-124834100D02*
X120477500Y-123300000D01*
X165730200Y-95807700D02*
X167522500Y-97600000D01*
%TD*%
%TA.AperFunction,Conductor*%
%TO.N,GND*%
G36*
X177942539Y-44020185D02*
G01*
X177988294Y-44072989D01*
X177999500Y-44124500D01*
X177999500Y-81853212D01*
X177979815Y-81920251D01*
X177927011Y-81966006D01*
X177857853Y-81975950D01*
X177809339Y-81958087D01*
X177788788Y-81945122D01*
X177582034Y-81863019D01*
X177582024Y-81863015D01*
X177514998Y-81843335D01*
X177514995Y-81843334D01*
X177514991Y-81843333D01*
X177514977Y-81843329D01*
X177427426Y-81822349D01*
X177396867Y-81815026D01*
X177396870Y-81815026D01*
X177286112Y-81804763D01*
X177175357Y-81794500D01*
X177175354Y-81794500D01*
X172225206Y-81794500D01*
X172158167Y-81774815D01*
X172112412Y-81722011D01*
X172102468Y-81652853D01*
X172116678Y-81610519D01*
X172143390Y-81562187D01*
X172238094Y-81390833D01*
X172375659Y-81058724D01*
X172475173Y-80713300D01*
X172535387Y-80358907D01*
X172555543Y-80000000D01*
X172535387Y-79641093D01*
X172475173Y-79286700D01*
X172375659Y-78941276D01*
X172238094Y-78609167D01*
X172064211Y-78294548D01*
X172026339Y-78241172D01*
X171893106Y-78053399D01*
X171870366Y-77987333D01*
X171886953Y-77919461D01*
X171937602Y-77871331D01*
X171994235Y-77857643D01*
X175157643Y-77857643D01*
X175157643Y-72492357D01*
X164220929Y-72492357D01*
X164220929Y-77857643D01*
X166705765Y-77857643D01*
X166772804Y-77877328D01*
X166818559Y-77930132D01*
X166828503Y-77999290D01*
X166806894Y-78053399D01*
X166635790Y-78294545D01*
X166461905Y-78609168D01*
X166324339Y-78941281D01*
X166224828Y-79286694D01*
X166224826Y-79286703D01*
X166164614Y-79641085D01*
X166164612Y-79641097D01*
X166144457Y-80000000D01*
X166164612Y-80358902D01*
X166164614Y-80358914D01*
X166224826Y-80713296D01*
X166224828Y-80713305D01*
X166314126Y-81023268D01*
X166324341Y-81058724D01*
X166349930Y-81120500D01*
X166461905Y-81390831D01*
X166635790Y-81705454D01*
X166648320Y-81723113D01*
X166671060Y-81789179D01*
X166654473Y-81857051D01*
X166603824Y-81905181D01*
X166599649Y-81907226D01*
X166463902Y-81970604D01*
X166463898Y-81970606D01*
X166283061Y-82100145D01*
X166283050Y-82100153D01*
X166230214Y-82145936D01*
X166215072Y-82159281D01*
X166215060Y-82159292D01*
X166063818Y-82322419D01*
X166063816Y-82322422D01*
X165945121Y-82510569D01*
X165863015Y-82717332D01*
X165843335Y-82784358D01*
X165843329Y-82784379D01*
X165815026Y-82902488D01*
X165794500Y-83124003D01*
X165794500Y-91103209D01*
X165774815Y-91170248D01*
X165744687Y-91201664D01*
X165744959Y-91201994D01*
X165742152Y-91204308D01*
X165741847Y-91204627D01*
X165741297Y-91205013D01*
X165539845Y-91371150D01*
X165366131Y-91566071D01*
X165366118Y-91566088D01*
X165224195Y-91785242D01*
X165224194Y-91785246D01*
X165117381Y-92023511D01*
X165048193Y-92275285D01*
X165018248Y-92534675D01*
X165028248Y-92795593D01*
X165077962Y-93051928D01*
X165077962Y-93051930D01*
X165166218Y-93297663D01*
X165166221Y-93297668D01*
X165273080Y-93494179D01*
X165290961Y-93527060D01*
X165339572Y-93590832D01*
X165449250Y-93734716D01*
X165637386Y-93915778D01*
X165741840Y-93989248D01*
X165785348Y-94043916D01*
X165794500Y-94090670D01*
X165794500Y-95077819D01*
X165797957Y-95142302D01*
X165798336Y-95145823D01*
X165804240Y-95200750D01*
X165805789Y-95213743D01*
X165807538Y-95228404D01*
X165850167Y-95416734D01*
X165856650Y-95445377D01*
X165944791Y-95649621D01*
X165944792Y-95649625D01*
X165944793Y-95649626D01*
X165978278Y-95710949D01*
X165999902Y-95746202D01*
X166041785Y-95814486D01*
X166132030Y-95923163D01*
X166183902Y-95985630D01*
X166436701Y-96238429D01*
X166436720Y-96238446D01*
X166436721Y-96238447D01*
X166484753Y-96281592D01*
X166511695Y-96303302D01*
X166530525Y-96318476D01*
X166552390Y-96335683D01*
X166740537Y-96454378D01*
X166921766Y-96526345D01*
X166976806Y-96569381D01*
X166999843Y-96635344D01*
X167000000Y-96641590D01*
X167000000Y-98496615D01*
X166980315Y-98563654D01*
X166927511Y-98609409D01*
X166891068Y-98619696D01*
X166867728Y-98622553D01*
X166816220Y-98633759D01*
X166665473Y-98676994D01*
X166463897Y-98771105D01*
X166283061Y-98900644D01*
X166283050Y-98900652D01*
X166230214Y-98946435D01*
X166215072Y-98959780D01*
X166215060Y-98959791D01*
X166063818Y-99122918D01*
X166063816Y-99122921D01*
X165945121Y-99311068D01*
X165863015Y-99517831D01*
X165843335Y-99584857D01*
X165843329Y-99584878D01*
X165815026Y-99702987D01*
X165794500Y-99924502D01*
X165794500Y-122530018D01*
X165774815Y-122597057D01*
X165733867Y-122636604D01*
X165618795Y-122705015D01*
X165417345Y-122871150D01*
X165243631Y-123066071D01*
X165243618Y-123066088D01*
X165101695Y-123285242D01*
X165101694Y-123285246D01*
X164994881Y-123523511D01*
X164925693Y-123775285D01*
X164895748Y-124034675D01*
X164905748Y-124295593D01*
X164955462Y-124551928D01*
X164955462Y-124551930D01*
X165043718Y-124797663D01*
X165096225Y-124894222D01*
X165165568Y-125021741D01*
X165168461Y-125027060D01*
X165326746Y-125234711D01*
X165326750Y-125234716D01*
X165514886Y-125415778D01*
X165514891Y-125415781D01*
X165514895Y-125415785D01*
X165728454Y-125565998D01*
X165732539Y-125568427D01*
X165731538Y-125570110D01*
X165776844Y-125611897D01*
X165794500Y-125675670D01*
X165794500Y-126775473D01*
X165795021Y-126810953D01*
X165822051Y-127031757D01*
X165833256Y-127083263D01*
X165876494Y-127234024D01*
X165970606Y-127435602D01*
X166100145Y-127616438D01*
X166100153Y-127616449D01*
X166145936Y-127669285D01*
X166159281Y-127684427D01*
X166159292Y-127684439D01*
X166322419Y-127835681D01*
X166322422Y-127835683D01*
X166510569Y-127954378D01*
X166717323Y-128036481D01*
X166717328Y-128036482D01*
X166717332Y-128036484D01*
X166737579Y-128042428D01*
X166784362Y-128056166D01*
X166902490Y-128084474D01*
X166902493Y-128084474D01*
X166904896Y-128085050D01*
X166965503Y-128119815D01*
X166997693Y-128181827D01*
X167000000Y-128205636D01*
X167000000Y-129996615D01*
X166980315Y-130063654D01*
X166927511Y-130109409D01*
X166891068Y-130119696D01*
X166867728Y-130122553D01*
X166816220Y-130133759D01*
X166665473Y-130176994D01*
X166463897Y-130271105D01*
X166283061Y-130400644D01*
X166283050Y-130400652D01*
X166230214Y-130446435D01*
X166215072Y-130459780D01*
X166215060Y-130459791D01*
X166063818Y-130622918D01*
X166063816Y-130622921D01*
X165945121Y-130811068D01*
X165863015Y-131017831D01*
X165843335Y-131084857D01*
X165843331Y-131084870D01*
X165825766Y-131158170D01*
X165791000Y-131218776D01*
X165769340Y-131235383D01*
X158095494Y-135875382D01*
X158030923Y-135893270D01*
X128644711Y-135795966D01*
X128577737Y-135776060D01*
X128570722Y-135771167D01*
X122255099Y-131034449D01*
X122213278Y-130978478D01*
X122205499Y-130935249D01*
X122205499Y-129796790D01*
X122225184Y-129729751D01*
X122255315Y-129698338D01*
X122255041Y-129698006D01*
X122257879Y-129695664D01*
X122258178Y-129695354D01*
X122258697Y-129694988D01*
X122258708Y-129694982D01*
X122460152Y-129528852D01*
X122633875Y-129333920D01*
X122633881Y-129333911D01*
X122775804Y-129114757D01*
X122775804Y-129114755D01*
X122775806Y-129114753D01*
X122882618Y-128876489D01*
X122951807Y-128624713D01*
X122981752Y-128365325D01*
X122971751Y-128104407D01*
X122967262Y-128081263D01*
X122950663Y-127995672D01*
X122922038Y-127848073D01*
X122922037Y-127848069D01*
X122833781Y-127602336D01*
X122824780Y-127585784D01*
X122709041Y-127372943D01*
X122550750Y-127165284D01*
X122362614Y-126984222D01*
X122362608Y-126984218D01*
X122362604Y-126984214D01*
X122258160Y-126910750D01*
X122214651Y-126856081D01*
X122205499Y-126809327D01*
X122205499Y-126380000D01*
X122205500Y-125822180D01*
X122202043Y-125757697D01*
X122195758Y-125699237D01*
X122192462Y-125671593D01*
X122191688Y-125668173D01*
X122143351Y-125454625D01*
X122143350Y-125454624D01*
X122143350Y-125454623D01*
X122055207Y-125250372D01*
X122021723Y-125189051D01*
X121958216Y-125085516D01*
X121958214Y-125085514D01*
X121958212Y-125085510D01*
X121958211Y-125085509D01*
X121836257Y-124938647D01*
X121816099Y-124914371D01*
X121563298Y-124661570D01*
X121555070Y-124654179D01*
X121515245Y-124618406D01*
X121469520Y-124581560D01*
X121469516Y-124581557D01*
X121469474Y-124581523D01*
X121447609Y-124564316D01*
X121447610Y-124564316D01*
X121447608Y-124564315D01*
X121259461Y-124445620D01*
X121078234Y-124373654D01*
X121023192Y-124330616D01*
X121000156Y-124264653D01*
X121000000Y-124258447D01*
X121000000Y-122403380D01*
X121019684Y-122336345D01*
X121072488Y-122290590D01*
X121108933Y-122280303D01*
X121132257Y-122277448D01*
X121183768Y-122266242D01*
X121334525Y-122223005D01*
X121536098Y-122128895D01*
X121716945Y-121999349D01*
X121769749Y-121953594D01*
X121784935Y-121940211D01*
X121936182Y-121777078D01*
X122054877Y-121588931D01*
X122136980Y-121382177D01*
X122156665Y-121315138D01*
X122184973Y-121197010D01*
X122205499Y-120975500D01*
X122205499Y-108400910D01*
X125400980Y-108400910D01*
X125404615Y-108470256D01*
X125404700Y-108473501D01*
X125404700Y-108495489D01*
X125406997Y-108517359D01*
X125407251Y-108520590D01*
X125410886Y-108589943D01*
X125410888Y-108589953D01*
X125414515Y-108603489D01*
X125418060Y-108622614D01*
X125419525Y-108636549D01*
X125419526Y-108636556D01*
X125419528Y-108636562D01*
X125440984Y-108702598D01*
X125441905Y-108705709D01*
X125459879Y-108772786D01*
X125459884Y-108772798D01*
X125466243Y-108785278D01*
X125473688Y-108803249D01*
X125478020Y-108816582D01*
X125512737Y-108876714D01*
X125514285Y-108879566D01*
X125534764Y-108919756D01*
X125545817Y-108941449D01*
X125545819Y-108941451D01*
X125545820Y-108941453D01*
X125554638Y-108952343D01*
X125565654Y-108968370D01*
X125572665Y-108980513D01*
X125572670Y-108980520D01*
X125619139Y-109032131D01*
X125621243Y-109034595D01*
X125635082Y-109051682D01*
X125650623Y-109067222D01*
X125652857Y-109069577D01*
X125699328Y-109121187D01*
X125699329Y-109121188D01*
X125705655Y-109125784D01*
X125710668Y-109129426D01*
X125725465Y-109142064D01*
X128211281Y-111627880D01*
X128244766Y-111689203D01*
X128247600Y-111715561D01*
X128247599Y-119541523D01*
X128227914Y-119608562D01*
X128175110Y-119654317D01*
X128108182Y-119663940D01*
X128108159Y-119664236D01*
X128106845Y-119664132D01*
X128105952Y-119664261D01*
X128104191Y-119663995D01*
X128103297Y-119663853D01*
X127860000Y-119644706D01*
X127616702Y-119663853D01*
X127616697Y-119663854D01*
X127616698Y-119663854D01*
X127406471Y-119714326D01*
X127379380Y-119720830D01*
X127153910Y-119814222D01*
X126945826Y-119941737D01*
X126945823Y-119941738D01*
X126760241Y-120100241D01*
X126601738Y-120285823D01*
X126601737Y-120285826D01*
X126474222Y-120493910D01*
X126380830Y-120719380D01*
X126323853Y-120956702D01*
X126304706Y-121200000D01*
X126323853Y-121443297D01*
X126323853Y-121443300D01*
X126323854Y-121443302D01*
X126366218Y-121619759D01*
X126380830Y-121680619D01*
X126474222Y-121906089D01*
X126601737Y-122114173D01*
X126601738Y-122114176D01*
X126623636Y-122139815D01*
X126760241Y-122299759D01*
X126881566Y-122403380D01*
X126945823Y-122458261D01*
X126945826Y-122458262D01*
X127153910Y-122585777D01*
X127379381Y-122679169D01*
X127379378Y-122679169D01*
X127379384Y-122679170D01*
X127379388Y-122679172D01*
X127616698Y-122736146D01*
X127860000Y-122755294D01*
X128103302Y-122736146D01*
X128154020Y-122723969D01*
X128223800Y-122727458D01*
X128280619Y-122768120D01*
X128299896Y-122806743D01*
X128300455Y-122806529D01*
X128302670Y-122812302D01*
X128302741Y-122812443D01*
X128302778Y-122812583D01*
X128302784Y-122812598D01*
X128309143Y-122825078D01*
X128316588Y-122843049D01*
X128320920Y-122856382D01*
X128355637Y-122916514D01*
X128357185Y-122919366D01*
X128379092Y-122962359D01*
X128388717Y-122981249D01*
X128388719Y-122981251D01*
X128388720Y-122981253D01*
X128397538Y-122992143D01*
X128408554Y-123008170D01*
X128415565Y-123020313D01*
X128415570Y-123020320D01*
X128462039Y-123071931D01*
X128464143Y-123074395D01*
X128477982Y-123091482D01*
X128493523Y-123107022D01*
X128495757Y-123109377D01*
X128542228Y-123160987D01*
X128553568Y-123169226D01*
X128568365Y-123181864D01*
X128824843Y-123438342D01*
X128858328Y-123499665D01*
X128860780Y-123535751D01*
X128844706Y-123739999D01*
X128863853Y-123983297D01*
X128863853Y-123983300D01*
X128863854Y-123983302D01*
X128914398Y-124193831D01*
X128920830Y-124220619D01*
X129014222Y-124446089D01*
X129141737Y-124654173D01*
X129141738Y-124654176D01*
X129182556Y-124701967D01*
X129300241Y-124839759D01*
X129364009Y-124894222D01*
X129389168Y-124915710D01*
X129427361Y-124974217D01*
X129427859Y-125044085D01*
X129390505Y-125103131D01*
X129389168Y-125104290D01*
X129300241Y-125180241D01*
X129224290Y-125269168D01*
X129165783Y-125307361D01*
X129095915Y-125307859D01*
X129036869Y-125270505D01*
X129035710Y-125269168D01*
X129006285Y-125234716D01*
X128959759Y-125180241D01*
X128780407Y-125027060D01*
X128774176Y-125021738D01*
X128774173Y-125021737D01*
X128566089Y-124894222D01*
X128340618Y-124800830D01*
X128340621Y-124800830D01*
X128193354Y-124765474D01*
X128103302Y-124743854D01*
X128103300Y-124743853D01*
X128103297Y-124743853D01*
X127860000Y-124724706D01*
X127616702Y-124743853D01*
X127379380Y-124800830D01*
X127153910Y-124894222D01*
X126945826Y-125021737D01*
X126945823Y-125021738D01*
X126760241Y-125180241D01*
X126601738Y-125365823D01*
X126601737Y-125365826D01*
X126474222Y-125573910D01*
X126380830Y-125799380D01*
X126380828Y-125799387D01*
X126380828Y-125799388D01*
X126366543Y-125858887D01*
X126323853Y-126036702D01*
X126304706Y-126280000D01*
X126323853Y-126523297D01*
X126323853Y-126523300D01*
X126323854Y-126523302D01*
X126366218Y-126699759D01*
X126380830Y-126760619D01*
X126474222Y-126986089D01*
X126601737Y-127194173D01*
X126601738Y-127194176D01*
X126601741Y-127194179D01*
X126760241Y-127379759D01*
X126823644Y-127433910D01*
X126849168Y-127455710D01*
X126887361Y-127514217D01*
X126887859Y-127584085D01*
X126850505Y-127643131D01*
X126849168Y-127644290D01*
X126760241Y-127720241D01*
X126601738Y-127905823D01*
X126601737Y-127905826D01*
X126474222Y-128113910D01*
X126380830Y-128339380D01*
X126323853Y-128576702D01*
X126304706Y-128820000D01*
X126323853Y-129063297D01*
X126323853Y-129063300D01*
X126323854Y-129063302D01*
X126351600Y-129178872D01*
X126380830Y-129300619D01*
X126474222Y-129526089D01*
X126601737Y-129734173D01*
X126601738Y-129734176D01*
X126601741Y-129734179D01*
X126760241Y-129919759D01*
X126804989Y-129957977D01*
X126849168Y-129995710D01*
X126887361Y-130054217D01*
X126887859Y-130124085D01*
X126850505Y-130183131D01*
X126849168Y-130184290D01*
X126760241Y-130260241D01*
X126601738Y-130445823D01*
X126601737Y-130445826D01*
X126474222Y-130653910D01*
X126380830Y-130879380D01*
X126323853Y-131116702D01*
X126304706Y-131360000D01*
X126323853Y-131603297D01*
X126323853Y-131603300D01*
X126323854Y-131603302D01*
X126347862Y-131703302D01*
X126380830Y-131840619D01*
X126474222Y-132066089D01*
X126601737Y-132274173D01*
X126601738Y-132274176D01*
X126601741Y-132274179D01*
X126760241Y-132459759D01*
X126877323Y-132559756D01*
X126945823Y-132618261D01*
X126945826Y-132618262D01*
X127153910Y-132745777D01*
X127379381Y-132839169D01*
X127379378Y-132839169D01*
X127379384Y-132839170D01*
X127379388Y-132839172D01*
X127616698Y-132896146D01*
X127860000Y-132915294D01*
X128103302Y-132896146D01*
X128340612Y-132839172D01*
X128566089Y-132745777D01*
X128774179Y-132618259D01*
X128875859Y-132531415D01*
X128939618Y-132502846D01*
X129008704Y-132513283D01*
X129052489Y-132547344D01*
X129062612Y-132559759D01*
X129124428Y-132635571D01*
X129195086Y-132693185D01*
X129274249Y-132757734D01*
X129445594Y-132847237D01*
X129631448Y-132900417D01*
X129744862Y-132910500D01*
X129744870Y-132910500D01*
X131055130Y-132910500D01*
X131055138Y-132910500D01*
X131168552Y-132900417D01*
X131326282Y-132855284D01*
X131360395Y-132850500D01*
X143335573Y-132850500D01*
X143354972Y-132852027D01*
X143368812Y-132854219D01*
X143438159Y-132850584D01*
X143441403Y-132850500D01*
X143463391Y-132850500D01*
X143463392Y-132850500D01*
X143480188Y-132848734D01*
X143485264Y-132848201D01*
X143488484Y-132847947D01*
X143557846Y-132844313D01*
X143571387Y-132840683D01*
X143590513Y-132837138D01*
X143604456Y-132835674D01*
X143670506Y-132814212D01*
X143673608Y-132813294D01*
X143706853Y-132804386D01*
X143776698Y-132806049D01*
X143834561Y-132845211D01*
X143862066Y-132909439D01*
X143859518Y-132953105D01*
X143853853Y-132976702D01*
X143834706Y-133219999D01*
X143853853Y-133463297D01*
X143910830Y-133700619D01*
X144004222Y-133926089D01*
X144131737Y-134134173D01*
X144131738Y-134134176D01*
X144131741Y-134134179D01*
X144290241Y-134319759D01*
X144433897Y-134442453D01*
X144475823Y-134478261D01*
X144475826Y-134478262D01*
X144683910Y-134605777D01*
X144909381Y-134699169D01*
X144909378Y-134699169D01*
X144909384Y-134699170D01*
X144909388Y-134699172D01*
X145146698Y-134756146D01*
X145390000Y-134775294D01*
X145633302Y-134756146D01*
X145870612Y-134699172D01*
X146096089Y-134605777D01*
X146304179Y-134478259D01*
X146489759Y-134319759D01*
X146648259Y-134134179D01*
X146775777Y-133926089D01*
X146869172Y-133700612D01*
X146926146Y-133463302D01*
X146945294Y-133220000D01*
X146929219Y-133015747D01*
X146943582Y-132947375D01*
X146965152Y-132918345D01*
X156376080Y-123507419D01*
X156437404Y-123473934D01*
X156463762Y-123471100D01*
X156499596Y-123471100D01*
X156566635Y-123490785D01*
X156612390Y-123543589D01*
X156623214Y-123604829D01*
X156604706Y-123840000D01*
X156623853Y-124083297D01*
X156623853Y-124083300D01*
X156623854Y-124083302D01*
X156674821Y-124295593D01*
X156680830Y-124320619D01*
X156774222Y-124546089D01*
X156901737Y-124754173D01*
X156901738Y-124754176D01*
X157060240Y-124939758D01*
X157060241Y-124939759D01*
X157149168Y-125015709D01*
X157187361Y-125074215D01*
X157187860Y-125144083D01*
X157150506Y-125203130D01*
X157149169Y-125204289D01*
X157113550Y-125234711D01*
X157060241Y-125280241D01*
X157060239Y-125280242D01*
X157060238Y-125280244D01*
X156901738Y-125465823D01*
X156901737Y-125465826D01*
X156774222Y-125673910D01*
X156680830Y-125899380D01*
X156623853Y-126136702D01*
X156604706Y-126380000D01*
X156623853Y-126623297D01*
X156623853Y-126623300D01*
X156623854Y-126623302D01*
X156679740Y-126856081D01*
X156680830Y-126860619D01*
X156774222Y-127086089D01*
X156901737Y-127294173D01*
X156901738Y-127294176D01*
X156901741Y-127294179D01*
X157060241Y-127479759D01*
X157128250Y-127537844D01*
X157149168Y-127555710D01*
X157187361Y-127614217D01*
X157187859Y-127684085D01*
X157150505Y-127743131D01*
X157149168Y-127744290D01*
X157060241Y-127820241D01*
X156901738Y-128005823D01*
X156901737Y-128005826D01*
X156774222Y-128213910D01*
X156680830Y-128439380D01*
X156623853Y-128676702D01*
X156604706Y-128920000D01*
X156623853Y-129163297D01*
X156623853Y-129163300D01*
X156623854Y-129163302D01*
X156664818Y-129333928D01*
X156680830Y-129400619D01*
X156774222Y-129626089D01*
X156901737Y-129834173D01*
X156901738Y-129834176D01*
X156901741Y-129834179D01*
X157060241Y-130019759D01*
X157111636Y-130063654D01*
X157149168Y-130095710D01*
X157187361Y-130154217D01*
X157187859Y-130224085D01*
X157150505Y-130283131D01*
X157149168Y-130284290D01*
X157060241Y-130360241D01*
X156901738Y-130545823D01*
X156901737Y-130545826D01*
X156774222Y-130753910D01*
X156680830Y-130979380D01*
X156623853Y-131216702D01*
X156604706Y-131460000D01*
X156623853Y-131703297D01*
X156623853Y-131703300D01*
X156623854Y-131703302D01*
X156656821Y-131840619D01*
X156680830Y-131940619D01*
X156774222Y-132166089D01*
X156901737Y-132374173D01*
X156901738Y-132374176D01*
X156901741Y-132374179D01*
X157060241Y-132559759D01*
X157149006Y-132635571D01*
X157245823Y-132718261D01*
X157245826Y-132718262D01*
X157453910Y-132845777D01*
X157679381Y-132939169D01*
X157679378Y-132939169D01*
X157679384Y-132939170D01*
X157679388Y-132939172D01*
X157916698Y-132996146D01*
X158160000Y-133015294D01*
X158403302Y-132996146D01*
X158640612Y-132939172D01*
X158866089Y-132845777D01*
X159074179Y-132718259D01*
X159259759Y-132559759D01*
X159335709Y-132470832D01*
X159394216Y-132432638D01*
X159464084Y-132432139D01*
X159523131Y-132469493D01*
X159524290Y-132470832D01*
X159576034Y-132531417D01*
X159600241Y-132559759D01*
X159689006Y-132635571D01*
X159785823Y-132718261D01*
X159785826Y-132718262D01*
X159993910Y-132845777D01*
X160219381Y-132939169D01*
X160219378Y-132939169D01*
X160219384Y-132939170D01*
X160219388Y-132939172D01*
X160456698Y-132996146D01*
X160700000Y-133015294D01*
X160943302Y-132996146D01*
X161180612Y-132939172D01*
X161406089Y-132845777D01*
X161614179Y-132718259D01*
X161799759Y-132559759D01*
X161958259Y-132374179D01*
X162085777Y-132166089D01*
X162179172Y-131940612D01*
X162236146Y-131703302D01*
X162255294Y-131460000D01*
X162236146Y-131216698D01*
X162179172Y-130979388D01*
X162085777Y-130753911D01*
X162085777Y-130753910D01*
X161958262Y-130545826D01*
X161958261Y-130545823D01*
X161908755Y-130487859D01*
X161799759Y-130360241D01*
X161640341Y-130224085D01*
X161614176Y-130201738D01*
X161614173Y-130201737D01*
X161406089Y-130074222D01*
X161180618Y-129980830D01*
X161180621Y-129980830D01*
X161074992Y-129955470D01*
X160943302Y-129923854D01*
X160943300Y-129923853D01*
X160943297Y-129923853D01*
X160700000Y-129904706D01*
X160456702Y-129923853D01*
X160219380Y-129980830D01*
X159993910Y-130074222D01*
X159785826Y-130201737D01*
X159785823Y-130201738D01*
X159600241Y-130360241D01*
X159524290Y-130449168D01*
X159465783Y-130487361D01*
X159395915Y-130487859D01*
X159336869Y-130450505D01*
X159335710Y-130449168D01*
X159259756Y-130360238D01*
X159170832Y-130284290D01*
X159132638Y-130225784D01*
X159132139Y-130155916D01*
X159169493Y-130096869D01*
X159170832Y-130095710D01*
X159224261Y-130050077D01*
X159259759Y-130019759D01*
X159418259Y-129834179D01*
X159545777Y-129626089D01*
X159639172Y-129400612D01*
X159696146Y-129163302D01*
X159715294Y-128920000D01*
X159699219Y-128715747D01*
X159713582Y-128647375D01*
X159735152Y-128618345D01*
X160009737Y-128343760D01*
X160024525Y-128331130D01*
X160035871Y-128322888D01*
X160082347Y-128271270D01*
X160084570Y-128268928D01*
X160100119Y-128253380D01*
X160113982Y-128236260D01*
X160116049Y-128233841D01*
X160133995Y-128213910D01*
X160162533Y-128182216D01*
X160169538Y-128170080D01*
X160180570Y-128154031D01*
X160189381Y-128143151D01*
X160189383Y-128143149D01*
X160196521Y-128129139D01*
X160220934Y-128081222D01*
X160222425Y-128078476D01*
X160257179Y-128018284D01*
X160261509Y-128004956D01*
X160268956Y-127986976D01*
X160275320Y-127974488D01*
X160275321Y-127974483D01*
X160277196Y-127970804D01*
X160325170Y-127920008D01*
X160392991Y-127903213D01*
X160416626Y-127906525D01*
X160456698Y-127916146D01*
X160700000Y-127935294D01*
X160943302Y-127916146D01*
X161180612Y-127859172D01*
X161406089Y-127765777D01*
X161614179Y-127638259D01*
X161799759Y-127479759D01*
X161958259Y-127294179D01*
X162085777Y-127086089D01*
X162179172Y-126860612D01*
X162236146Y-126623302D01*
X162255294Y-126380000D01*
X162236146Y-126136698D01*
X162179172Y-125899388D01*
X162174201Y-125887388D01*
X162096260Y-125699219D01*
X162085777Y-125673911D01*
X162082259Y-125668170D01*
X162064011Y-125600728D01*
X162085123Y-125534124D01*
X162100297Y-125515700D01*
X163232437Y-124383560D01*
X163247225Y-124370930D01*
X163258571Y-124362688D01*
X163305047Y-124311070D01*
X163307270Y-124308728D01*
X163322819Y-124293180D01*
X163336682Y-124276060D01*
X163338749Y-124273641D01*
X163346842Y-124264653D01*
X163385233Y-124222016D01*
X163392238Y-124209880D01*
X163403270Y-124193831D01*
X163412081Y-124182951D01*
X163412083Y-124182949D01*
X163423898Y-124159759D01*
X163443634Y-124121022D01*
X163445125Y-124118276D01*
X163479879Y-124058084D01*
X163484210Y-124044750D01*
X163491656Y-124026776D01*
X163498020Y-124014288D01*
X163516004Y-123947168D01*
X163516916Y-123944095D01*
X163523376Y-123924213D01*
X163538374Y-123878056D01*
X163539838Y-123864113D01*
X163543383Y-123844987D01*
X163547013Y-123831446D01*
X163550647Y-123762084D01*
X163550901Y-123758864D01*
X163552360Y-123744984D01*
X163553200Y-123736992D01*
X163553200Y-123715001D01*
X163553285Y-123711756D01*
X163555689Y-123665874D01*
X163556919Y-123642412D01*
X163554727Y-123628572D01*
X163553200Y-123609173D01*
X163553200Y-117767826D01*
X163554727Y-117748425D01*
X163556919Y-117734588D01*
X163553285Y-117665247D01*
X163553200Y-117662002D01*
X163553200Y-117640013D01*
X163553200Y-117640008D01*
X163550899Y-117618121D01*
X163550646Y-117614911D01*
X163547012Y-117545554D01*
X163547011Y-117545548D01*
X163543387Y-117532025D01*
X163539839Y-117512884D01*
X163538374Y-117498948D01*
X163538374Y-117498947D01*
X163538374Y-117498944D01*
X163516914Y-117432899D01*
X163515991Y-117429785D01*
X163498020Y-117362712D01*
X163491654Y-117350219D01*
X163484208Y-117332242D01*
X163479878Y-117318914D01*
X163479875Y-117318907D01*
X163449323Y-117265993D01*
X163445143Y-117258752D01*
X163443620Y-117255947D01*
X163412083Y-117194051D01*
X163412082Y-117194049D01*
X163403260Y-117183155D01*
X163392238Y-117167118D01*
X163385232Y-117154983D01*
X163385231Y-117154981D01*
X163338760Y-117103370D01*
X163336652Y-117100902D01*
X163322818Y-117083819D01*
X163307277Y-117068278D01*
X163305041Y-117065922D01*
X163258572Y-117014313D01*
X163249689Y-117007859D01*
X163247225Y-117006069D01*
X163232434Y-116993435D01*
X160266819Y-114027819D01*
X160233334Y-113966496D01*
X160230500Y-113940138D01*
X160230500Y-102320356D01*
X160250185Y-102253317D01*
X160302989Y-102207562D01*
X160364226Y-102196738D01*
X160600000Y-102215294D01*
X160843302Y-102196146D01*
X161080612Y-102139172D01*
X161306089Y-102045777D01*
X161514179Y-101918259D01*
X161699759Y-101759759D01*
X161858259Y-101574179D01*
X161985777Y-101366089D01*
X162079172Y-101140612D01*
X162136146Y-100903302D01*
X162155294Y-100660000D01*
X162136146Y-100416698D01*
X162079172Y-100179388D01*
X162079169Y-100179380D01*
X161985777Y-99953910D01*
X161858262Y-99745826D01*
X161858261Y-99745823D01*
X161758358Y-99628852D01*
X161699759Y-99560241D01*
X161551856Y-99433920D01*
X161514176Y-99401738D01*
X161514173Y-99401737D01*
X161306089Y-99274222D01*
X161080618Y-99180830D01*
X161080621Y-99180830D01*
X160974992Y-99155470D01*
X160843302Y-99123854D01*
X160843300Y-99123853D01*
X160843297Y-99123853D01*
X160600000Y-99104706D01*
X160356700Y-99123853D01*
X160356698Y-99123853D01*
X160316626Y-99133474D01*
X160246844Y-99129983D01*
X160190027Y-99089319D01*
X160177194Y-99069192D01*
X160175321Y-99065515D01*
X160175320Y-99065512D01*
X160168954Y-99053019D01*
X160161508Y-99035042D01*
X160157638Y-99023131D01*
X160157179Y-99021716D01*
X160157178Y-99021714D01*
X160157175Y-99021707D01*
X160123905Y-98964085D01*
X160122443Y-98961552D01*
X160120920Y-98958747D01*
X160089383Y-98896851D01*
X160089382Y-98896849D01*
X160080560Y-98885955D01*
X160069538Y-98869918D01*
X160062532Y-98857783D01*
X160062531Y-98857781D01*
X160016060Y-98806170D01*
X160013952Y-98803702D01*
X160000118Y-98786619D01*
X159984577Y-98771078D01*
X159982341Y-98768722D01*
X159935872Y-98717113D01*
X159935871Y-98717112D01*
X159924525Y-98708869D01*
X159909734Y-98696235D01*
X159635156Y-98421657D01*
X159601671Y-98360334D01*
X159599219Y-98324251D01*
X159615294Y-98120000D01*
X159599219Y-97915750D01*
X159613583Y-97847376D01*
X159635157Y-97818341D01*
X159666682Y-97786817D01*
X159728006Y-97753333D01*
X159754362Y-97750500D01*
X161056273Y-97750500D01*
X161075672Y-97752027D01*
X161089512Y-97754219D01*
X161158859Y-97750584D01*
X161162103Y-97750500D01*
X161184091Y-97750500D01*
X161184092Y-97750500D01*
X161200888Y-97748734D01*
X161205964Y-97748201D01*
X161209184Y-97747947D01*
X161278546Y-97744313D01*
X161292087Y-97740683D01*
X161311213Y-97737138D01*
X161325156Y-97735674D01*
X161391206Y-97714212D01*
X161394268Y-97713304D01*
X161461388Y-97695320D01*
X161473876Y-97688956D01*
X161491850Y-97681510D01*
X161505184Y-97677179D01*
X161565376Y-97642425D01*
X161568122Y-97640934D01*
X161630049Y-97609383D01*
X161640931Y-97600569D01*
X161656983Y-97589537D01*
X161669116Y-97582533D01*
X161720747Y-97536043D01*
X161723160Y-97533982D01*
X161740280Y-97520119D01*
X161755829Y-97504568D01*
X161758170Y-97502347D01*
X161809788Y-97455871D01*
X161818030Y-97444525D01*
X161830660Y-97429737D01*
X163074737Y-96185660D01*
X163089525Y-96173030D01*
X163100871Y-96164788D01*
X163147347Y-96113170D01*
X163149570Y-96110828D01*
X163165119Y-96095280D01*
X163178982Y-96078160D01*
X163181049Y-96075741D01*
X163194665Y-96060619D01*
X163227533Y-96024116D01*
X163234538Y-96011980D01*
X163245570Y-95995931D01*
X163254381Y-95985051D01*
X163254383Y-95985049D01*
X163285934Y-95923122D01*
X163287425Y-95920376D01*
X163322179Y-95860184D01*
X163326509Y-95846856D01*
X163333960Y-95828869D01*
X163340319Y-95816390D01*
X163340320Y-95816388D01*
X163340830Y-95814485D01*
X163358297Y-95749290D01*
X163359201Y-95746237D01*
X163380674Y-95680156D01*
X163382139Y-95666207D01*
X163385684Y-95647083D01*
X163389312Y-95633546D01*
X163392947Y-95564184D01*
X163393200Y-95560971D01*
X163395500Y-95539092D01*
X163395500Y-95517096D01*
X163395585Y-95513850D01*
X163399219Y-95444512D01*
X163397026Y-95430666D01*
X163395500Y-95411285D01*
X163395500Y-88983413D01*
X163397025Y-88964034D01*
X163399219Y-88950188D01*
X163395584Y-88880840D01*
X163395500Y-88877597D01*
X163395500Y-88855609D01*
X163395499Y-88855600D01*
X163393201Y-88833736D01*
X163392947Y-88830520D01*
X163389313Y-88761154D01*
X163385684Y-88747612D01*
X163382138Y-88728484D01*
X163380674Y-88714544D01*
X163359218Y-88648508D01*
X163358296Y-88645396D01*
X163342173Y-88585229D01*
X163340320Y-88578312D01*
X163333956Y-88565822D01*
X163326511Y-88547850D01*
X163322179Y-88534516D01*
X163322177Y-88534512D01*
X163322175Y-88534507D01*
X163298670Y-88493798D01*
X163287443Y-88474352D01*
X163285920Y-88471547D01*
X163254383Y-88409651D01*
X163254382Y-88409649D01*
X163245560Y-88398755D01*
X163234538Y-88382718D01*
X163227532Y-88370583D01*
X163227531Y-88370581D01*
X163181060Y-88318970D01*
X163178952Y-88316502D01*
X163176523Y-88313503D01*
X163165119Y-88299420D01*
X163149577Y-88283878D01*
X163147341Y-88281522D01*
X163100872Y-88229913D01*
X163100871Y-88229912D01*
X163089525Y-88221669D01*
X163074734Y-88209035D01*
X161736819Y-86871120D01*
X161703334Y-86809797D01*
X161700500Y-86783439D01*
X161700500Y-80881169D01*
X161720185Y-80814130D01*
X161748338Y-80783315D01*
X161819744Y-80727738D01*
X161988164Y-80544785D01*
X162124173Y-80336607D01*
X162224063Y-80108881D01*
X162285108Y-79867821D01*
X162303895Y-79641097D01*
X162305643Y-79620005D01*
X162305643Y-79619994D01*
X162285109Y-79372187D01*
X162285107Y-79372175D01*
X162224063Y-79131118D01*
X162124173Y-78903393D01*
X161988166Y-78695217D01*
X161908951Y-78609167D01*
X161819744Y-78512262D01*
X161623509Y-78359526D01*
X161623507Y-78359525D01*
X161623506Y-78359524D01*
X161404811Y-78241172D01*
X161404802Y-78241169D01*
X161169616Y-78160429D01*
X160924335Y-78119500D01*
X160675665Y-78119500D01*
X160430383Y-78160429D01*
X160195197Y-78241169D01*
X160195188Y-78241172D01*
X159976493Y-78359524D01*
X159780257Y-78512261D01*
X159621230Y-78685010D01*
X159561342Y-78721001D01*
X159491504Y-78718900D01*
X159438770Y-78685010D01*
X159368951Y-78609167D01*
X159279744Y-78512262D01*
X159083509Y-78359526D01*
X159083507Y-78359525D01*
X159083506Y-78359524D01*
X158864811Y-78241172D01*
X158864802Y-78241169D01*
X158629616Y-78160429D01*
X158384335Y-78119500D01*
X158135665Y-78119500D01*
X157890383Y-78160429D01*
X157655197Y-78241169D01*
X157655188Y-78241172D01*
X157436493Y-78359524D01*
X157240257Y-78512261D01*
X157240256Y-78512262D01*
X157086317Y-78679483D01*
X157026432Y-78715473D01*
X156995089Y-78719500D01*
X156984911Y-78719500D01*
X156917872Y-78699815D01*
X156893684Y-78679485D01*
X156739744Y-78512262D01*
X156543509Y-78359526D01*
X156543507Y-78359525D01*
X156543506Y-78359524D01*
X156324811Y-78241172D01*
X156324802Y-78241169D01*
X156089616Y-78160429D01*
X155844335Y-78119500D01*
X155595665Y-78119500D01*
X155350383Y-78160429D01*
X155115197Y-78241169D01*
X155115188Y-78241172D01*
X154896493Y-78359524D01*
X154700257Y-78512261D01*
X154541230Y-78685010D01*
X154481342Y-78721001D01*
X154411504Y-78718900D01*
X154358770Y-78685010D01*
X154288951Y-78609167D01*
X154199744Y-78512262D01*
X154003509Y-78359526D01*
X154003507Y-78359525D01*
X154003506Y-78359524D01*
X153784811Y-78241172D01*
X153784802Y-78241169D01*
X153549616Y-78160429D01*
X153304335Y-78119500D01*
X153055665Y-78119500D01*
X152875758Y-78149520D01*
X152806393Y-78141138D01*
X152752571Y-78096585D01*
X152731381Y-78030006D01*
X152749549Y-77962540D01*
X152767668Y-77939530D01*
X154907819Y-75799379D01*
X157377751Y-73329446D01*
X157439072Y-73295963D01*
X157508764Y-73300947D01*
X157524447Y-73308074D01*
X157612032Y-73355472D01*
X157655190Y-73378828D01*
X157890386Y-73459571D01*
X158135665Y-73500500D01*
X158384335Y-73500500D01*
X158629614Y-73459571D01*
X158864810Y-73378828D01*
X159083509Y-73260474D01*
X159229310Y-73146992D01*
X159294302Y-73121350D01*
X159362842Y-73134916D01*
X159411587Y-73180695D01*
X159444528Y-73235185D01*
X159444531Y-73235189D01*
X159564811Y-73355469D01*
X159564813Y-73355470D01*
X159564815Y-73355472D01*
X159710394Y-73443478D01*
X159872804Y-73494086D01*
X159943384Y-73500500D01*
X159943387Y-73500500D01*
X161656613Y-73500500D01*
X161656616Y-73500500D01*
X161727196Y-73494086D01*
X161889606Y-73443478D01*
X162035185Y-73355472D01*
X162155472Y-73235185D01*
X162243478Y-73089606D01*
X162294086Y-72927196D01*
X162300500Y-72856616D01*
X162300500Y-71143384D01*
X162294086Y-71072804D01*
X162243478Y-70910394D01*
X162155472Y-70764815D01*
X162155470Y-70764813D01*
X162155469Y-70764811D01*
X162035188Y-70644530D01*
X162023036Y-70637184D01*
X161889606Y-70556522D01*
X161727196Y-70505914D01*
X161727194Y-70505913D01*
X161727192Y-70505913D01*
X161677778Y-70501423D01*
X161656616Y-70499500D01*
X159943384Y-70499500D01*
X159924145Y-70501248D01*
X159872807Y-70505913D01*
X159710393Y-70556522D01*
X159564811Y-70644530D01*
X159444530Y-70764811D01*
X159411587Y-70819305D01*
X159360058Y-70866491D01*
X159291199Y-70878329D01*
X159229309Y-70853007D01*
X159083506Y-70739524D01*
X158864811Y-70621172D01*
X158864802Y-70621169D01*
X158629616Y-70540429D01*
X158384335Y-70499500D01*
X158135665Y-70499500D01*
X157890383Y-70540429D01*
X157655197Y-70621169D01*
X157655188Y-70621172D01*
X157436493Y-70739524D01*
X157258157Y-70878329D01*
X157240256Y-70892262D01*
X157086317Y-71059483D01*
X157026432Y-71095473D01*
X156995089Y-71099500D01*
X156984911Y-71099500D01*
X156917872Y-71079815D01*
X156893684Y-71059485D01*
X156739744Y-70892262D01*
X156543509Y-70739526D01*
X156543507Y-70739525D01*
X156543506Y-70739524D01*
X156324811Y-70621172D01*
X156324802Y-70621169D01*
X156089616Y-70540429D01*
X155844335Y-70499500D01*
X155595665Y-70499500D01*
X155350383Y-70540429D01*
X155115197Y-70621169D01*
X155115188Y-70621172D01*
X154896493Y-70739524D01*
X154700257Y-70892261D01*
X154531833Y-71075217D01*
X154395826Y-71283393D01*
X154295936Y-71511118D01*
X154234892Y-71752175D01*
X154234890Y-71752187D01*
X154214357Y-71999994D01*
X154214357Y-72000005D01*
X154234890Y-72247812D01*
X154234892Y-72247824D01*
X154295936Y-72488881D01*
X154395826Y-72716606D01*
X154531833Y-72924782D01*
X154531836Y-72924785D01*
X154700256Y-73107738D01*
X154717745Y-73121350D01*
X154787502Y-73175645D01*
X154828315Y-73232356D01*
X154831988Y-73302129D01*
X154799020Y-73361179D01*
X147287020Y-80873181D01*
X147225697Y-80906666D01*
X147199339Y-80909500D01*
X138264911Y-80909500D01*
X138197872Y-80889815D01*
X138173684Y-80869485D01*
X138019744Y-80702262D01*
X137823509Y-80549526D01*
X137823507Y-80549525D01*
X137823506Y-80549524D01*
X137604811Y-80431172D01*
X137604802Y-80431169D01*
X137369616Y-80350429D01*
X137124335Y-80309500D01*
X136875665Y-80309500D01*
X136630383Y-80350429D01*
X136395197Y-80431169D01*
X136395188Y-80431172D01*
X136176493Y-80549524D01*
X136169472Y-80554989D01*
X135980256Y-80702262D01*
X135826317Y-80869483D01*
X135766432Y-80905473D01*
X135735089Y-80909500D01*
X131264911Y-80909500D01*
X131197872Y-80889815D01*
X131173684Y-80869485D01*
X131019744Y-80702262D01*
X130823509Y-80549526D01*
X130823507Y-80549525D01*
X130823506Y-80549524D01*
X130604811Y-80431172D01*
X130604802Y-80431169D01*
X130369616Y-80350429D01*
X130124335Y-80309500D01*
X129875665Y-80309500D01*
X129630383Y-80350429D01*
X129395197Y-80431169D01*
X129395188Y-80431172D01*
X129176493Y-80549524D01*
X128980257Y-80702261D01*
X128811833Y-80885217D01*
X128675826Y-81093393D01*
X128575936Y-81321118D01*
X128514892Y-81562175D01*
X128514890Y-81562187D01*
X128494357Y-81809994D01*
X128494357Y-81810005D01*
X128514890Y-82057812D01*
X128514892Y-82057824D01*
X128575936Y-82298881D01*
X128675826Y-82526606D01*
X128811833Y-82734782D01*
X128811836Y-82734785D01*
X128980256Y-82917738D01*
X129176491Y-83070474D01*
X129275398Y-83124000D01*
X129388831Y-83185387D01*
X129395190Y-83188828D01*
X129630386Y-83269571D01*
X129875665Y-83310500D01*
X130124335Y-83310500D01*
X130369614Y-83269571D01*
X130604810Y-83188828D01*
X130823509Y-83070474D01*
X131019744Y-82917738D01*
X131173682Y-82750516D01*
X131233568Y-82714527D01*
X131264911Y-82710500D01*
X135735089Y-82710500D01*
X135802128Y-82730185D01*
X135826315Y-82750514D01*
X135980256Y-82917738D01*
X136176491Y-83070474D01*
X136275398Y-83124000D01*
X136388831Y-83185387D01*
X136395190Y-83188828D01*
X136630386Y-83269571D01*
X136875665Y-83310500D01*
X137124335Y-83310500D01*
X137369614Y-83269571D01*
X137604810Y-83188828D01*
X137823509Y-83070474D01*
X138019744Y-82917738D01*
X138173682Y-82750516D01*
X138233568Y-82714527D01*
X138264911Y-82710500D01*
X147543073Y-82710500D01*
X147562472Y-82712027D01*
X147576312Y-82714219D01*
X147645659Y-82710584D01*
X147648903Y-82710500D01*
X147670891Y-82710500D01*
X147670892Y-82710500D01*
X147687688Y-82708734D01*
X147692764Y-82708201D01*
X147695984Y-82707947D01*
X147765346Y-82704313D01*
X147778887Y-82700683D01*
X147798013Y-82697138D01*
X147811956Y-82695674D01*
X147878006Y-82674212D01*
X147881079Y-82673301D01*
X147920817Y-82662654D01*
X147990666Y-82664317D01*
X148048528Y-82703480D01*
X148076032Y-82767709D01*
X148064445Y-82836611D01*
X148040590Y-82870110D01*
X146841789Y-84068910D01*
X146780466Y-84102395D01*
X146710774Y-84097411D01*
X146654841Y-84055539D01*
X146648382Y-84046020D01*
X146648265Y-84045830D01*
X146648261Y-84045823D01*
X146612453Y-84003897D01*
X146489759Y-83860241D01*
X146367063Y-83755449D01*
X146304176Y-83701738D01*
X146304173Y-83701737D01*
X146096089Y-83574222D01*
X145870618Y-83480830D01*
X145870621Y-83480830D01*
X145764992Y-83455470D01*
X145633302Y-83423854D01*
X145633300Y-83423853D01*
X145633297Y-83423853D01*
X145390000Y-83404706D01*
X145146702Y-83423853D01*
X144909380Y-83480830D01*
X144683910Y-83574222D01*
X144475826Y-83701737D01*
X144475824Y-83701738D01*
X144374141Y-83788583D01*
X144310379Y-83817153D01*
X144241294Y-83806715D01*
X144197509Y-83772654D01*
X144163890Y-83731424D01*
X144125571Y-83684428D01*
X144033700Y-83609517D01*
X143975751Y-83562266D01*
X143819850Y-83480830D01*
X143804405Y-83472762D01*
X143633475Y-83423853D01*
X143618552Y-83419583D01*
X143618551Y-83419582D01*
X143618548Y-83419582D01*
X143529662Y-83411680D01*
X143505138Y-83409500D01*
X142194862Y-83409500D01*
X142182599Y-83410590D01*
X142081451Y-83419582D01*
X141895594Y-83472762D01*
X141724250Y-83562265D01*
X141574428Y-83684428D01*
X141452265Y-83834250D01*
X141362762Y-84005594D01*
X141309582Y-84191451D01*
X141299500Y-84304863D01*
X141299500Y-85185638D01*
X141279815Y-85252677D01*
X141263181Y-85273319D01*
X140997263Y-85539236D01*
X140982474Y-85551869D01*
X140971126Y-85560114D01*
X140924666Y-85611713D01*
X140922435Y-85614065D01*
X140906890Y-85629610D01*
X140906875Y-85629627D01*
X140893039Y-85646710D01*
X140890936Y-85649172D01*
X140844469Y-85700781D01*
X140844466Y-85700785D01*
X140837458Y-85712923D01*
X140826444Y-85728948D01*
X140817626Y-85739837D01*
X140817616Y-85739853D01*
X140786082Y-85801740D01*
X140784533Y-85804592D01*
X140749821Y-85864713D01*
X140745487Y-85878053D01*
X140738045Y-85896020D01*
X140731680Y-85908512D01*
X140713706Y-85975584D01*
X140712785Y-85978692D01*
X140691326Y-86044742D01*
X140691325Y-86044745D01*
X140689860Y-86058686D01*
X140686315Y-86077812D01*
X140682686Y-86091352D01*
X140679051Y-86160710D01*
X140678797Y-86163941D01*
X140676500Y-86185810D01*
X140676500Y-86207797D01*
X140676415Y-86211042D01*
X140672781Y-86280387D01*
X140674973Y-86294225D01*
X140676500Y-86313626D01*
X140676500Y-90885638D01*
X140656815Y-90952677D01*
X140640181Y-90973319D01*
X139030320Y-92583181D01*
X138968997Y-92616666D01*
X138942639Y-92619500D01*
X131427106Y-92619500D01*
X131360067Y-92599815D01*
X131332818Y-92576034D01*
X131199759Y-92420241D01*
X131199756Y-92420239D01*
X131199755Y-92420237D01*
X131110832Y-92344290D01*
X131072638Y-92285784D01*
X131072139Y-92215916D01*
X131109493Y-92156869D01*
X131110832Y-92155710D01*
X131142276Y-92128853D01*
X131199759Y-92079759D01*
X131358259Y-91894179D01*
X131485777Y-91686089D01*
X131579172Y-91460612D01*
X131636146Y-91223302D01*
X131655294Y-90980000D01*
X131636146Y-90736698D01*
X131579172Y-90499388D01*
X131579169Y-90499380D01*
X131485777Y-90273910D01*
X131358262Y-90065826D01*
X131358261Y-90065823D01*
X131308755Y-90007859D01*
X131199759Y-89880241D01*
X131030700Y-89735851D01*
X131014176Y-89721738D01*
X131014173Y-89721737D01*
X130806089Y-89594222D01*
X130580618Y-89500830D01*
X130580621Y-89500830D01*
X130474992Y-89475470D01*
X130343302Y-89443854D01*
X130343300Y-89443853D01*
X130343297Y-89443853D01*
X130100000Y-89424706D01*
X129856702Y-89443853D01*
X129619380Y-89500830D01*
X129393910Y-89594222D01*
X129185826Y-89721737D01*
X129185823Y-89721738D01*
X129000241Y-89880241D01*
X128924290Y-89969168D01*
X128865783Y-90007361D01*
X128795915Y-90007859D01*
X128736869Y-89970505D01*
X128735710Y-89969168D01*
X128717844Y-89948250D01*
X128659759Y-89880241D01*
X128490700Y-89735851D01*
X128474176Y-89721738D01*
X128474173Y-89721737D01*
X128266089Y-89594222D01*
X128040618Y-89500830D01*
X128040621Y-89500830D01*
X127934992Y-89475470D01*
X127803302Y-89443854D01*
X127803300Y-89443853D01*
X127803297Y-89443853D01*
X127560000Y-89424706D01*
X127316702Y-89443853D01*
X127079380Y-89500830D01*
X126853910Y-89594222D01*
X126645826Y-89721737D01*
X126645823Y-89721738D01*
X126460241Y-89880241D01*
X126301738Y-90065823D01*
X126301737Y-90065826D01*
X126174222Y-90273910D01*
X126080830Y-90499380D01*
X126023853Y-90736702D01*
X126004706Y-90980000D01*
X126023853Y-91223297D01*
X126023853Y-91223300D01*
X126023854Y-91223302D01*
X126069910Y-91415138D01*
X126080830Y-91460619D01*
X126174222Y-91686089D01*
X126301737Y-91894173D01*
X126301738Y-91894176D01*
X126351243Y-91952139D01*
X126460241Y-92079759D01*
X126570836Y-92174216D01*
X126645823Y-92238261D01*
X126645826Y-92238262D01*
X126853910Y-92365777D01*
X127079381Y-92459169D01*
X127079378Y-92459169D01*
X127079384Y-92459170D01*
X127079388Y-92459172D01*
X127316698Y-92516146D01*
X127560000Y-92535294D01*
X127803302Y-92516146D01*
X128040612Y-92459172D01*
X128266089Y-92365777D01*
X128474179Y-92238259D01*
X128659759Y-92079759D01*
X128731254Y-91996049D01*
X128735710Y-91990832D01*
X128794216Y-91952638D01*
X128864084Y-91952139D01*
X128923131Y-91989493D01*
X128924290Y-91990832D01*
X128977855Y-92053549D01*
X129000241Y-92079759D01*
X129026825Y-92102464D01*
X129089168Y-92155710D01*
X129127361Y-92214217D01*
X129127859Y-92284085D01*
X129090505Y-92343131D01*
X129089168Y-92344290D01*
X129000241Y-92420241D01*
X128841738Y-92605823D01*
X128841737Y-92605826D01*
X128714222Y-92813910D01*
X128620830Y-93039380D01*
X128620828Y-93039387D01*
X128620828Y-93039388D01*
X128615732Y-93060616D01*
X128563853Y-93276702D01*
X128544706Y-93520000D01*
X128560780Y-93724247D01*
X128546416Y-93792624D01*
X128524843Y-93821656D01*
X128250263Y-94096236D01*
X128235474Y-94108869D01*
X128224126Y-94117114D01*
X128177666Y-94168713D01*
X128175435Y-94171065D01*
X128159890Y-94186610D01*
X128159875Y-94186627D01*
X128146039Y-94203710D01*
X128143936Y-94206172D01*
X128097469Y-94257781D01*
X128097466Y-94257785D01*
X128090458Y-94269923D01*
X128079444Y-94285948D01*
X128070626Y-94296837D01*
X128070616Y-94296853D01*
X128039082Y-94358740D01*
X128037533Y-94361592D01*
X128002821Y-94421713D01*
X127998487Y-94435053D01*
X127991042Y-94453025D01*
X127982803Y-94469195D01*
X127934829Y-94519991D01*
X127867008Y-94536786D01*
X127843373Y-94533474D01*
X127803302Y-94523854D01*
X127803300Y-94523853D01*
X127803299Y-94523853D01*
X127560000Y-94504706D01*
X127316702Y-94523853D01*
X127079380Y-94580830D01*
X126853910Y-94674222D01*
X126645826Y-94801737D01*
X126645823Y-94801738D01*
X126460241Y-94960241D01*
X126301738Y-95145823D01*
X126301737Y-95145826D01*
X126174222Y-95353910D01*
X126080830Y-95579380D01*
X126080828Y-95579387D01*
X126080828Y-95579388D01*
X126049240Y-95710960D01*
X126023853Y-95816702D01*
X126004706Y-96060000D01*
X126023853Y-96303297D01*
X126023853Y-96303300D01*
X126023854Y-96303302D01*
X126079836Y-96536481D01*
X126080830Y-96540619D01*
X126169634Y-96755011D01*
X126177103Y-96824481D01*
X126145828Y-96886960D01*
X126142754Y-96890145D01*
X125725463Y-97307436D01*
X125710674Y-97320069D01*
X125699326Y-97328314D01*
X125652866Y-97379913D01*
X125650635Y-97382265D01*
X125635090Y-97397810D01*
X125635075Y-97397827D01*
X125621239Y-97414910D01*
X125619136Y-97417372D01*
X125572669Y-97468981D01*
X125572666Y-97468985D01*
X125565658Y-97481123D01*
X125554644Y-97497148D01*
X125545826Y-97508037D01*
X125545816Y-97508053D01*
X125514282Y-97569940D01*
X125512733Y-97572792D01*
X125478021Y-97632913D01*
X125473687Y-97646253D01*
X125466245Y-97664220D01*
X125459880Y-97676712D01*
X125441906Y-97743784D01*
X125440985Y-97746892D01*
X125419526Y-97812942D01*
X125419525Y-97812945D01*
X125418060Y-97826886D01*
X125414515Y-97846012D01*
X125410886Y-97859552D01*
X125407251Y-97928910D01*
X125406997Y-97932141D01*
X125404700Y-97954010D01*
X125404700Y-97975997D01*
X125404615Y-97979242D01*
X125400981Y-98048589D01*
X125403173Y-98062431D01*
X125404699Y-98081826D01*
X125404699Y-108367673D01*
X125403173Y-108387066D01*
X125400981Y-108400908D01*
X125400980Y-108400910D01*
X122205499Y-108400910D01*
X122205499Y-100104330D01*
X122225184Y-100037291D01*
X122277988Y-99991536D01*
X122283102Y-99989337D01*
X122434266Y-99928414D01*
X122658708Y-99794982D01*
X122860152Y-99628852D01*
X123033875Y-99433920D01*
X123054716Y-99401738D01*
X123175804Y-99214757D01*
X123175804Y-99214755D01*
X123175806Y-99214753D01*
X123282618Y-98976489D01*
X123351807Y-98724713D01*
X123381752Y-98465325D01*
X123371751Y-98204407D01*
X123322038Y-97948073D01*
X123315156Y-97928910D01*
X123233781Y-97702336D01*
X123229965Y-97695318D01*
X123109041Y-97472943D01*
X123081365Y-97436636D01*
X123021685Y-97358342D01*
X122950750Y-97265284D01*
X122762614Y-97084222D01*
X122762608Y-97084218D01*
X122762604Y-97084214D01*
X122549058Y-96934010D01*
X122549051Y-96934006D01*
X122549044Y-96934001D01*
X122315047Y-96818141D01*
X122292083Y-96810873D01*
X122234109Y-96771879D01*
X122206419Y-96707730D01*
X122205499Y-96692653D01*
X122205499Y-95724525D01*
X122205499Y-95724499D01*
X122204978Y-95689057D01*
X122177948Y-95468246D01*
X122166742Y-95416734D01*
X122123500Y-95265961D01*
X122093059Y-95200762D01*
X122029390Y-95064392D01*
X121899847Y-94883550D01*
X121893913Y-94876702D01*
X121854086Y-94830740D01*
X121849718Y-94825784D01*
X121840708Y-94815560D01*
X121677579Y-94664317D01*
X121677576Y-94664315D01*
X121489429Y-94545620D01*
X121282666Y-94463514D01*
X121215634Y-94443832D01*
X121095103Y-94414948D01*
X121034496Y-94380182D01*
X121002307Y-94318169D01*
X121000000Y-94294362D01*
X121000000Y-92503384D01*
X121019685Y-92436345D01*
X121072489Y-92390590D01*
X121108927Y-92380304D01*
X121132253Y-92377449D01*
X121183765Y-92366243D01*
X121334538Y-92323001D01*
X121536109Y-92228890D01*
X121716956Y-92099342D01*
X121769759Y-92053587D01*
X121784936Y-92040211D01*
X121936183Y-91877078D01*
X122054878Y-91688931D01*
X122136981Y-91482177D01*
X122156666Y-91415138D01*
X122184974Y-91297009D01*
X122205500Y-91075499D01*
X122205499Y-88976751D01*
X122200289Y-88897629D01*
X122197639Y-88877597D01*
X122185629Y-88786795D01*
X122185628Y-88786788D01*
X122170091Y-88709042D01*
X120733330Y-83372501D01*
X120719076Y-83324614D01*
X120718818Y-83254748D01*
X120756375Y-83195831D01*
X120817150Y-83166995D01*
X121063300Y-83125173D01*
X121408724Y-83025659D01*
X121740833Y-82888094D01*
X122055452Y-82714211D01*
X122348623Y-82506194D01*
X122616661Y-82266661D01*
X122856194Y-81998623D01*
X123064211Y-81705452D01*
X123238094Y-81390833D01*
X123375659Y-81058724D01*
X123475173Y-80713300D01*
X123535387Y-80358907D01*
X123555543Y-80000000D01*
X123535387Y-79641093D01*
X123475173Y-79286700D01*
X123375659Y-78941276D01*
X123238094Y-78609167D01*
X123064211Y-78294548D01*
X122856194Y-78001377D01*
X122616661Y-77733339D01*
X122348623Y-77493806D01*
X122348622Y-77493805D01*
X122055454Y-77285790D01*
X121740831Y-77111905D01*
X121534776Y-77026554D01*
X121408724Y-76974341D01*
X121408720Y-76974339D01*
X121408718Y-76974339D01*
X121063305Y-76874828D01*
X121063296Y-76874826D01*
X120708914Y-76814614D01*
X120708902Y-76814612D01*
X120375994Y-76795916D01*
X120350000Y-76794457D01*
X120349999Y-76794457D01*
X119991097Y-76814612D01*
X119991085Y-76814614D01*
X119636703Y-76874826D01*
X119636694Y-76874828D01*
X119291276Y-76974340D01*
X119291265Y-76974344D01*
X119165219Y-77026554D01*
X119095750Y-77034023D01*
X119033271Y-77002747D01*
X118997619Y-76942658D01*
X118995567Y-76933042D01*
X118988350Y-76891148D01*
X118988350Y-76891147D01*
X118983956Y-76874828D01*
X117297591Y-70611189D01*
X117293627Y-70587567D01*
X117291466Y-70556522D01*
X116412865Y-57936627D01*
X116427846Y-57868385D01*
X116477345Y-57819074D01*
X116545646Y-57804351D01*
X116611064Y-57828892D01*
X116619839Y-57836140D01*
X116832011Y-58028441D01*
X116832013Y-58028442D01*
X116832017Y-58028446D01*
X117163513Y-58274300D01*
X117517510Y-58486478D01*
X117890600Y-58662936D01*
X117890609Y-58662939D01*
X117890620Y-58662944D01*
X118251738Y-58792154D01*
X118279189Y-58801976D01*
X118679535Y-58902257D01*
X119087782Y-58962815D01*
X119396879Y-58978000D01*
X124711834Y-58978000D01*
X124778873Y-58997685D01*
X124799515Y-59014319D01*
X124913781Y-59128585D01*
X124947266Y-59189908D01*
X124950100Y-59216266D01*
X124950100Y-65875500D01*
X124930415Y-65942539D01*
X124877611Y-65988294D01*
X124826100Y-65999500D01*
X123496879Y-65999500D01*
X123187782Y-66014685D01*
X123187776Y-66014685D01*
X123187772Y-66014686D01*
X122779528Y-66075244D01*
X122561151Y-66129945D01*
X122379189Y-66175524D01*
X122379186Y-66175524D01*
X122379178Y-66175527D01*
X121990620Y-66314555D01*
X121990604Y-66314562D01*
X121617506Y-66491024D01*
X121263515Y-66703198D01*
X120932011Y-66949058D01*
X120626215Y-67226215D01*
X120349058Y-67532011D01*
X120103198Y-67863515D01*
X119891024Y-68217506D01*
X119714562Y-68590604D01*
X119714555Y-68590620D01*
X119575527Y-68979178D01*
X119475244Y-69379528D01*
X119428097Y-69697369D01*
X119414685Y-69787782D01*
X119394434Y-70200000D01*
X119414685Y-70612218D01*
X119414685Y-70612223D01*
X119414686Y-70612227D01*
X119475244Y-71020471D01*
X119575527Y-71420821D01*
X119714555Y-71809379D01*
X119714562Y-71809395D01*
X119714564Y-71809400D01*
X119891022Y-72182490D01*
X120103200Y-72536487D01*
X120340621Y-72856613D01*
X120349058Y-72867988D01*
X120626215Y-73173784D01*
X120852449Y-73378830D01*
X120932017Y-73450946D01*
X121263513Y-73696800D01*
X121617510Y-73908978D01*
X121990600Y-74085436D01*
X121990609Y-74085439D01*
X121990620Y-74085444D01*
X122351738Y-74214654D01*
X122379189Y-74224476D01*
X122779535Y-74324757D01*
X123187782Y-74385315D01*
X123496879Y-74400500D01*
X125686717Y-74400500D01*
X125753756Y-74420185D01*
X125799511Y-74472989D01*
X125810567Y-74518414D01*
X125814685Y-74602218D01*
X125814685Y-74602223D01*
X125814686Y-74602227D01*
X125875244Y-75010471D01*
X125975527Y-75410821D01*
X126114555Y-75799379D01*
X126114562Y-75799395D01*
X126114564Y-75799400D01*
X126291022Y-76172490D01*
X126503200Y-76526487D01*
X126716889Y-76814614D01*
X126749058Y-76857988D01*
X127026215Y-77163784D01*
X127332011Y-77440941D01*
X127332017Y-77440946D01*
X127663513Y-77686800D01*
X128017510Y-77898978D01*
X128390600Y-78075436D01*
X128390609Y-78075439D01*
X128390620Y-78075444D01*
X128628138Y-78160429D01*
X128779189Y-78214476D01*
X129179535Y-78314757D01*
X129587782Y-78375315D01*
X130000000Y-78395566D01*
X130412218Y-78375315D01*
X130820465Y-78314757D01*
X131220811Y-78214476D01*
X131486250Y-78119500D01*
X131609379Y-78075444D01*
X131609385Y-78075441D01*
X131609400Y-78075436D01*
X131982490Y-77898978D01*
X132336487Y-77686800D01*
X132667983Y-77440946D01*
X132973784Y-77163784D01*
X133250946Y-76857983D01*
X133496800Y-76526487D01*
X133708978Y-76172490D01*
X133885436Y-75799400D01*
X134024476Y-75410811D01*
X134124757Y-75010465D01*
X134185315Y-74602218D01*
X134200500Y-74293121D01*
X134200500Y-71154047D01*
X134200575Y-71151006D01*
X134203105Y-71099500D01*
X134205566Y-71049400D01*
X134185315Y-70637183D01*
X134179735Y-70599569D01*
X134124757Y-70228935D01*
X134117510Y-70200004D01*
X137894732Y-70200004D01*
X137913777Y-70454154D01*
X137955552Y-70637184D01*
X137970492Y-70702637D01*
X138063607Y-70939888D01*
X138191041Y-71160612D01*
X138349950Y-71359877D01*
X138536783Y-71533232D01*
X138747366Y-71676805D01*
X138747371Y-71676807D01*
X138747372Y-71676808D01*
X138747373Y-71676809D01*
X138869328Y-71735538D01*
X138976992Y-71787387D01*
X138976993Y-71787387D01*
X138976996Y-71787389D01*
X139220542Y-71862513D01*
X139472565Y-71900500D01*
X139727435Y-71900500D01*
X139979458Y-71862513D01*
X140223004Y-71787389D01*
X140452634Y-71676805D01*
X140663217Y-71533232D01*
X140850050Y-71359877D01*
X141008959Y-71160612D01*
X141136393Y-70939888D01*
X141229508Y-70702637D01*
X141272649Y-70513621D01*
X141305856Y-70453535D01*
X145581463Y-66177928D01*
X145642784Y-66144445D01*
X145709000Y-66148192D01*
X145940796Y-66226876D01*
X145940800Y-66226877D01*
X145940809Y-66226880D01*
X146140751Y-66266651D01*
X146236569Y-66285711D01*
X146236570Y-66285711D01*
X146236580Y-66285713D01*
X146537500Y-66305436D01*
X146838420Y-66285713D01*
X147134191Y-66226880D01*
X147419752Y-66129945D01*
X147690218Y-65996566D01*
X147940961Y-65829025D01*
X148167689Y-65630189D01*
X148366525Y-65403461D01*
X148534066Y-65152718D01*
X148667445Y-64882252D01*
X148764380Y-64596691D01*
X148823213Y-64300920D01*
X148842936Y-64000000D01*
X166732064Y-64000000D01*
X166751787Y-64300918D01*
X166751788Y-64300930D01*
X166810618Y-64596683D01*
X166810622Y-64596698D01*
X166907553Y-64882247D01*
X166907562Y-64882268D01*
X167040931Y-65152713D01*
X167040935Y-65152720D01*
X167208473Y-65403459D01*
X167407310Y-65630189D01*
X167634040Y-65829026D01*
X167884779Y-65996564D01*
X167884786Y-65996568D01*
X168155231Y-66129937D01*
X168155236Y-66129939D01*
X168155248Y-66129945D01*
X168440809Y-66226880D01*
X168640751Y-66266651D01*
X168736569Y-66285711D01*
X168736570Y-66285711D01*
X168736580Y-66285713D01*
X169037500Y-66305436D01*
X169338420Y-66285713D01*
X169634191Y-66226880D01*
X169919752Y-66129945D01*
X170190218Y-65996566D01*
X170440961Y-65829025D01*
X170667689Y-65630189D01*
X170866525Y-65403461D01*
X171034066Y-65152718D01*
X171167445Y-64882252D01*
X171264380Y-64596691D01*
X171323213Y-64300920D01*
X171342936Y-64000000D01*
X171323213Y-63699080D01*
X171264380Y-63403309D01*
X171167445Y-63117748D01*
X171034066Y-62847282D01*
X170866525Y-62596539D01*
X170667689Y-62369810D01*
X170465241Y-62192267D01*
X170427817Y-62133265D01*
X170423000Y-62099039D01*
X170423000Y-58574654D01*
X170442685Y-58507615D01*
X170459314Y-58486978D01*
X174447130Y-54499161D01*
X174449957Y-54496509D01*
X174503886Y-54449047D01*
X174568336Y-54369225D01*
X174569093Y-54368309D01*
X174635263Y-54289828D01*
X174638079Y-54285027D01*
X174648549Y-54269884D01*
X174652050Y-54265550D01*
X174702060Y-54176026D01*
X174702702Y-54174905D01*
X174754627Y-54086421D01*
X174754629Y-54086418D01*
X174756592Y-54081213D01*
X174764362Y-54064499D01*
X174767071Y-54059652D01*
X174801252Y-53962904D01*
X174801662Y-53961785D01*
X174837901Y-53865761D01*
X174838959Y-53860289D01*
X174843785Y-53842528D01*
X174845641Y-53837278D01*
X174862972Y-53736197D01*
X174863204Y-53734929D01*
X174882685Y-53634205D01*
X174882803Y-53628632D01*
X174884559Y-53610310D01*
X174885499Y-53604826D01*
X174885500Y-53604823D01*
X174885500Y-53502267D01*
X174885514Y-53500951D01*
X174887316Y-53416067D01*
X174887691Y-53398411D01*
X174887690Y-53398407D01*
X174887763Y-53394992D01*
X174908866Y-53328385D01*
X174962629Y-53283761D01*
X174974829Y-53279243D01*
X175089606Y-53243478D01*
X175235185Y-53155472D01*
X175355472Y-53035185D01*
X175443478Y-52889606D01*
X175494086Y-52727196D01*
X175500500Y-52656616D01*
X175500500Y-49943384D01*
X175494086Y-49872804D01*
X175443478Y-49710394D01*
X175355472Y-49564815D01*
X175355470Y-49564813D01*
X175355469Y-49564811D01*
X175235188Y-49444530D01*
X175089606Y-49356522D01*
X175089605Y-49356522D01*
X174927196Y-49305914D01*
X174927194Y-49305913D01*
X174927192Y-49305913D01*
X174877778Y-49301423D01*
X174856616Y-49299500D01*
X172143384Y-49299500D01*
X172124145Y-49301248D01*
X172072807Y-49305913D01*
X171910393Y-49356522D01*
X171764811Y-49444530D01*
X171644530Y-49564811D01*
X171556522Y-49710393D01*
X171505913Y-49872807D01*
X171499500Y-49943386D01*
X171499500Y-52656613D01*
X171505913Y-52727192D01*
X171505913Y-52727194D01*
X171505914Y-52727196D01*
X171540348Y-52837700D01*
X171556522Y-52889606D01*
X171644530Y-53035188D01*
X171730743Y-53121401D01*
X171764228Y-53182724D01*
X171759244Y-53252416D01*
X171730743Y-53296763D01*
X168090398Y-56937108D01*
X168087519Y-56939809D01*
X168033614Y-56987252D01*
X168033612Y-56987254D01*
X167969198Y-57067027D01*
X167968362Y-57068040D01*
X167902235Y-57146473D01*
X167899414Y-57151282D01*
X167888953Y-57166410D01*
X167885453Y-57170745D01*
X167835435Y-57260277D01*
X167834782Y-57261417D01*
X167782871Y-57349880D01*
X167780900Y-57355105D01*
X167773148Y-57371779D01*
X167770429Y-57376646D01*
X167770428Y-57376648D01*
X167736262Y-57473346D01*
X167735811Y-57474581D01*
X167699599Y-57570538D01*
X167699596Y-57570546D01*
X167698538Y-57576019D01*
X167693716Y-57593764D01*
X167691859Y-57599019D01*
X167674524Y-57700112D01*
X167674288Y-57701405D01*
X167654815Y-57802093D01*
X167654814Y-57802098D01*
X167654696Y-57807674D01*
X167652943Y-57825974D01*
X167652000Y-57831477D01*
X167652000Y-57934032D01*
X167651986Y-57935348D01*
X167649808Y-58037887D01*
X167650634Y-58043401D01*
X167652000Y-58061755D01*
X167652000Y-62099039D01*
X167632315Y-62166078D01*
X167609759Y-62192267D01*
X167407310Y-62369810D01*
X167208473Y-62596540D01*
X167040935Y-62847279D01*
X167040931Y-62847286D01*
X166907562Y-63117731D01*
X166907553Y-63117752D01*
X166810622Y-63403301D01*
X166810618Y-63403316D01*
X166751788Y-63699069D01*
X166751787Y-63699081D01*
X166732064Y-64000000D01*
X148842936Y-64000000D01*
X148823213Y-63699080D01*
X148764380Y-63403309D01*
X148667445Y-63117748D01*
X148534066Y-62847282D01*
X148366525Y-62596539D01*
X148167689Y-62369810D01*
X147940959Y-62170973D01*
X147690220Y-62003435D01*
X147690213Y-62003431D01*
X147419768Y-61870062D01*
X147419747Y-61870053D01*
X147134198Y-61773122D01*
X147134192Y-61773120D01*
X147134191Y-61773120D01*
X147134189Y-61773119D01*
X147134183Y-61773118D01*
X146838430Y-61714288D01*
X146838421Y-61714287D01*
X146838420Y-61714287D01*
X146537500Y-61694564D01*
X146537499Y-61694564D01*
X146387039Y-61704425D01*
X146236580Y-61714287D01*
X146236579Y-61714287D01*
X146236569Y-61714288D01*
X145940816Y-61773118D01*
X145940801Y-61773122D01*
X145655252Y-61870053D01*
X145655231Y-61870062D01*
X145384786Y-62003431D01*
X145384779Y-62003435D01*
X145134040Y-62170973D01*
X144907310Y-62369810D01*
X144708473Y-62596540D01*
X144540935Y-62847279D01*
X144540931Y-62847286D01*
X144407562Y-63117731D01*
X144407553Y-63117752D01*
X144310622Y-63403301D01*
X144310619Y-63403313D01*
X144286503Y-63524549D01*
X144254118Y-63586460D01*
X144252567Y-63588038D01*
X139346627Y-68493978D01*
X139285304Y-68527463D01*
X139277430Y-68528912D01*
X139220535Y-68537488D01*
X138976992Y-68612612D01*
X138747373Y-68723190D01*
X138747372Y-68723191D01*
X138536782Y-68866768D01*
X138349952Y-69040121D01*
X138349950Y-69040123D01*
X138191042Y-69239387D01*
X138063608Y-69460109D01*
X137970492Y-69697362D01*
X137970490Y-69697369D01*
X137913777Y-69945845D01*
X137894732Y-70199995D01*
X137894732Y-70200004D01*
X134117510Y-70200004D01*
X134024476Y-69828589D01*
X133977525Y-69697369D01*
X133885444Y-69440020D01*
X133885434Y-69439996D01*
X133790554Y-69239388D01*
X133790553Y-69239387D01*
X133708978Y-69066909D01*
X133502963Y-68723195D01*
X133496798Y-68712909D01*
X133375502Y-68549360D01*
X133351378Y-68483788D01*
X133351100Y-68475494D01*
X133351100Y-64000000D01*
X133351100Y-59216261D01*
X133370784Y-59149226D01*
X133387410Y-59128593D01*
X133501686Y-59014318D01*
X133563009Y-58980834D01*
X133589366Y-58978000D01*
X136603107Y-58978000D01*
X136603121Y-58978000D01*
X136912218Y-58962815D01*
X137320465Y-58902257D01*
X137720811Y-58801976D01*
X137901380Y-58737366D01*
X138109379Y-58662944D01*
X138109385Y-58662941D01*
X138109400Y-58662936D01*
X138482490Y-58486478D01*
X138836487Y-58274300D01*
X139167983Y-58028446D01*
X139473784Y-57751284D01*
X139750946Y-57445483D01*
X139996800Y-57113987D01*
X139996801Y-57113984D01*
X139998613Y-57111542D01*
X139999381Y-57112112D01*
X140049973Y-57069814D01*
X140119296Y-57061093D01*
X140177847Y-57087398D01*
X140224249Y-57125234D01*
X140395594Y-57214737D01*
X140581448Y-57267917D01*
X140694862Y-57278000D01*
X140862623Y-57278000D01*
X140929662Y-57297685D01*
X140962220Y-57328133D01*
X141049252Y-57445481D01*
X141326415Y-57751284D01*
X141632211Y-58028441D01*
X141632213Y-58028442D01*
X141632217Y-58028446D01*
X141963713Y-58274300D01*
X142317710Y-58486478D01*
X142690800Y-58662936D01*
X142690809Y-58662939D01*
X142690820Y-58662944D01*
X143051938Y-58792154D01*
X143079389Y-58801976D01*
X143479735Y-58902257D01*
X143887982Y-58962815D01*
X144197079Y-58978000D01*
X146817851Y-58978000D01*
X146820893Y-58978075D01*
X146862911Y-58980138D01*
X146922500Y-58983066D01*
X147025620Y-58978000D01*
X147025621Y-58978000D01*
X147334718Y-58962815D01*
X147742965Y-58902257D01*
X148143311Y-58801976D01*
X148531900Y-58662936D01*
X148568108Y-58645811D01*
X148904991Y-58486478D01*
X149258987Y-58274300D01*
X149590482Y-58028447D01*
X149819784Y-57820620D01*
X149819786Y-57820617D01*
X149823444Y-57817302D01*
X149823449Y-57817296D01*
X149896284Y-57751284D01*
X149964617Y-57675889D01*
X149966688Y-57673715D01*
X154145895Y-53494507D01*
X154179503Y-53470600D01*
X154292057Y-53416067D01*
X154537699Y-53253414D01*
X154759471Y-53059471D01*
X154953414Y-52837699D01*
X155116067Y-52592057D01*
X155244528Y-52326926D01*
X155291177Y-52184966D01*
X155302614Y-52159945D01*
X155408978Y-51982491D01*
X155585436Y-51609401D01*
X155724475Y-51220812D01*
X155824757Y-50820465D01*
X155885315Y-50412217D01*
X155905565Y-50000000D01*
X155885315Y-49587783D01*
X155824757Y-49179535D01*
X155724475Y-48779189D01*
X155585436Y-48390600D01*
X155408978Y-48017510D01*
X155302618Y-47840061D01*
X155291175Y-47815024D01*
X155244531Y-47673083D01*
X155244530Y-47673082D01*
X155244528Y-47673074D01*
X155116067Y-47407943D01*
X154953414Y-47162301D01*
X154910165Y-47112846D01*
X154759471Y-46940528D01*
X154537700Y-46746587D01*
X154537699Y-46746586D01*
X154292057Y-46583933D01*
X154292055Y-46583932D01*
X154292052Y-46583930D01*
X154026930Y-46455474D01*
X154026926Y-46455472D01*
X154026922Y-46455470D01*
X154026918Y-46455469D01*
X153884973Y-46408823D01*
X153859936Y-46397379D01*
X153682493Y-46291024D01*
X153682494Y-46291024D01*
X153682490Y-46291022D01*
X153309400Y-46114564D01*
X153309380Y-46114556D01*
X152920821Y-45975528D01*
X152920815Y-45975526D01*
X152920811Y-45975525D01*
X152520465Y-45875243D01*
X152520464Y-45875242D01*
X152520461Y-45875242D01*
X152112225Y-45814686D01*
X152112223Y-45814685D01*
X152112217Y-45814685D01*
X151700000Y-45794435D01*
X151287783Y-45814685D01*
X151287777Y-45814685D01*
X151287774Y-45814686D01*
X150879538Y-45875242D01*
X150677773Y-45925781D01*
X150479188Y-45975525D01*
X150479185Y-45975525D01*
X150479177Y-45975528D01*
X150090618Y-46114556D01*
X150090598Y-46114564D01*
X149717504Y-46291024D01*
X149540060Y-46397380D01*
X149515025Y-46408823D01*
X149373077Y-46455470D01*
X149373069Y-46455474D01*
X149107947Y-46583930D01*
X148862299Y-46746587D01*
X148640528Y-46940528D01*
X148446587Y-47162299D01*
X148446586Y-47162301D01*
X148283933Y-47407943D01*
X148245525Y-47487211D01*
X148229399Y-47520494D01*
X148205489Y-47554105D01*
X145218915Y-50540681D01*
X145157592Y-50574166D01*
X145131234Y-50577000D01*
X144197079Y-50577000D01*
X143887982Y-50592185D01*
X143887976Y-50592185D01*
X143887972Y-50592186D01*
X143479728Y-50652744D01*
X143177516Y-50728444D01*
X143079389Y-50753024D01*
X143079386Y-50753024D01*
X143079378Y-50753027D01*
X142690820Y-50892055D01*
X142690804Y-50892062D01*
X142317706Y-51068524D01*
X141963715Y-51280698D01*
X141632211Y-51526558D01*
X141326415Y-51803715D01*
X141049252Y-52109518D01*
X140962220Y-52226867D01*
X140906474Y-52268987D01*
X140862623Y-52277000D01*
X140694862Y-52277000D01*
X140682599Y-52278090D01*
X140581451Y-52287082D01*
X140395594Y-52340262D01*
X140224250Y-52429765D01*
X140177847Y-52467602D01*
X140113451Y-52494711D01*
X140044621Y-52482702D01*
X139999304Y-52442944D01*
X139998613Y-52443458D01*
X139996800Y-52441013D01*
X139750946Y-52109517D01*
X139750941Y-52109511D01*
X139473784Y-51803715D01*
X139167988Y-51526558D01*
X139106158Y-51480702D01*
X138836487Y-51280700D01*
X138482490Y-51068522D01*
X138109400Y-50892064D01*
X138109396Y-50892062D01*
X138109395Y-50892062D01*
X138109379Y-50892055D01*
X137720821Y-50753027D01*
X137720815Y-50753025D01*
X137720811Y-50753024D01*
X137522205Y-50703276D01*
X137320471Y-50652744D01*
X137320466Y-50652743D01*
X137320465Y-50652743D01*
X137219577Y-50637777D01*
X136912227Y-50592186D01*
X136912223Y-50592185D01*
X136912218Y-50592185D01*
X136603121Y-50577000D01*
X136603107Y-50577000D01*
X131902734Y-50577000D01*
X131899692Y-50576925D01*
X131804997Y-50572273D01*
X131798100Y-50571935D01*
X131798099Y-50571935D01*
X131696507Y-50576924D01*
X131696499Y-50576926D01*
X131694993Y-50577000D01*
X131694979Y-50577000D01*
X131385882Y-50592185D01*
X131385876Y-50592185D01*
X131385872Y-50592186D01*
X130977628Y-50652744D01*
X130676006Y-50728296D01*
X130577289Y-50753024D01*
X130577286Y-50753024D01*
X130577282Y-50753026D01*
X130388804Y-50820465D01*
X130188718Y-50892056D01*
X130188698Y-50892064D01*
X129815605Y-51068524D01*
X129461608Y-51280701D01*
X129224465Y-51456578D01*
X129158892Y-51480702D01*
X129090687Y-51465546D01*
X129076733Y-51456578D01*
X128839590Y-51280701D01*
X128485598Y-51068526D01*
X128485594Y-51068524D01*
X128485591Y-51068522D01*
X128112500Y-50892064D01*
X127912384Y-50820461D01*
X127723917Y-50753026D01*
X127723915Y-50753025D01*
X127723911Y-50753024D01*
X127524911Y-50703177D01*
X127323571Y-50652744D01*
X127323566Y-50652743D01*
X127323565Y-50652743D01*
X127117466Y-50622171D01*
X126915328Y-50592186D01*
X126915323Y-50592185D01*
X126915318Y-50592185D01*
X126606221Y-50577000D01*
X126606220Y-50577000D01*
X126606217Y-50576999D01*
X126508716Y-50572209D01*
X126503100Y-50571934D01*
X126503099Y-50571934D01*
X126401493Y-50576925D01*
X126398451Y-50577000D01*
X119396879Y-50577000D01*
X119087782Y-50592185D01*
X119087776Y-50592185D01*
X119087772Y-50592186D01*
X118679528Y-50652744D01*
X118377316Y-50728444D01*
X118279189Y-50753024D01*
X118279186Y-50753024D01*
X118279178Y-50753027D01*
X117890620Y-50892055D01*
X117890604Y-50892062D01*
X117517506Y-51068524D01*
X117163515Y-51280698D01*
X116832011Y-51526558D01*
X116526215Y-51803715D01*
X116421378Y-51919386D01*
X116361772Y-51955840D01*
X116291919Y-51954281D01*
X116233999Y-51915205D01*
X116206399Y-51851017D01*
X116205500Y-51836113D01*
X116205500Y-49814785D01*
X123206642Y-49814785D01*
X123206643Y-49814786D01*
X131914785Y-49814786D01*
X131914786Y-49814786D01*
X131914786Y-45735214D01*
X123206643Y-45735214D01*
X123206642Y-49814785D01*
X116205500Y-49814785D01*
X116205500Y-44424026D01*
X116205500Y-44424000D01*
X116204979Y-44388553D01*
X116177948Y-44167742D01*
X116174275Y-44150858D01*
X116179258Y-44081169D01*
X116221128Y-44025234D01*
X116286592Y-44000816D01*
X116295441Y-44000500D01*
X177875500Y-44000500D01*
X177942539Y-44020185D01*
G37*
%TD.AperFunction*%
%TD*%
%TA.AperFunction,Conductor*%
%TO.N,Net-(J10-Pin_2)*%
G36*
X114943039Y-44319685D02*
G01*
X114988794Y-44372489D01*
X115000000Y-44424000D01*
X115000000Y-53392297D01*
X114993572Y-53431702D01*
X114974112Y-53489764D01*
X114974105Y-53489786D01*
X114874600Y-53912857D01*
X114874598Y-53912865D01*
X114814553Y-54343318D01*
X114814552Y-54343323D01*
X114814552Y-54343329D01*
X114794479Y-54777500D01*
X114814552Y-55211671D01*
X114814552Y-55211676D01*
X114814553Y-55211681D01*
X114874598Y-55642134D01*
X114874600Y-55642142D01*
X114974108Y-56065224D01*
X115095362Y-56426998D01*
X115101491Y-56457792D01*
X116100000Y-70800001D01*
X116100000Y-70800002D01*
X117824299Y-77204540D01*
X117822720Y-77274392D01*
X117792244Y-77324458D01*
X117596222Y-77520480D01*
X117596215Y-77520488D01*
X117352122Y-77821917D01*
X117140877Y-78147206D01*
X116964787Y-78492802D01*
X116825788Y-78854905D01*
X116725397Y-79229570D01*
X116725397Y-79229572D01*
X116664722Y-79612662D01*
X116644422Y-80000000D01*
X116664722Y-80387338D01*
X116725398Y-80770433D01*
X116769063Y-80933395D01*
X116825788Y-81145094D01*
X116964787Y-81507197D01*
X117140877Y-81852793D01*
X117352122Y-82178082D01*
X117352124Y-82178084D01*
X117596219Y-82479516D01*
X117870484Y-82753781D01*
X117870488Y-82753784D01*
X118171917Y-82997877D01*
X118365198Y-83123395D01*
X118497211Y-83209125D01*
X118842806Y-83385214D01*
X119204913Y-83524214D01*
X119481639Y-83598362D01*
X119541298Y-83634726D01*
X119569280Y-83685899D01*
X120995735Y-88984162D01*
X120999999Y-89016399D01*
X121000000Y-91075500D01*
X120980315Y-91142539D01*
X120927512Y-91188294D01*
X120876000Y-91199500D01*
X119247444Y-91199500D01*
X119247421Y-91199501D01*
X119147468Y-91205706D01*
X118912199Y-91255037D01*
X118912189Y-91255040D01*
X118688265Y-91342416D01*
X118481754Y-91465470D01*
X118298326Y-91620826D01*
X118142970Y-91804254D01*
X118019916Y-92010765D01*
X117932540Y-92234689D01*
X117932537Y-92234699D01*
X117883206Y-92469967D01*
X117883205Y-92469970D01*
X117877000Y-92569922D01*
X117877000Y-94230055D01*
X117877001Y-94230078D01*
X117883206Y-94330031D01*
X117932537Y-94565300D01*
X117932540Y-94565310D01*
X118019916Y-94789234D01*
X118019918Y-94789238D01*
X118086857Y-94901576D01*
X118142970Y-94995745D01*
X118298326Y-95179173D01*
X118481754Y-95334529D01*
X118481758Y-95334531D01*
X118481760Y-95334533D01*
X118688262Y-95457582D01*
X118688265Y-95457583D01*
X118912189Y-95544959D01*
X118912196Y-95544961D01*
X118912201Y-95544963D01*
X119147469Y-95594294D01*
X119247431Y-95600500D01*
X120875999Y-95600499D01*
X120943038Y-95620184D01*
X120988793Y-95672987D01*
X120999999Y-95724499D01*
X120999999Y-120975500D01*
X120980314Y-121042539D01*
X120927510Y-121088294D01*
X120875999Y-121099500D01*
X118847444Y-121099500D01*
X118847421Y-121099501D01*
X118747468Y-121105706D01*
X118512199Y-121155037D01*
X118512189Y-121155040D01*
X118288265Y-121242416D01*
X118081754Y-121365470D01*
X117898326Y-121520826D01*
X117742970Y-121704254D01*
X117619916Y-121910765D01*
X117532540Y-122134689D01*
X117532537Y-122134699D01*
X117483206Y-122369967D01*
X117483205Y-122369970D01*
X117477000Y-122469922D01*
X117477000Y-124130055D01*
X117477001Y-124130078D01*
X117483206Y-124230031D01*
X117532537Y-124465300D01*
X117532540Y-124465310D01*
X117619916Y-124689234D01*
X117742970Y-124895745D01*
X117898326Y-125079173D01*
X118081754Y-125234529D01*
X118081758Y-125234531D01*
X118081760Y-125234533D01*
X118288262Y-125357582D01*
X118288265Y-125357583D01*
X118512189Y-125444959D01*
X118512196Y-125444961D01*
X118512201Y-125444963D01*
X118747469Y-125494294D01*
X118847431Y-125500500D01*
X120646031Y-125500499D01*
X120713070Y-125520184D01*
X120733712Y-125536818D01*
X120963682Y-125766788D01*
X120997166Y-125828109D01*
X121000000Y-125854467D01*
X121000000Y-131600000D01*
X120999999Y-131600000D01*
X124592563Y-134294422D01*
X128200000Y-137000000D01*
X158399996Y-137100000D01*
X158399996Y-137099999D01*
X158400000Y-137100000D01*
X167000000Y-131900000D01*
X167000000Y-131424499D01*
X167019685Y-131357460D01*
X167072489Y-131311705D01*
X167123997Y-131300499D01*
X169030068Y-131300499D01*
X169130031Y-131294294D01*
X169365299Y-131244963D01*
X169365306Y-131244959D01*
X169365310Y-131244959D01*
X169442016Y-131215027D01*
X169589238Y-131157582D01*
X169795740Y-131034533D01*
X169979173Y-130879173D01*
X170134533Y-130695740D01*
X170257582Y-130489238D01*
X170344963Y-130265299D01*
X170394294Y-130030031D01*
X170400500Y-129930069D01*
X170400499Y-128269932D01*
X170394294Y-128169969D01*
X170344963Y-127934701D01*
X170344961Y-127934696D01*
X170344959Y-127934689D01*
X170257583Y-127710765D01*
X170257582Y-127710762D01*
X170134533Y-127504260D01*
X170134531Y-127504258D01*
X170134529Y-127504254D01*
X169979173Y-127320826D01*
X169795745Y-127165470D01*
X169639057Y-127072104D01*
X169589238Y-127042418D01*
X169589236Y-127042417D01*
X169589234Y-127042416D01*
X169365310Y-126955040D01*
X169365300Y-126955037D01*
X169130032Y-126905706D01*
X169130029Y-126905705D01*
X169030077Y-126899500D01*
X167124000Y-126899500D01*
X167056961Y-126879815D01*
X167011206Y-126827011D01*
X167000000Y-126775500D01*
X167000000Y-99924499D01*
X167019685Y-99857460D01*
X167072489Y-99811705D01*
X167123997Y-99800499D01*
X169152568Y-99800499D01*
X169252531Y-99794294D01*
X169487799Y-99744963D01*
X169487806Y-99744959D01*
X169487810Y-99744959D01*
X169564516Y-99715027D01*
X169711738Y-99657582D01*
X169918240Y-99534533D01*
X170101673Y-99379173D01*
X170257033Y-99195740D01*
X170380082Y-98989238D01*
X170467463Y-98765299D01*
X170516794Y-98530031D01*
X170523000Y-98430069D01*
X170522999Y-96769932D01*
X170516794Y-96669969D01*
X170467463Y-96434701D01*
X170467461Y-96434696D01*
X170467459Y-96434689D01*
X170380083Y-96210765D01*
X170380082Y-96210762D01*
X170257033Y-96004260D01*
X170257031Y-96004258D01*
X170257029Y-96004254D01*
X170101673Y-95820826D01*
X169918245Y-95665470D01*
X169918240Y-95665467D01*
X169711738Y-95542418D01*
X169711736Y-95542417D01*
X169711734Y-95542416D01*
X169487810Y-95455040D01*
X169487800Y-95455037D01*
X169252532Y-95405706D01*
X169252529Y-95405705D01*
X169152577Y-95399500D01*
X169152569Y-95399500D01*
X167353968Y-95399500D01*
X167286929Y-95379815D01*
X167266287Y-95363181D01*
X167036319Y-95133213D01*
X167002834Y-95071890D01*
X167000000Y-95045532D01*
X167000000Y-83124000D01*
X167019685Y-83056961D01*
X167072489Y-83011206D01*
X167124000Y-83000000D01*
X167138457Y-83000000D01*
X167205496Y-83019685D01*
X167205942Y-83019973D01*
X167497211Y-83209125D01*
X167842806Y-83385214D01*
X168204913Y-83524214D01*
X168579567Y-83624602D01*
X168962662Y-83685278D01*
X169328576Y-83704455D01*
X169349999Y-83705578D01*
X169350000Y-83705578D01*
X169350001Y-83705578D01*
X169370300Y-83704514D01*
X169737338Y-83685278D01*
X170120433Y-83624602D01*
X170495087Y-83524214D01*
X170857194Y-83385214D01*
X171202789Y-83209125D01*
X171494008Y-83020004D01*
X171560953Y-83000001D01*
X171561543Y-83000000D01*
X177175357Y-83000000D01*
X177242396Y-83019685D01*
X177288151Y-83072489D01*
X177299355Y-83124641D01*
X177000638Y-140876641D01*
X176980607Y-140943578D01*
X176927567Y-140989059D01*
X176876640Y-141000000D01*
X171875626Y-141000000D01*
X171808587Y-140980315D01*
X171762832Y-140927511D01*
X171752888Y-140858353D01*
X171781913Y-140794797D01*
X171797591Y-140779634D01*
X171829502Y-140753792D01*
X171829516Y-140753781D01*
X172103781Y-140479516D01*
X172347876Y-140178084D01*
X172559125Y-139852789D01*
X172735214Y-139507194D01*
X172874214Y-139145087D01*
X172974602Y-138770433D01*
X173035278Y-138387338D01*
X173055578Y-138000000D01*
X173035278Y-137612662D01*
X172974602Y-137229567D01*
X172874214Y-136854913D01*
X172735214Y-136492806D01*
X172559125Y-136147211D01*
X172347876Y-135821916D01*
X172103781Y-135520484D01*
X171829516Y-135246219D01*
X171528084Y-135002124D01*
X171528082Y-135002122D01*
X171202793Y-134790877D01*
X170857197Y-134614787D01*
X170495094Y-134475788D01*
X170495087Y-134475786D01*
X170120433Y-134375398D01*
X170120429Y-134375397D01*
X170120428Y-134375397D01*
X169737339Y-134314722D01*
X169350001Y-134294422D01*
X169349999Y-134294422D01*
X168962660Y-134314722D01*
X168579572Y-134375397D01*
X168579570Y-134375397D01*
X168204905Y-134475788D01*
X167842802Y-134614787D01*
X167497206Y-134790877D01*
X167171917Y-135002122D01*
X166870488Y-135246215D01*
X166870480Y-135246222D01*
X166596222Y-135520480D01*
X166596215Y-135520488D01*
X166352122Y-135821917D01*
X166140877Y-136147206D01*
X165964787Y-136492802D01*
X165825788Y-136854905D01*
X165725397Y-137229570D01*
X165725397Y-137229572D01*
X165664722Y-137612660D01*
X165644422Y-137999999D01*
X165644422Y-138000000D01*
X165664722Y-138387339D01*
X165725397Y-138770427D01*
X165725397Y-138770429D01*
X165825788Y-139145094D01*
X165964787Y-139507197D01*
X166140877Y-139852793D01*
X166352122Y-140178082D01*
X166352124Y-140178084D01*
X166596219Y-140479516D01*
X166870484Y-140753781D01*
X166870490Y-140753786D01*
X166870497Y-140753792D01*
X166902409Y-140779634D01*
X166942121Y-140837120D01*
X166944449Y-140906951D01*
X166908654Y-140966955D01*
X166846101Y-140998082D01*
X166824374Y-141000000D01*
X122875626Y-141000000D01*
X122808587Y-140980315D01*
X122762832Y-140927511D01*
X122752888Y-140858353D01*
X122781913Y-140794797D01*
X122797591Y-140779634D01*
X122829502Y-140753792D01*
X122829516Y-140753781D01*
X123103781Y-140479516D01*
X123347876Y-140178084D01*
X123559125Y-139852789D01*
X123735214Y-139507194D01*
X123874214Y-139145087D01*
X123974602Y-138770433D01*
X124035278Y-138387338D01*
X124055578Y-138000000D01*
X124035278Y-137612662D01*
X123974602Y-137229567D01*
X123874214Y-136854913D01*
X123735214Y-136492806D01*
X123559125Y-136147211D01*
X123347876Y-135821916D01*
X123103781Y-135520484D01*
X122829516Y-135246219D01*
X122528084Y-135002124D01*
X122528082Y-135002122D01*
X122202793Y-134790877D01*
X121857197Y-134614787D01*
X121495094Y-134475788D01*
X121495087Y-134475786D01*
X121120433Y-134375398D01*
X121120429Y-134375397D01*
X121120428Y-134375397D01*
X120737339Y-134314722D01*
X120350001Y-134294422D01*
X120349999Y-134294422D01*
X119962660Y-134314722D01*
X119579572Y-134375397D01*
X119579570Y-134375397D01*
X119204905Y-134475788D01*
X118842802Y-134614787D01*
X118497206Y-134790877D01*
X118171917Y-135002122D01*
X117870488Y-135246215D01*
X117870480Y-135246222D01*
X117596222Y-135520480D01*
X117596215Y-135520488D01*
X117352122Y-135821917D01*
X117140877Y-136147206D01*
X116964787Y-136492802D01*
X116825788Y-136854905D01*
X116725397Y-137229570D01*
X116725397Y-137229572D01*
X116664722Y-137612660D01*
X116644422Y-137999999D01*
X116644422Y-138000000D01*
X116664722Y-138387339D01*
X116725397Y-138770427D01*
X116725397Y-138770429D01*
X116825788Y-139145094D01*
X116964787Y-139507197D01*
X117140877Y-139852793D01*
X117352122Y-140178082D01*
X117352124Y-140178084D01*
X117596219Y-140479516D01*
X117870484Y-140753781D01*
X117870490Y-140753786D01*
X117870497Y-140753792D01*
X117902409Y-140779634D01*
X117942121Y-140837120D01*
X117944449Y-140906951D01*
X117908654Y-140966955D01*
X117846101Y-140998082D01*
X117824374Y-141000000D01*
X111123106Y-141000000D01*
X111056067Y-140980315D01*
X111010312Y-140927511D01*
X110999109Y-140876898D01*
X110581042Y-83124000D01*
X110300904Y-44424897D01*
X110320103Y-44357717D01*
X110372574Y-44311581D01*
X110424901Y-44300000D01*
X114876000Y-44300000D01*
X114943039Y-44319685D01*
G37*
%TD.AperFunction*%
%TD*%
D36*
%TO.C,U4*%
X131220095Y-57719419D02*
X131220095Y-58528942D01*
X131220095Y-58528942D02*
X131267714Y-58624180D01*
X131267714Y-58624180D02*
X131315333Y-58671800D01*
X131315333Y-58671800D02*
X131410571Y-58719419D01*
X131410571Y-58719419D02*
X131601047Y-58719419D01*
X131601047Y-58719419D02*
X131696285Y-58671800D01*
X131696285Y-58671800D02*
X131743904Y-58624180D01*
X131743904Y-58624180D02*
X131791523Y-58528942D01*
X131791523Y-58528942D02*
X131791523Y-57719419D01*
X132696285Y-58052752D02*
X132696285Y-58719419D01*
X132458190Y-57671800D02*
X132220095Y-58386085D01*
X132220095Y-58386085D02*
X132839142Y-58386085D01*
%TO.C,J1*%
X157888166Y-57615419D02*
X157888166Y-58329704D01*
X157888166Y-58329704D02*
X157840547Y-58472561D01*
X157840547Y-58472561D02*
X157745309Y-58567800D01*
X157745309Y-58567800D02*
X157602452Y-58615419D01*
X157602452Y-58615419D02*
X157507214Y-58615419D01*
X158888166Y-58615419D02*
X158316738Y-58615419D01*
X158602452Y-58615419D02*
X158602452Y-57615419D01*
X158602452Y-57615419D02*
X158507214Y-57758276D01*
X158507214Y-57758276D02*
X158411976Y-57853514D01*
X158411976Y-57853514D02*
X158316738Y-57901133D01*
D37*
%TO.C,M3*%
X168540476Y-76954819D02*
X168540476Y-75954819D01*
X168540476Y-75954819D02*
X168873809Y-76669104D01*
X168873809Y-76669104D02*
X169207142Y-75954819D01*
X169207142Y-75954819D02*
X169207142Y-76954819D01*
X169588095Y-75954819D02*
X170207142Y-75954819D01*
X170207142Y-75954819D02*
X169873809Y-76335771D01*
X169873809Y-76335771D02*
X170016666Y-76335771D01*
X170016666Y-76335771D02*
X170111904Y-76383390D01*
X170111904Y-76383390D02*
X170159523Y-76431009D01*
X170159523Y-76431009D02*
X170207142Y-76526247D01*
X170207142Y-76526247D02*
X170207142Y-76764342D01*
X170207142Y-76764342D02*
X170159523Y-76859580D01*
X170159523Y-76859580D02*
X170111904Y-76907200D01*
X170111904Y-76907200D02*
X170016666Y-76954819D01*
X170016666Y-76954819D02*
X169730952Y-76954819D01*
X169730952Y-76954819D02*
X169635714Y-76907200D01*
X169635714Y-76907200D02*
X169588095Y-76859580D01*
%TO.C,J3*%
X154966666Y-44154819D02*
X154966666Y-44869104D01*
X154966666Y-44869104D02*
X154919047Y-45011961D01*
X154919047Y-45011961D02*
X154823809Y-45107200D01*
X154823809Y-45107200D02*
X154680952Y-45154819D01*
X154680952Y-45154819D02*
X154585714Y-45154819D01*
X155347619Y-44154819D02*
X155966666Y-44154819D01*
X155966666Y-44154819D02*
X155633333Y-44535771D01*
X155633333Y-44535771D02*
X155776190Y-44535771D01*
X155776190Y-44535771D02*
X155871428Y-44583390D01*
X155871428Y-44583390D02*
X155919047Y-44631009D01*
X155919047Y-44631009D02*
X155966666Y-44726247D01*
X155966666Y-44726247D02*
X155966666Y-44964342D01*
X155966666Y-44964342D02*
X155919047Y-45059580D01*
X155919047Y-45059580D02*
X155871428Y-45107200D01*
X155871428Y-45107200D02*
X155776190Y-45154819D01*
X155776190Y-45154819D02*
X155490476Y-45154819D01*
X155490476Y-45154819D02*
X155395238Y-45107200D01*
X155395238Y-45107200D02*
X155347619Y-45059580D01*
%TO.C,J5*%
X116666666Y-57432319D02*
X116666666Y-58146604D01*
X116666666Y-58146604D02*
X116619047Y-58289461D01*
X116619047Y-58289461D02*
X116523809Y-58384700D01*
X116523809Y-58384700D02*
X116380952Y-58432319D01*
X116380952Y-58432319D02*
X116285714Y-58432319D01*
X117619047Y-57432319D02*
X117142857Y-57432319D01*
X117142857Y-57432319D02*
X117095238Y-57908509D01*
X117095238Y-57908509D02*
X117142857Y-57860890D01*
X117142857Y-57860890D02*
X117238095Y-57813271D01*
X117238095Y-57813271D02*
X117476190Y-57813271D01*
X117476190Y-57813271D02*
X117571428Y-57860890D01*
X117571428Y-57860890D02*
X117619047Y-57908509D01*
X117619047Y-57908509D02*
X117666666Y-58003747D01*
X117666666Y-58003747D02*
X117666666Y-58241842D01*
X117666666Y-58241842D02*
X117619047Y-58337080D01*
X117619047Y-58337080D02*
X117571428Y-58384700D01*
X117571428Y-58384700D02*
X117476190Y-58432319D01*
X117476190Y-58432319D02*
X117238095Y-58432319D01*
X117238095Y-58432319D02*
X117142857Y-58384700D01*
X117142857Y-58384700D02*
X117095238Y-58337080D01*
%TO.C,D1*%
X158591905Y-84854819D02*
X158591905Y-83854819D01*
X158591905Y-83854819D02*
X158830000Y-83854819D01*
X158830000Y-83854819D02*
X158972857Y-83902438D01*
X158972857Y-83902438D02*
X159068095Y-83997676D01*
X159068095Y-83997676D02*
X159115714Y-84092914D01*
X159115714Y-84092914D02*
X159163333Y-84283390D01*
X159163333Y-84283390D02*
X159163333Y-84426247D01*
X159163333Y-84426247D02*
X159115714Y-84616723D01*
X159115714Y-84616723D02*
X159068095Y-84711961D01*
X159068095Y-84711961D02*
X158972857Y-84807200D01*
X158972857Y-84807200D02*
X158830000Y-84854819D01*
X158830000Y-84854819D02*
X158591905Y-84854819D01*
X160115714Y-84854819D02*
X159544286Y-84854819D01*
X159830000Y-84854819D02*
X159830000Y-83854819D01*
X159830000Y-83854819D02*
X159734762Y-83997676D01*
X159734762Y-83997676D02*
X159639524Y-84092914D01*
X159639524Y-84092914D02*
X159544286Y-84140533D01*
%TO.C,D3*%
X128091905Y-107694819D02*
X128091905Y-106694819D01*
X128091905Y-106694819D02*
X128330000Y-106694819D01*
X128330000Y-106694819D02*
X128472857Y-106742438D01*
X128472857Y-106742438D02*
X128568095Y-106837676D01*
X128568095Y-106837676D02*
X128615714Y-106932914D01*
X128615714Y-106932914D02*
X128663333Y-107123390D01*
X128663333Y-107123390D02*
X128663333Y-107266247D01*
X128663333Y-107266247D02*
X128615714Y-107456723D01*
X128615714Y-107456723D02*
X128568095Y-107551961D01*
X128568095Y-107551961D02*
X128472857Y-107647200D01*
X128472857Y-107647200D02*
X128330000Y-107694819D01*
X128330000Y-107694819D02*
X128091905Y-107694819D01*
X128996667Y-106694819D02*
X129615714Y-106694819D01*
X129615714Y-106694819D02*
X129282381Y-107075771D01*
X129282381Y-107075771D02*
X129425238Y-107075771D01*
X129425238Y-107075771D02*
X129520476Y-107123390D01*
X129520476Y-107123390D02*
X129568095Y-107171009D01*
X129568095Y-107171009D02*
X129615714Y-107266247D01*
X129615714Y-107266247D02*
X129615714Y-107504342D01*
X129615714Y-107504342D02*
X129568095Y-107599580D01*
X129568095Y-107599580D02*
X129520476Y-107647200D01*
X129520476Y-107647200D02*
X129425238Y-107694819D01*
X129425238Y-107694819D02*
X129139524Y-107694819D01*
X129139524Y-107694819D02*
X129044286Y-107647200D01*
X129044286Y-107647200D02*
X128996667Y-107599580D01*
%TO.C,D4*%
X128391905Y-134454819D02*
X128391905Y-133454819D01*
X128391905Y-133454819D02*
X128630000Y-133454819D01*
X128630000Y-133454819D02*
X128772857Y-133502438D01*
X128772857Y-133502438D02*
X128868095Y-133597676D01*
X128868095Y-133597676D02*
X128915714Y-133692914D01*
X128915714Y-133692914D02*
X128963333Y-133883390D01*
X128963333Y-133883390D02*
X128963333Y-134026247D01*
X128963333Y-134026247D02*
X128915714Y-134216723D01*
X128915714Y-134216723D02*
X128868095Y-134311961D01*
X128868095Y-134311961D02*
X128772857Y-134407200D01*
X128772857Y-134407200D02*
X128630000Y-134454819D01*
X128630000Y-134454819D02*
X128391905Y-134454819D01*
X129820476Y-133788152D02*
X129820476Y-134454819D01*
X129582381Y-133407200D02*
X129344286Y-134121485D01*
X129344286Y-134121485D02*
X129963333Y-134121485D01*
%TO.C,J10*%
X170412976Y-86954819D02*
X170412976Y-87669104D01*
X170412976Y-87669104D02*
X170365357Y-87811961D01*
X170365357Y-87811961D02*
X170270119Y-87907200D01*
X170270119Y-87907200D02*
X170127262Y-87954819D01*
X170127262Y-87954819D02*
X170032024Y-87954819D01*
X171412976Y-87954819D02*
X170841548Y-87954819D01*
X171127262Y-87954819D02*
X171127262Y-86954819D01*
X171127262Y-86954819D02*
X171032024Y-87097676D01*
X171032024Y-87097676D02*
X170936786Y-87192914D01*
X170936786Y-87192914D02*
X170841548Y-87240533D01*
X172032024Y-86954819D02*
X172127262Y-86954819D01*
X172127262Y-86954819D02*
X172222500Y-87002438D01*
X172222500Y-87002438D02*
X172270119Y-87050057D01*
X172270119Y-87050057D02*
X172317738Y-87145295D01*
X172317738Y-87145295D02*
X172365357Y-87335771D01*
X172365357Y-87335771D02*
X172365357Y-87573866D01*
X172365357Y-87573866D02*
X172317738Y-87764342D01*
X172317738Y-87764342D02*
X172270119Y-87859580D01*
X172270119Y-87859580D02*
X172222500Y-87907200D01*
X172222500Y-87907200D02*
X172127262Y-87954819D01*
X172127262Y-87954819D02*
X172032024Y-87954819D01*
X172032024Y-87954819D02*
X171936786Y-87907200D01*
X171936786Y-87907200D02*
X171889167Y-87859580D01*
X171889167Y-87859580D02*
X171841548Y-87764342D01*
X171841548Y-87764342D02*
X171793929Y-87573866D01*
X171793929Y-87573866D02*
X171793929Y-87335771D01*
X171793929Y-87335771D02*
X171841548Y-87145295D01*
X171841548Y-87145295D02*
X171889167Y-87050057D01*
X171889167Y-87050057D02*
X171936786Y-87002438D01*
X171936786Y-87002438D02*
X172032024Y-86954819D01*
%TO.C,D2*%
X158691905Y-115654819D02*
X158691905Y-114654819D01*
X158691905Y-114654819D02*
X158930000Y-114654819D01*
X158930000Y-114654819D02*
X159072857Y-114702438D01*
X159072857Y-114702438D02*
X159168095Y-114797676D01*
X159168095Y-114797676D02*
X159215714Y-114892914D01*
X159215714Y-114892914D02*
X159263333Y-115083390D01*
X159263333Y-115083390D02*
X159263333Y-115226247D01*
X159263333Y-115226247D02*
X159215714Y-115416723D01*
X159215714Y-115416723D02*
X159168095Y-115511961D01*
X159168095Y-115511961D02*
X159072857Y-115607200D01*
X159072857Y-115607200D02*
X158930000Y-115654819D01*
X158930000Y-115654819D02*
X158691905Y-115654819D01*
X159644286Y-114750057D02*
X159691905Y-114702438D01*
X159691905Y-114702438D02*
X159787143Y-114654819D01*
X159787143Y-114654819D02*
X160025238Y-114654819D01*
X160025238Y-114654819D02*
X160120476Y-114702438D01*
X160120476Y-114702438D02*
X160168095Y-114750057D01*
X160168095Y-114750057D02*
X160215714Y-114845295D01*
X160215714Y-114845295D02*
X160215714Y-114940533D01*
X160215714Y-114940533D02*
X160168095Y-115083390D01*
X160168095Y-115083390D02*
X159596667Y-115654819D01*
X159596667Y-115654819D02*
X160215714Y-115654819D01*
%TO.C,R2*%
X135084819Y-78166666D02*
X134608628Y-78499999D01*
X135084819Y-78738094D02*
X134084819Y-78738094D01*
X134084819Y-78738094D02*
X134084819Y-78357142D01*
X134084819Y-78357142D02*
X134132438Y-78261904D01*
X134132438Y-78261904D02*
X134180057Y-78214285D01*
X134180057Y-78214285D02*
X134275295Y-78166666D01*
X134275295Y-78166666D02*
X134418152Y-78166666D01*
X134418152Y-78166666D02*
X134513390Y-78214285D01*
X134513390Y-78214285D02*
X134561009Y-78261904D01*
X134561009Y-78261904D02*
X134608628Y-78357142D01*
X134608628Y-78357142D02*
X134608628Y-78738094D01*
X134180057Y-77785713D02*
X134132438Y-77738094D01*
X134132438Y-77738094D02*
X134084819Y-77642856D01*
X134084819Y-77642856D02*
X134084819Y-77404761D01*
X134084819Y-77404761D02*
X134132438Y-77309523D01*
X134132438Y-77309523D02*
X134180057Y-77261904D01*
X134180057Y-77261904D02*
X134275295Y-77214285D01*
X134275295Y-77214285D02*
X134370533Y-77214285D01*
X134370533Y-77214285D02*
X134513390Y-77261904D01*
X134513390Y-77261904D02*
X135084819Y-77833332D01*
X135084819Y-77833332D02*
X135084819Y-77214285D01*
%TO.C,M1*%
X171790476Y-141054819D02*
X171790476Y-140054819D01*
X171790476Y-140054819D02*
X172123809Y-140769104D01*
X172123809Y-140769104D02*
X172457142Y-140054819D01*
X172457142Y-140054819D02*
X172457142Y-141054819D01*
X173457142Y-141054819D02*
X172885714Y-141054819D01*
X173171428Y-141054819D02*
X173171428Y-140054819D01*
X173171428Y-140054819D02*
X173076190Y-140197676D01*
X173076190Y-140197676D02*
X172980952Y-140292914D01*
X172980952Y-140292914D02*
X172885714Y-140340533D01*
%TO.C,J11*%
X116390476Y-117754819D02*
X116390476Y-118469104D01*
X116390476Y-118469104D02*
X116342857Y-118611961D01*
X116342857Y-118611961D02*
X116247619Y-118707200D01*
X116247619Y-118707200D02*
X116104762Y-118754819D01*
X116104762Y-118754819D02*
X116009524Y-118754819D01*
X117390476Y-118754819D02*
X116819048Y-118754819D01*
X117104762Y-118754819D02*
X117104762Y-117754819D01*
X117104762Y-117754819D02*
X117009524Y-117897676D01*
X117009524Y-117897676D02*
X116914286Y-117992914D01*
X116914286Y-117992914D02*
X116819048Y-118040533D01*
X118342857Y-118754819D02*
X117771429Y-118754819D01*
X118057143Y-118754819D02*
X118057143Y-117754819D01*
X118057143Y-117754819D02*
X117961905Y-117897676D01*
X117961905Y-117897676D02*
X117866667Y-117992914D01*
X117866667Y-117992914D02*
X117771429Y-118040533D01*
%TO.C,U6*%
X162584819Y-76571904D02*
X163394342Y-76571904D01*
X163394342Y-76571904D02*
X163489580Y-76524285D01*
X163489580Y-76524285D02*
X163537200Y-76476666D01*
X163537200Y-76476666D02*
X163584819Y-76381428D01*
X163584819Y-76381428D02*
X163584819Y-76190952D01*
X163584819Y-76190952D02*
X163537200Y-76095714D01*
X163537200Y-76095714D02*
X163489580Y-76048095D01*
X163489580Y-76048095D02*
X163394342Y-76000476D01*
X163394342Y-76000476D02*
X162584819Y-76000476D01*
X162584819Y-75095714D02*
X162584819Y-75286190D01*
X162584819Y-75286190D02*
X162632438Y-75381428D01*
X162632438Y-75381428D02*
X162680057Y-75429047D01*
X162680057Y-75429047D02*
X162822914Y-75524285D01*
X162822914Y-75524285D02*
X163013390Y-75571904D01*
X163013390Y-75571904D02*
X163394342Y-75571904D01*
X163394342Y-75571904D02*
X163489580Y-75524285D01*
X163489580Y-75524285D02*
X163537200Y-75476666D01*
X163537200Y-75476666D02*
X163584819Y-75381428D01*
X163584819Y-75381428D02*
X163584819Y-75190952D01*
X163584819Y-75190952D02*
X163537200Y-75095714D01*
X163537200Y-75095714D02*
X163489580Y-75048095D01*
X163489580Y-75048095D02*
X163394342Y-75000476D01*
X163394342Y-75000476D02*
X163156247Y-75000476D01*
X163156247Y-75000476D02*
X163061009Y-75048095D01*
X163061009Y-75048095D02*
X163013390Y-75095714D01*
X163013390Y-75095714D02*
X162965771Y-75190952D01*
X162965771Y-75190952D02*
X162965771Y-75381428D01*
X162965771Y-75381428D02*
X163013390Y-75476666D01*
X163013390Y-75476666D02*
X163061009Y-75524285D01*
X163061009Y-75524285D02*
X163156247Y-75571904D01*
%TO.C,J12*%
X115890476Y-88054819D02*
X115890476Y-88769104D01*
X115890476Y-88769104D02*
X115842857Y-88911961D01*
X115842857Y-88911961D02*
X115747619Y-89007200D01*
X115747619Y-89007200D02*
X115604762Y-89054819D01*
X115604762Y-89054819D02*
X115509524Y-89054819D01*
X116890476Y-89054819D02*
X116319048Y-89054819D01*
X116604762Y-89054819D02*
X116604762Y-88054819D01*
X116604762Y-88054819D02*
X116509524Y-88197676D01*
X116509524Y-88197676D02*
X116414286Y-88292914D01*
X116414286Y-88292914D02*
X116319048Y-88340533D01*
X117271429Y-88150057D02*
X117319048Y-88102438D01*
X117319048Y-88102438D02*
X117414286Y-88054819D01*
X117414286Y-88054819D02*
X117652381Y-88054819D01*
X117652381Y-88054819D02*
X117747619Y-88102438D01*
X117747619Y-88102438D02*
X117795238Y-88150057D01*
X117795238Y-88150057D02*
X117842857Y-88245295D01*
X117842857Y-88245295D02*
X117842857Y-88340533D01*
X117842857Y-88340533D02*
X117795238Y-88483390D01*
X117795238Y-88483390D02*
X117223810Y-89054819D01*
X117223810Y-89054819D02*
X117842857Y-89054819D01*
%TO.C,M2*%
X115690476Y-140754819D02*
X115690476Y-139754819D01*
X115690476Y-139754819D02*
X116023809Y-140469104D01*
X116023809Y-140469104D02*
X116357142Y-139754819D01*
X116357142Y-139754819D02*
X116357142Y-140754819D01*
X116785714Y-139850057D02*
X116833333Y-139802438D01*
X116833333Y-139802438D02*
X116928571Y-139754819D01*
X116928571Y-139754819D02*
X117166666Y-139754819D01*
X117166666Y-139754819D02*
X117261904Y-139802438D01*
X117261904Y-139802438D02*
X117309523Y-139850057D01*
X117309523Y-139850057D02*
X117357142Y-139945295D01*
X117357142Y-139945295D02*
X117357142Y-140040533D01*
X117357142Y-140040533D02*
X117309523Y-140183390D01*
X117309523Y-140183390D02*
X116738095Y-140754819D01*
X116738095Y-140754819D02*
X117357142Y-140754819D01*
%TO.C,J6*%
X151266666Y-99504819D02*
X151266666Y-100219104D01*
X151266666Y-100219104D02*
X151219047Y-100361961D01*
X151219047Y-100361961D02*
X151123809Y-100457200D01*
X151123809Y-100457200D02*
X150980952Y-100504819D01*
X150980952Y-100504819D02*
X150885714Y-100504819D01*
X152171428Y-99504819D02*
X151980952Y-99504819D01*
X151980952Y-99504819D02*
X151885714Y-99552438D01*
X151885714Y-99552438D02*
X151838095Y-99600057D01*
X151838095Y-99600057D02*
X151742857Y-99742914D01*
X151742857Y-99742914D02*
X151695238Y-99933390D01*
X151695238Y-99933390D02*
X151695238Y-100314342D01*
X151695238Y-100314342D02*
X151742857Y-100409580D01*
X151742857Y-100409580D02*
X151790476Y-100457200D01*
X151790476Y-100457200D02*
X151885714Y-100504819D01*
X151885714Y-100504819D02*
X152076190Y-100504819D01*
X152076190Y-100504819D02*
X152171428Y-100457200D01*
X152171428Y-100457200D02*
X152219047Y-100409580D01*
X152219047Y-100409580D02*
X152266666Y-100314342D01*
X152266666Y-100314342D02*
X152266666Y-100076247D01*
X152266666Y-100076247D02*
X152219047Y-99981009D01*
X152219047Y-99981009D02*
X152171428Y-99933390D01*
X152171428Y-99933390D02*
X152076190Y-99885771D01*
X152076190Y-99885771D02*
X151885714Y-99885771D01*
X151885714Y-99885771D02*
X151790476Y-99933390D01*
X151790476Y-99933390D02*
X151742857Y-99981009D01*
X151742857Y-99981009D02*
X151695238Y-100076247D01*
%TO.C,R1*%
X132824819Y-78166666D02*
X132348628Y-78499999D01*
X132824819Y-78738094D02*
X131824819Y-78738094D01*
X131824819Y-78738094D02*
X131824819Y-78357142D01*
X131824819Y-78357142D02*
X131872438Y-78261904D01*
X131872438Y-78261904D02*
X131920057Y-78214285D01*
X131920057Y-78214285D02*
X132015295Y-78166666D01*
X132015295Y-78166666D02*
X132158152Y-78166666D01*
X132158152Y-78166666D02*
X132253390Y-78214285D01*
X132253390Y-78214285D02*
X132301009Y-78261904D01*
X132301009Y-78261904D02*
X132348628Y-78357142D01*
X132348628Y-78357142D02*
X132348628Y-78738094D01*
X132824819Y-77214285D02*
X132824819Y-77785713D01*
X132824819Y-77499999D02*
X131824819Y-77499999D01*
X131824819Y-77499999D02*
X131967676Y-77595237D01*
X131967676Y-77595237D02*
X132062914Y-77690475D01*
X132062914Y-77690475D02*
X132110533Y-77785713D01*
%TO.C,M4*%
X119540476Y-76954819D02*
X119540476Y-75954819D01*
X119540476Y-75954819D02*
X119873809Y-76669104D01*
X119873809Y-76669104D02*
X120207142Y-75954819D01*
X120207142Y-75954819D02*
X120207142Y-76954819D01*
X121111904Y-76288152D02*
X121111904Y-76954819D01*
X120873809Y-75907200D02*
X120635714Y-76621485D01*
X120635714Y-76621485D02*
X121254761Y-76621485D01*
%TO.C,J7*%
X143786666Y-78314819D02*
X143786666Y-79029104D01*
X143786666Y-79029104D02*
X143739047Y-79171961D01*
X143739047Y-79171961D02*
X143643809Y-79267200D01*
X143643809Y-79267200D02*
X143500952Y-79314819D01*
X143500952Y-79314819D02*
X143405714Y-79314819D01*
X144167619Y-78314819D02*
X144834285Y-78314819D01*
X144834285Y-78314819D02*
X144405714Y-79314819D01*
%TO.C,J2*%
X136166666Y-122504819D02*
X136166666Y-123219104D01*
X136166666Y-123219104D02*
X136119047Y-123361961D01*
X136119047Y-123361961D02*
X136023809Y-123457200D01*
X136023809Y-123457200D02*
X135880952Y-123504819D01*
X135880952Y-123504819D02*
X135785714Y-123504819D01*
X136595238Y-122600057D02*
X136642857Y-122552438D01*
X136642857Y-122552438D02*
X136738095Y-122504819D01*
X136738095Y-122504819D02*
X136976190Y-122504819D01*
X136976190Y-122504819D02*
X137071428Y-122552438D01*
X137071428Y-122552438D02*
X137119047Y-122600057D01*
X137119047Y-122600057D02*
X137166666Y-122695295D01*
X137166666Y-122695295D02*
X137166666Y-122790533D01*
X137166666Y-122790533D02*
X137119047Y-122933390D01*
X137119047Y-122933390D02*
X136547619Y-123504819D01*
X136547619Y-123504819D02*
X137166666Y-123504819D01*
%TO.C,J9*%
X170666666Y-56254819D02*
X170666666Y-56969104D01*
X170666666Y-56969104D02*
X170619047Y-57111961D01*
X170619047Y-57111961D02*
X170523809Y-57207200D01*
X170523809Y-57207200D02*
X170380952Y-57254819D01*
X170380952Y-57254819D02*
X170285714Y-57254819D01*
X171190476Y-57254819D02*
X171380952Y-57254819D01*
X171380952Y-57254819D02*
X171476190Y-57207200D01*
X171476190Y-57207200D02*
X171523809Y-57159580D01*
X171523809Y-57159580D02*
X171619047Y-57016723D01*
X171619047Y-57016723D02*
X171666666Y-56826247D01*
X171666666Y-56826247D02*
X171666666Y-56445295D01*
X171666666Y-56445295D02*
X171619047Y-56350057D01*
X171619047Y-56350057D02*
X171571428Y-56302438D01*
X171571428Y-56302438D02*
X171476190Y-56254819D01*
X171476190Y-56254819D02*
X171285714Y-56254819D01*
X171285714Y-56254819D02*
X171190476Y-56302438D01*
X171190476Y-56302438D02*
X171142857Y-56350057D01*
X171142857Y-56350057D02*
X171095238Y-56445295D01*
X171095238Y-56445295D02*
X171095238Y-56683390D01*
X171095238Y-56683390D02*
X171142857Y-56778628D01*
X171142857Y-56778628D02*
X171190476Y-56826247D01*
X171190476Y-56826247D02*
X171285714Y-56873866D01*
X171285714Y-56873866D02*
X171476190Y-56873866D01*
X171476190Y-56873866D02*
X171571428Y-56826247D01*
X171571428Y-56826247D02*
X171619047Y-56778628D01*
X171619047Y-56778628D02*
X171666666Y-56683390D01*
%TO.C,J4*%
X138666666Y-57432319D02*
X138666666Y-58146604D01*
X138666666Y-58146604D02*
X138619047Y-58289461D01*
X138619047Y-58289461D02*
X138523809Y-58384700D01*
X138523809Y-58384700D02*
X138380952Y-58432319D01*
X138380952Y-58432319D02*
X138285714Y-58432319D01*
X139571428Y-57765652D02*
X139571428Y-58432319D01*
X139333333Y-57384700D02*
X139095238Y-58098985D01*
X139095238Y-58098985D02*
X139714285Y-58098985D01*
%TO.C,J8*%
X171144166Y-118854819D02*
X171144166Y-119569104D01*
X171144166Y-119569104D02*
X171096547Y-119711961D01*
X171096547Y-119711961D02*
X171001309Y-119807200D01*
X171001309Y-119807200D02*
X170858452Y-119854819D01*
X170858452Y-119854819D02*
X170763214Y-119854819D01*
X171763214Y-119283390D02*
X171667976Y-119235771D01*
X171667976Y-119235771D02*
X171620357Y-119188152D01*
X171620357Y-119188152D02*
X171572738Y-119092914D01*
X171572738Y-119092914D02*
X171572738Y-119045295D01*
X171572738Y-119045295D02*
X171620357Y-118950057D01*
X171620357Y-118950057D02*
X171667976Y-118902438D01*
X171667976Y-118902438D02*
X171763214Y-118854819D01*
X171763214Y-118854819D02*
X171953690Y-118854819D01*
X171953690Y-118854819D02*
X172048928Y-118902438D01*
X172048928Y-118902438D02*
X172096547Y-118950057D01*
X172096547Y-118950057D02*
X172144166Y-119045295D01*
X172144166Y-119045295D02*
X172144166Y-119092914D01*
X172144166Y-119092914D02*
X172096547Y-119188152D01*
X172096547Y-119188152D02*
X172048928Y-119235771D01*
X172048928Y-119235771D02*
X171953690Y-119283390D01*
X171953690Y-119283390D02*
X171763214Y-119283390D01*
X171763214Y-119283390D02*
X171667976Y-119331009D01*
X171667976Y-119331009D02*
X171620357Y-119378628D01*
X171620357Y-119378628D02*
X171572738Y-119473866D01*
X171572738Y-119473866D02*
X171572738Y-119664342D01*
X171572738Y-119664342D02*
X171620357Y-119759580D01*
X171620357Y-119759580D02*
X171667976Y-119807200D01*
X171667976Y-119807200D02*
X171763214Y-119854819D01*
X171763214Y-119854819D02*
X171953690Y-119854819D01*
X171953690Y-119854819D02*
X172048928Y-119807200D01*
X172048928Y-119807200D02*
X172096547Y-119759580D01*
X172096547Y-119759580D02*
X172144166Y-119664342D01*
X172144166Y-119664342D02*
X172144166Y-119473866D01*
X172144166Y-119473866D02*
X172096547Y-119378628D01*
X172096547Y-119378628D02*
X172048928Y-119331009D01*
X172048928Y-119331009D02*
X171953690Y-119283390D01*
D36*
%TO.C,U4*%
X127791000Y-65120000D02*
X134903000Y-65120000D01*
X134903000Y-65120000D02*
X133633000Y-64358000D01*
X134903000Y-65120000D02*
X133633000Y-65882000D01*
X122330000Y-59278000D02*
X140872000Y-59278000D01*
X140872000Y-59278000D02*
X140872000Y-71470000D01*
X140872000Y-71470000D02*
X122330000Y-71470000D01*
X122330000Y-71470000D02*
X122330000Y-59278000D01*
%TO.C,J1*%
X144759500Y-59174000D02*
X171683500Y-59174000D01*
X171683500Y-59174000D02*
X171683500Y-68826000D01*
X171683500Y-68826000D02*
X144759500Y-68826000D01*
X144759500Y-68826000D02*
X144759500Y-59174000D01*
D38*
%TO.C,J3*%
X147450000Y-48400000D02*
X147450000Y-51550000D01*
X147450000Y-51550000D02*
X150300000Y-54150000D01*
X150300000Y-45850000D02*
X147450000Y-48400000D01*
X150300000Y-54150000D02*
X163150000Y-54150000D01*
X163150000Y-45850000D02*
X150300000Y-45850000D01*
X163150000Y-54150000D02*
X163150000Y-45850000D01*
%TO.C,J5*%
X123110000Y-56887500D02*
X123110000Y-44667500D01*
X123110000Y-47967500D02*
X110890000Y-47967500D01*
X123110000Y-46167500D02*
X123110000Y-47967500D01*
X123110000Y-44667500D02*
X110890000Y-44667500D01*
X120500000Y-44667500D02*
X118500000Y-44667500D01*
X120250000Y-46167500D02*
X120500000Y-44667500D01*
X119800000Y-57687500D02*
X119200000Y-57687500D01*
X119500000Y-57087500D02*
X119800000Y-57687500D01*
X119200000Y-57687500D02*
X119500000Y-57087500D01*
X118750000Y-46167500D02*
X120250000Y-46167500D01*
X118500000Y-44667500D02*
X118750000Y-46167500D01*
X115500000Y-44667500D02*
X113500000Y-44667500D01*
X115250000Y-46167500D02*
X115500000Y-44667500D01*
X113750000Y-46167500D02*
X115250000Y-46167500D01*
X113500000Y-44667500D02*
X113750000Y-46167500D01*
X110890000Y-56887500D02*
X123110000Y-56887500D01*
X110890000Y-47967500D02*
X110890000Y-46167500D01*
X110890000Y-46167500D02*
X123110000Y-46167500D01*
X110890000Y-44667500D02*
X110890000Y-56887500D01*
%TO.C,D1*%
X153380000Y-90000000D02*
X153380000Y-91000000D01*
X153380000Y-91000000D02*
X154380000Y-90500000D01*
X154380000Y-90500000D02*
X153380000Y-90000000D01*
X154770000Y-85290000D02*
X163890000Y-85290000D01*
X154770000Y-93530000D02*
X156080000Y-93530000D01*
X154770000Y-105870000D02*
X154770000Y-85290000D01*
X156080000Y-86590000D02*
X162580000Y-86590000D01*
X156080000Y-93530000D02*
X156080000Y-86590000D01*
X156080000Y-97630000D02*
X154770000Y-97630000D01*
X156080000Y-97630000D02*
X156080000Y-97630000D01*
X156080000Y-104570000D02*
X156080000Y-97630000D01*
X162580000Y-86590000D02*
X162580000Y-104570000D01*
X162580000Y-104570000D02*
X156080000Y-104570000D01*
X163890000Y-85290000D02*
X163890000Y-105870000D01*
X163890000Y-105870000D02*
X154770000Y-105870000D01*
%TO.C,D3*%
X134780000Y-101640000D02*
X134780000Y-100640000D01*
X134780000Y-100640000D02*
X133780000Y-101140000D01*
X133780000Y-101140000D02*
X134780000Y-101640000D01*
X133390000Y-106350000D02*
X124270000Y-106350000D01*
X133390000Y-98110000D02*
X132080000Y-98110000D01*
X133390000Y-85770000D02*
X133390000Y-106350000D01*
X132080000Y-105050000D02*
X125580000Y-105050000D01*
X132080000Y-98110000D02*
X132080000Y-105050000D01*
X132080000Y-94010000D02*
X133390000Y-94010000D01*
X132080000Y-94010000D02*
X132080000Y-94010000D01*
X132080000Y-87070000D02*
X132080000Y-94010000D01*
X125580000Y-105050000D02*
X125580000Y-87070000D01*
X125580000Y-87070000D02*
X132080000Y-87070000D01*
X124270000Y-106350000D02*
X124270000Y-85770000D01*
X124270000Y-85770000D02*
X133390000Y-85770000D01*
%TO.C,D4*%
X135080000Y-131860000D02*
X135080000Y-130860000D01*
X135080000Y-130860000D02*
X134080000Y-131360000D01*
X134080000Y-131360000D02*
X135080000Y-131860000D01*
X133690000Y-136570000D02*
X124570000Y-136570000D01*
X133690000Y-128330000D02*
X132380000Y-128330000D01*
X133690000Y-115990000D02*
X133690000Y-136570000D01*
X132380000Y-135270000D02*
X125880000Y-135270000D01*
X132380000Y-128330000D02*
X132380000Y-135270000D01*
X132380000Y-124230000D02*
X133690000Y-124230000D01*
X132380000Y-124230000D02*
X132380000Y-124230000D01*
X132380000Y-117290000D02*
X132380000Y-124230000D01*
X125880000Y-135270000D02*
X125880000Y-117290000D01*
X125880000Y-117290000D02*
X132380000Y-117290000D01*
X124570000Y-136570000D02*
X124570000Y-115990000D01*
X124570000Y-115990000D02*
X133690000Y-115990000D01*
%TO.C,J10*%
X165412500Y-101210000D02*
X177632500Y-101210000D01*
X174332500Y-101210000D02*
X174332500Y-88990000D01*
X176132500Y-101210000D02*
X174332500Y-101210000D01*
X177632500Y-101210000D02*
X177632500Y-88990000D01*
X177632500Y-98600000D02*
X177632500Y-96600000D01*
X176132500Y-98350000D02*
X177632500Y-98600000D01*
X164612500Y-97900000D02*
X164612500Y-97300000D01*
X165212500Y-97600000D02*
X164612500Y-97900000D01*
X164612500Y-97300000D02*
X165212500Y-97600000D01*
X176132500Y-96850000D02*
X176132500Y-98350000D01*
X177632500Y-96600000D02*
X176132500Y-96850000D01*
X177632500Y-93600000D02*
X177632500Y-91600000D01*
X176132500Y-93350000D02*
X177632500Y-93600000D01*
X176132500Y-91850000D02*
X176132500Y-93350000D01*
X177632500Y-91600000D02*
X176132500Y-91850000D01*
X165412500Y-88990000D02*
X165412500Y-101210000D01*
X174332500Y-88990000D02*
X176132500Y-88990000D01*
X176132500Y-88990000D02*
X176132500Y-101210000D01*
X177632500Y-88990000D02*
X165412500Y-88990000D01*
%TO.C,D2*%
X153480000Y-120800000D02*
X153480000Y-121800000D01*
X153480000Y-121800000D02*
X154480000Y-121300000D01*
X154480000Y-121300000D02*
X153480000Y-120800000D01*
X154870000Y-116090000D02*
X163990000Y-116090000D01*
X154870000Y-124330000D02*
X156180000Y-124330000D01*
X154870000Y-136670000D02*
X154870000Y-116090000D01*
X156180000Y-117390000D02*
X162680000Y-117390000D01*
X156180000Y-124330000D02*
X156180000Y-117390000D01*
X156180000Y-128430000D02*
X154870000Y-128430000D01*
X156180000Y-128430000D02*
X156180000Y-128430000D01*
X156180000Y-135370000D02*
X156180000Y-128430000D01*
X162680000Y-117390000D02*
X162680000Y-135370000D01*
X162680000Y-135370000D02*
X156180000Y-135370000D01*
X163990000Y-116090000D02*
X163990000Y-136670000D01*
X163990000Y-136670000D02*
X154870000Y-136670000D01*
%TO.C,R2*%
X135630000Y-81270000D02*
X135630000Y-74730000D01*
X135960000Y-81270000D02*
X135630000Y-81270000D01*
X138040000Y-81270000D02*
X138370000Y-81270000D01*
X138370000Y-81270000D02*
X138370000Y-74730000D01*
X135630000Y-74730000D02*
X135960000Y-74730000D01*
X138370000Y-74730000D02*
X138040000Y-74730000D01*
%TO.C,J11*%
X122587500Y-119690000D02*
X110367500Y-119690000D01*
X113667500Y-119690000D02*
X113667500Y-131910000D01*
X111867500Y-119690000D02*
X113667500Y-119690000D01*
X110367500Y-119690000D02*
X110367500Y-131910000D01*
X110367500Y-122300000D02*
X110367500Y-124300000D01*
X111867500Y-122550000D02*
X110367500Y-122300000D01*
X123387500Y-123000000D02*
X123387500Y-123600000D01*
X122787500Y-123300000D02*
X123387500Y-123000000D01*
X123387500Y-123600000D02*
X122787500Y-123300000D01*
X111867500Y-124050000D02*
X111867500Y-122550000D01*
X110367500Y-124300000D02*
X111867500Y-124050000D01*
X110367500Y-127300000D02*
X110367500Y-129300000D01*
X111867500Y-127550000D02*
X110367500Y-127300000D01*
X111867500Y-129050000D02*
X111867500Y-127550000D01*
X110367500Y-129300000D02*
X111867500Y-129050000D01*
X122587500Y-131910000D02*
X122587500Y-119690000D01*
X113667500Y-131910000D02*
X111867500Y-131910000D01*
X111867500Y-131910000D02*
X111867500Y-119690000D01*
X110367500Y-131910000D02*
X122587500Y-131910000D01*
%TO.C,U6*%
X162130000Y-73160000D02*
X151850000Y-73160000D01*
X151850000Y-73160000D02*
X151850000Y-78460000D01*
X162130000Y-74810000D02*
X162130000Y-73160000D01*
X162130000Y-78460000D02*
X162130000Y-76810000D01*
X151850000Y-78460000D02*
X162130000Y-78460000D01*
X162130000Y-74810000D02*
G75*
G03*
X162130000Y-76810000I0J-1000000D01*
G01*
%TO.C,J12*%
X122987500Y-89790000D02*
X110767500Y-89790000D01*
X114067500Y-89790000D02*
X114067500Y-102010000D01*
X112267500Y-89790000D02*
X114067500Y-89790000D01*
X110767500Y-89790000D02*
X110767500Y-102010000D01*
X110767500Y-92400000D02*
X110767500Y-94400000D01*
X112267500Y-92650000D02*
X110767500Y-92400000D01*
X123787500Y-93100000D02*
X123787500Y-93700000D01*
X123187500Y-93400000D02*
X123787500Y-93100000D01*
X123787500Y-93700000D02*
X123187500Y-93400000D01*
X112267500Y-94150000D02*
X112267500Y-92650000D01*
X110767500Y-94400000D02*
X112267500Y-94150000D01*
X110767500Y-97400000D02*
X110767500Y-99400000D01*
X112267500Y-97650000D02*
X110767500Y-97400000D01*
X112267500Y-99150000D02*
X112267500Y-97650000D01*
X110767500Y-99400000D02*
X112267500Y-99150000D01*
X122987500Y-102010000D02*
X122987500Y-89790000D01*
X114067500Y-102010000D02*
X112267500Y-102010000D01*
X112267500Y-102010000D02*
X112267500Y-89790000D01*
X110767500Y-102010000D02*
X122987500Y-102010000D01*
%TO.C,J6*%
X150270000Y-104090000D02*
X150270000Y-121930000D01*
X150270000Y-104090000D02*
X152930000Y-104090000D01*
X150270000Y-121930000D02*
X152930000Y-121930000D01*
X151600000Y-101490000D02*
X152930000Y-101490000D01*
X152930000Y-101490000D02*
X152930000Y-102820000D01*
X152930000Y-104090000D02*
X152930000Y-121930000D01*
%TO.C,R1*%
X131370000Y-74730000D02*
X131370000Y-81270000D01*
X131040000Y-74730000D02*
X131370000Y-74730000D01*
X128960000Y-74730000D02*
X128630000Y-74730000D01*
X128630000Y-74730000D02*
X128630000Y-81270000D01*
X131370000Y-81270000D02*
X131040000Y-81270000D01*
X128630000Y-81270000D02*
X128960000Y-81270000D01*
%TO.C,J7*%
X138170000Y-84460000D02*
X138170000Y-85460000D01*
X138170000Y-85460000D02*
X139170000Y-84960000D01*
X139170000Y-84960000D02*
X138170000Y-84460000D01*
X139560000Y-79750000D02*
X148680000Y-79750000D01*
X139560000Y-107040000D02*
X140870000Y-107040000D01*
X139560000Y-138430000D02*
X139560000Y-79750000D01*
X140870000Y-81050000D02*
X147370000Y-81050000D01*
X140870000Y-107040000D02*
X140870000Y-81050000D01*
X140870000Y-111140000D02*
X139560000Y-111140000D01*
X140870000Y-111140000D02*
X140870000Y-111140000D01*
X140870000Y-137130000D02*
X140870000Y-111140000D01*
X147370000Y-81050000D02*
X147370000Y-137130000D01*
X147370000Y-137130000D02*
X140870000Y-137130000D01*
X148680000Y-79750000D02*
X148680000Y-138430000D01*
X148680000Y-138430000D02*
X139560000Y-138430000D01*
%TO.C,J2*%
X137830000Y-119010000D02*
X137830000Y-101170000D01*
X137830000Y-119010000D02*
X135170000Y-119010000D01*
X137830000Y-101170000D02*
X135170000Y-101170000D01*
X136500000Y-121610000D02*
X135170000Y-121610000D01*
X135170000Y-121610000D02*
X135170000Y-120280000D01*
X135170000Y-119010000D02*
X135170000Y-101170000D01*
%TO.C,J9*%
X176300000Y-46640000D02*
X176300000Y-46000000D01*
X176300000Y-46000000D02*
X175900000Y-46000000D01*
X176060000Y-55360000D02*
X176060000Y-46240000D01*
X176060000Y-55360000D02*
X165940000Y-55360000D01*
X176060000Y-47800000D02*
X165940000Y-47800000D01*
X176060000Y-46700000D02*
X165940000Y-46700000D01*
X176060000Y-46240000D02*
X165940000Y-46240000D01*
X175048000Y-50019000D02*
X175154000Y-49912000D01*
X174782000Y-49753000D02*
X174888000Y-49646000D01*
X172112000Y-52954000D02*
X172219000Y-52847000D01*
X171846000Y-52688000D02*
X171953000Y-52581000D01*
X169758000Y-50308000D02*
X170153000Y-49912000D01*
X169507000Y-50026000D02*
X169887000Y-49646000D01*
X167112000Y-52954000D02*
X167492000Y-52574000D01*
X166846000Y-52688000D02*
X167241000Y-52292000D01*
X165940000Y-55360000D02*
X165940000Y-46240000D01*
X175680000Y-51300000D02*
G75*
G03*
X175680000Y-51300000I-2180000J0D01*
G01*
X170680000Y-51300000D02*
G75*
G03*
X170680000Y-51300000I-2180000J0D01*
G01*
%TO.C,J4*%
X145110000Y-56887500D02*
X145110000Y-44667500D01*
X145110000Y-47967500D02*
X132890000Y-47967500D01*
X145110000Y-46167500D02*
X145110000Y-47967500D01*
X145110000Y-44667500D02*
X132890000Y-44667500D01*
X142500000Y-44667500D02*
X140500000Y-44667500D01*
X142250000Y-46167500D02*
X142500000Y-44667500D01*
X141800000Y-57687500D02*
X141200000Y-57687500D01*
X141500000Y-57087500D02*
X141800000Y-57687500D01*
X141200000Y-57687500D02*
X141500000Y-57087500D01*
X140750000Y-46167500D02*
X142250000Y-46167500D01*
X140500000Y-44667500D02*
X140750000Y-46167500D01*
X137500000Y-44667500D02*
X135500000Y-44667500D01*
X137250000Y-46167500D02*
X137500000Y-44667500D01*
X135750000Y-46167500D02*
X137250000Y-46167500D01*
X135500000Y-44667500D02*
X135750000Y-46167500D01*
X132890000Y-56887500D02*
X145110000Y-56887500D01*
X132890000Y-47967500D02*
X132890000Y-46167500D01*
X132890000Y-46167500D02*
X145110000Y-46167500D01*
X132890000Y-44667500D02*
X132890000Y-56887500D01*
%TO.C,J8*%
X165290000Y-132710000D02*
X177510000Y-132710000D01*
X174210000Y-132710000D02*
X174210000Y-120490000D01*
X176010000Y-132710000D02*
X174210000Y-132710000D01*
X177510000Y-132710000D02*
X177510000Y-120490000D01*
X177510000Y-130100000D02*
X177510000Y-128100000D01*
X176010000Y-129850000D02*
X177510000Y-130100000D01*
X164490000Y-129400000D02*
X164490000Y-128800000D01*
X165090000Y-129100000D02*
X164490000Y-129400000D01*
X164490000Y-128800000D02*
X165090000Y-129100000D01*
X176010000Y-128350000D02*
X176010000Y-129850000D01*
X177510000Y-128100000D02*
X176010000Y-128350000D01*
X177510000Y-125100000D02*
X177510000Y-123100000D01*
X176010000Y-124850000D02*
X177510000Y-125100000D01*
X176010000Y-123350000D02*
X176010000Y-124850000D01*
X177510000Y-123100000D02*
X176010000Y-123350000D01*
X165290000Y-120490000D02*
X165290000Y-132710000D01*
X174210000Y-120490000D02*
X176010000Y-120490000D01*
X176010000Y-120490000D02*
X176010000Y-132710000D01*
X177510000Y-120490000D02*
X165290000Y-120490000D01*
%TD*%
D39*
%TO.C,U4*%
X123600000Y-70200000D03*
D40*
X123600000Y-60400000D03*
X139600000Y-70200000D03*
X139600000Y-60400000D03*
%TD*%
D41*
%TO.C,J1*%
X146537500Y-64000000D03*
X169037500Y-64000000D03*
%TD*%
D42*
%TO.C,M3*%
X169350000Y-80000000D03*
%TD*%
D43*
%TO.C,J3*%
X151700000Y-50000000D03*
D44*
X158900000Y-50000000D03*
%TD*%
D45*
%TO.C,J5*%
X119500000Y-54777500D03*
D46*
X114500000Y-54777500D03*
%TD*%
D47*
%TO.C,D1*%
X158060000Y-90500000D03*
D48*
X160600000Y-90500000D03*
X158060000Y-93040000D03*
X160600000Y-93040000D03*
X158060000Y-95580000D03*
X160600000Y-95580000D03*
X158060000Y-98120000D03*
X160600000Y-98120000D03*
X158060000Y-100660000D03*
X160600000Y-100660000D03*
%TD*%
D49*
%TO.C,D3*%
X130100000Y-101140000D03*
D48*
X127560000Y-101140000D03*
X130100000Y-98600000D03*
X127560000Y-98600000D03*
X130100000Y-96060000D03*
X127560000Y-96060000D03*
X130100000Y-93520000D03*
X127560000Y-93520000D03*
X130100000Y-90980000D03*
X127560000Y-90980000D03*
%TD*%
D49*
%TO.C,D4*%
X130400000Y-131360000D03*
D48*
X127860000Y-131360000D03*
X130400000Y-128820000D03*
X127860000Y-128820000D03*
X130400000Y-126280000D03*
X127860000Y-126280000D03*
X130400000Y-123740000D03*
X127860000Y-123740000D03*
X130400000Y-121200000D03*
X127860000Y-121200000D03*
%TD*%
D50*
%TO.C,J10*%
X167522500Y-97600000D03*
D51*
X167522500Y-92600000D03*
%TD*%
D47*
%TO.C,D2*%
X158160000Y-121300000D03*
D48*
X160700000Y-121300000D03*
X158160000Y-123840000D03*
X160700000Y-123840000D03*
X158160000Y-126380000D03*
X160700000Y-126380000D03*
X158160000Y-128920000D03*
X160700000Y-128920000D03*
X158160000Y-131460000D03*
X160700000Y-131460000D03*
%TD*%
D52*
%TO.C,R2*%
X137000000Y-81810000D03*
D53*
X137000000Y-74190000D03*
%TD*%
D42*
%TO.C,M1*%
X169350000Y-138000000D03*
%TD*%
D54*
%TO.C,J11*%
X120477500Y-123300000D03*
D51*
X120477500Y-128300000D03*
%TD*%
D55*
%TO.C,U6*%
X160800000Y-72000000D03*
D53*
X158260000Y-72000000D03*
X155720000Y-72000000D03*
X153180000Y-72000000D03*
X153180000Y-79620000D03*
X155720000Y-79620000D03*
X158260000Y-79620000D03*
X160800000Y-79620000D03*
%TD*%
D54*
%TO.C,J12*%
X120877500Y-93400000D03*
D51*
X120877500Y-98400000D03*
%TD*%
D42*
%TO.C,M2*%
X120350000Y-138000000D03*
%TD*%
D56*
%TO.C,J6*%
X151600000Y-102820000D03*
D57*
X151600000Y-105360000D03*
X151600000Y-107900000D03*
X151600000Y-110440000D03*
X151600000Y-112980000D03*
X151600000Y-115520000D03*
X151600000Y-118060000D03*
X151600000Y-120600000D03*
%TD*%
D52*
%TO.C,R1*%
X130000000Y-74190000D03*
D53*
X130000000Y-81810000D03*
%TD*%
D42*
%TO.C,M4*%
X120350000Y-80000000D03*
%TD*%
D47*
%TO.C,J7*%
X142850000Y-84960000D03*
D48*
X145390000Y-84960000D03*
X142850000Y-87500000D03*
X145390000Y-87500000D03*
X142850000Y-90040000D03*
X145390000Y-90040000D03*
X142850000Y-92580000D03*
X145390000Y-92580000D03*
X142850000Y-95120000D03*
X145390000Y-95120000D03*
X142850000Y-97660000D03*
X145390000Y-97660000D03*
X142850000Y-100200000D03*
X145390000Y-100200000D03*
X142850000Y-102740000D03*
X145390000Y-102740000D03*
X142850000Y-105280000D03*
X145390000Y-105280000D03*
X142850000Y-107820000D03*
X145390000Y-107820000D03*
X142850000Y-110360000D03*
X145390000Y-110360000D03*
X142850000Y-112900000D03*
X145390000Y-112900000D03*
X142850000Y-115440000D03*
X145390000Y-115440000D03*
X142850000Y-117980000D03*
X145390000Y-117980000D03*
X142850000Y-120520000D03*
X145390000Y-120520000D03*
X142850000Y-123060000D03*
X145390000Y-123060000D03*
X142850000Y-125600000D03*
X145390000Y-125600000D03*
X142850000Y-128140000D03*
X145390000Y-128140000D03*
X142850000Y-130680000D03*
X145390000Y-130680000D03*
X142850000Y-133220000D03*
X145390000Y-133220000D03*
%TD*%
D56*
%TO.C,J2*%
X136500000Y-120280000D03*
D57*
X136500000Y-117740000D03*
X136500000Y-115200000D03*
X136500000Y-112660000D03*
X136500000Y-110120000D03*
X136500000Y-107580000D03*
X136500000Y-105040000D03*
X136500000Y-102500000D03*
%TD*%
D58*
%TO.C,J9*%
X173500000Y-51300000D03*
D59*
X168500000Y-51300000D03*
%TD*%
D45*
%TO.C,J4*%
X141500000Y-54777500D03*
D46*
X136500000Y-54777500D03*
%TD*%
D50*
%TO.C,J8*%
X167400000Y-129100000D03*
D51*
X167400000Y-124100000D03*
%TD*%
D39*
%TO.C,U4*%
X123600000Y-70200000D03*
D40*
X123600000Y-60400000D03*
X139600000Y-70200000D03*
X139600000Y-60400000D03*
%TD*%
D41*
%TO.C,J1*%
X146537500Y-64000000D03*
X169037500Y-64000000D03*
%TD*%
D42*
%TO.C,M3*%
X169350000Y-80000000D03*
%TD*%
D43*
%TO.C,J3*%
X151700000Y-50000000D03*
D44*
X158900000Y-50000000D03*
%TD*%
D45*
%TO.C,J5*%
X119500000Y-54777500D03*
D46*
X114500000Y-54777500D03*
%TD*%
D47*
%TO.C,D1*%
X158060000Y-90500000D03*
D48*
X160600000Y-90500000D03*
X158060000Y-93040000D03*
X160600000Y-93040000D03*
X158060000Y-95580000D03*
X160600000Y-95580000D03*
X158060000Y-98120000D03*
X160600000Y-98120000D03*
X158060000Y-100660000D03*
X160600000Y-100660000D03*
%TD*%
D49*
%TO.C,D3*%
X130100000Y-101140000D03*
D48*
X127560000Y-101140000D03*
X130100000Y-98600000D03*
X127560000Y-98600000D03*
X130100000Y-96060000D03*
X127560000Y-96060000D03*
X130100000Y-93520000D03*
X127560000Y-93520000D03*
X130100000Y-90980000D03*
X127560000Y-90980000D03*
%TD*%
D49*
%TO.C,D4*%
X130400000Y-131360000D03*
D48*
X127860000Y-131360000D03*
X130400000Y-128820000D03*
X127860000Y-128820000D03*
X130400000Y-126280000D03*
X127860000Y-126280000D03*
X130400000Y-123740000D03*
X127860000Y-123740000D03*
X130400000Y-121200000D03*
X127860000Y-121200000D03*
%TD*%
D50*
%TO.C,J10*%
X167522500Y-97600000D03*
D51*
X167522500Y-92600000D03*
%TD*%
D47*
%TO.C,D2*%
X158160000Y-121300000D03*
D48*
X160700000Y-121300000D03*
X158160000Y-123840000D03*
X160700000Y-123840000D03*
X158160000Y-126380000D03*
X160700000Y-126380000D03*
X158160000Y-128920000D03*
X160700000Y-128920000D03*
X158160000Y-131460000D03*
X160700000Y-131460000D03*
%TD*%
D52*
%TO.C,R2*%
X137000000Y-81810000D03*
D53*
X137000000Y-74190000D03*
%TD*%
D42*
%TO.C,M1*%
X169350000Y-138000000D03*
%TD*%
D54*
%TO.C,J11*%
X120477500Y-123300000D03*
D51*
X120477500Y-128300000D03*
%TD*%
D55*
%TO.C,U6*%
X160800000Y-72000000D03*
D53*
X158260000Y-72000000D03*
X155720000Y-72000000D03*
X153180000Y-72000000D03*
X153180000Y-79620000D03*
X155720000Y-79620000D03*
X158260000Y-79620000D03*
X160800000Y-79620000D03*
%TD*%
D54*
%TO.C,J12*%
X120877500Y-93400000D03*
D51*
X120877500Y-98400000D03*
%TD*%
D42*
%TO.C,M2*%
X120350000Y-138000000D03*
%TD*%
D56*
%TO.C,J6*%
X151600000Y-102820000D03*
D57*
X151600000Y-105360000D03*
X151600000Y-107900000D03*
X151600000Y-110440000D03*
X151600000Y-112980000D03*
X151600000Y-115520000D03*
X151600000Y-118060000D03*
X151600000Y-120600000D03*
%TD*%
D52*
%TO.C,R1*%
X130000000Y-74190000D03*
D53*
X130000000Y-81810000D03*
%TD*%
D42*
%TO.C,M4*%
X120350000Y-80000000D03*
%TD*%
D47*
%TO.C,J7*%
X142850000Y-84960000D03*
D48*
X145390000Y-84960000D03*
X142850000Y-87500000D03*
X145390000Y-87500000D03*
X142850000Y-90040000D03*
X145390000Y-90040000D03*
X142850000Y-92580000D03*
X145390000Y-92580000D03*
X142850000Y-95120000D03*
X145390000Y-95120000D03*
X142850000Y-97660000D03*
X145390000Y-97660000D03*
X142850000Y-100200000D03*
X145390000Y-100200000D03*
X142850000Y-102740000D03*
X145390000Y-102740000D03*
X142850000Y-105280000D03*
X145390000Y-105280000D03*
X142850000Y-107820000D03*
X145390000Y-107820000D03*
X142850000Y-110360000D03*
X145390000Y-110360000D03*
X142850000Y-112900000D03*
X145390000Y-112900000D03*
X142850000Y-115440000D03*
X145390000Y-115440000D03*
X142850000Y-117980000D03*
X145390000Y-117980000D03*
X142850000Y-120520000D03*
X145390000Y-120520000D03*
X142850000Y-123060000D03*
X145390000Y-123060000D03*
X142850000Y-125600000D03*
X145390000Y-125600000D03*
X142850000Y-128140000D03*
X145390000Y-128140000D03*
X142850000Y-130680000D03*
X145390000Y-130680000D03*
X142850000Y-133220000D03*
X145390000Y-133220000D03*
%TD*%
D56*
%TO.C,J2*%
X136500000Y-120280000D03*
D57*
X136500000Y-117740000D03*
X136500000Y-115200000D03*
X136500000Y-112660000D03*
X136500000Y-110120000D03*
X136500000Y-107580000D03*
X136500000Y-105040000D03*
X136500000Y-102500000D03*
%TD*%
D58*
%TO.C,J9*%
X173500000Y-51300000D03*
D59*
X168500000Y-51300000D03*
%TD*%
D45*
%TO.C,J4*%
X141500000Y-54777500D03*
D46*
X136500000Y-54777500D03*
%TD*%
D50*
%TO.C,J8*%
X167400000Y-129100000D03*
D51*
X167400000Y-124100000D03*
%TD*%
D60*
X110000000Y-44000000D02*
X178000000Y-44000000D01*
X178000000Y-142000000D01*
X110000000Y-142000000D01*
X110000000Y-44000000D01*
M02*
