M48
; DRILL file {KiCad 7.0.5} date Wed Jun 21 07:30:25 2023
; FORMAT={-:-/ absolute / inch / decimal}
; #@! TF.CreationDate,2023-06-21T07:30:25-05:00
; #@! TF.GenerationSoftware,Kicad,Pcbnew,7.0.5
; #@! TF.FileFunction,Plated,1,2,PTH
FMAT,2
INCH
; #@! TA.AperFunction,Plated,PTH,ComponentDrill
T1C0.0315
; #@! TA.AperFunction,Plated,PTH,ComponentDrill
T2C0.0394
; #@! TA.AperFunction,Plated,PTH,ComponentDrill
T3C0.0472
; #@! TA.AperFunction,Plated,PTH,ComponentDrill
T4C0.0512
; #@! TA.AperFunction,Plated,PTH,ComponentDrill
T5C0.0551
; #@! TA.AperFunction,Plated,PTH,ComponentDrill
T6C0.0787
; #@! TA.AperFunction,Plated,PTH,ComponentDrill
T7C0.0984
; #@! TA.AperFunction,Plated,PTH,ComponentDrill
T8C0.1772
%
G90
G05
T1
X5.1181Y-2.9209
X5.1181Y-3.2209
X5.3937Y-2.9209
X5.3937Y-3.2209
X6.0307Y-2.8346
X6.0307Y-3.1346
X6.1307Y-2.8346
X6.1307Y-3.1346
X6.2307Y-2.8346
X6.2307Y-3.1346
X6.3307Y-2.8346
X6.3307Y-3.1346
T2
X5.022Y-3.5819
X5.022Y-3.6819
X5.022Y-3.7819
X5.022Y-3.8819
X5.022Y-3.9819
X5.0339Y-4.7717
X5.0339Y-4.8717
X5.0339Y-4.9717
X5.0339Y-5.0717
X5.0339Y-5.1717
X5.122Y-3.5819
X5.122Y-3.6819
X5.122Y-3.7819
X5.122Y-3.8819
X5.122Y-3.9819
X5.1339Y-4.7717
X5.1339Y-4.8717
X5.1339Y-4.9717
X5.1339Y-5.0717
X5.1339Y-5.1717
X5.374Y-4.0354
X5.374Y-4.1354
X5.374Y-4.2354
X5.374Y-4.3354
X5.374Y-4.4354
X5.374Y-4.5354
X5.374Y-4.6354
X5.374Y-4.7354
X5.624Y-3.3449
X5.624Y-3.4449
X5.624Y-3.5449
X5.624Y-3.6449
X5.624Y-3.7449
X5.624Y-3.8449
X5.624Y-3.9449
X5.624Y-4.0449
X5.624Y-4.1449
X5.624Y-4.2449
X5.624Y-4.3449
X5.624Y-4.4449
X5.624Y-4.5449
X5.624Y-4.6449
X5.624Y-4.7449
X5.624Y-4.8449
X5.624Y-4.9449
X5.624Y-5.0449
X5.624Y-5.1449
X5.624Y-5.2449
X5.724Y-3.3449
X5.724Y-3.4449
X5.724Y-3.5449
X5.724Y-3.6449
X5.724Y-3.7449
X5.724Y-3.8449
X5.724Y-3.9449
X5.724Y-4.0449
X5.724Y-4.1449
X5.724Y-4.2449
X5.724Y-4.3449
X5.724Y-4.4449
X5.724Y-4.5449
X5.724Y-4.6449
X5.724Y-4.7449
X5.724Y-4.8449
X5.724Y-4.9449
X5.724Y-5.0449
X5.724Y-5.1449
X5.724Y-5.2449
X5.9685Y-4.048
X5.9685Y-4.148
X5.9685Y-4.248
X5.9685Y-4.348
X5.9685Y-4.448
X5.9685Y-4.548
X5.9685Y-4.648
X5.9685Y-4.748
X6.2228Y-3.563
X6.2228Y-3.663
X6.2228Y-3.763
X6.2228Y-3.863
X6.2228Y-3.963
X6.2268Y-4.7756
X6.2268Y-4.8756
X6.2268Y-4.9756
X6.2268Y-5.0756
X6.2268Y-5.1756
X6.3228Y-3.563
X6.3228Y-3.663
X6.3228Y-3.763
X6.3228Y-3.863
X6.3228Y-3.963
X6.3268Y-4.7756
X6.3268Y-4.8756
X6.3268Y-4.9756
X6.3268Y-5.0756
X6.3268Y-5.1756
T3
X4.8661Y-2.378
X4.8661Y-2.7638
X5.4961Y-2.378
X5.4961Y-2.7638
T4
X6.6339Y-2.0197
X6.8307Y-2.0197
T5
X4.5079Y-2.1566
X4.7047Y-2.1566
X4.7432Y-4.8543
X4.7432Y-5.0512
X4.759Y-3.6772
X4.759Y-3.874
X5.374Y-2.1566
X5.5709Y-2.1566
X6.5906Y-4.8858
X6.5906Y-5.0827
X6.5954Y-3.6457
X6.5954Y-3.8425
T6
X5.7692Y-2.5197
X6.655Y-2.5197
T7
X4.7382Y-3.1496
X4.7382Y-5.4331
X6.6673Y-3.1496
X6.6673Y-5.4331
T8
X5.9724Y-1.9685
X6.2559Y-1.9685
T0
M30
