%TF.GenerationSoftware,KiCad,Pcbnew,7.0.5*%
%TF.CreationDate,2023-06-21T07:22:02-05:00*%
%TF.ProjectId,pcbpai,70636270-6169-42e6-9b69-6361645f7063,rev?*%
%TF.SameCoordinates,Original*%
%TF.FileFunction,Drillmap*%
%TF.FilePolarity,Positive*%
%FSLAX45Y45*%
G04 Gerber Fmt 4.5, Leading zero omitted, Abs format (unit mm)*
G04 Created by KiCad (PCBNEW 7.0.5) date 2023-06-21 07:22:02*
%MOMM*%
%LPD*%
G01*
G04 APERTURE LIST*
%ADD10C,0.100000*%
%ADD11C,0.200000*%
%ADD12C,0.080000*%
%ADD13C,0.120000*%
%ADD14C,0.130000*%
%ADD15C,0.140000*%
%ADD16C,0.250000*%
%ADD17C,0.450000*%
G04 APERTURE END LIST*
D10*
X11000000Y-4400000D02*
X17800000Y-4400000D01*
X17800000Y-14200000D01*
X11000000Y-14200000D01*
X11000000Y-4400000D01*
D11*
D12*
X12960000Y-7379000D02*
X13040000Y-7459000D01*
X13040000Y-7379000D02*
X12960000Y-7459000D01*
X12960000Y-8141000D02*
X13040000Y-8221000D01*
X13040000Y-8141000D02*
X12960000Y-8221000D01*
X13660000Y-7379000D02*
X13740000Y-7459000D01*
X13740000Y-7379000D02*
X13660000Y-7459000D01*
X13660000Y-8141000D02*
X13740000Y-8221000D01*
X13740000Y-8141000D02*
X13660000Y-8221000D01*
X15278000Y-7160000D02*
X15358000Y-7240000D01*
X15358000Y-7160000D02*
X15278000Y-7240000D01*
X15278000Y-7922000D02*
X15358000Y-8002000D01*
X15358000Y-7922000D02*
X15278000Y-8002000D01*
X15532000Y-7160000D02*
X15612000Y-7240000D01*
X15612000Y-7160000D02*
X15532000Y-7240000D01*
X15532000Y-7922000D02*
X15612000Y-8002000D01*
X15612000Y-7922000D02*
X15532000Y-8002000D01*
X15786000Y-7160000D02*
X15866000Y-7240000D01*
X15866000Y-7160000D02*
X15786000Y-7240000D01*
X15786000Y-7922000D02*
X15866000Y-8002000D01*
X15866000Y-7922000D02*
X15786000Y-8002000D01*
X16040000Y-7160000D02*
X16120000Y-7240000D01*
X16120000Y-7160000D02*
X16040000Y-7240000D01*
X16040000Y-7922000D02*
X16120000Y-8002000D01*
X16120000Y-7922000D02*
X16040000Y-8002000D01*
D10*
X12806000Y-9098000D02*
G75*
G03*
X12806000Y-9098000I-50000J0D01*
G01*
X12806000Y-9352000D02*
G75*
G03*
X12806000Y-9352000I-50000J0D01*
G01*
X12806000Y-9606000D02*
G75*
G03*
X12806000Y-9606000I-50000J0D01*
G01*
X12806000Y-9860000D02*
G75*
G03*
X12806000Y-9860000I-50000J0D01*
G01*
X12806000Y-10114000D02*
G75*
G03*
X12806000Y-10114000I-50000J0D01*
G01*
X12836000Y-12120000D02*
G75*
G03*
X12836000Y-12120000I-50000J0D01*
G01*
X12836000Y-12374000D02*
G75*
G03*
X12836000Y-12374000I-50000J0D01*
G01*
X12836000Y-12628000D02*
G75*
G03*
X12836000Y-12628000I-50000J0D01*
G01*
X12836000Y-12882000D02*
G75*
G03*
X12836000Y-12882000I-50000J0D01*
G01*
X12836000Y-13136000D02*
G75*
G03*
X12836000Y-13136000I-50000J0D01*
G01*
X13060000Y-9098000D02*
G75*
G03*
X13060000Y-9098000I-50000J0D01*
G01*
X13060000Y-9352000D02*
G75*
G03*
X13060000Y-9352000I-50000J0D01*
G01*
X13060000Y-9606000D02*
G75*
G03*
X13060000Y-9606000I-50000J0D01*
G01*
X13060000Y-9860000D02*
G75*
G03*
X13060000Y-9860000I-50000J0D01*
G01*
X13060000Y-10114000D02*
G75*
G03*
X13060000Y-10114000I-50000J0D01*
G01*
X13090000Y-12120000D02*
G75*
G03*
X13090000Y-12120000I-50000J0D01*
G01*
X13090000Y-12374000D02*
G75*
G03*
X13090000Y-12374000I-50000J0D01*
G01*
X13090000Y-12628000D02*
G75*
G03*
X13090000Y-12628000I-50000J0D01*
G01*
X13090000Y-12882000D02*
G75*
G03*
X13090000Y-12882000I-50000J0D01*
G01*
X13090000Y-13136000D02*
G75*
G03*
X13090000Y-13136000I-50000J0D01*
G01*
X13700000Y-10250000D02*
G75*
G03*
X13700000Y-10250000I-50000J0D01*
G01*
X13700000Y-10504000D02*
G75*
G03*
X13700000Y-10504000I-50000J0D01*
G01*
X13700000Y-10758000D02*
G75*
G03*
X13700000Y-10758000I-50000J0D01*
G01*
X13700000Y-11012000D02*
G75*
G03*
X13700000Y-11012000I-50000J0D01*
G01*
X13700000Y-11266000D02*
G75*
G03*
X13700000Y-11266000I-50000J0D01*
G01*
X13700000Y-11520000D02*
G75*
G03*
X13700000Y-11520000I-50000J0D01*
G01*
X13700000Y-11774000D02*
G75*
G03*
X13700000Y-11774000I-50000J0D01*
G01*
X13700000Y-12028000D02*
G75*
G03*
X13700000Y-12028000I-50000J0D01*
G01*
X14335000Y-8496000D02*
G75*
G03*
X14335000Y-8496000I-50000J0D01*
G01*
X14335000Y-8750000D02*
G75*
G03*
X14335000Y-8750000I-50000J0D01*
G01*
X14335000Y-9004000D02*
G75*
G03*
X14335000Y-9004000I-50000J0D01*
G01*
X14335000Y-9258000D02*
G75*
G03*
X14335000Y-9258000I-50000J0D01*
G01*
X14335000Y-9512000D02*
G75*
G03*
X14335000Y-9512000I-50000J0D01*
G01*
X14335000Y-9766000D02*
G75*
G03*
X14335000Y-9766000I-50000J0D01*
G01*
X14335000Y-10020000D02*
G75*
G03*
X14335000Y-10020000I-50000J0D01*
G01*
X14335000Y-10274000D02*
G75*
G03*
X14335000Y-10274000I-50000J0D01*
G01*
X14335000Y-10528000D02*
G75*
G03*
X14335000Y-10528000I-50000J0D01*
G01*
X14335000Y-10782000D02*
G75*
G03*
X14335000Y-10782000I-50000J0D01*
G01*
X14335000Y-11036000D02*
G75*
G03*
X14335000Y-11036000I-50000J0D01*
G01*
X14335000Y-11290000D02*
G75*
G03*
X14335000Y-11290000I-50000J0D01*
G01*
X14335000Y-11544000D02*
G75*
G03*
X14335000Y-11544000I-50000J0D01*
G01*
X14335000Y-11798000D02*
G75*
G03*
X14335000Y-11798000I-50000J0D01*
G01*
X14335000Y-12052000D02*
G75*
G03*
X14335000Y-12052000I-50000J0D01*
G01*
X14335000Y-12306000D02*
G75*
G03*
X14335000Y-12306000I-50000J0D01*
G01*
X14335000Y-12560000D02*
G75*
G03*
X14335000Y-12560000I-50000J0D01*
G01*
X14335000Y-12814000D02*
G75*
G03*
X14335000Y-12814000I-50000J0D01*
G01*
X14335000Y-13068000D02*
G75*
G03*
X14335000Y-13068000I-50000J0D01*
G01*
X14335000Y-13322000D02*
G75*
G03*
X14335000Y-13322000I-50000J0D01*
G01*
X14589000Y-8496000D02*
G75*
G03*
X14589000Y-8496000I-50000J0D01*
G01*
X14589000Y-8750000D02*
G75*
G03*
X14589000Y-8750000I-50000J0D01*
G01*
X14589000Y-9004000D02*
G75*
G03*
X14589000Y-9004000I-50000J0D01*
G01*
X14589000Y-9258000D02*
G75*
G03*
X14589000Y-9258000I-50000J0D01*
G01*
X14589000Y-9512000D02*
G75*
G03*
X14589000Y-9512000I-50000J0D01*
G01*
X14589000Y-9766000D02*
G75*
G03*
X14589000Y-9766000I-50000J0D01*
G01*
X14589000Y-10020000D02*
G75*
G03*
X14589000Y-10020000I-50000J0D01*
G01*
X14589000Y-10274000D02*
G75*
G03*
X14589000Y-10274000I-50000J0D01*
G01*
X14589000Y-10528000D02*
G75*
G03*
X14589000Y-10528000I-50000J0D01*
G01*
X14589000Y-10782000D02*
G75*
G03*
X14589000Y-10782000I-50000J0D01*
G01*
X14589000Y-11036000D02*
G75*
G03*
X14589000Y-11036000I-50000J0D01*
G01*
X14589000Y-11290000D02*
G75*
G03*
X14589000Y-11290000I-50000J0D01*
G01*
X14589000Y-11544000D02*
G75*
G03*
X14589000Y-11544000I-50000J0D01*
G01*
X14589000Y-11798000D02*
G75*
G03*
X14589000Y-11798000I-50000J0D01*
G01*
X14589000Y-12052000D02*
G75*
G03*
X14589000Y-12052000I-50000J0D01*
G01*
X14589000Y-12306000D02*
G75*
G03*
X14589000Y-12306000I-50000J0D01*
G01*
X14589000Y-12560000D02*
G75*
G03*
X14589000Y-12560000I-50000J0D01*
G01*
X14589000Y-12814000D02*
G75*
G03*
X14589000Y-12814000I-50000J0D01*
G01*
X14589000Y-13068000D02*
G75*
G03*
X14589000Y-13068000I-50000J0D01*
G01*
X14589000Y-13322000D02*
G75*
G03*
X14589000Y-13322000I-50000J0D01*
G01*
X15210000Y-10282000D02*
G75*
G03*
X15210000Y-10282000I-50000J0D01*
G01*
X15210000Y-10536000D02*
G75*
G03*
X15210000Y-10536000I-50000J0D01*
G01*
X15210000Y-10790000D02*
G75*
G03*
X15210000Y-10790000I-50000J0D01*
G01*
X15210000Y-11044000D02*
G75*
G03*
X15210000Y-11044000I-50000J0D01*
G01*
X15210000Y-11298000D02*
G75*
G03*
X15210000Y-11298000I-50000J0D01*
G01*
X15210000Y-11552000D02*
G75*
G03*
X15210000Y-11552000I-50000J0D01*
G01*
X15210000Y-11806000D02*
G75*
G03*
X15210000Y-11806000I-50000J0D01*
G01*
X15210000Y-12060000D02*
G75*
G03*
X15210000Y-12060000I-50000J0D01*
G01*
X15856000Y-9050000D02*
G75*
G03*
X15856000Y-9050000I-50000J0D01*
G01*
X15856000Y-9304000D02*
G75*
G03*
X15856000Y-9304000I-50000J0D01*
G01*
X15856000Y-9558000D02*
G75*
G03*
X15856000Y-9558000I-50000J0D01*
G01*
X15856000Y-9812000D02*
G75*
G03*
X15856000Y-9812000I-50000J0D01*
G01*
X15856000Y-10066000D02*
G75*
G03*
X15856000Y-10066000I-50000J0D01*
G01*
X15866000Y-12130000D02*
G75*
G03*
X15866000Y-12130000I-50000J0D01*
G01*
X15866000Y-12384000D02*
G75*
G03*
X15866000Y-12384000I-50000J0D01*
G01*
X15866000Y-12638000D02*
G75*
G03*
X15866000Y-12638000I-50000J0D01*
G01*
X15866000Y-12892000D02*
G75*
G03*
X15866000Y-12892000I-50000J0D01*
G01*
X15866000Y-13146000D02*
G75*
G03*
X15866000Y-13146000I-50000J0D01*
G01*
X16110000Y-9050000D02*
G75*
G03*
X16110000Y-9050000I-50000J0D01*
G01*
X16110000Y-9304000D02*
G75*
G03*
X16110000Y-9304000I-50000J0D01*
G01*
X16110000Y-9558000D02*
G75*
G03*
X16110000Y-9558000I-50000J0D01*
G01*
X16110000Y-9812000D02*
G75*
G03*
X16110000Y-9812000I-50000J0D01*
G01*
X16110000Y-10066000D02*
G75*
G03*
X16110000Y-10066000I-50000J0D01*
G01*
X16120000Y-12130000D02*
G75*
G03*
X16120000Y-12130000I-50000J0D01*
G01*
X16120000Y-12384000D02*
G75*
G03*
X16120000Y-12384000I-50000J0D01*
G01*
X16120000Y-12638000D02*
G75*
G03*
X16120000Y-12638000I-50000J0D01*
G01*
X16120000Y-12892000D02*
G75*
G03*
X16120000Y-12892000I-50000J0D01*
G01*
X16120000Y-13146000D02*
G75*
G03*
X16120000Y-13146000I-50000J0D01*
G01*
D13*
X12360000Y-5980000D02*
X12360000Y-6100000D01*
X12300000Y-6040000D02*
X12420000Y-6040000D01*
X12360000Y-6960000D02*
X12360000Y-7080000D01*
X12300000Y-7020000D02*
X12420000Y-7020000D01*
X13960000Y-5980000D02*
X13960000Y-6100000D01*
X13900000Y-6040000D02*
X14020000Y-6040000D01*
X13960000Y-6960000D02*
X13960000Y-7080000D01*
X13900000Y-7020000D02*
X14020000Y-7020000D01*
D14*
X16895962Y-5175962D02*
X16895962Y-5084038D01*
X16804038Y-5084038D01*
X16804038Y-5175962D01*
X16895962Y-5175962D01*
X17395962Y-5175962D02*
X17395962Y-5084038D01*
X17304038Y-5084038D01*
X17304038Y-5175962D01*
X17395962Y-5175962D01*
D15*
X11450000Y-5547750D02*
X11520000Y-5477750D01*
X11450000Y-5407750D01*
X11380000Y-5477750D01*
X11450000Y-5547750D01*
X11950000Y-5547750D02*
X12020000Y-5477750D01*
X11950000Y-5407750D01*
X11880000Y-5477750D01*
X11950000Y-5547750D01*
X12047750Y-12400000D02*
X12117750Y-12330000D01*
X12047750Y-12260000D01*
X11977750Y-12330000D01*
X12047750Y-12400000D01*
X12047750Y-12900000D02*
X12117750Y-12830000D01*
X12047750Y-12760000D01*
X11977750Y-12830000D01*
X12047750Y-12900000D01*
X12087750Y-9410000D02*
X12157750Y-9340000D01*
X12087750Y-9270000D01*
X12017750Y-9340000D01*
X12087750Y-9410000D01*
X12087750Y-9910000D02*
X12157750Y-9840000D01*
X12087750Y-9770000D01*
X12017750Y-9840000D01*
X12087750Y-9910000D01*
X13650000Y-5547750D02*
X13720000Y-5477750D01*
X13650000Y-5407750D01*
X13580000Y-5477750D01*
X13650000Y-5547750D01*
X14150000Y-5547750D02*
X14220000Y-5477750D01*
X14150000Y-5407750D01*
X14080000Y-5477750D01*
X14150000Y-5547750D01*
X16740000Y-12480000D02*
X16810000Y-12410000D01*
X16740000Y-12340000D01*
X16670000Y-12410000D01*
X16740000Y-12480000D01*
X16740000Y-12980000D02*
X16810000Y-12910000D01*
X16740000Y-12840000D01*
X16670000Y-12910000D01*
X16740000Y-12980000D01*
X16752250Y-9330000D02*
X16822250Y-9260000D01*
X16752250Y-9190000D01*
X16682250Y-9260000D01*
X16752250Y-9330000D01*
X16752250Y-9830000D02*
X16822250Y-9760000D01*
X16752250Y-9690000D01*
X16682250Y-9760000D01*
X16752250Y-9830000D01*
D11*
X14553750Y-6300000D02*
X14753750Y-6500000D01*
X14753750Y-6300000D02*
X14553750Y-6500000D01*
X14753750Y-6400000D02*
G75*
G03*
X14753750Y-6400000I-100000J0D01*
G01*
X16803750Y-6300000D02*
X17003750Y-6500000D01*
X17003750Y-6300000D02*
X16803750Y-6500000D01*
X17003750Y-6400000D02*
G75*
G03*
X17003750Y-6400000I-100000J0D01*
G01*
D16*
X11910000Y-7875000D02*
X12160000Y-8125000D01*
X12160000Y-7875000D02*
X11910000Y-8125000D01*
X12035000Y-7875000D02*
X12035000Y-8125000D01*
X11910000Y-8000000D02*
X12160000Y-8000000D01*
X11910000Y-13675000D02*
X12160000Y-13925000D01*
X12160000Y-13675000D02*
X11910000Y-13925000D01*
X12035000Y-13675000D02*
X12035000Y-13925000D01*
X11910000Y-13800000D02*
X12160000Y-13800000D01*
X16810000Y-7875000D02*
X17060000Y-8125000D01*
X17060000Y-7875000D02*
X16810000Y-8125000D01*
X16935000Y-7875000D02*
X16935000Y-8125000D01*
X16810000Y-8000000D02*
X17060000Y-8000000D01*
X16810000Y-13675000D02*
X17060000Y-13925000D01*
X17060000Y-13675000D02*
X16810000Y-13925000D01*
X16935000Y-13675000D02*
X16935000Y-13925000D01*
X16810000Y-13800000D02*
X17060000Y-13800000D01*
D17*
X14945000Y-4775000D02*
X15395000Y-5225000D01*
X15395000Y-4775000D02*
X14945000Y-5225000D01*
X15329101Y-5159101D02*
X15329101Y-4840899D01*
X15010899Y-4840899D01*
X15010899Y-5159101D01*
X15329101Y-5159101D01*
X15665000Y-4775000D02*
X16115000Y-5225000D01*
X16115000Y-4775000D02*
X15665000Y-5225000D01*
X16049101Y-5159101D02*
X16049101Y-4840899D01*
X15730899Y-4840899D01*
X15730899Y-5159101D01*
X16049101Y-5159101D01*
D11*
X11255777Y-14516484D02*
X11255777Y-14316484D01*
X11255777Y-14316484D02*
X11303396Y-14316484D01*
X11303396Y-14316484D02*
X11331967Y-14326008D01*
X11331967Y-14326008D02*
X11351015Y-14345055D01*
X11351015Y-14345055D02*
X11360539Y-14364103D01*
X11360539Y-14364103D02*
X11370062Y-14402198D01*
X11370062Y-14402198D02*
X11370062Y-14430769D01*
X11370062Y-14430769D02*
X11360539Y-14468865D01*
X11360539Y-14468865D02*
X11351015Y-14487912D01*
X11351015Y-14487912D02*
X11331967Y-14506960D01*
X11331967Y-14506960D02*
X11303396Y-14516484D01*
X11303396Y-14516484D02*
X11255777Y-14516484D01*
X11455777Y-14516484D02*
X11455777Y-14383150D01*
X11455777Y-14421246D02*
X11465301Y-14402198D01*
X11465301Y-14402198D02*
X11474824Y-14392674D01*
X11474824Y-14392674D02*
X11493872Y-14383150D01*
X11493872Y-14383150D02*
X11512920Y-14383150D01*
X11579586Y-14516484D02*
X11579586Y-14383150D01*
X11579586Y-14316484D02*
X11570062Y-14326008D01*
X11570062Y-14326008D02*
X11579586Y-14335531D01*
X11579586Y-14335531D02*
X11589110Y-14326008D01*
X11589110Y-14326008D02*
X11579586Y-14316484D01*
X11579586Y-14316484D02*
X11579586Y-14335531D01*
X11703396Y-14516484D02*
X11684348Y-14506960D01*
X11684348Y-14506960D02*
X11674824Y-14487912D01*
X11674824Y-14487912D02*
X11674824Y-14316484D01*
X11808158Y-14516484D02*
X11789110Y-14506960D01*
X11789110Y-14506960D02*
X11779586Y-14487912D01*
X11779586Y-14487912D02*
X11779586Y-14316484D01*
X12036729Y-14516484D02*
X12036729Y-14316484D01*
X12036729Y-14316484D02*
X12103396Y-14459341D01*
X12103396Y-14459341D02*
X12170062Y-14316484D01*
X12170062Y-14316484D02*
X12170062Y-14516484D01*
X12351015Y-14516484D02*
X12351015Y-14411722D01*
X12351015Y-14411722D02*
X12341491Y-14392674D01*
X12341491Y-14392674D02*
X12322443Y-14383150D01*
X12322443Y-14383150D02*
X12284348Y-14383150D01*
X12284348Y-14383150D02*
X12265301Y-14392674D01*
X12351015Y-14506960D02*
X12331967Y-14516484D01*
X12331967Y-14516484D02*
X12284348Y-14516484D01*
X12284348Y-14516484D02*
X12265301Y-14506960D01*
X12265301Y-14506960D02*
X12255777Y-14487912D01*
X12255777Y-14487912D02*
X12255777Y-14468865D01*
X12255777Y-14468865D02*
X12265301Y-14449817D01*
X12265301Y-14449817D02*
X12284348Y-14440293D01*
X12284348Y-14440293D02*
X12331967Y-14440293D01*
X12331967Y-14440293D02*
X12351015Y-14430769D01*
X12446253Y-14383150D02*
X12446253Y-14583150D01*
X12446253Y-14392674D02*
X12465301Y-14383150D01*
X12465301Y-14383150D02*
X12503396Y-14383150D01*
X12503396Y-14383150D02*
X12522443Y-14392674D01*
X12522443Y-14392674D02*
X12531967Y-14402198D01*
X12531967Y-14402198D02*
X12541491Y-14421246D01*
X12541491Y-14421246D02*
X12541491Y-14478388D01*
X12541491Y-14478388D02*
X12531967Y-14497436D01*
X12531967Y-14497436D02*
X12522443Y-14506960D01*
X12522443Y-14506960D02*
X12503396Y-14516484D01*
X12503396Y-14516484D02*
X12465301Y-14516484D01*
X12465301Y-14516484D02*
X12446253Y-14506960D01*
X12627205Y-14497436D02*
X12636729Y-14506960D01*
X12636729Y-14506960D02*
X12627205Y-14516484D01*
X12627205Y-14516484D02*
X12617682Y-14506960D01*
X12617682Y-14506960D02*
X12627205Y-14497436D01*
X12627205Y-14497436D02*
X12627205Y-14516484D01*
X12627205Y-14392674D02*
X12636729Y-14402198D01*
X12636729Y-14402198D02*
X12627205Y-14411722D01*
X12627205Y-14411722D02*
X12617682Y-14402198D01*
X12617682Y-14402198D02*
X12627205Y-14392674D01*
X12627205Y-14392674D02*
X12627205Y-14411722D01*
D12*
X10915000Y-14805000D02*
X10995000Y-14885000D01*
X10995000Y-14805000D02*
X10915000Y-14885000D01*
D11*
X11293872Y-14736484D02*
X11312920Y-14736484D01*
X11312920Y-14736484D02*
X11331967Y-14746008D01*
X11331967Y-14746008D02*
X11341491Y-14755531D01*
X11341491Y-14755531D02*
X11351015Y-14774579D01*
X11351015Y-14774579D02*
X11360539Y-14812674D01*
X11360539Y-14812674D02*
X11360539Y-14860293D01*
X11360539Y-14860293D02*
X11351015Y-14898388D01*
X11351015Y-14898388D02*
X11341491Y-14917436D01*
X11341491Y-14917436D02*
X11331967Y-14926960D01*
X11331967Y-14926960D02*
X11312920Y-14936484D01*
X11312920Y-14936484D02*
X11293872Y-14936484D01*
X11293872Y-14936484D02*
X11274824Y-14926960D01*
X11274824Y-14926960D02*
X11265301Y-14917436D01*
X11265301Y-14917436D02*
X11255777Y-14898388D01*
X11255777Y-14898388D02*
X11246253Y-14860293D01*
X11246253Y-14860293D02*
X11246253Y-14812674D01*
X11246253Y-14812674D02*
X11255777Y-14774579D01*
X11255777Y-14774579D02*
X11265301Y-14755531D01*
X11265301Y-14755531D02*
X11274824Y-14746008D01*
X11274824Y-14746008D02*
X11293872Y-14736484D01*
X11446253Y-14917436D02*
X11455777Y-14926960D01*
X11455777Y-14926960D02*
X11446253Y-14936484D01*
X11446253Y-14936484D02*
X11436729Y-14926960D01*
X11436729Y-14926960D02*
X11446253Y-14917436D01*
X11446253Y-14917436D02*
X11446253Y-14936484D01*
X11570062Y-14822198D02*
X11551015Y-14812674D01*
X11551015Y-14812674D02*
X11541491Y-14803150D01*
X11541491Y-14803150D02*
X11531967Y-14784103D01*
X11531967Y-14784103D02*
X11531967Y-14774579D01*
X11531967Y-14774579D02*
X11541491Y-14755531D01*
X11541491Y-14755531D02*
X11551015Y-14746008D01*
X11551015Y-14746008D02*
X11570062Y-14736484D01*
X11570062Y-14736484D02*
X11608158Y-14736484D01*
X11608158Y-14736484D02*
X11627205Y-14746008D01*
X11627205Y-14746008D02*
X11636729Y-14755531D01*
X11636729Y-14755531D02*
X11646253Y-14774579D01*
X11646253Y-14774579D02*
X11646253Y-14784103D01*
X11646253Y-14784103D02*
X11636729Y-14803150D01*
X11636729Y-14803150D02*
X11627205Y-14812674D01*
X11627205Y-14812674D02*
X11608158Y-14822198D01*
X11608158Y-14822198D02*
X11570062Y-14822198D01*
X11570062Y-14822198D02*
X11551015Y-14831722D01*
X11551015Y-14831722D02*
X11541491Y-14841246D01*
X11541491Y-14841246D02*
X11531967Y-14860293D01*
X11531967Y-14860293D02*
X11531967Y-14898388D01*
X11531967Y-14898388D02*
X11541491Y-14917436D01*
X11541491Y-14917436D02*
X11551015Y-14926960D01*
X11551015Y-14926960D02*
X11570062Y-14936484D01*
X11570062Y-14936484D02*
X11608158Y-14936484D01*
X11608158Y-14936484D02*
X11627205Y-14926960D01*
X11627205Y-14926960D02*
X11636729Y-14917436D01*
X11636729Y-14917436D02*
X11646253Y-14898388D01*
X11646253Y-14898388D02*
X11646253Y-14860293D01*
X11646253Y-14860293D02*
X11636729Y-14841246D01*
X11636729Y-14841246D02*
X11627205Y-14831722D01*
X11627205Y-14831722D02*
X11608158Y-14822198D01*
X11770062Y-14736484D02*
X11789110Y-14736484D01*
X11789110Y-14736484D02*
X11808158Y-14746008D01*
X11808158Y-14746008D02*
X11817682Y-14755531D01*
X11817682Y-14755531D02*
X11827205Y-14774579D01*
X11827205Y-14774579D02*
X11836729Y-14812674D01*
X11836729Y-14812674D02*
X11836729Y-14860293D01*
X11836729Y-14860293D02*
X11827205Y-14898388D01*
X11827205Y-14898388D02*
X11817682Y-14917436D01*
X11817682Y-14917436D02*
X11808158Y-14926960D01*
X11808158Y-14926960D02*
X11789110Y-14936484D01*
X11789110Y-14936484D02*
X11770062Y-14936484D01*
X11770062Y-14936484D02*
X11751015Y-14926960D01*
X11751015Y-14926960D02*
X11741491Y-14917436D01*
X11741491Y-14917436D02*
X11731967Y-14898388D01*
X11731967Y-14898388D02*
X11722443Y-14860293D01*
X11722443Y-14860293D02*
X11722443Y-14812674D01*
X11722443Y-14812674D02*
X11731967Y-14774579D01*
X11731967Y-14774579D02*
X11741491Y-14755531D01*
X11741491Y-14755531D02*
X11751015Y-14746008D01*
X11751015Y-14746008D02*
X11770062Y-14736484D01*
X11960539Y-14736484D02*
X11979586Y-14736484D01*
X11979586Y-14736484D02*
X11998634Y-14746008D01*
X11998634Y-14746008D02*
X12008158Y-14755531D01*
X12008158Y-14755531D02*
X12017682Y-14774579D01*
X12017682Y-14774579D02*
X12027205Y-14812674D01*
X12027205Y-14812674D02*
X12027205Y-14860293D01*
X12027205Y-14860293D02*
X12017682Y-14898388D01*
X12017682Y-14898388D02*
X12008158Y-14917436D01*
X12008158Y-14917436D02*
X11998634Y-14926960D01*
X11998634Y-14926960D02*
X11979586Y-14936484D01*
X11979586Y-14936484D02*
X11960539Y-14936484D01*
X11960539Y-14936484D02*
X11941491Y-14926960D01*
X11941491Y-14926960D02*
X11931967Y-14917436D01*
X11931967Y-14917436D02*
X11922443Y-14898388D01*
X11922443Y-14898388D02*
X11912920Y-14860293D01*
X11912920Y-14860293D02*
X11912920Y-14812674D01*
X11912920Y-14812674D02*
X11922443Y-14774579D01*
X11922443Y-14774579D02*
X11931967Y-14755531D01*
X11931967Y-14755531D02*
X11941491Y-14746008D01*
X11941491Y-14746008D02*
X11960539Y-14736484D01*
X12112920Y-14936484D02*
X12112920Y-14803150D01*
X12112920Y-14822198D02*
X12122443Y-14812674D01*
X12122443Y-14812674D02*
X12141491Y-14803150D01*
X12141491Y-14803150D02*
X12170063Y-14803150D01*
X12170063Y-14803150D02*
X12189110Y-14812674D01*
X12189110Y-14812674D02*
X12198634Y-14831722D01*
X12198634Y-14831722D02*
X12198634Y-14936484D01*
X12198634Y-14831722D02*
X12208158Y-14812674D01*
X12208158Y-14812674D02*
X12227205Y-14803150D01*
X12227205Y-14803150D02*
X12255777Y-14803150D01*
X12255777Y-14803150D02*
X12274824Y-14812674D01*
X12274824Y-14812674D02*
X12284348Y-14831722D01*
X12284348Y-14831722D02*
X12284348Y-14936484D01*
X12379586Y-14936484D02*
X12379586Y-14803150D01*
X12379586Y-14822198D02*
X12389110Y-14812674D01*
X12389110Y-14812674D02*
X12408158Y-14803150D01*
X12408158Y-14803150D02*
X12436729Y-14803150D01*
X12436729Y-14803150D02*
X12455777Y-14812674D01*
X12455777Y-14812674D02*
X12465301Y-14831722D01*
X12465301Y-14831722D02*
X12465301Y-14936484D01*
X12465301Y-14831722D02*
X12474824Y-14812674D01*
X12474824Y-14812674D02*
X12493872Y-14803150D01*
X12493872Y-14803150D02*
X12522443Y-14803150D01*
X12522443Y-14803150D02*
X12541491Y-14812674D01*
X12541491Y-14812674D02*
X12551015Y-14831722D01*
X12551015Y-14831722D02*
X12551015Y-14936484D01*
X12941491Y-14726960D02*
X12770063Y-14984103D01*
X13198634Y-14736484D02*
X13217682Y-14736484D01*
X13217682Y-14736484D02*
X13236729Y-14746008D01*
X13236729Y-14746008D02*
X13246253Y-14755531D01*
X13246253Y-14755531D02*
X13255777Y-14774579D01*
X13255777Y-14774579D02*
X13265301Y-14812674D01*
X13265301Y-14812674D02*
X13265301Y-14860293D01*
X13265301Y-14860293D02*
X13255777Y-14898388D01*
X13255777Y-14898388D02*
X13246253Y-14917436D01*
X13246253Y-14917436D02*
X13236729Y-14926960D01*
X13236729Y-14926960D02*
X13217682Y-14936484D01*
X13217682Y-14936484D02*
X13198634Y-14936484D01*
X13198634Y-14936484D02*
X13179586Y-14926960D01*
X13179586Y-14926960D02*
X13170063Y-14917436D01*
X13170063Y-14917436D02*
X13160539Y-14898388D01*
X13160539Y-14898388D02*
X13151015Y-14860293D01*
X13151015Y-14860293D02*
X13151015Y-14812674D01*
X13151015Y-14812674D02*
X13160539Y-14774579D01*
X13160539Y-14774579D02*
X13170063Y-14755531D01*
X13170063Y-14755531D02*
X13179586Y-14746008D01*
X13179586Y-14746008D02*
X13198634Y-14736484D01*
X13351015Y-14917436D02*
X13360539Y-14926960D01*
X13360539Y-14926960D02*
X13351015Y-14936484D01*
X13351015Y-14936484D02*
X13341491Y-14926960D01*
X13341491Y-14926960D02*
X13351015Y-14917436D01*
X13351015Y-14917436D02*
X13351015Y-14936484D01*
X13484348Y-14736484D02*
X13503396Y-14736484D01*
X13503396Y-14736484D02*
X13522444Y-14746008D01*
X13522444Y-14746008D02*
X13531967Y-14755531D01*
X13531967Y-14755531D02*
X13541491Y-14774579D01*
X13541491Y-14774579D02*
X13551015Y-14812674D01*
X13551015Y-14812674D02*
X13551015Y-14860293D01*
X13551015Y-14860293D02*
X13541491Y-14898388D01*
X13541491Y-14898388D02*
X13531967Y-14917436D01*
X13531967Y-14917436D02*
X13522444Y-14926960D01*
X13522444Y-14926960D02*
X13503396Y-14936484D01*
X13503396Y-14936484D02*
X13484348Y-14936484D01*
X13484348Y-14936484D02*
X13465301Y-14926960D01*
X13465301Y-14926960D02*
X13455777Y-14917436D01*
X13455777Y-14917436D02*
X13446253Y-14898388D01*
X13446253Y-14898388D02*
X13436729Y-14860293D01*
X13436729Y-14860293D02*
X13436729Y-14812674D01*
X13436729Y-14812674D02*
X13446253Y-14774579D01*
X13446253Y-14774579D02*
X13455777Y-14755531D01*
X13455777Y-14755531D02*
X13465301Y-14746008D01*
X13465301Y-14746008D02*
X13484348Y-14736484D01*
X13617682Y-14736484D02*
X13741491Y-14736484D01*
X13741491Y-14736484D02*
X13674825Y-14812674D01*
X13674825Y-14812674D02*
X13703396Y-14812674D01*
X13703396Y-14812674D02*
X13722444Y-14822198D01*
X13722444Y-14822198D02*
X13731967Y-14831722D01*
X13731967Y-14831722D02*
X13741491Y-14850769D01*
X13741491Y-14850769D02*
X13741491Y-14898388D01*
X13741491Y-14898388D02*
X13731967Y-14917436D01*
X13731967Y-14917436D02*
X13722444Y-14926960D01*
X13722444Y-14926960D02*
X13703396Y-14936484D01*
X13703396Y-14936484D02*
X13646253Y-14936484D01*
X13646253Y-14936484D02*
X13627206Y-14926960D01*
X13627206Y-14926960D02*
X13617682Y-14917436D01*
X13931967Y-14936484D02*
X13817682Y-14936484D01*
X13874825Y-14936484D02*
X13874825Y-14736484D01*
X13874825Y-14736484D02*
X13855777Y-14765055D01*
X13855777Y-14765055D02*
X13836729Y-14784103D01*
X13836729Y-14784103D02*
X13817682Y-14793627D01*
X14112920Y-14736484D02*
X14017682Y-14736484D01*
X14017682Y-14736484D02*
X14008158Y-14831722D01*
X14008158Y-14831722D02*
X14017682Y-14822198D01*
X14017682Y-14822198D02*
X14036729Y-14812674D01*
X14036729Y-14812674D02*
X14084348Y-14812674D01*
X14084348Y-14812674D02*
X14103396Y-14822198D01*
X14103396Y-14822198D02*
X14112920Y-14831722D01*
X14112920Y-14831722D02*
X14122444Y-14850769D01*
X14122444Y-14850769D02*
X14122444Y-14898388D01*
X14122444Y-14898388D02*
X14112920Y-14917436D01*
X14112920Y-14917436D02*
X14103396Y-14926960D01*
X14103396Y-14926960D02*
X14084348Y-14936484D01*
X14084348Y-14936484D02*
X14036729Y-14936484D01*
X14036729Y-14936484D02*
X14017682Y-14926960D01*
X14017682Y-14926960D02*
X14008158Y-14917436D01*
X14198634Y-14736484D02*
X14198634Y-14774579D01*
X14274825Y-14736484D02*
X14274825Y-14774579D01*
X14570063Y-15012674D02*
X14560539Y-15003150D01*
X14560539Y-15003150D02*
X14541491Y-14974579D01*
X14541491Y-14974579D02*
X14531968Y-14955531D01*
X14531968Y-14955531D02*
X14522444Y-14926960D01*
X14522444Y-14926960D02*
X14512920Y-14879341D01*
X14512920Y-14879341D02*
X14512920Y-14841246D01*
X14512920Y-14841246D02*
X14522444Y-14793627D01*
X14522444Y-14793627D02*
X14531968Y-14765055D01*
X14531968Y-14765055D02*
X14541491Y-14746008D01*
X14541491Y-14746008D02*
X14560539Y-14717436D01*
X14560539Y-14717436D02*
X14570063Y-14707912D01*
X14751015Y-14936484D02*
X14636729Y-14936484D01*
X14693872Y-14936484D02*
X14693872Y-14736484D01*
X14693872Y-14736484D02*
X14674825Y-14765055D01*
X14674825Y-14765055D02*
X14655777Y-14784103D01*
X14655777Y-14784103D02*
X14636729Y-14793627D01*
X14827206Y-14755531D02*
X14836729Y-14746008D01*
X14836729Y-14746008D02*
X14855777Y-14736484D01*
X14855777Y-14736484D02*
X14903396Y-14736484D01*
X14903396Y-14736484D02*
X14922444Y-14746008D01*
X14922444Y-14746008D02*
X14931968Y-14755531D01*
X14931968Y-14755531D02*
X14941491Y-14774579D01*
X14941491Y-14774579D02*
X14941491Y-14793627D01*
X14941491Y-14793627D02*
X14931968Y-14822198D01*
X14931968Y-14822198D02*
X14817682Y-14936484D01*
X14817682Y-14936484D02*
X14941491Y-14936484D01*
X15179587Y-14936484D02*
X15179587Y-14736484D01*
X15265301Y-14936484D02*
X15265301Y-14831722D01*
X15265301Y-14831722D02*
X15255777Y-14812674D01*
X15255777Y-14812674D02*
X15236730Y-14803150D01*
X15236730Y-14803150D02*
X15208158Y-14803150D01*
X15208158Y-14803150D02*
X15189110Y-14812674D01*
X15189110Y-14812674D02*
X15179587Y-14822198D01*
X15389110Y-14936484D02*
X15370063Y-14926960D01*
X15370063Y-14926960D02*
X15360539Y-14917436D01*
X15360539Y-14917436D02*
X15351015Y-14898388D01*
X15351015Y-14898388D02*
X15351015Y-14841246D01*
X15351015Y-14841246D02*
X15360539Y-14822198D01*
X15360539Y-14822198D02*
X15370063Y-14812674D01*
X15370063Y-14812674D02*
X15389110Y-14803150D01*
X15389110Y-14803150D02*
X15417682Y-14803150D01*
X15417682Y-14803150D02*
X15436730Y-14812674D01*
X15436730Y-14812674D02*
X15446253Y-14822198D01*
X15446253Y-14822198D02*
X15455777Y-14841246D01*
X15455777Y-14841246D02*
X15455777Y-14898388D01*
X15455777Y-14898388D02*
X15446253Y-14917436D01*
X15446253Y-14917436D02*
X15436730Y-14926960D01*
X15436730Y-14926960D02*
X15417682Y-14936484D01*
X15417682Y-14936484D02*
X15389110Y-14936484D01*
X15570063Y-14936484D02*
X15551015Y-14926960D01*
X15551015Y-14926960D02*
X15541491Y-14907912D01*
X15541491Y-14907912D02*
X15541491Y-14736484D01*
X15722444Y-14926960D02*
X15703396Y-14936484D01*
X15703396Y-14936484D02*
X15665301Y-14936484D01*
X15665301Y-14936484D02*
X15646253Y-14926960D01*
X15646253Y-14926960D02*
X15636730Y-14907912D01*
X15636730Y-14907912D02*
X15636730Y-14831722D01*
X15636730Y-14831722D02*
X15646253Y-14812674D01*
X15646253Y-14812674D02*
X15665301Y-14803150D01*
X15665301Y-14803150D02*
X15703396Y-14803150D01*
X15703396Y-14803150D02*
X15722444Y-14812674D01*
X15722444Y-14812674D02*
X15731968Y-14831722D01*
X15731968Y-14831722D02*
X15731968Y-14850769D01*
X15731968Y-14850769D02*
X15636730Y-14869817D01*
X15808158Y-14926960D02*
X15827206Y-14936484D01*
X15827206Y-14936484D02*
X15865301Y-14936484D01*
X15865301Y-14936484D02*
X15884349Y-14926960D01*
X15884349Y-14926960D02*
X15893872Y-14907912D01*
X15893872Y-14907912D02*
X15893872Y-14898388D01*
X15893872Y-14898388D02*
X15884349Y-14879341D01*
X15884349Y-14879341D02*
X15865301Y-14869817D01*
X15865301Y-14869817D02*
X15836730Y-14869817D01*
X15836730Y-14869817D02*
X15817682Y-14860293D01*
X15817682Y-14860293D02*
X15808158Y-14841246D01*
X15808158Y-14841246D02*
X15808158Y-14831722D01*
X15808158Y-14831722D02*
X15817682Y-14812674D01*
X15817682Y-14812674D02*
X15836730Y-14803150D01*
X15836730Y-14803150D02*
X15865301Y-14803150D01*
X15865301Y-14803150D02*
X15884349Y-14812674D01*
X15960539Y-15012674D02*
X15970063Y-15003150D01*
X15970063Y-15003150D02*
X15989111Y-14974579D01*
X15989111Y-14974579D02*
X15998634Y-14955531D01*
X15998634Y-14955531D02*
X16008158Y-14926960D01*
X16008158Y-14926960D02*
X16017682Y-14879341D01*
X16017682Y-14879341D02*
X16017682Y-14841246D01*
X16017682Y-14841246D02*
X16008158Y-14793627D01*
X16008158Y-14793627D02*
X15998634Y-14765055D01*
X15998634Y-14765055D02*
X15989111Y-14746008D01*
X15989111Y-14746008D02*
X15970063Y-14717436D01*
X15970063Y-14717436D02*
X15960539Y-14707912D01*
D10*
X10995000Y-15109000D02*
G75*
G03*
X10995000Y-15109000I-50000J0D01*
G01*
D11*
X11360539Y-15200484D02*
X11246253Y-15200484D01*
X11303396Y-15200484D02*
X11303396Y-15000484D01*
X11303396Y-15000484D02*
X11284348Y-15029055D01*
X11284348Y-15029055D02*
X11265301Y-15048103D01*
X11265301Y-15048103D02*
X11246253Y-15057627D01*
X11446253Y-15181436D02*
X11455777Y-15190960D01*
X11455777Y-15190960D02*
X11446253Y-15200484D01*
X11446253Y-15200484D02*
X11436729Y-15190960D01*
X11436729Y-15190960D02*
X11446253Y-15181436D01*
X11446253Y-15181436D02*
X11446253Y-15200484D01*
X11579586Y-15000484D02*
X11598634Y-15000484D01*
X11598634Y-15000484D02*
X11617682Y-15010008D01*
X11617682Y-15010008D02*
X11627205Y-15019531D01*
X11627205Y-15019531D02*
X11636729Y-15038579D01*
X11636729Y-15038579D02*
X11646253Y-15076674D01*
X11646253Y-15076674D02*
X11646253Y-15124293D01*
X11646253Y-15124293D02*
X11636729Y-15162388D01*
X11636729Y-15162388D02*
X11627205Y-15181436D01*
X11627205Y-15181436D02*
X11617682Y-15190960D01*
X11617682Y-15190960D02*
X11598634Y-15200484D01*
X11598634Y-15200484D02*
X11579586Y-15200484D01*
X11579586Y-15200484D02*
X11560539Y-15190960D01*
X11560539Y-15190960D02*
X11551015Y-15181436D01*
X11551015Y-15181436D02*
X11541491Y-15162388D01*
X11541491Y-15162388D02*
X11531967Y-15124293D01*
X11531967Y-15124293D02*
X11531967Y-15076674D01*
X11531967Y-15076674D02*
X11541491Y-15038579D01*
X11541491Y-15038579D02*
X11551015Y-15019531D01*
X11551015Y-15019531D02*
X11560539Y-15010008D01*
X11560539Y-15010008D02*
X11579586Y-15000484D01*
X11770062Y-15000484D02*
X11789110Y-15000484D01*
X11789110Y-15000484D02*
X11808158Y-15010008D01*
X11808158Y-15010008D02*
X11817682Y-15019531D01*
X11817682Y-15019531D02*
X11827205Y-15038579D01*
X11827205Y-15038579D02*
X11836729Y-15076674D01*
X11836729Y-15076674D02*
X11836729Y-15124293D01*
X11836729Y-15124293D02*
X11827205Y-15162388D01*
X11827205Y-15162388D02*
X11817682Y-15181436D01*
X11817682Y-15181436D02*
X11808158Y-15190960D01*
X11808158Y-15190960D02*
X11789110Y-15200484D01*
X11789110Y-15200484D02*
X11770062Y-15200484D01*
X11770062Y-15200484D02*
X11751015Y-15190960D01*
X11751015Y-15190960D02*
X11741491Y-15181436D01*
X11741491Y-15181436D02*
X11731967Y-15162388D01*
X11731967Y-15162388D02*
X11722443Y-15124293D01*
X11722443Y-15124293D02*
X11722443Y-15076674D01*
X11722443Y-15076674D02*
X11731967Y-15038579D01*
X11731967Y-15038579D02*
X11741491Y-15019531D01*
X11741491Y-15019531D02*
X11751015Y-15010008D01*
X11751015Y-15010008D02*
X11770062Y-15000484D01*
X11960539Y-15000484D02*
X11979586Y-15000484D01*
X11979586Y-15000484D02*
X11998634Y-15010008D01*
X11998634Y-15010008D02*
X12008158Y-15019531D01*
X12008158Y-15019531D02*
X12017682Y-15038579D01*
X12017682Y-15038579D02*
X12027205Y-15076674D01*
X12027205Y-15076674D02*
X12027205Y-15124293D01*
X12027205Y-15124293D02*
X12017682Y-15162388D01*
X12017682Y-15162388D02*
X12008158Y-15181436D01*
X12008158Y-15181436D02*
X11998634Y-15190960D01*
X11998634Y-15190960D02*
X11979586Y-15200484D01*
X11979586Y-15200484D02*
X11960539Y-15200484D01*
X11960539Y-15200484D02*
X11941491Y-15190960D01*
X11941491Y-15190960D02*
X11931967Y-15181436D01*
X11931967Y-15181436D02*
X11922443Y-15162388D01*
X11922443Y-15162388D02*
X11912920Y-15124293D01*
X11912920Y-15124293D02*
X11912920Y-15076674D01*
X11912920Y-15076674D02*
X11922443Y-15038579D01*
X11922443Y-15038579D02*
X11931967Y-15019531D01*
X11931967Y-15019531D02*
X11941491Y-15010008D01*
X11941491Y-15010008D02*
X11960539Y-15000484D01*
X12112920Y-15200484D02*
X12112920Y-15067150D01*
X12112920Y-15086198D02*
X12122443Y-15076674D01*
X12122443Y-15076674D02*
X12141491Y-15067150D01*
X12141491Y-15067150D02*
X12170063Y-15067150D01*
X12170063Y-15067150D02*
X12189110Y-15076674D01*
X12189110Y-15076674D02*
X12198634Y-15095722D01*
X12198634Y-15095722D02*
X12198634Y-15200484D01*
X12198634Y-15095722D02*
X12208158Y-15076674D01*
X12208158Y-15076674D02*
X12227205Y-15067150D01*
X12227205Y-15067150D02*
X12255777Y-15067150D01*
X12255777Y-15067150D02*
X12274824Y-15076674D01*
X12274824Y-15076674D02*
X12284348Y-15095722D01*
X12284348Y-15095722D02*
X12284348Y-15200484D01*
X12379586Y-15200484D02*
X12379586Y-15067150D01*
X12379586Y-15086198D02*
X12389110Y-15076674D01*
X12389110Y-15076674D02*
X12408158Y-15067150D01*
X12408158Y-15067150D02*
X12436729Y-15067150D01*
X12436729Y-15067150D02*
X12455777Y-15076674D01*
X12455777Y-15076674D02*
X12465301Y-15095722D01*
X12465301Y-15095722D02*
X12465301Y-15200484D01*
X12465301Y-15095722D02*
X12474824Y-15076674D01*
X12474824Y-15076674D02*
X12493872Y-15067150D01*
X12493872Y-15067150D02*
X12522443Y-15067150D01*
X12522443Y-15067150D02*
X12541491Y-15076674D01*
X12541491Y-15076674D02*
X12551015Y-15095722D01*
X12551015Y-15095722D02*
X12551015Y-15200484D01*
X12941491Y-14990960D02*
X12770063Y-15248103D01*
X13198634Y-15000484D02*
X13217682Y-15000484D01*
X13217682Y-15000484D02*
X13236729Y-15010008D01*
X13236729Y-15010008D02*
X13246253Y-15019531D01*
X13246253Y-15019531D02*
X13255777Y-15038579D01*
X13255777Y-15038579D02*
X13265301Y-15076674D01*
X13265301Y-15076674D02*
X13265301Y-15124293D01*
X13265301Y-15124293D02*
X13255777Y-15162388D01*
X13255777Y-15162388D02*
X13246253Y-15181436D01*
X13246253Y-15181436D02*
X13236729Y-15190960D01*
X13236729Y-15190960D02*
X13217682Y-15200484D01*
X13217682Y-15200484D02*
X13198634Y-15200484D01*
X13198634Y-15200484D02*
X13179586Y-15190960D01*
X13179586Y-15190960D02*
X13170063Y-15181436D01*
X13170063Y-15181436D02*
X13160539Y-15162388D01*
X13160539Y-15162388D02*
X13151015Y-15124293D01*
X13151015Y-15124293D02*
X13151015Y-15076674D01*
X13151015Y-15076674D02*
X13160539Y-15038579D01*
X13160539Y-15038579D02*
X13170063Y-15019531D01*
X13170063Y-15019531D02*
X13179586Y-15010008D01*
X13179586Y-15010008D02*
X13198634Y-15000484D01*
X13351015Y-15181436D02*
X13360539Y-15190960D01*
X13360539Y-15190960D02*
X13351015Y-15200484D01*
X13351015Y-15200484D02*
X13341491Y-15190960D01*
X13341491Y-15190960D02*
X13351015Y-15181436D01*
X13351015Y-15181436D02*
X13351015Y-15200484D01*
X13484348Y-15000484D02*
X13503396Y-15000484D01*
X13503396Y-15000484D02*
X13522444Y-15010008D01*
X13522444Y-15010008D02*
X13531967Y-15019531D01*
X13531967Y-15019531D02*
X13541491Y-15038579D01*
X13541491Y-15038579D02*
X13551015Y-15076674D01*
X13551015Y-15076674D02*
X13551015Y-15124293D01*
X13551015Y-15124293D02*
X13541491Y-15162388D01*
X13541491Y-15162388D02*
X13531967Y-15181436D01*
X13531967Y-15181436D02*
X13522444Y-15190960D01*
X13522444Y-15190960D02*
X13503396Y-15200484D01*
X13503396Y-15200484D02*
X13484348Y-15200484D01*
X13484348Y-15200484D02*
X13465301Y-15190960D01*
X13465301Y-15190960D02*
X13455777Y-15181436D01*
X13455777Y-15181436D02*
X13446253Y-15162388D01*
X13446253Y-15162388D02*
X13436729Y-15124293D01*
X13436729Y-15124293D02*
X13436729Y-15076674D01*
X13436729Y-15076674D02*
X13446253Y-15038579D01*
X13446253Y-15038579D02*
X13455777Y-15019531D01*
X13455777Y-15019531D02*
X13465301Y-15010008D01*
X13465301Y-15010008D02*
X13484348Y-15000484D01*
X13617682Y-15000484D02*
X13741491Y-15000484D01*
X13741491Y-15000484D02*
X13674825Y-15076674D01*
X13674825Y-15076674D02*
X13703396Y-15076674D01*
X13703396Y-15076674D02*
X13722444Y-15086198D01*
X13722444Y-15086198D02*
X13731967Y-15095722D01*
X13731967Y-15095722D02*
X13741491Y-15114769D01*
X13741491Y-15114769D02*
X13741491Y-15162388D01*
X13741491Y-15162388D02*
X13731967Y-15181436D01*
X13731967Y-15181436D02*
X13722444Y-15190960D01*
X13722444Y-15190960D02*
X13703396Y-15200484D01*
X13703396Y-15200484D02*
X13646253Y-15200484D01*
X13646253Y-15200484D02*
X13627206Y-15190960D01*
X13627206Y-15190960D02*
X13617682Y-15181436D01*
X13836729Y-15200484D02*
X13874825Y-15200484D01*
X13874825Y-15200484D02*
X13893872Y-15190960D01*
X13893872Y-15190960D02*
X13903396Y-15181436D01*
X13903396Y-15181436D02*
X13922444Y-15152865D01*
X13922444Y-15152865D02*
X13931967Y-15114769D01*
X13931967Y-15114769D02*
X13931967Y-15038579D01*
X13931967Y-15038579D02*
X13922444Y-15019531D01*
X13922444Y-15019531D02*
X13912920Y-15010008D01*
X13912920Y-15010008D02*
X13893872Y-15000484D01*
X13893872Y-15000484D02*
X13855777Y-15000484D01*
X13855777Y-15000484D02*
X13836729Y-15010008D01*
X13836729Y-15010008D02*
X13827206Y-15019531D01*
X13827206Y-15019531D02*
X13817682Y-15038579D01*
X13817682Y-15038579D02*
X13817682Y-15086198D01*
X13817682Y-15086198D02*
X13827206Y-15105246D01*
X13827206Y-15105246D02*
X13836729Y-15114769D01*
X13836729Y-15114769D02*
X13855777Y-15124293D01*
X13855777Y-15124293D02*
X13893872Y-15124293D01*
X13893872Y-15124293D02*
X13912920Y-15114769D01*
X13912920Y-15114769D02*
X13922444Y-15105246D01*
X13922444Y-15105246D02*
X13931967Y-15086198D01*
X14103396Y-15067150D02*
X14103396Y-15200484D01*
X14055777Y-14990960D02*
X14008158Y-15133817D01*
X14008158Y-15133817D02*
X14131967Y-15133817D01*
X14198634Y-15000484D02*
X14198634Y-15038579D01*
X14274825Y-15000484D02*
X14274825Y-15038579D01*
X14570063Y-15276674D02*
X14560539Y-15267150D01*
X14560539Y-15267150D02*
X14541491Y-15238579D01*
X14541491Y-15238579D02*
X14531968Y-15219531D01*
X14531968Y-15219531D02*
X14522444Y-15190960D01*
X14522444Y-15190960D02*
X14512920Y-15143341D01*
X14512920Y-15143341D02*
X14512920Y-15105246D01*
X14512920Y-15105246D02*
X14522444Y-15057627D01*
X14522444Y-15057627D02*
X14531968Y-15029055D01*
X14531968Y-15029055D02*
X14541491Y-15010008D01*
X14541491Y-15010008D02*
X14560539Y-14981436D01*
X14560539Y-14981436D02*
X14570063Y-14971912D01*
X14655777Y-15200484D02*
X14693872Y-15200484D01*
X14693872Y-15200484D02*
X14712920Y-15190960D01*
X14712920Y-15190960D02*
X14722444Y-15181436D01*
X14722444Y-15181436D02*
X14741491Y-15152865D01*
X14741491Y-15152865D02*
X14751015Y-15114769D01*
X14751015Y-15114769D02*
X14751015Y-15038579D01*
X14751015Y-15038579D02*
X14741491Y-15019531D01*
X14741491Y-15019531D02*
X14731968Y-15010008D01*
X14731968Y-15010008D02*
X14712920Y-15000484D01*
X14712920Y-15000484D02*
X14674825Y-15000484D01*
X14674825Y-15000484D02*
X14655777Y-15010008D01*
X14655777Y-15010008D02*
X14646253Y-15019531D01*
X14646253Y-15019531D02*
X14636729Y-15038579D01*
X14636729Y-15038579D02*
X14636729Y-15086198D01*
X14636729Y-15086198D02*
X14646253Y-15105246D01*
X14646253Y-15105246D02*
X14655777Y-15114769D01*
X14655777Y-15114769D02*
X14674825Y-15124293D01*
X14674825Y-15124293D02*
X14712920Y-15124293D01*
X14712920Y-15124293D02*
X14731968Y-15114769D01*
X14731968Y-15114769D02*
X14741491Y-15105246D01*
X14741491Y-15105246D02*
X14751015Y-15086198D01*
X14922444Y-15000484D02*
X14884348Y-15000484D01*
X14884348Y-15000484D02*
X14865301Y-15010008D01*
X14865301Y-15010008D02*
X14855777Y-15019531D01*
X14855777Y-15019531D02*
X14836729Y-15048103D01*
X14836729Y-15048103D02*
X14827206Y-15086198D01*
X14827206Y-15086198D02*
X14827206Y-15162388D01*
X14827206Y-15162388D02*
X14836729Y-15181436D01*
X14836729Y-15181436D02*
X14846253Y-15190960D01*
X14846253Y-15190960D02*
X14865301Y-15200484D01*
X14865301Y-15200484D02*
X14903396Y-15200484D01*
X14903396Y-15200484D02*
X14922444Y-15190960D01*
X14922444Y-15190960D02*
X14931968Y-15181436D01*
X14931968Y-15181436D02*
X14941491Y-15162388D01*
X14941491Y-15162388D02*
X14941491Y-15114769D01*
X14941491Y-15114769D02*
X14931968Y-15095722D01*
X14931968Y-15095722D02*
X14922444Y-15086198D01*
X14922444Y-15086198D02*
X14903396Y-15076674D01*
X14903396Y-15076674D02*
X14865301Y-15076674D01*
X14865301Y-15076674D02*
X14846253Y-15086198D01*
X14846253Y-15086198D02*
X14836729Y-15095722D01*
X14836729Y-15095722D02*
X14827206Y-15114769D01*
X15179587Y-15200484D02*
X15179587Y-15000484D01*
X15265301Y-15200484D02*
X15265301Y-15095722D01*
X15265301Y-15095722D02*
X15255777Y-15076674D01*
X15255777Y-15076674D02*
X15236730Y-15067150D01*
X15236730Y-15067150D02*
X15208158Y-15067150D01*
X15208158Y-15067150D02*
X15189110Y-15076674D01*
X15189110Y-15076674D02*
X15179587Y-15086198D01*
X15389110Y-15200484D02*
X15370063Y-15190960D01*
X15370063Y-15190960D02*
X15360539Y-15181436D01*
X15360539Y-15181436D02*
X15351015Y-15162388D01*
X15351015Y-15162388D02*
X15351015Y-15105246D01*
X15351015Y-15105246D02*
X15360539Y-15086198D01*
X15360539Y-15086198D02*
X15370063Y-15076674D01*
X15370063Y-15076674D02*
X15389110Y-15067150D01*
X15389110Y-15067150D02*
X15417682Y-15067150D01*
X15417682Y-15067150D02*
X15436730Y-15076674D01*
X15436730Y-15076674D02*
X15446253Y-15086198D01*
X15446253Y-15086198D02*
X15455777Y-15105246D01*
X15455777Y-15105246D02*
X15455777Y-15162388D01*
X15455777Y-15162388D02*
X15446253Y-15181436D01*
X15446253Y-15181436D02*
X15436730Y-15190960D01*
X15436730Y-15190960D02*
X15417682Y-15200484D01*
X15417682Y-15200484D02*
X15389110Y-15200484D01*
X15570063Y-15200484D02*
X15551015Y-15190960D01*
X15551015Y-15190960D02*
X15541491Y-15171912D01*
X15541491Y-15171912D02*
X15541491Y-15000484D01*
X15722444Y-15190960D02*
X15703396Y-15200484D01*
X15703396Y-15200484D02*
X15665301Y-15200484D01*
X15665301Y-15200484D02*
X15646253Y-15190960D01*
X15646253Y-15190960D02*
X15636730Y-15171912D01*
X15636730Y-15171912D02*
X15636730Y-15095722D01*
X15636730Y-15095722D02*
X15646253Y-15076674D01*
X15646253Y-15076674D02*
X15665301Y-15067150D01*
X15665301Y-15067150D02*
X15703396Y-15067150D01*
X15703396Y-15067150D02*
X15722444Y-15076674D01*
X15722444Y-15076674D02*
X15731968Y-15095722D01*
X15731968Y-15095722D02*
X15731968Y-15114769D01*
X15731968Y-15114769D02*
X15636730Y-15133817D01*
X15808158Y-15190960D02*
X15827206Y-15200484D01*
X15827206Y-15200484D02*
X15865301Y-15200484D01*
X15865301Y-15200484D02*
X15884349Y-15190960D01*
X15884349Y-15190960D02*
X15893872Y-15171912D01*
X15893872Y-15171912D02*
X15893872Y-15162388D01*
X15893872Y-15162388D02*
X15884349Y-15143341D01*
X15884349Y-15143341D02*
X15865301Y-15133817D01*
X15865301Y-15133817D02*
X15836730Y-15133817D01*
X15836730Y-15133817D02*
X15817682Y-15124293D01*
X15817682Y-15124293D02*
X15808158Y-15105246D01*
X15808158Y-15105246D02*
X15808158Y-15095722D01*
X15808158Y-15095722D02*
X15817682Y-15076674D01*
X15817682Y-15076674D02*
X15836730Y-15067150D01*
X15836730Y-15067150D02*
X15865301Y-15067150D01*
X15865301Y-15067150D02*
X15884349Y-15076674D01*
X15960539Y-15276674D02*
X15970063Y-15267150D01*
X15970063Y-15267150D02*
X15989111Y-15238579D01*
X15989111Y-15238579D02*
X15998634Y-15219531D01*
X15998634Y-15219531D02*
X16008158Y-15190960D01*
X16008158Y-15190960D02*
X16017682Y-15143341D01*
X16017682Y-15143341D02*
X16017682Y-15105246D01*
X16017682Y-15105246D02*
X16008158Y-15057627D01*
X16008158Y-15057627D02*
X15998634Y-15029055D01*
X15998634Y-15029055D02*
X15989111Y-15010008D01*
X15989111Y-15010008D02*
X15970063Y-14981436D01*
X15970063Y-14981436D02*
X15960539Y-14971912D01*
D13*
X10935000Y-15313000D02*
X10935000Y-15433000D01*
X10875000Y-15373000D02*
X10995000Y-15373000D01*
D11*
X11360539Y-15464484D02*
X11246253Y-15464484D01*
X11303396Y-15464484D02*
X11303396Y-15264484D01*
X11303396Y-15264484D02*
X11284348Y-15293055D01*
X11284348Y-15293055D02*
X11265301Y-15312103D01*
X11265301Y-15312103D02*
X11246253Y-15321627D01*
X11446253Y-15445436D02*
X11455777Y-15454960D01*
X11455777Y-15454960D02*
X11446253Y-15464484D01*
X11446253Y-15464484D02*
X11436729Y-15454960D01*
X11436729Y-15454960D02*
X11446253Y-15445436D01*
X11446253Y-15445436D02*
X11446253Y-15464484D01*
X11531967Y-15283531D02*
X11541491Y-15274008D01*
X11541491Y-15274008D02*
X11560539Y-15264484D01*
X11560539Y-15264484D02*
X11608158Y-15264484D01*
X11608158Y-15264484D02*
X11627205Y-15274008D01*
X11627205Y-15274008D02*
X11636729Y-15283531D01*
X11636729Y-15283531D02*
X11646253Y-15302579D01*
X11646253Y-15302579D02*
X11646253Y-15321627D01*
X11646253Y-15321627D02*
X11636729Y-15350198D01*
X11636729Y-15350198D02*
X11522443Y-15464484D01*
X11522443Y-15464484D02*
X11646253Y-15464484D01*
X11770062Y-15264484D02*
X11789110Y-15264484D01*
X11789110Y-15264484D02*
X11808158Y-15274008D01*
X11808158Y-15274008D02*
X11817682Y-15283531D01*
X11817682Y-15283531D02*
X11827205Y-15302579D01*
X11827205Y-15302579D02*
X11836729Y-15340674D01*
X11836729Y-15340674D02*
X11836729Y-15388293D01*
X11836729Y-15388293D02*
X11827205Y-15426388D01*
X11827205Y-15426388D02*
X11817682Y-15445436D01*
X11817682Y-15445436D02*
X11808158Y-15454960D01*
X11808158Y-15454960D02*
X11789110Y-15464484D01*
X11789110Y-15464484D02*
X11770062Y-15464484D01*
X11770062Y-15464484D02*
X11751015Y-15454960D01*
X11751015Y-15454960D02*
X11741491Y-15445436D01*
X11741491Y-15445436D02*
X11731967Y-15426388D01*
X11731967Y-15426388D02*
X11722443Y-15388293D01*
X11722443Y-15388293D02*
X11722443Y-15340674D01*
X11722443Y-15340674D02*
X11731967Y-15302579D01*
X11731967Y-15302579D02*
X11741491Y-15283531D01*
X11741491Y-15283531D02*
X11751015Y-15274008D01*
X11751015Y-15274008D02*
X11770062Y-15264484D01*
X11960539Y-15264484D02*
X11979586Y-15264484D01*
X11979586Y-15264484D02*
X11998634Y-15274008D01*
X11998634Y-15274008D02*
X12008158Y-15283531D01*
X12008158Y-15283531D02*
X12017682Y-15302579D01*
X12017682Y-15302579D02*
X12027205Y-15340674D01*
X12027205Y-15340674D02*
X12027205Y-15388293D01*
X12027205Y-15388293D02*
X12017682Y-15426388D01*
X12017682Y-15426388D02*
X12008158Y-15445436D01*
X12008158Y-15445436D02*
X11998634Y-15454960D01*
X11998634Y-15454960D02*
X11979586Y-15464484D01*
X11979586Y-15464484D02*
X11960539Y-15464484D01*
X11960539Y-15464484D02*
X11941491Y-15454960D01*
X11941491Y-15454960D02*
X11931967Y-15445436D01*
X11931967Y-15445436D02*
X11922443Y-15426388D01*
X11922443Y-15426388D02*
X11912920Y-15388293D01*
X11912920Y-15388293D02*
X11912920Y-15340674D01*
X11912920Y-15340674D02*
X11922443Y-15302579D01*
X11922443Y-15302579D02*
X11931967Y-15283531D01*
X11931967Y-15283531D02*
X11941491Y-15274008D01*
X11941491Y-15274008D02*
X11960539Y-15264484D01*
X12112920Y-15464484D02*
X12112920Y-15331150D01*
X12112920Y-15350198D02*
X12122443Y-15340674D01*
X12122443Y-15340674D02*
X12141491Y-15331150D01*
X12141491Y-15331150D02*
X12170063Y-15331150D01*
X12170063Y-15331150D02*
X12189110Y-15340674D01*
X12189110Y-15340674D02*
X12198634Y-15359722D01*
X12198634Y-15359722D02*
X12198634Y-15464484D01*
X12198634Y-15359722D02*
X12208158Y-15340674D01*
X12208158Y-15340674D02*
X12227205Y-15331150D01*
X12227205Y-15331150D02*
X12255777Y-15331150D01*
X12255777Y-15331150D02*
X12274824Y-15340674D01*
X12274824Y-15340674D02*
X12284348Y-15359722D01*
X12284348Y-15359722D02*
X12284348Y-15464484D01*
X12379586Y-15464484D02*
X12379586Y-15331150D01*
X12379586Y-15350198D02*
X12389110Y-15340674D01*
X12389110Y-15340674D02*
X12408158Y-15331150D01*
X12408158Y-15331150D02*
X12436729Y-15331150D01*
X12436729Y-15331150D02*
X12455777Y-15340674D01*
X12455777Y-15340674D02*
X12465301Y-15359722D01*
X12465301Y-15359722D02*
X12465301Y-15464484D01*
X12465301Y-15359722D02*
X12474824Y-15340674D01*
X12474824Y-15340674D02*
X12493872Y-15331150D01*
X12493872Y-15331150D02*
X12522443Y-15331150D01*
X12522443Y-15331150D02*
X12541491Y-15340674D01*
X12541491Y-15340674D02*
X12551015Y-15359722D01*
X12551015Y-15359722D02*
X12551015Y-15464484D01*
X12941491Y-15254960D02*
X12770063Y-15512103D01*
X13198634Y-15264484D02*
X13217682Y-15264484D01*
X13217682Y-15264484D02*
X13236729Y-15274008D01*
X13236729Y-15274008D02*
X13246253Y-15283531D01*
X13246253Y-15283531D02*
X13255777Y-15302579D01*
X13255777Y-15302579D02*
X13265301Y-15340674D01*
X13265301Y-15340674D02*
X13265301Y-15388293D01*
X13265301Y-15388293D02*
X13255777Y-15426388D01*
X13255777Y-15426388D02*
X13246253Y-15445436D01*
X13246253Y-15445436D02*
X13236729Y-15454960D01*
X13236729Y-15454960D02*
X13217682Y-15464484D01*
X13217682Y-15464484D02*
X13198634Y-15464484D01*
X13198634Y-15464484D02*
X13179586Y-15454960D01*
X13179586Y-15454960D02*
X13170063Y-15445436D01*
X13170063Y-15445436D02*
X13160539Y-15426388D01*
X13160539Y-15426388D02*
X13151015Y-15388293D01*
X13151015Y-15388293D02*
X13151015Y-15340674D01*
X13151015Y-15340674D02*
X13160539Y-15302579D01*
X13160539Y-15302579D02*
X13170063Y-15283531D01*
X13170063Y-15283531D02*
X13179586Y-15274008D01*
X13179586Y-15274008D02*
X13198634Y-15264484D01*
X13351015Y-15445436D02*
X13360539Y-15454960D01*
X13360539Y-15454960D02*
X13351015Y-15464484D01*
X13351015Y-15464484D02*
X13341491Y-15454960D01*
X13341491Y-15454960D02*
X13351015Y-15445436D01*
X13351015Y-15445436D02*
X13351015Y-15464484D01*
X13484348Y-15264484D02*
X13503396Y-15264484D01*
X13503396Y-15264484D02*
X13522444Y-15274008D01*
X13522444Y-15274008D02*
X13531967Y-15283531D01*
X13531967Y-15283531D02*
X13541491Y-15302579D01*
X13541491Y-15302579D02*
X13551015Y-15340674D01*
X13551015Y-15340674D02*
X13551015Y-15388293D01*
X13551015Y-15388293D02*
X13541491Y-15426388D01*
X13541491Y-15426388D02*
X13531967Y-15445436D01*
X13531967Y-15445436D02*
X13522444Y-15454960D01*
X13522444Y-15454960D02*
X13503396Y-15464484D01*
X13503396Y-15464484D02*
X13484348Y-15464484D01*
X13484348Y-15464484D02*
X13465301Y-15454960D01*
X13465301Y-15454960D02*
X13455777Y-15445436D01*
X13455777Y-15445436D02*
X13446253Y-15426388D01*
X13446253Y-15426388D02*
X13436729Y-15388293D01*
X13436729Y-15388293D02*
X13436729Y-15340674D01*
X13436729Y-15340674D02*
X13446253Y-15302579D01*
X13446253Y-15302579D02*
X13455777Y-15283531D01*
X13455777Y-15283531D02*
X13465301Y-15274008D01*
X13465301Y-15274008D02*
X13484348Y-15264484D01*
X13722444Y-15331150D02*
X13722444Y-15464484D01*
X13674825Y-15254960D02*
X13627206Y-15397817D01*
X13627206Y-15397817D02*
X13751015Y-15397817D01*
X13808158Y-15264484D02*
X13941491Y-15264484D01*
X13941491Y-15264484D02*
X13855777Y-15464484D01*
X14008158Y-15283531D02*
X14017682Y-15274008D01*
X14017682Y-15274008D02*
X14036729Y-15264484D01*
X14036729Y-15264484D02*
X14084348Y-15264484D01*
X14084348Y-15264484D02*
X14103396Y-15274008D01*
X14103396Y-15274008D02*
X14112920Y-15283531D01*
X14112920Y-15283531D02*
X14122444Y-15302579D01*
X14122444Y-15302579D02*
X14122444Y-15321627D01*
X14122444Y-15321627D02*
X14112920Y-15350198D01*
X14112920Y-15350198D02*
X13998634Y-15464484D01*
X13998634Y-15464484D02*
X14122444Y-15464484D01*
X14198634Y-15264484D02*
X14198634Y-15302579D01*
X14274825Y-15264484D02*
X14274825Y-15302579D01*
X14570063Y-15540674D02*
X14560539Y-15531150D01*
X14560539Y-15531150D02*
X14541491Y-15502579D01*
X14541491Y-15502579D02*
X14531968Y-15483531D01*
X14531968Y-15483531D02*
X14522444Y-15454960D01*
X14522444Y-15454960D02*
X14512920Y-15407341D01*
X14512920Y-15407341D02*
X14512920Y-15369246D01*
X14512920Y-15369246D02*
X14522444Y-15321627D01*
X14522444Y-15321627D02*
X14531968Y-15293055D01*
X14531968Y-15293055D02*
X14541491Y-15274008D01*
X14541491Y-15274008D02*
X14560539Y-15245436D01*
X14560539Y-15245436D02*
X14570063Y-15235912D01*
X14731968Y-15331150D02*
X14731968Y-15464484D01*
X14684348Y-15254960D02*
X14636729Y-15397817D01*
X14636729Y-15397817D02*
X14760539Y-15397817D01*
X14989110Y-15464484D02*
X14989110Y-15264484D01*
X15074825Y-15464484D02*
X15074825Y-15359722D01*
X15074825Y-15359722D02*
X15065301Y-15340674D01*
X15065301Y-15340674D02*
X15046253Y-15331150D01*
X15046253Y-15331150D02*
X15017682Y-15331150D01*
X15017682Y-15331150D02*
X14998634Y-15340674D01*
X14998634Y-15340674D02*
X14989110Y-15350198D01*
X15198634Y-15464484D02*
X15179587Y-15454960D01*
X15179587Y-15454960D02*
X15170063Y-15445436D01*
X15170063Y-15445436D02*
X15160539Y-15426388D01*
X15160539Y-15426388D02*
X15160539Y-15369246D01*
X15160539Y-15369246D02*
X15170063Y-15350198D01*
X15170063Y-15350198D02*
X15179587Y-15340674D01*
X15179587Y-15340674D02*
X15198634Y-15331150D01*
X15198634Y-15331150D02*
X15227206Y-15331150D01*
X15227206Y-15331150D02*
X15246253Y-15340674D01*
X15246253Y-15340674D02*
X15255777Y-15350198D01*
X15255777Y-15350198D02*
X15265301Y-15369246D01*
X15265301Y-15369246D02*
X15265301Y-15426388D01*
X15265301Y-15426388D02*
X15255777Y-15445436D01*
X15255777Y-15445436D02*
X15246253Y-15454960D01*
X15246253Y-15454960D02*
X15227206Y-15464484D01*
X15227206Y-15464484D02*
X15198634Y-15464484D01*
X15379587Y-15464484D02*
X15360539Y-15454960D01*
X15360539Y-15454960D02*
X15351015Y-15435912D01*
X15351015Y-15435912D02*
X15351015Y-15264484D01*
X15531968Y-15454960D02*
X15512920Y-15464484D01*
X15512920Y-15464484D02*
X15474825Y-15464484D01*
X15474825Y-15464484D02*
X15455777Y-15454960D01*
X15455777Y-15454960D02*
X15446253Y-15435912D01*
X15446253Y-15435912D02*
X15446253Y-15359722D01*
X15446253Y-15359722D02*
X15455777Y-15340674D01*
X15455777Y-15340674D02*
X15474825Y-15331150D01*
X15474825Y-15331150D02*
X15512920Y-15331150D01*
X15512920Y-15331150D02*
X15531968Y-15340674D01*
X15531968Y-15340674D02*
X15541491Y-15359722D01*
X15541491Y-15359722D02*
X15541491Y-15378769D01*
X15541491Y-15378769D02*
X15446253Y-15397817D01*
X15617682Y-15454960D02*
X15636730Y-15464484D01*
X15636730Y-15464484D02*
X15674825Y-15464484D01*
X15674825Y-15464484D02*
X15693872Y-15454960D01*
X15693872Y-15454960D02*
X15703396Y-15435912D01*
X15703396Y-15435912D02*
X15703396Y-15426388D01*
X15703396Y-15426388D02*
X15693872Y-15407341D01*
X15693872Y-15407341D02*
X15674825Y-15397817D01*
X15674825Y-15397817D02*
X15646253Y-15397817D01*
X15646253Y-15397817D02*
X15627206Y-15388293D01*
X15627206Y-15388293D02*
X15617682Y-15369246D01*
X15617682Y-15369246D02*
X15617682Y-15359722D01*
X15617682Y-15359722D02*
X15627206Y-15340674D01*
X15627206Y-15340674D02*
X15646253Y-15331150D01*
X15646253Y-15331150D02*
X15674825Y-15331150D01*
X15674825Y-15331150D02*
X15693872Y-15340674D01*
X15770063Y-15540674D02*
X15779587Y-15531150D01*
X15779587Y-15531150D02*
X15798634Y-15502579D01*
X15798634Y-15502579D02*
X15808158Y-15483531D01*
X15808158Y-15483531D02*
X15817682Y-15454960D01*
X15817682Y-15454960D02*
X15827206Y-15407341D01*
X15827206Y-15407341D02*
X15827206Y-15369246D01*
X15827206Y-15369246D02*
X15817682Y-15321627D01*
X15817682Y-15321627D02*
X15808158Y-15293055D01*
X15808158Y-15293055D02*
X15798634Y-15274008D01*
X15798634Y-15274008D02*
X15779587Y-15245436D01*
X15779587Y-15245436D02*
X15770063Y-15235912D01*
D14*
X10975962Y-15682962D02*
X10975962Y-15591038D01*
X10884038Y-15591038D01*
X10884038Y-15682962D01*
X10975962Y-15682962D01*
D11*
X11360539Y-15728484D02*
X11246253Y-15728484D01*
X11303396Y-15728484D02*
X11303396Y-15528484D01*
X11303396Y-15528484D02*
X11284348Y-15557055D01*
X11284348Y-15557055D02*
X11265301Y-15576103D01*
X11265301Y-15576103D02*
X11246253Y-15585627D01*
X11446253Y-15709436D02*
X11455777Y-15718960D01*
X11455777Y-15718960D02*
X11446253Y-15728484D01*
X11446253Y-15728484D02*
X11436729Y-15718960D01*
X11436729Y-15718960D02*
X11446253Y-15709436D01*
X11446253Y-15709436D02*
X11446253Y-15728484D01*
X11522443Y-15528484D02*
X11646253Y-15528484D01*
X11646253Y-15528484D02*
X11579586Y-15604674D01*
X11579586Y-15604674D02*
X11608158Y-15604674D01*
X11608158Y-15604674D02*
X11627205Y-15614198D01*
X11627205Y-15614198D02*
X11636729Y-15623722D01*
X11636729Y-15623722D02*
X11646253Y-15642769D01*
X11646253Y-15642769D02*
X11646253Y-15690388D01*
X11646253Y-15690388D02*
X11636729Y-15709436D01*
X11636729Y-15709436D02*
X11627205Y-15718960D01*
X11627205Y-15718960D02*
X11608158Y-15728484D01*
X11608158Y-15728484D02*
X11551015Y-15728484D01*
X11551015Y-15728484D02*
X11531967Y-15718960D01*
X11531967Y-15718960D02*
X11522443Y-15709436D01*
X11770062Y-15528484D02*
X11789110Y-15528484D01*
X11789110Y-15528484D02*
X11808158Y-15538008D01*
X11808158Y-15538008D02*
X11817682Y-15547531D01*
X11817682Y-15547531D02*
X11827205Y-15566579D01*
X11827205Y-15566579D02*
X11836729Y-15604674D01*
X11836729Y-15604674D02*
X11836729Y-15652293D01*
X11836729Y-15652293D02*
X11827205Y-15690388D01*
X11827205Y-15690388D02*
X11817682Y-15709436D01*
X11817682Y-15709436D02*
X11808158Y-15718960D01*
X11808158Y-15718960D02*
X11789110Y-15728484D01*
X11789110Y-15728484D02*
X11770062Y-15728484D01*
X11770062Y-15728484D02*
X11751015Y-15718960D01*
X11751015Y-15718960D02*
X11741491Y-15709436D01*
X11741491Y-15709436D02*
X11731967Y-15690388D01*
X11731967Y-15690388D02*
X11722443Y-15652293D01*
X11722443Y-15652293D02*
X11722443Y-15604674D01*
X11722443Y-15604674D02*
X11731967Y-15566579D01*
X11731967Y-15566579D02*
X11741491Y-15547531D01*
X11741491Y-15547531D02*
X11751015Y-15538008D01*
X11751015Y-15538008D02*
X11770062Y-15528484D01*
X11960539Y-15528484D02*
X11979586Y-15528484D01*
X11979586Y-15528484D02*
X11998634Y-15538008D01*
X11998634Y-15538008D02*
X12008158Y-15547531D01*
X12008158Y-15547531D02*
X12017682Y-15566579D01*
X12017682Y-15566579D02*
X12027205Y-15604674D01*
X12027205Y-15604674D02*
X12027205Y-15652293D01*
X12027205Y-15652293D02*
X12017682Y-15690388D01*
X12017682Y-15690388D02*
X12008158Y-15709436D01*
X12008158Y-15709436D02*
X11998634Y-15718960D01*
X11998634Y-15718960D02*
X11979586Y-15728484D01*
X11979586Y-15728484D02*
X11960539Y-15728484D01*
X11960539Y-15728484D02*
X11941491Y-15718960D01*
X11941491Y-15718960D02*
X11931967Y-15709436D01*
X11931967Y-15709436D02*
X11922443Y-15690388D01*
X11922443Y-15690388D02*
X11912920Y-15652293D01*
X11912920Y-15652293D02*
X11912920Y-15604674D01*
X11912920Y-15604674D02*
X11922443Y-15566579D01*
X11922443Y-15566579D02*
X11931967Y-15547531D01*
X11931967Y-15547531D02*
X11941491Y-15538008D01*
X11941491Y-15538008D02*
X11960539Y-15528484D01*
X12112920Y-15728484D02*
X12112920Y-15595150D01*
X12112920Y-15614198D02*
X12122443Y-15604674D01*
X12122443Y-15604674D02*
X12141491Y-15595150D01*
X12141491Y-15595150D02*
X12170063Y-15595150D01*
X12170063Y-15595150D02*
X12189110Y-15604674D01*
X12189110Y-15604674D02*
X12198634Y-15623722D01*
X12198634Y-15623722D02*
X12198634Y-15728484D01*
X12198634Y-15623722D02*
X12208158Y-15604674D01*
X12208158Y-15604674D02*
X12227205Y-15595150D01*
X12227205Y-15595150D02*
X12255777Y-15595150D01*
X12255777Y-15595150D02*
X12274824Y-15604674D01*
X12274824Y-15604674D02*
X12284348Y-15623722D01*
X12284348Y-15623722D02*
X12284348Y-15728484D01*
X12379586Y-15728484D02*
X12379586Y-15595150D01*
X12379586Y-15614198D02*
X12389110Y-15604674D01*
X12389110Y-15604674D02*
X12408158Y-15595150D01*
X12408158Y-15595150D02*
X12436729Y-15595150D01*
X12436729Y-15595150D02*
X12455777Y-15604674D01*
X12455777Y-15604674D02*
X12465301Y-15623722D01*
X12465301Y-15623722D02*
X12465301Y-15728484D01*
X12465301Y-15623722D02*
X12474824Y-15604674D01*
X12474824Y-15604674D02*
X12493872Y-15595150D01*
X12493872Y-15595150D02*
X12522443Y-15595150D01*
X12522443Y-15595150D02*
X12541491Y-15604674D01*
X12541491Y-15604674D02*
X12551015Y-15623722D01*
X12551015Y-15623722D02*
X12551015Y-15728484D01*
X12941491Y-15518960D02*
X12770063Y-15776103D01*
X13198634Y-15528484D02*
X13217682Y-15528484D01*
X13217682Y-15528484D02*
X13236729Y-15538008D01*
X13236729Y-15538008D02*
X13246253Y-15547531D01*
X13246253Y-15547531D02*
X13255777Y-15566579D01*
X13255777Y-15566579D02*
X13265301Y-15604674D01*
X13265301Y-15604674D02*
X13265301Y-15652293D01*
X13265301Y-15652293D02*
X13255777Y-15690388D01*
X13255777Y-15690388D02*
X13246253Y-15709436D01*
X13246253Y-15709436D02*
X13236729Y-15718960D01*
X13236729Y-15718960D02*
X13217682Y-15728484D01*
X13217682Y-15728484D02*
X13198634Y-15728484D01*
X13198634Y-15728484D02*
X13179586Y-15718960D01*
X13179586Y-15718960D02*
X13170063Y-15709436D01*
X13170063Y-15709436D02*
X13160539Y-15690388D01*
X13160539Y-15690388D02*
X13151015Y-15652293D01*
X13151015Y-15652293D02*
X13151015Y-15604674D01*
X13151015Y-15604674D02*
X13160539Y-15566579D01*
X13160539Y-15566579D02*
X13170063Y-15547531D01*
X13170063Y-15547531D02*
X13179586Y-15538008D01*
X13179586Y-15538008D02*
X13198634Y-15528484D01*
X13351015Y-15709436D02*
X13360539Y-15718960D01*
X13360539Y-15718960D02*
X13351015Y-15728484D01*
X13351015Y-15728484D02*
X13341491Y-15718960D01*
X13341491Y-15718960D02*
X13351015Y-15709436D01*
X13351015Y-15709436D02*
X13351015Y-15728484D01*
X13484348Y-15528484D02*
X13503396Y-15528484D01*
X13503396Y-15528484D02*
X13522444Y-15538008D01*
X13522444Y-15538008D02*
X13531967Y-15547531D01*
X13531967Y-15547531D02*
X13541491Y-15566579D01*
X13541491Y-15566579D02*
X13551015Y-15604674D01*
X13551015Y-15604674D02*
X13551015Y-15652293D01*
X13551015Y-15652293D02*
X13541491Y-15690388D01*
X13541491Y-15690388D02*
X13531967Y-15709436D01*
X13531967Y-15709436D02*
X13522444Y-15718960D01*
X13522444Y-15718960D02*
X13503396Y-15728484D01*
X13503396Y-15728484D02*
X13484348Y-15728484D01*
X13484348Y-15728484D02*
X13465301Y-15718960D01*
X13465301Y-15718960D02*
X13455777Y-15709436D01*
X13455777Y-15709436D02*
X13446253Y-15690388D01*
X13446253Y-15690388D02*
X13436729Y-15652293D01*
X13436729Y-15652293D02*
X13436729Y-15604674D01*
X13436729Y-15604674D02*
X13446253Y-15566579D01*
X13446253Y-15566579D02*
X13455777Y-15547531D01*
X13455777Y-15547531D02*
X13465301Y-15538008D01*
X13465301Y-15538008D02*
X13484348Y-15528484D01*
X13731967Y-15528484D02*
X13636729Y-15528484D01*
X13636729Y-15528484D02*
X13627206Y-15623722D01*
X13627206Y-15623722D02*
X13636729Y-15614198D01*
X13636729Y-15614198D02*
X13655777Y-15604674D01*
X13655777Y-15604674D02*
X13703396Y-15604674D01*
X13703396Y-15604674D02*
X13722444Y-15614198D01*
X13722444Y-15614198D02*
X13731967Y-15623722D01*
X13731967Y-15623722D02*
X13741491Y-15642769D01*
X13741491Y-15642769D02*
X13741491Y-15690388D01*
X13741491Y-15690388D02*
X13731967Y-15709436D01*
X13731967Y-15709436D02*
X13722444Y-15718960D01*
X13722444Y-15718960D02*
X13703396Y-15728484D01*
X13703396Y-15728484D02*
X13655777Y-15728484D01*
X13655777Y-15728484D02*
X13636729Y-15718960D01*
X13636729Y-15718960D02*
X13627206Y-15709436D01*
X13931967Y-15728484D02*
X13817682Y-15728484D01*
X13874825Y-15728484D02*
X13874825Y-15528484D01*
X13874825Y-15528484D02*
X13855777Y-15557055D01*
X13855777Y-15557055D02*
X13836729Y-15576103D01*
X13836729Y-15576103D02*
X13817682Y-15585627D01*
X14008158Y-15547531D02*
X14017682Y-15538008D01*
X14017682Y-15538008D02*
X14036729Y-15528484D01*
X14036729Y-15528484D02*
X14084348Y-15528484D01*
X14084348Y-15528484D02*
X14103396Y-15538008D01*
X14103396Y-15538008D02*
X14112920Y-15547531D01*
X14112920Y-15547531D02*
X14122444Y-15566579D01*
X14122444Y-15566579D02*
X14122444Y-15585627D01*
X14122444Y-15585627D02*
X14112920Y-15614198D01*
X14112920Y-15614198D02*
X13998634Y-15728484D01*
X13998634Y-15728484D02*
X14122444Y-15728484D01*
X14198634Y-15528484D02*
X14198634Y-15566579D01*
X14274825Y-15528484D02*
X14274825Y-15566579D01*
X14570063Y-15804674D02*
X14560539Y-15795150D01*
X14560539Y-15795150D02*
X14541491Y-15766579D01*
X14541491Y-15766579D02*
X14531968Y-15747531D01*
X14531968Y-15747531D02*
X14522444Y-15718960D01*
X14522444Y-15718960D02*
X14512920Y-15671341D01*
X14512920Y-15671341D02*
X14512920Y-15633246D01*
X14512920Y-15633246D02*
X14522444Y-15585627D01*
X14522444Y-15585627D02*
X14531968Y-15557055D01*
X14531968Y-15557055D02*
X14541491Y-15538008D01*
X14541491Y-15538008D02*
X14560539Y-15509436D01*
X14560539Y-15509436D02*
X14570063Y-15499912D01*
X14636729Y-15547531D02*
X14646253Y-15538008D01*
X14646253Y-15538008D02*
X14665301Y-15528484D01*
X14665301Y-15528484D02*
X14712920Y-15528484D01*
X14712920Y-15528484D02*
X14731968Y-15538008D01*
X14731968Y-15538008D02*
X14741491Y-15547531D01*
X14741491Y-15547531D02*
X14751015Y-15566579D01*
X14751015Y-15566579D02*
X14751015Y-15585627D01*
X14751015Y-15585627D02*
X14741491Y-15614198D01*
X14741491Y-15614198D02*
X14627206Y-15728484D01*
X14627206Y-15728484D02*
X14751015Y-15728484D01*
X14989110Y-15728484D02*
X14989110Y-15528484D01*
X15074825Y-15728484D02*
X15074825Y-15623722D01*
X15074825Y-15623722D02*
X15065301Y-15604674D01*
X15065301Y-15604674D02*
X15046253Y-15595150D01*
X15046253Y-15595150D02*
X15017682Y-15595150D01*
X15017682Y-15595150D02*
X14998634Y-15604674D01*
X14998634Y-15604674D02*
X14989110Y-15614198D01*
X15198634Y-15728484D02*
X15179587Y-15718960D01*
X15179587Y-15718960D02*
X15170063Y-15709436D01*
X15170063Y-15709436D02*
X15160539Y-15690388D01*
X15160539Y-15690388D02*
X15160539Y-15633246D01*
X15160539Y-15633246D02*
X15170063Y-15614198D01*
X15170063Y-15614198D02*
X15179587Y-15604674D01*
X15179587Y-15604674D02*
X15198634Y-15595150D01*
X15198634Y-15595150D02*
X15227206Y-15595150D01*
X15227206Y-15595150D02*
X15246253Y-15604674D01*
X15246253Y-15604674D02*
X15255777Y-15614198D01*
X15255777Y-15614198D02*
X15265301Y-15633246D01*
X15265301Y-15633246D02*
X15265301Y-15690388D01*
X15265301Y-15690388D02*
X15255777Y-15709436D01*
X15255777Y-15709436D02*
X15246253Y-15718960D01*
X15246253Y-15718960D02*
X15227206Y-15728484D01*
X15227206Y-15728484D02*
X15198634Y-15728484D01*
X15379587Y-15728484D02*
X15360539Y-15718960D01*
X15360539Y-15718960D02*
X15351015Y-15699912D01*
X15351015Y-15699912D02*
X15351015Y-15528484D01*
X15531968Y-15718960D02*
X15512920Y-15728484D01*
X15512920Y-15728484D02*
X15474825Y-15728484D01*
X15474825Y-15728484D02*
X15455777Y-15718960D01*
X15455777Y-15718960D02*
X15446253Y-15699912D01*
X15446253Y-15699912D02*
X15446253Y-15623722D01*
X15446253Y-15623722D02*
X15455777Y-15604674D01*
X15455777Y-15604674D02*
X15474825Y-15595150D01*
X15474825Y-15595150D02*
X15512920Y-15595150D01*
X15512920Y-15595150D02*
X15531968Y-15604674D01*
X15531968Y-15604674D02*
X15541491Y-15623722D01*
X15541491Y-15623722D02*
X15541491Y-15642769D01*
X15541491Y-15642769D02*
X15446253Y-15661817D01*
X15617682Y-15718960D02*
X15636730Y-15728484D01*
X15636730Y-15728484D02*
X15674825Y-15728484D01*
X15674825Y-15728484D02*
X15693872Y-15718960D01*
X15693872Y-15718960D02*
X15703396Y-15699912D01*
X15703396Y-15699912D02*
X15703396Y-15690388D01*
X15703396Y-15690388D02*
X15693872Y-15671341D01*
X15693872Y-15671341D02*
X15674825Y-15661817D01*
X15674825Y-15661817D02*
X15646253Y-15661817D01*
X15646253Y-15661817D02*
X15627206Y-15652293D01*
X15627206Y-15652293D02*
X15617682Y-15633246D01*
X15617682Y-15633246D02*
X15617682Y-15623722D01*
X15617682Y-15623722D02*
X15627206Y-15604674D01*
X15627206Y-15604674D02*
X15646253Y-15595150D01*
X15646253Y-15595150D02*
X15674825Y-15595150D01*
X15674825Y-15595150D02*
X15693872Y-15604674D01*
X15770063Y-15804674D02*
X15779587Y-15795150D01*
X15779587Y-15795150D02*
X15798634Y-15766579D01*
X15798634Y-15766579D02*
X15808158Y-15747531D01*
X15808158Y-15747531D02*
X15817682Y-15718960D01*
X15817682Y-15718960D02*
X15827206Y-15671341D01*
X15827206Y-15671341D02*
X15827206Y-15633246D01*
X15827206Y-15633246D02*
X15817682Y-15585627D01*
X15817682Y-15585627D02*
X15808158Y-15557055D01*
X15808158Y-15557055D02*
X15798634Y-15538008D01*
X15798634Y-15538008D02*
X15779587Y-15509436D01*
X15779587Y-15509436D02*
X15770063Y-15499912D01*
D15*
X10925000Y-15971000D02*
X10995000Y-15901000D01*
X10925000Y-15831000D01*
X10855000Y-15901000D01*
X10925000Y-15971000D01*
D11*
X11360539Y-15992484D02*
X11246253Y-15992484D01*
X11303396Y-15992484D02*
X11303396Y-15792484D01*
X11303396Y-15792484D02*
X11284348Y-15821055D01*
X11284348Y-15821055D02*
X11265301Y-15840103D01*
X11265301Y-15840103D02*
X11246253Y-15849627D01*
X11446253Y-15973436D02*
X11455777Y-15982960D01*
X11455777Y-15982960D02*
X11446253Y-15992484D01*
X11446253Y-15992484D02*
X11436729Y-15982960D01*
X11436729Y-15982960D02*
X11446253Y-15973436D01*
X11446253Y-15973436D02*
X11446253Y-15992484D01*
X11627205Y-15859150D02*
X11627205Y-15992484D01*
X11579586Y-15782960D02*
X11531967Y-15925817D01*
X11531967Y-15925817D02*
X11655777Y-15925817D01*
X11770062Y-15792484D02*
X11789110Y-15792484D01*
X11789110Y-15792484D02*
X11808158Y-15802008D01*
X11808158Y-15802008D02*
X11817682Y-15811531D01*
X11817682Y-15811531D02*
X11827205Y-15830579D01*
X11827205Y-15830579D02*
X11836729Y-15868674D01*
X11836729Y-15868674D02*
X11836729Y-15916293D01*
X11836729Y-15916293D02*
X11827205Y-15954388D01*
X11827205Y-15954388D02*
X11817682Y-15973436D01*
X11817682Y-15973436D02*
X11808158Y-15982960D01*
X11808158Y-15982960D02*
X11789110Y-15992484D01*
X11789110Y-15992484D02*
X11770062Y-15992484D01*
X11770062Y-15992484D02*
X11751015Y-15982960D01*
X11751015Y-15982960D02*
X11741491Y-15973436D01*
X11741491Y-15973436D02*
X11731967Y-15954388D01*
X11731967Y-15954388D02*
X11722443Y-15916293D01*
X11722443Y-15916293D02*
X11722443Y-15868674D01*
X11722443Y-15868674D02*
X11731967Y-15830579D01*
X11731967Y-15830579D02*
X11741491Y-15811531D01*
X11741491Y-15811531D02*
X11751015Y-15802008D01*
X11751015Y-15802008D02*
X11770062Y-15792484D01*
X11960539Y-15792484D02*
X11979586Y-15792484D01*
X11979586Y-15792484D02*
X11998634Y-15802008D01*
X11998634Y-15802008D02*
X12008158Y-15811531D01*
X12008158Y-15811531D02*
X12017682Y-15830579D01*
X12017682Y-15830579D02*
X12027205Y-15868674D01*
X12027205Y-15868674D02*
X12027205Y-15916293D01*
X12027205Y-15916293D02*
X12017682Y-15954388D01*
X12017682Y-15954388D02*
X12008158Y-15973436D01*
X12008158Y-15973436D02*
X11998634Y-15982960D01*
X11998634Y-15982960D02*
X11979586Y-15992484D01*
X11979586Y-15992484D02*
X11960539Y-15992484D01*
X11960539Y-15992484D02*
X11941491Y-15982960D01*
X11941491Y-15982960D02*
X11931967Y-15973436D01*
X11931967Y-15973436D02*
X11922443Y-15954388D01*
X11922443Y-15954388D02*
X11912920Y-15916293D01*
X11912920Y-15916293D02*
X11912920Y-15868674D01*
X11912920Y-15868674D02*
X11922443Y-15830579D01*
X11922443Y-15830579D02*
X11931967Y-15811531D01*
X11931967Y-15811531D02*
X11941491Y-15802008D01*
X11941491Y-15802008D02*
X11960539Y-15792484D01*
X12112920Y-15992484D02*
X12112920Y-15859150D01*
X12112920Y-15878198D02*
X12122443Y-15868674D01*
X12122443Y-15868674D02*
X12141491Y-15859150D01*
X12141491Y-15859150D02*
X12170063Y-15859150D01*
X12170063Y-15859150D02*
X12189110Y-15868674D01*
X12189110Y-15868674D02*
X12198634Y-15887722D01*
X12198634Y-15887722D02*
X12198634Y-15992484D01*
X12198634Y-15887722D02*
X12208158Y-15868674D01*
X12208158Y-15868674D02*
X12227205Y-15859150D01*
X12227205Y-15859150D02*
X12255777Y-15859150D01*
X12255777Y-15859150D02*
X12274824Y-15868674D01*
X12274824Y-15868674D02*
X12284348Y-15887722D01*
X12284348Y-15887722D02*
X12284348Y-15992484D01*
X12379586Y-15992484D02*
X12379586Y-15859150D01*
X12379586Y-15878198D02*
X12389110Y-15868674D01*
X12389110Y-15868674D02*
X12408158Y-15859150D01*
X12408158Y-15859150D02*
X12436729Y-15859150D01*
X12436729Y-15859150D02*
X12455777Y-15868674D01*
X12455777Y-15868674D02*
X12465301Y-15887722D01*
X12465301Y-15887722D02*
X12465301Y-15992484D01*
X12465301Y-15887722D02*
X12474824Y-15868674D01*
X12474824Y-15868674D02*
X12493872Y-15859150D01*
X12493872Y-15859150D02*
X12522443Y-15859150D01*
X12522443Y-15859150D02*
X12541491Y-15868674D01*
X12541491Y-15868674D02*
X12551015Y-15887722D01*
X12551015Y-15887722D02*
X12551015Y-15992484D01*
X12941491Y-15782960D02*
X12770063Y-16040103D01*
X13198634Y-15792484D02*
X13217682Y-15792484D01*
X13217682Y-15792484D02*
X13236729Y-15802008D01*
X13236729Y-15802008D02*
X13246253Y-15811531D01*
X13246253Y-15811531D02*
X13255777Y-15830579D01*
X13255777Y-15830579D02*
X13265301Y-15868674D01*
X13265301Y-15868674D02*
X13265301Y-15916293D01*
X13265301Y-15916293D02*
X13255777Y-15954388D01*
X13255777Y-15954388D02*
X13246253Y-15973436D01*
X13246253Y-15973436D02*
X13236729Y-15982960D01*
X13236729Y-15982960D02*
X13217682Y-15992484D01*
X13217682Y-15992484D02*
X13198634Y-15992484D01*
X13198634Y-15992484D02*
X13179586Y-15982960D01*
X13179586Y-15982960D02*
X13170063Y-15973436D01*
X13170063Y-15973436D02*
X13160539Y-15954388D01*
X13160539Y-15954388D02*
X13151015Y-15916293D01*
X13151015Y-15916293D02*
X13151015Y-15868674D01*
X13151015Y-15868674D02*
X13160539Y-15830579D01*
X13160539Y-15830579D02*
X13170063Y-15811531D01*
X13170063Y-15811531D02*
X13179586Y-15802008D01*
X13179586Y-15802008D02*
X13198634Y-15792484D01*
X13351015Y-15973436D02*
X13360539Y-15982960D01*
X13360539Y-15982960D02*
X13351015Y-15992484D01*
X13351015Y-15992484D02*
X13341491Y-15982960D01*
X13341491Y-15982960D02*
X13351015Y-15973436D01*
X13351015Y-15973436D02*
X13351015Y-15992484D01*
X13484348Y-15792484D02*
X13503396Y-15792484D01*
X13503396Y-15792484D02*
X13522444Y-15802008D01*
X13522444Y-15802008D02*
X13531967Y-15811531D01*
X13531967Y-15811531D02*
X13541491Y-15830579D01*
X13541491Y-15830579D02*
X13551015Y-15868674D01*
X13551015Y-15868674D02*
X13551015Y-15916293D01*
X13551015Y-15916293D02*
X13541491Y-15954388D01*
X13541491Y-15954388D02*
X13531967Y-15973436D01*
X13531967Y-15973436D02*
X13522444Y-15982960D01*
X13522444Y-15982960D02*
X13503396Y-15992484D01*
X13503396Y-15992484D02*
X13484348Y-15992484D01*
X13484348Y-15992484D02*
X13465301Y-15982960D01*
X13465301Y-15982960D02*
X13455777Y-15973436D01*
X13455777Y-15973436D02*
X13446253Y-15954388D01*
X13446253Y-15954388D02*
X13436729Y-15916293D01*
X13436729Y-15916293D02*
X13436729Y-15868674D01*
X13436729Y-15868674D02*
X13446253Y-15830579D01*
X13446253Y-15830579D02*
X13455777Y-15811531D01*
X13455777Y-15811531D02*
X13465301Y-15802008D01*
X13465301Y-15802008D02*
X13484348Y-15792484D01*
X13731967Y-15792484D02*
X13636729Y-15792484D01*
X13636729Y-15792484D02*
X13627206Y-15887722D01*
X13627206Y-15887722D02*
X13636729Y-15878198D01*
X13636729Y-15878198D02*
X13655777Y-15868674D01*
X13655777Y-15868674D02*
X13703396Y-15868674D01*
X13703396Y-15868674D02*
X13722444Y-15878198D01*
X13722444Y-15878198D02*
X13731967Y-15887722D01*
X13731967Y-15887722D02*
X13741491Y-15906769D01*
X13741491Y-15906769D02*
X13741491Y-15954388D01*
X13741491Y-15954388D02*
X13731967Y-15973436D01*
X13731967Y-15973436D02*
X13722444Y-15982960D01*
X13722444Y-15982960D02*
X13703396Y-15992484D01*
X13703396Y-15992484D02*
X13655777Y-15992484D01*
X13655777Y-15992484D02*
X13636729Y-15982960D01*
X13636729Y-15982960D02*
X13627206Y-15973436D01*
X13922444Y-15792484D02*
X13827206Y-15792484D01*
X13827206Y-15792484D02*
X13817682Y-15887722D01*
X13817682Y-15887722D02*
X13827206Y-15878198D01*
X13827206Y-15878198D02*
X13846253Y-15868674D01*
X13846253Y-15868674D02*
X13893872Y-15868674D01*
X13893872Y-15868674D02*
X13912920Y-15878198D01*
X13912920Y-15878198D02*
X13922444Y-15887722D01*
X13922444Y-15887722D02*
X13931967Y-15906769D01*
X13931967Y-15906769D02*
X13931967Y-15954388D01*
X13931967Y-15954388D02*
X13922444Y-15973436D01*
X13922444Y-15973436D02*
X13912920Y-15982960D01*
X13912920Y-15982960D02*
X13893872Y-15992484D01*
X13893872Y-15992484D02*
X13846253Y-15992484D01*
X13846253Y-15992484D02*
X13827206Y-15982960D01*
X13827206Y-15982960D02*
X13817682Y-15973436D01*
X14122444Y-15992484D02*
X14008158Y-15992484D01*
X14065301Y-15992484D02*
X14065301Y-15792484D01*
X14065301Y-15792484D02*
X14046253Y-15821055D01*
X14046253Y-15821055D02*
X14027206Y-15840103D01*
X14027206Y-15840103D02*
X14008158Y-15849627D01*
X14198634Y-15792484D02*
X14198634Y-15830579D01*
X14274825Y-15792484D02*
X14274825Y-15830579D01*
X14570063Y-16068674D02*
X14560539Y-16059150D01*
X14560539Y-16059150D02*
X14541491Y-16030579D01*
X14541491Y-16030579D02*
X14531968Y-16011531D01*
X14531968Y-16011531D02*
X14522444Y-15982960D01*
X14522444Y-15982960D02*
X14512920Y-15935341D01*
X14512920Y-15935341D02*
X14512920Y-15897246D01*
X14512920Y-15897246D02*
X14522444Y-15849627D01*
X14522444Y-15849627D02*
X14531968Y-15821055D01*
X14531968Y-15821055D02*
X14541491Y-15802008D01*
X14541491Y-15802008D02*
X14560539Y-15773436D01*
X14560539Y-15773436D02*
X14570063Y-15763912D01*
X14751015Y-15992484D02*
X14636729Y-15992484D01*
X14693872Y-15992484D02*
X14693872Y-15792484D01*
X14693872Y-15792484D02*
X14674825Y-15821055D01*
X14674825Y-15821055D02*
X14655777Y-15840103D01*
X14655777Y-15840103D02*
X14636729Y-15849627D01*
X14827206Y-15811531D02*
X14836729Y-15802008D01*
X14836729Y-15802008D02*
X14855777Y-15792484D01*
X14855777Y-15792484D02*
X14903396Y-15792484D01*
X14903396Y-15792484D02*
X14922444Y-15802008D01*
X14922444Y-15802008D02*
X14931968Y-15811531D01*
X14931968Y-15811531D02*
X14941491Y-15830579D01*
X14941491Y-15830579D02*
X14941491Y-15849627D01*
X14941491Y-15849627D02*
X14931968Y-15878198D01*
X14931968Y-15878198D02*
X14817682Y-15992484D01*
X14817682Y-15992484D02*
X14941491Y-15992484D01*
X15179587Y-15992484D02*
X15179587Y-15792484D01*
X15265301Y-15992484D02*
X15265301Y-15887722D01*
X15265301Y-15887722D02*
X15255777Y-15868674D01*
X15255777Y-15868674D02*
X15236730Y-15859150D01*
X15236730Y-15859150D02*
X15208158Y-15859150D01*
X15208158Y-15859150D02*
X15189110Y-15868674D01*
X15189110Y-15868674D02*
X15179587Y-15878198D01*
X15389110Y-15992484D02*
X15370063Y-15982960D01*
X15370063Y-15982960D02*
X15360539Y-15973436D01*
X15360539Y-15973436D02*
X15351015Y-15954388D01*
X15351015Y-15954388D02*
X15351015Y-15897246D01*
X15351015Y-15897246D02*
X15360539Y-15878198D01*
X15360539Y-15878198D02*
X15370063Y-15868674D01*
X15370063Y-15868674D02*
X15389110Y-15859150D01*
X15389110Y-15859150D02*
X15417682Y-15859150D01*
X15417682Y-15859150D02*
X15436730Y-15868674D01*
X15436730Y-15868674D02*
X15446253Y-15878198D01*
X15446253Y-15878198D02*
X15455777Y-15897246D01*
X15455777Y-15897246D02*
X15455777Y-15954388D01*
X15455777Y-15954388D02*
X15446253Y-15973436D01*
X15446253Y-15973436D02*
X15436730Y-15982960D01*
X15436730Y-15982960D02*
X15417682Y-15992484D01*
X15417682Y-15992484D02*
X15389110Y-15992484D01*
X15570063Y-15992484D02*
X15551015Y-15982960D01*
X15551015Y-15982960D02*
X15541491Y-15963912D01*
X15541491Y-15963912D02*
X15541491Y-15792484D01*
X15722444Y-15982960D02*
X15703396Y-15992484D01*
X15703396Y-15992484D02*
X15665301Y-15992484D01*
X15665301Y-15992484D02*
X15646253Y-15982960D01*
X15646253Y-15982960D02*
X15636730Y-15963912D01*
X15636730Y-15963912D02*
X15636730Y-15887722D01*
X15636730Y-15887722D02*
X15646253Y-15868674D01*
X15646253Y-15868674D02*
X15665301Y-15859150D01*
X15665301Y-15859150D02*
X15703396Y-15859150D01*
X15703396Y-15859150D02*
X15722444Y-15868674D01*
X15722444Y-15868674D02*
X15731968Y-15887722D01*
X15731968Y-15887722D02*
X15731968Y-15906769D01*
X15731968Y-15906769D02*
X15636730Y-15925817D01*
X15808158Y-15982960D02*
X15827206Y-15992484D01*
X15827206Y-15992484D02*
X15865301Y-15992484D01*
X15865301Y-15992484D02*
X15884349Y-15982960D01*
X15884349Y-15982960D02*
X15893872Y-15963912D01*
X15893872Y-15963912D02*
X15893872Y-15954388D01*
X15893872Y-15954388D02*
X15884349Y-15935341D01*
X15884349Y-15935341D02*
X15865301Y-15925817D01*
X15865301Y-15925817D02*
X15836730Y-15925817D01*
X15836730Y-15925817D02*
X15817682Y-15916293D01*
X15817682Y-15916293D02*
X15808158Y-15897246D01*
X15808158Y-15897246D02*
X15808158Y-15887722D01*
X15808158Y-15887722D02*
X15817682Y-15868674D01*
X15817682Y-15868674D02*
X15836730Y-15859150D01*
X15836730Y-15859150D02*
X15865301Y-15859150D01*
X15865301Y-15859150D02*
X15884349Y-15868674D01*
X15960539Y-16068674D02*
X15970063Y-16059150D01*
X15970063Y-16059150D02*
X15989111Y-16030579D01*
X15989111Y-16030579D02*
X15998634Y-16011531D01*
X15998634Y-16011531D02*
X16008158Y-15982960D01*
X16008158Y-15982960D02*
X16017682Y-15935341D01*
X16017682Y-15935341D02*
X16017682Y-15897246D01*
X16017682Y-15897246D02*
X16008158Y-15849627D01*
X16008158Y-15849627D02*
X15998634Y-15821055D01*
X15998634Y-15821055D02*
X15989111Y-15802008D01*
X15989111Y-15802008D02*
X15970063Y-15773436D01*
X15970063Y-15773436D02*
X15960539Y-15763912D01*
X10795000Y-16065000D02*
X10995000Y-16265000D01*
X10995000Y-16065000D02*
X10795000Y-16265000D01*
X10995000Y-16165000D02*
G75*
G03*
X10995000Y-16165000I-100000J0D01*
G01*
X11246253Y-16075531D02*
X11255777Y-16066008D01*
X11255777Y-16066008D02*
X11274824Y-16056484D01*
X11274824Y-16056484D02*
X11322443Y-16056484D01*
X11322443Y-16056484D02*
X11341491Y-16066008D01*
X11341491Y-16066008D02*
X11351015Y-16075531D01*
X11351015Y-16075531D02*
X11360539Y-16094579D01*
X11360539Y-16094579D02*
X11360539Y-16113627D01*
X11360539Y-16113627D02*
X11351015Y-16142198D01*
X11351015Y-16142198D02*
X11236729Y-16256484D01*
X11236729Y-16256484D02*
X11360539Y-16256484D01*
X11446253Y-16237436D02*
X11455777Y-16246960D01*
X11455777Y-16246960D02*
X11446253Y-16256484D01*
X11446253Y-16256484D02*
X11436729Y-16246960D01*
X11436729Y-16246960D02*
X11446253Y-16237436D01*
X11446253Y-16237436D02*
X11446253Y-16256484D01*
X11579586Y-16056484D02*
X11598634Y-16056484D01*
X11598634Y-16056484D02*
X11617682Y-16066008D01*
X11617682Y-16066008D02*
X11627205Y-16075531D01*
X11627205Y-16075531D02*
X11636729Y-16094579D01*
X11636729Y-16094579D02*
X11646253Y-16132674D01*
X11646253Y-16132674D02*
X11646253Y-16180293D01*
X11646253Y-16180293D02*
X11636729Y-16218388D01*
X11636729Y-16218388D02*
X11627205Y-16237436D01*
X11627205Y-16237436D02*
X11617682Y-16246960D01*
X11617682Y-16246960D02*
X11598634Y-16256484D01*
X11598634Y-16256484D02*
X11579586Y-16256484D01*
X11579586Y-16256484D02*
X11560539Y-16246960D01*
X11560539Y-16246960D02*
X11551015Y-16237436D01*
X11551015Y-16237436D02*
X11541491Y-16218388D01*
X11541491Y-16218388D02*
X11531967Y-16180293D01*
X11531967Y-16180293D02*
X11531967Y-16132674D01*
X11531967Y-16132674D02*
X11541491Y-16094579D01*
X11541491Y-16094579D02*
X11551015Y-16075531D01*
X11551015Y-16075531D02*
X11560539Y-16066008D01*
X11560539Y-16066008D02*
X11579586Y-16056484D01*
X11770062Y-16056484D02*
X11789110Y-16056484D01*
X11789110Y-16056484D02*
X11808158Y-16066008D01*
X11808158Y-16066008D02*
X11817682Y-16075531D01*
X11817682Y-16075531D02*
X11827205Y-16094579D01*
X11827205Y-16094579D02*
X11836729Y-16132674D01*
X11836729Y-16132674D02*
X11836729Y-16180293D01*
X11836729Y-16180293D02*
X11827205Y-16218388D01*
X11827205Y-16218388D02*
X11817682Y-16237436D01*
X11817682Y-16237436D02*
X11808158Y-16246960D01*
X11808158Y-16246960D02*
X11789110Y-16256484D01*
X11789110Y-16256484D02*
X11770062Y-16256484D01*
X11770062Y-16256484D02*
X11751015Y-16246960D01*
X11751015Y-16246960D02*
X11741491Y-16237436D01*
X11741491Y-16237436D02*
X11731967Y-16218388D01*
X11731967Y-16218388D02*
X11722443Y-16180293D01*
X11722443Y-16180293D02*
X11722443Y-16132674D01*
X11722443Y-16132674D02*
X11731967Y-16094579D01*
X11731967Y-16094579D02*
X11741491Y-16075531D01*
X11741491Y-16075531D02*
X11751015Y-16066008D01*
X11751015Y-16066008D02*
X11770062Y-16056484D01*
X11960539Y-16056484D02*
X11979586Y-16056484D01*
X11979586Y-16056484D02*
X11998634Y-16066008D01*
X11998634Y-16066008D02*
X12008158Y-16075531D01*
X12008158Y-16075531D02*
X12017682Y-16094579D01*
X12017682Y-16094579D02*
X12027205Y-16132674D01*
X12027205Y-16132674D02*
X12027205Y-16180293D01*
X12027205Y-16180293D02*
X12017682Y-16218388D01*
X12017682Y-16218388D02*
X12008158Y-16237436D01*
X12008158Y-16237436D02*
X11998634Y-16246960D01*
X11998634Y-16246960D02*
X11979586Y-16256484D01*
X11979586Y-16256484D02*
X11960539Y-16256484D01*
X11960539Y-16256484D02*
X11941491Y-16246960D01*
X11941491Y-16246960D02*
X11931967Y-16237436D01*
X11931967Y-16237436D02*
X11922443Y-16218388D01*
X11922443Y-16218388D02*
X11912920Y-16180293D01*
X11912920Y-16180293D02*
X11912920Y-16132674D01*
X11912920Y-16132674D02*
X11922443Y-16094579D01*
X11922443Y-16094579D02*
X11931967Y-16075531D01*
X11931967Y-16075531D02*
X11941491Y-16066008D01*
X11941491Y-16066008D02*
X11960539Y-16056484D01*
X12112920Y-16256484D02*
X12112920Y-16123150D01*
X12112920Y-16142198D02*
X12122443Y-16132674D01*
X12122443Y-16132674D02*
X12141491Y-16123150D01*
X12141491Y-16123150D02*
X12170063Y-16123150D01*
X12170063Y-16123150D02*
X12189110Y-16132674D01*
X12189110Y-16132674D02*
X12198634Y-16151722D01*
X12198634Y-16151722D02*
X12198634Y-16256484D01*
X12198634Y-16151722D02*
X12208158Y-16132674D01*
X12208158Y-16132674D02*
X12227205Y-16123150D01*
X12227205Y-16123150D02*
X12255777Y-16123150D01*
X12255777Y-16123150D02*
X12274824Y-16132674D01*
X12274824Y-16132674D02*
X12284348Y-16151722D01*
X12284348Y-16151722D02*
X12284348Y-16256484D01*
X12379586Y-16256484D02*
X12379586Y-16123150D01*
X12379586Y-16142198D02*
X12389110Y-16132674D01*
X12389110Y-16132674D02*
X12408158Y-16123150D01*
X12408158Y-16123150D02*
X12436729Y-16123150D01*
X12436729Y-16123150D02*
X12455777Y-16132674D01*
X12455777Y-16132674D02*
X12465301Y-16151722D01*
X12465301Y-16151722D02*
X12465301Y-16256484D01*
X12465301Y-16151722D02*
X12474824Y-16132674D01*
X12474824Y-16132674D02*
X12493872Y-16123150D01*
X12493872Y-16123150D02*
X12522443Y-16123150D01*
X12522443Y-16123150D02*
X12541491Y-16132674D01*
X12541491Y-16132674D02*
X12551015Y-16151722D01*
X12551015Y-16151722D02*
X12551015Y-16256484D01*
X12941491Y-16046960D02*
X12770063Y-16304103D01*
X13198634Y-16056484D02*
X13217682Y-16056484D01*
X13217682Y-16056484D02*
X13236729Y-16066008D01*
X13236729Y-16066008D02*
X13246253Y-16075531D01*
X13246253Y-16075531D02*
X13255777Y-16094579D01*
X13255777Y-16094579D02*
X13265301Y-16132674D01*
X13265301Y-16132674D02*
X13265301Y-16180293D01*
X13265301Y-16180293D02*
X13255777Y-16218388D01*
X13255777Y-16218388D02*
X13246253Y-16237436D01*
X13246253Y-16237436D02*
X13236729Y-16246960D01*
X13236729Y-16246960D02*
X13217682Y-16256484D01*
X13217682Y-16256484D02*
X13198634Y-16256484D01*
X13198634Y-16256484D02*
X13179586Y-16246960D01*
X13179586Y-16246960D02*
X13170063Y-16237436D01*
X13170063Y-16237436D02*
X13160539Y-16218388D01*
X13160539Y-16218388D02*
X13151015Y-16180293D01*
X13151015Y-16180293D02*
X13151015Y-16132674D01*
X13151015Y-16132674D02*
X13160539Y-16094579D01*
X13160539Y-16094579D02*
X13170063Y-16075531D01*
X13170063Y-16075531D02*
X13179586Y-16066008D01*
X13179586Y-16066008D02*
X13198634Y-16056484D01*
X13351015Y-16237436D02*
X13360539Y-16246960D01*
X13360539Y-16246960D02*
X13351015Y-16256484D01*
X13351015Y-16256484D02*
X13341491Y-16246960D01*
X13341491Y-16246960D02*
X13351015Y-16237436D01*
X13351015Y-16237436D02*
X13351015Y-16256484D01*
X13484348Y-16056484D02*
X13503396Y-16056484D01*
X13503396Y-16056484D02*
X13522444Y-16066008D01*
X13522444Y-16066008D02*
X13531967Y-16075531D01*
X13531967Y-16075531D02*
X13541491Y-16094579D01*
X13541491Y-16094579D02*
X13551015Y-16132674D01*
X13551015Y-16132674D02*
X13551015Y-16180293D01*
X13551015Y-16180293D02*
X13541491Y-16218388D01*
X13541491Y-16218388D02*
X13531967Y-16237436D01*
X13531967Y-16237436D02*
X13522444Y-16246960D01*
X13522444Y-16246960D02*
X13503396Y-16256484D01*
X13503396Y-16256484D02*
X13484348Y-16256484D01*
X13484348Y-16256484D02*
X13465301Y-16246960D01*
X13465301Y-16246960D02*
X13455777Y-16237436D01*
X13455777Y-16237436D02*
X13446253Y-16218388D01*
X13446253Y-16218388D02*
X13436729Y-16180293D01*
X13436729Y-16180293D02*
X13436729Y-16132674D01*
X13436729Y-16132674D02*
X13446253Y-16094579D01*
X13446253Y-16094579D02*
X13455777Y-16075531D01*
X13455777Y-16075531D02*
X13465301Y-16066008D01*
X13465301Y-16066008D02*
X13484348Y-16056484D01*
X13617682Y-16056484D02*
X13751015Y-16056484D01*
X13751015Y-16056484D02*
X13665301Y-16256484D01*
X13855777Y-16142198D02*
X13836729Y-16132674D01*
X13836729Y-16132674D02*
X13827206Y-16123150D01*
X13827206Y-16123150D02*
X13817682Y-16104103D01*
X13817682Y-16104103D02*
X13817682Y-16094579D01*
X13817682Y-16094579D02*
X13827206Y-16075531D01*
X13827206Y-16075531D02*
X13836729Y-16066008D01*
X13836729Y-16066008D02*
X13855777Y-16056484D01*
X13855777Y-16056484D02*
X13893872Y-16056484D01*
X13893872Y-16056484D02*
X13912920Y-16066008D01*
X13912920Y-16066008D02*
X13922444Y-16075531D01*
X13922444Y-16075531D02*
X13931967Y-16094579D01*
X13931967Y-16094579D02*
X13931967Y-16104103D01*
X13931967Y-16104103D02*
X13922444Y-16123150D01*
X13922444Y-16123150D02*
X13912920Y-16132674D01*
X13912920Y-16132674D02*
X13893872Y-16142198D01*
X13893872Y-16142198D02*
X13855777Y-16142198D01*
X13855777Y-16142198D02*
X13836729Y-16151722D01*
X13836729Y-16151722D02*
X13827206Y-16161246D01*
X13827206Y-16161246D02*
X13817682Y-16180293D01*
X13817682Y-16180293D02*
X13817682Y-16218388D01*
X13817682Y-16218388D02*
X13827206Y-16237436D01*
X13827206Y-16237436D02*
X13836729Y-16246960D01*
X13836729Y-16246960D02*
X13855777Y-16256484D01*
X13855777Y-16256484D02*
X13893872Y-16256484D01*
X13893872Y-16256484D02*
X13912920Y-16246960D01*
X13912920Y-16246960D02*
X13922444Y-16237436D01*
X13922444Y-16237436D02*
X13931967Y-16218388D01*
X13931967Y-16218388D02*
X13931967Y-16180293D01*
X13931967Y-16180293D02*
X13922444Y-16161246D01*
X13922444Y-16161246D02*
X13912920Y-16151722D01*
X13912920Y-16151722D02*
X13893872Y-16142198D01*
X13998634Y-16056484D02*
X14131967Y-16056484D01*
X14131967Y-16056484D02*
X14046253Y-16256484D01*
X14198634Y-16056484D02*
X14198634Y-16094579D01*
X14274825Y-16056484D02*
X14274825Y-16094579D01*
X14570063Y-16332674D02*
X14560539Y-16323150D01*
X14560539Y-16323150D02*
X14541491Y-16294579D01*
X14541491Y-16294579D02*
X14531968Y-16275531D01*
X14531968Y-16275531D02*
X14522444Y-16246960D01*
X14522444Y-16246960D02*
X14512920Y-16199341D01*
X14512920Y-16199341D02*
X14512920Y-16161246D01*
X14512920Y-16161246D02*
X14522444Y-16113627D01*
X14522444Y-16113627D02*
X14531968Y-16085055D01*
X14531968Y-16085055D02*
X14541491Y-16066008D01*
X14541491Y-16066008D02*
X14560539Y-16037436D01*
X14560539Y-16037436D02*
X14570063Y-16027912D01*
X14636729Y-16075531D02*
X14646253Y-16066008D01*
X14646253Y-16066008D02*
X14665301Y-16056484D01*
X14665301Y-16056484D02*
X14712920Y-16056484D01*
X14712920Y-16056484D02*
X14731968Y-16066008D01*
X14731968Y-16066008D02*
X14741491Y-16075531D01*
X14741491Y-16075531D02*
X14751015Y-16094579D01*
X14751015Y-16094579D02*
X14751015Y-16113627D01*
X14751015Y-16113627D02*
X14741491Y-16142198D01*
X14741491Y-16142198D02*
X14627206Y-16256484D01*
X14627206Y-16256484D02*
X14751015Y-16256484D01*
X14989110Y-16256484D02*
X14989110Y-16056484D01*
X15074825Y-16256484D02*
X15074825Y-16151722D01*
X15074825Y-16151722D02*
X15065301Y-16132674D01*
X15065301Y-16132674D02*
X15046253Y-16123150D01*
X15046253Y-16123150D02*
X15017682Y-16123150D01*
X15017682Y-16123150D02*
X14998634Y-16132674D01*
X14998634Y-16132674D02*
X14989110Y-16142198D01*
X15198634Y-16256484D02*
X15179587Y-16246960D01*
X15179587Y-16246960D02*
X15170063Y-16237436D01*
X15170063Y-16237436D02*
X15160539Y-16218388D01*
X15160539Y-16218388D02*
X15160539Y-16161246D01*
X15160539Y-16161246D02*
X15170063Y-16142198D01*
X15170063Y-16142198D02*
X15179587Y-16132674D01*
X15179587Y-16132674D02*
X15198634Y-16123150D01*
X15198634Y-16123150D02*
X15227206Y-16123150D01*
X15227206Y-16123150D02*
X15246253Y-16132674D01*
X15246253Y-16132674D02*
X15255777Y-16142198D01*
X15255777Y-16142198D02*
X15265301Y-16161246D01*
X15265301Y-16161246D02*
X15265301Y-16218388D01*
X15265301Y-16218388D02*
X15255777Y-16237436D01*
X15255777Y-16237436D02*
X15246253Y-16246960D01*
X15246253Y-16246960D02*
X15227206Y-16256484D01*
X15227206Y-16256484D02*
X15198634Y-16256484D01*
X15379587Y-16256484D02*
X15360539Y-16246960D01*
X15360539Y-16246960D02*
X15351015Y-16227912D01*
X15351015Y-16227912D02*
X15351015Y-16056484D01*
X15531968Y-16246960D02*
X15512920Y-16256484D01*
X15512920Y-16256484D02*
X15474825Y-16256484D01*
X15474825Y-16256484D02*
X15455777Y-16246960D01*
X15455777Y-16246960D02*
X15446253Y-16227912D01*
X15446253Y-16227912D02*
X15446253Y-16151722D01*
X15446253Y-16151722D02*
X15455777Y-16132674D01*
X15455777Y-16132674D02*
X15474825Y-16123150D01*
X15474825Y-16123150D02*
X15512920Y-16123150D01*
X15512920Y-16123150D02*
X15531968Y-16132674D01*
X15531968Y-16132674D02*
X15541491Y-16151722D01*
X15541491Y-16151722D02*
X15541491Y-16170769D01*
X15541491Y-16170769D02*
X15446253Y-16189817D01*
X15617682Y-16246960D02*
X15636730Y-16256484D01*
X15636730Y-16256484D02*
X15674825Y-16256484D01*
X15674825Y-16256484D02*
X15693872Y-16246960D01*
X15693872Y-16246960D02*
X15703396Y-16227912D01*
X15703396Y-16227912D02*
X15703396Y-16218388D01*
X15703396Y-16218388D02*
X15693872Y-16199341D01*
X15693872Y-16199341D02*
X15674825Y-16189817D01*
X15674825Y-16189817D02*
X15646253Y-16189817D01*
X15646253Y-16189817D02*
X15627206Y-16180293D01*
X15627206Y-16180293D02*
X15617682Y-16161246D01*
X15617682Y-16161246D02*
X15617682Y-16151722D01*
X15617682Y-16151722D02*
X15627206Y-16132674D01*
X15627206Y-16132674D02*
X15646253Y-16123150D01*
X15646253Y-16123150D02*
X15674825Y-16123150D01*
X15674825Y-16123150D02*
X15693872Y-16132674D01*
X15770063Y-16332674D02*
X15779587Y-16323150D01*
X15779587Y-16323150D02*
X15798634Y-16294579D01*
X15798634Y-16294579D02*
X15808158Y-16275531D01*
X15808158Y-16275531D02*
X15817682Y-16246960D01*
X15817682Y-16246960D02*
X15827206Y-16199341D01*
X15827206Y-16199341D02*
X15827206Y-16161246D01*
X15827206Y-16161246D02*
X15817682Y-16113627D01*
X15817682Y-16113627D02*
X15808158Y-16085055D01*
X15808158Y-16085055D02*
X15798634Y-16066008D01*
X15798634Y-16066008D02*
X15779587Y-16037436D01*
X15779587Y-16037436D02*
X15770063Y-16027912D01*
X10795000Y-16385000D02*
X10995000Y-16585000D01*
X10995000Y-16385000D02*
X10795000Y-16585000D01*
X10895000Y-16385000D02*
X10895000Y-16585000D01*
X10795000Y-16485000D02*
X10995000Y-16485000D01*
X11246253Y-16395531D02*
X11255777Y-16386008D01*
X11255777Y-16386008D02*
X11274824Y-16376484D01*
X11274824Y-16376484D02*
X11322443Y-16376484D01*
X11322443Y-16376484D02*
X11341491Y-16386008D01*
X11341491Y-16386008D02*
X11351015Y-16395531D01*
X11351015Y-16395531D02*
X11360539Y-16414579D01*
X11360539Y-16414579D02*
X11360539Y-16433627D01*
X11360539Y-16433627D02*
X11351015Y-16462198D01*
X11351015Y-16462198D02*
X11236729Y-16576484D01*
X11236729Y-16576484D02*
X11360539Y-16576484D01*
X11446253Y-16557436D02*
X11455777Y-16566960D01*
X11455777Y-16566960D02*
X11446253Y-16576484D01*
X11446253Y-16576484D02*
X11436729Y-16566960D01*
X11436729Y-16566960D02*
X11446253Y-16557436D01*
X11446253Y-16557436D02*
X11446253Y-16576484D01*
X11636729Y-16376484D02*
X11541491Y-16376484D01*
X11541491Y-16376484D02*
X11531967Y-16471722D01*
X11531967Y-16471722D02*
X11541491Y-16462198D01*
X11541491Y-16462198D02*
X11560539Y-16452674D01*
X11560539Y-16452674D02*
X11608158Y-16452674D01*
X11608158Y-16452674D02*
X11627205Y-16462198D01*
X11627205Y-16462198D02*
X11636729Y-16471722D01*
X11636729Y-16471722D02*
X11646253Y-16490769D01*
X11646253Y-16490769D02*
X11646253Y-16538388D01*
X11646253Y-16538388D02*
X11636729Y-16557436D01*
X11636729Y-16557436D02*
X11627205Y-16566960D01*
X11627205Y-16566960D02*
X11608158Y-16576484D01*
X11608158Y-16576484D02*
X11560539Y-16576484D01*
X11560539Y-16576484D02*
X11541491Y-16566960D01*
X11541491Y-16566960D02*
X11531967Y-16557436D01*
X11770062Y-16376484D02*
X11789110Y-16376484D01*
X11789110Y-16376484D02*
X11808158Y-16386008D01*
X11808158Y-16386008D02*
X11817682Y-16395531D01*
X11817682Y-16395531D02*
X11827205Y-16414579D01*
X11827205Y-16414579D02*
X11836729Y-16452674D01*
X11836729Y-16452674D02*
X11836729Y-16500293D01*
X11836729Y-16500293D02*
X11827205Y-16538388D01*
X11827205Y-16538388D02*
X11817682Y-16557436D01*
X11817682Y-16557436D02*
X11808158Y-16566960D01*
X11808158Y-16566960D02*
X11789110Y-16576484D01*
X11789110Y-16576484D02*
X11770062Y-16576484D01*
X11770062Y-16576484D02*
X11751015Y-16566960D01*
X11751015Y-16566960D02*
X11741491Y-16557436D01*
X11741491Y-16557436D02*
X11731967Y-16538388D01*
X11731967Y-16538388D02*
X11722443Y-16500293D01*
X11722443Y-16500293D02*
X11722443Y-16452674D01*
X11722443Y-16452674D02*
X11731967Y-16414579D01*
X11731967Y-16414579D02*
X11741491Y-16395531D01*
X11741491Y-16395531D02*
X11751015Y-16386008D01*
X11751015Y-16386008D02*
X11770062Y-16376484D01*
X11960539Y-16376484D02*
X11979586Y-16376484D01*
X11979586Y-16376484D02*
X11998634Y-16386008D01*
X11998634Y-16386008D02*
X12008158Y-16395531D01*
X12008158Y-16395531D02*
X12017682Y-16414579D01*
X12017682Y-16414579D02*
X12027205Y-16452674D01*
X12027205Y-16452674D02*
X12027205Y-16500293D01*
X12027205Y-16500293D02*
X12017682Y-16538388D01*
X12017682Y-16538388D02*
X12008158Y-16557436D01*
X12008158Y-16557436D02*
X11998634Y-16566960D01*
X11998634Y-16566960D02*
X11979586Y-16576484D01*
X11979586Y-16576484D02*
X11960539Y-16576484D01*
X11960539Y-16576484D02*
X11941491Y-16566960D01*
X11941491Y-16566960D02*
X11931967Y-16557436D01*
X11931967Y-16557436D02*
X11922443Y-16538388D01*
X11922443Y-16538388D02*
X11912920Y-16500293D01*
X11912920Y-16500293D02*
X11912920Y-16452674D01*
X11912920Y-16452674D02*
X11922443Y-16414579D01*
X11922443Y-16414579D02*
X11931967Y-16395531D01*
X11931967Y-16395531D02*
X11941491Y-16386008D01*
X11941491Y-16386008D02*
X11960539Y-16376484D01*
X12112920Y-16576484D02*
X12112920Y-16443150D01*
X12112920Y-16462198D02*
X12122443Y-16452674D01*
X12122443Y-16452674D02*
X12141491Y-16443150D01*
X12141491Y-16443150D02*
X12170063Y-16443150D01*
X12170063Y-16443150D02*
X12189110Y-16452674D01*
X12189110Y-16452674D02*
X12198634Y-16471722D01*
X12198634Y-16471722D02*
X12198634Y-16576484D01*
X12198634Y-16471722D02*
X12208158Y-16452674D01*
X12208158Y-16452674D02*
X12227205Y-16443150D01*
X12227205Y-16443150D02*
X12255777Y-16443150D01*
X12255777Y-16443150D02*
X12274824Y-16452674D01*
X12274824Y-16452674D02*
X12284348Y-16471722D01*
X12284348Y-16471722D02*
X12284348Y-16576484D01*
X12379586Y-16576484D02*
X12379586Y-16443150D01*
X12379586Y-16462198D02*
X12389110Y-16452674D01*
X12389110Y-16452674D02*
X12408158Y-16443150D01*
X12408158Y-16443150D02*
X12436729Y-16443150D01*
X12436729Y-16443150D02*
X12455777Y-16452674D01*
X12455777Y-16452674D02*
X12465301Y-16471722D01*
X12465301Y-16471722D02*
X12465301Y-16576484D01*
X12465301Y-16471722D02*
X12474824Y-16452674D01*
X12474824Y-16452674D02*
X12493872Y-16443150D01*
X12493872Y-16443150D02*
X12522443Y-16443150D01*
X12522443Y-16443150D02*
X12541491Y-16452674D01*
X12541491Y-16452674D02*
X12551015Y-16471722D01*
X12551015Y-16471722D02*
X12551015Y-16576484D01*
X12941491Y-16366960D02*
X12770063Y-16624103D01*
X13198634Y-16376484D02*
X13217682Y-16376484D01*
X13217682Y-16376484D02*
X13236729Y-16386008D01*
X13236729Y-16386008D02*
X13246253Y-16395531D01*
X13246253Y-16395531D02*
X13255777Y-16414579D01*
X13255777Y-16414579D02*
X13265301Y-16452674D01*
X13265301Y-16452674D02*
X13265301Y-16500293D01*
X13265301Y-16500293D02*
X13255777Y-16538388D01*
X13255777Y-16538388D02*
X13246253Y-16557436D01*
X13246253Y-16557436D02*
X13236729Y-16566960D01*
X13236729Y-16566960D02*
X13217682Y-16576484D01*
X13217682Y-16576484D02*
X13198634Y-16576484D01*
X13198634Y-16576484D02*
X13179586Y-16566960D01*
X13179586Y-16566960D02*
X13170063Y-16557436D01*
X13170063Y-16557436D02*
X13160539Y-16538388D01*
X13160539Y-16538388D02*
X13151015Y-16500293D01*
X13151015Y-16500293D02*
X13151015Y-16452674D01*
X13151015Y-16452674D02*
X13160539Y-16414579D01*
X13160539Y-16414579D02*
X13170063Y-16395531D01*
X13170063Y-16395531D02*
X13179586Y-16386008D01*
X13179586Y-16386008D02*
X13198634Y-16376484D01*
X13351015Y-16557436D02*
X13360539Y-16566960D01*
X13360539Y-16566960D02*
X13351015Y-16576484D01*
X13351015Y-16576484D02*
X13341491Y-16566960D01*
X13341491Y-16566960D02*
X13351015Y-16557436D01*
X13351015Y-16557436D02*
X13351015Y-16576484D01*
X13484348Y-16376484D02*
X13503396Y-16376484D01*
X13503396Y-16376484D02*
X13522444Y-16386008D01*
X13522444Y-16386008D02*
X13531967Y-16395531D01*
X13531967Y-16395531D02*
X13541491Y-16414579D01*
X13541491Y-16414579D02*
X13551015Y-16452674D01*
X13551015Y-16452674D02*
X13551015Y-16500293D01*
X13551015Y-16500293D02*
X13541491Y-16538388D01*
X13541491Y-16538388D02*
X13531967Y-16557436D01*
X13531967Y-16557436D02*
X13522444Y-16566960D01*
X13522444Y-16566960D02*
X13503396Y-16576484D01*
X13503396Y-16576484D02*
X13484348Y-16576484D01*
X13484348Y-16576484D02*
X13465301Y-16566960D01*
X13465301Y-16566960D02*
X13455777Y-16557436D01*
X13455777Y-16557436D02*
X13446253Y-16538388D01*
X13446253Y-16538388D02*
X13436729Y-16500293D01*
X13436729Y-16500293D02*
X13436729Y-16452674D01*
X13436729Y-16452674D02*
X13446253Y-16414579D01*
X13446253Y-16414579D02*
X13455777Y-16395531D01*
X13455777Y-16395531D02*
X13465301Y-16386008D01*
X13465301Y-16386008D02*
X13484348Y-16376484D01*
X13646253Y-16576484D02*
X13684348Y-16576484D01*
X13684348Y-16576484D02*
X13703396Y-16566960D01*
X13703396Y-16566960D02*
X13712920Y-16557436D01*
X13712920Y-16557436D02*
X13731967Y-16528865D01*
X13731967Y-16528865D02*
X13741491Y-16490769D01*
X13741491Y-16490769D02*
X13741491Y-16414579D01*
X13741491Y-16414579D02*
X13731967Y-16395531D01*
X13731967Y-16395531D02*
X13722444Y-16386008D01*
X13722444Y-16386008D02*
X13703396Y-16376484D01*
X13703396Y-16376484D02*
X13665301Y-16376484D01*
X13665301Y-16376484D02*
X13646253Y-16386008D01*
X13646253Y-16386008D02*
X13636729Y-16395531D01*
X13636729Y-16395531D02*
X13627206Y-16414579D01*
X13627206Y-16414579D02*
X13627206Y-16462198D01*
X13627206Y-16462198D02*
X13636729Y-16481246D01*
X13636729Y-16481246D02*
X13646253Y-16490769D01*
X13646253Y-16490769D02*
X13665301Y-16500293D01*
X13665301Y-16500293D02*
X13703396Y-16500293D01*
X13703396Y-16500293D02*
X13722444Y-16490769D01*
X13722444Y-16490769D02*
X13731967Y-16481246D01*
X13731967Y-16481246D02*
X13741491Y-16462198D01*
X13855777Y-16462198D02*
X13836729Y-16452674D01*
X13836729Y-16452674D02*
X13827206Y-16443150D01*
X13827206Y-16443150D02*
X13817682Y-16424103D01*
X13817682Y-16424103D02*
X13817682Y-16414579D01*
X13817682Y-16414579D02*
X13827206Y-16395531D01*
X13827206Y-16395531D02*
X13836729Y-16386008D01*
X13836729Y-16386008D02*
X13855777Y-16376484D01*
X13855777Y-16376484D02*
X13893872Y-16376484D01*
X13893872Y-16376484D02*
X13912920Y-16386008D01*
X13912920Y-16386008D02*
X13922444Y-16395531D01*
X13922444Y-16395531D02*
X13931967Y-16414579D01*
X13931967Y-16414579D02*
X13931967Y-16424103D01*
X13931967Y-16424103D02*
X13922444Y-16443150D01*
X13922444Y-16443150D02*
X13912920Y-16452674D01*
X13912920Y-16452674D02*
X13893872Y-16462198D01*
X13893872Y-16462198D02*
X13855777Y-16462198D01*
X13855777Y-16462198D02*
X13836729Y-16471722D01*
X13836729Y-16471722D02*
X13827206Y-16481246D01*
X13827206Y-16481246D02*
X13817682Y-16500293D01*
X13817682Y-16500293D02*
X13817682Y-16538388D01*
X13817682Y-16538388D02*
X13827206Y-16557436D01*
X13827206Y-16557436D02*
X13836729Y-16566960D01*
X13836729Y-16566960D02*
X13855777Y-16576484D01*
X13855777Y-16576484D02*
X13893872Y-16576484D01*
X13893872Y-16576484D02*
X13912920Y-16566960D01*
X13912920Y-16566960D02*
X13922444Y-16557436D01*
X13922444Y-16557436D02*
X13931967Y-16538388D01*
X13931967Y-16538388D02*
X13931967Y-16500293D01*
X13931967Y-16500293D02*
X13922444Y-16481246D01*
X13922444Y-16481246D02*
X13912920Y-16471722D01*
X13912920Y-16471722D02*
X13893872Y-16462198D01*
X14103396Y-16443150D02*
X14103396Y-16576484D01*
X14055777Y-16366960D02*
X14008158Y-16509817D01*
X14008158Y-16509817D02*
X14131967Y-16509817D01*
X14198634Y-16376484D02*
X14198634Y-16414579D01*
X14274825Y-16376484D02*
X14274825Y-16414579D01*
X14570063Y-16652674D02*
X14560539Y-16643150D01*
X14560539Y-16643150D02*
X14541491Y-16614579D01*
X14541491Y-16614579D02*
X14531968Y-16595531D01*
X14531968Y-16595531D02*
X14522444Y-16566960D01*
X14522444Y-16566960D02*
X14512920Y-16519341D01*
X14512920Y-16519341D02*
X14512920Y-16481246D01*
X14512920Y-16481246D02*
X14522444Y-16433627D01*
X14522444Y-16433627D02*
X14531968Y-16405055D01*
X14531968Y-16405055D02*
X14541491Y-16386008D01*
X14541491Y-16386008D02*
X14560539Y-16357436D01*
X14560539Y-16357436D02*
X14570063Y-16347912D01*
X14731968Y-16443150D02*
X14731968Y-16576484D01*
X14684348Y-16366960D02*
X14636729Y-16509817D01*
X14636729Y-16509817D02*
X14760539Y-16509817D01*
X14989110Y-16576484D02*
X14989110Y-16376484D01*
X15074825Y-16576484D02*
X15074825Y-16471722D01*
X15074825Y-16471722D02*
X15065301Y-16452674D01*
X15065301Y-16452674D02*
X15046253Y-16443150D01*
X15046253Y-16443150D02*
X15017682Y-16443150D01*
X15017682Y-16443150D02*
X14998634Y-16452674D01*
X14998634Y-16452674D02*
X14989110Y-16462198D01*
X15198634Y-16576484D02*
X15179587Y-16566960D01*
X15179587Y-16566960D02*
X15170063Y-16557436D01*
X15170063Y-16557436D02*
X15160539Y-16538388D01*
X15160539Y-16538388D02*
X15160539Y-16481246D01*
X15160539Y-16481246D02*
X15170063Y-16462198D01*
X15170063Y-16462198D02*
X15179587Y-16452674D01*
X15179587Y-16452674D02*
X15198634Y-16443150D01*
X15198634Y-16443150D02*
X15227206Y-16443150D01*
X15227206Y-16443150D02*
X15246253Y-16452674D01*
X15246253Y-16452674D02*
X15255777Y-16462198D01*
X15255777Y-16462198D02*
X15265301Y-16481246D01*
X15265301Y-16481246D02*
X15265301Y-16538388D01*
X15265301Y-16538388D02*
X15255777Y-16557436D01*
X15255777Y-16557436D02*
X15246253Y-16566960D01*
X15246253Y-16566960D02*
X15227206Y-16576484D01*
X15227206Y-16576484D02*
X15198634Y-16576484D01*
X15379587Y-16576484D02*
X15360539Y-16566960D01*
X15360539Y-16566960D02*
X15351015Y-16547912D01*
X15351015Y-16547912D02*
X15351015Y-16376484D01*
X15531968Y-16566960D02*
X15512920Y-16576484D01*
X15512920Y-16576484D02*
X15474825Y-16576484D01*
X15474825Y-16576484D02*
X15455777Y-16566960D01*
X15455777Y-16566960D02*
X15446253Y-16547912D01*
X15446253Y-16547912D02*
X15446253Y-16471722D01*
X15446253Y-16471722D02*
X15455777Y-16452674D01*
X15455777Y-16452674D02*
X15474825Y-16443150D01*
X15474825Y-16443150D02*
X15512920Y-16443150D01*
X15512920Y-16443150D02*
X15531968Y-16452674D01*
X15531968Y-16452674D02*
X15541491Y-16471722D01*
X15541491Y-16471722D02*
X15541491Y-16490769D01*
X15541491Y-16490769D02*
X15446253Y-16509817D01*
X15617682Y-16566960D02*
X15636730Y-16576484D01*
X15636730Y-16576484D02*
X15674825Y-16576484D01*
X15674825Y-16576484D02*
X15693872Y-16566960D01*
X15693872Y-16566960D02*
X15703396Y-16547912D01*
X15703396Y-16547912D02*
X15703396Y-16538388D01*
X15703396Y-16538388D02*
X15693872Y-16519341D01*
X15693872Y-16519341D02*
X15674825Y-16509817D01*
X15674825Y-16509817D02*
X15646253Y-16509817D01*
X15646253Y-16509817D02*
X15627206Y-16500293D01*
X15627206Y-16500293D02*
X15617682Y-16481246D01*
X15617682Y-16481246D02*
X15617682Y-16471722D01*
X15617682Y-16471722D02*
X15627206Y-16452674D01*
X15627206Y-16452674D02*
X15646253Y-16443150D01*
X15646253Y-16443150D02*
X15674825Y-16443150D01*
X15674825Y-16443150D02*
X15693872Y-16452674D01*
X15770063Y-16652674D02*
X15779587Y-16643150D01*
X15779587Y-16643150D02*
X15798634Y-16614579D01*
X15798634Y-16614579D02*
X15808158Y-16595531D01*
X15808158Y-16595531D02*
X15817682Y-16566960D01*
X15817682Y-16566960D02*
X15827206Y-16519341D01*
X15827206Y-16519341D02*
X15827206Y-16481246D01*
X15827206Y-16481246D02*
X15817682Y-16433627D01*
X15817682Y-16433627D02*
X15808158Y-16405055D01*
X15808158Y-16405055D02*
X15798634Y-16386008D01*
X15798634Y-16386008D02*
X15779587Y-16357436D01*
X15779587Y-16357436D02*
X15770063Y-16347912D01*
X10795000Y-16705000D02*
X10995000Y-16905000D01*
X10995000Y-16705000D02*
X10795000Y-16905000D01*
X10965711Y-16875711D02*
X10965711Y-16734289D01*
X10824289Y-16734289D01*
X10824289Y-16875711D01*
X10965711Y-16875711D01*
X11341491Y-16763150D02*
X11341491Y-16896484D01*
X11293872Y-16686960D02*
X11246253Y-16829817D01*
X11246253Y-16829817D02*
X11370062Y-16829817D01*
X11446253Y-16877436D02*
X11455777Y-16886960D01*
X11455777Y-16886960D02*
X11446253Y-16896484D01*
X11446253Y-16896484D02*
X11436729Y-16886960D01*
X11436729Y-16886960D02*
X11446253Y-16877436D01*
X11446253Y-16877436D02*
X11446253Y-16896484D01*
X11636729Y-16696484D02*
X11541491Y-16696484D01*
X11541491Y-16696484D02*
X11531967Y-16791722D01*
X11531967Y-16791722D02*
X11541491Y-16782198D01*
X11541491Y-16782198D02*
X11560539Y-16772674D01*
X11560539Y-16772674D02*
X11608158Y-16772674D01*
X11608158Y-16772674D02*
X11627205Y-16782198D01*
X11627205Y-16782198D02*
X11636729Y-16791722D01*
X11636729Y-16791722D02*
X11646253Y-16810770D01*
X11646253Y-16810770D02*
X11646253Y-16858389D01*
X11646253Y-16858389D02*
X11636729Y-16877436D01*
X11636729Y-16877436D02*
X11627205Y-16886960D01*
X11627205Y-16886960D02*
X11608158Y-16896484D01*
X11608158Y-16896484D02*
X11560539Y-16896484D01*
X11560539Y-16896484D02*
X11541491Y-16886960D01*
X11541491Y-16886960D02*
X11531967Y-16877436D01*
X11770062Y-16696484D02*
X11789110Y-16696484D01*
X11789110Y-16696484D02*
X11808158Y-16706008D01*
X11808158Y-16706008D02*
X11817682Y-16715531D01*
X11817682Y-16715531D02*
X11827205Y-16734579D01*
X11827205Y-16734579D02*
X11836729Y-16772674D01*
X11836729Y-16772674D02*
X11836729Y-16820293D01*
X11836729Y-16820293D02*
X11827205Y-16858389D01*
X11827205Y-16858389D02*
X11817682Y-16877436D01*
X11817682Y-16877436D02*
X11808158Y-16886960D01*
X11808158Y-16886960D02*
X11789110Y-16896484D01*
X11789110Y-16896484D02*
X11770062Y-16896484D01*
X11770062Y-16896484D02*
X11751015Y-16886960D01*
X11751015Y-16886960D02*
X11741491Y-16877436D01*
X11741491Y-16877436D02*
X11731967Y-16858389D01*
X11731967Y-16858389D02*
X11722443Y-16820293D01*
X11722443Y-16820293D02*
X11722443Y-16772674D01*
X11722443Y-16772674D02*
X11731967Y-16734579D01*
X11731967Y-16734579D02*
X11741491Y-16715531D01*
X11741491Y-16715531D02*
X11751015Y-16706008D01*
X11751015Y-16706008D02*
X11770062Y-16696484D01*
X11960539Y-16696484D02*
X11979586Y-16696484D01*
X11979586Y-16696484D02*
X11998634Y-16706008D01*
X11998634Y-16706008D02*
X12008158Y-16715531D01*
X12008158Y-16715531D02*
X12017682Y-16734579D01*
X12017682Y-16734579D02*
X12027205Y-16772674D01*
X12027205Y-16772674D02*
X12027205Y-16820293D01*
X12027205Y-16820293D02*
X12017682Y-16858389D01*
X12017682Y-16858389D02*
X12008158Y-16877436D01*
X12008158Y-16877436D02*
X11998634Y-16886960D01*
X11998634Y-16886960D02*
X11979586Y-16896484D01*
X11979586Y-16896484D02*
X11960539Y-16896484D01*
X11960539Y-16896484D02*
X11941491Y-16886960D01*
X11941491Y-16886960D02*
X11931967Y-16877436D01*
X11931967Y-16877436D02*
X11922443Y-16858389D01*
X11922443Y-16858389D02*
X11912920Y-16820293D01*
X11912920Y-16820293D02*
X11912920Y-16772674D01*
X11912920Y-16772674D02*
X11922443Y-16734579D01*
X11922443Y-16734579D02*
X11931967Y-16715531D01*
X11931967Y-16715531D02*
X11941491Y-16706008D01*
X11941491Y-16706008D02*
X11960539Y-16696484D01*
X12112920Y-16896484D02*
X12112920Y-16763150D01*
X12112920Y-16782198D02*
X12122443Y-16772674D01*
X12122443Y-16772674D02*
X12141491Y-16763150D01*
X12141491Y-16763150D02*
X12170063Y-16763150D01*
X12170063Y-16763150D02*
X12189110Y-16772674D01*
X12189110Y-16772674D02*
X12198634Y-16791722D01*
X12198634Y-16791722D02*
X12198634Y-16896484D01*
X12198634Y-16791722D02*
X12208158Y-16772674D01*
X12208158Y-16772674D02*
X12227205Y-16763150D01*
X12227205Y-16763150D02*
X12255777Y-16763150D01*
X12255777Y-16763150D02*
X12274824Y-16772674D01*
X12274824Y-16772674D02*
X12284348Y-16791722D01*
X12284348Y-16791722D02*
X12284348Y-16896484D01*
X12379586Y-16896484D02*
X12379586Y-16763150D01*
X12379586Y-16782198D02*
X12389110Y-16772674D01*
X12389110Y-16772674D02*
X12408158Y-16763150D01*
X12408158Y-16763150D02*
X12436729Y-16763150D01*
X12436729Y-16763150D02*
X12455777Y-16772674D01*
X12455777Y-16772674D02*
X12465301Y-16791722D01*
X12465301Y-16791722D02*
X12465301Y-16896484D01*
X12465301Y-16791722D02*
X12474824Y-16772674D01*
X12474824Y-16772674D02*
X12493872Y-16763150D01*
X12493872Y-16763150D02*
X12522443Y-16763150D01*
X12522443Y-16763150D02*
X12541491Y-16772674D01*
X12541491Y-16772674D02*
X12551015Y-16791722D01*
X12551015Y-16791722D02*
X12551015Y-16896484D01*
X12941491Y-16686960D02*
X12770063Y-16944103D01*
X13198634Y-16696484D02*
X13217682Y-16696484D01*
X13217682Y-16696484D02*
X13236729Y-16706008D01*
X13236729Y-16706008D02*
X13246253Y-16715531D01*
X13246253Y-16715531D02*
X13255777Y-16734579D01*
X13255777Y-16734579D02*
X13265301Y-16772674D01*
X13265301Y-16772674D02*
X13265301Y-16820293D01*
X13265301Y-16820293D02*
X13255777Y-16858389D01*
X13255777Y-16858389D02*
X13246253Y-16877436D01*
X13246253Y-16877436D02*
X13236729Y-16886960D01*
X13236729Y-16886960D02*
X13217682Y-16896484D01*
X13217682Y-16896484D02*
X13198634Y-16896484D01*
X13198634Y-16896484D02*
X13179586Y-16886960D01*
X13179586Y-16886960D02*
X13170063Y-16877436D01*
X13170063Y-16877436D02*
X13160539Y-16858389D01*
X13160539Y-16858389D02*
X13151015Y-16820293D01*
X13151015Y-16820293D02*
X13151015Y-16772674D01*
X13151015Y-16772674D02*
X13160539Y-16734579D01*
X13160539Y-16734579D02*
X13170063Y-16715531D01*
X13170063Y-16715531D02*
X13179586Y-16706008D01*
X13179586Y-16706008D02*
X13198634Y-16696484D01*
X13351015Y-16877436D02*
X13360539Y-16886960D01*
X13360539Y-16886960D02*
X13351015Y-16896484D01*
X13351015Y-16896484D02*
X13341491Y-16886960D01*
X13341491Y-16886960D02*
X13351015Y-16877436D01*
X13351015Y-16877436D02*
X13351015Y-16896484D01*
X13551015Y-16896484D02*
X13436729Y-16896484D01*
X13493872Y-16896484D02*
X13493872Y-16696484D01*
X13493872Y-16696484D02*
X13474825Y-16725055D01*
X13474825Y-16725055D02*
X13455777Y-16744103D01*
X13455777Y-16744103D02*
X13436729Y-16753627D01*
X13617682Y-16696484D02*
X13751015Y-16696484D01*
X13751015Y-16696484D02*
X13665301Y-16896484D01*
X13808158Y-16696484D02*
X13941491Y-16696484D01*
X13941491Y-16696484D02*
X13855777Y-16896484D01*
X14008158Y-16715531D02*
X14017682Y-16706008D01*
X14017682Y-16706008D02*
X14036729Y-16696484D01*
X14036729Y-16696484D02*
X14084348Y-16696484D01*
X14084348Y-16696484D02*
X14103396Y-16706008D01*
X14103396Y-16706008D02*
X14112920Y-16715531D01*
X14112920Y-16715531D02*
X14122444Y-16734579D01*
X14122444Y-16734579D02*
X14122444Y-16753627D01*
X14122444Y-16753627D02*
X14112920Y-16782198D01*
X14112920Y-16782198D02*
X13998634Y-16896484D01*
X13998634Y-16896484D02*
X14122444Y-16896484D01*
X14198634Y-16696484D02*
X14198634Y-16734579D01*
X14274825Y-16696484D02*
X14274825Y-16734579D01*
X14570063Y-16972674D02*
X14560539Y-16963150D01*
X14560539Y-16963150D02*
X14541491Y-16934579D01*
X14541491Y-16934579D02*
X14531968Y-16915531D01*
X14531968Y-16915531D02*
X14522444Y-16886960D01*
X14522444Y-16886960D02*
X14512920Y-16839341D01*
X14512920Y-16839341D02*
X14512920Y-16801246D01*
X14512920Y-16801246D02*
X14522444Y-16753627D01*
X14522444Y-16753627D02*
X14531968Y-16725055D01*
X14531968Y-16725055D02*
X14541491Y-16706008D01*
X14541491Y-16706008D02*
X14560539Y-16677436D01*
X14560539Y-16677436D02*
X14570063Y-16667912D01*
X14636729Y-16715531D02*
X14646253Y-16706008D01*
X14646253Y-16706008D02*
X14665301Y-16696484D01*
X14665301Y-16696484D02*
X14712920Y-16696484D01*
X14712920Y-16696484D02*
X14731968Y-16706008D01*
X14731968Y-16706008D02*
X14741491Y-16715531D01*
X14741491Y-16715531D02*
X14751015Y-16734579D01*
X14751015Y-16734579D02*
X14751015Y-16753627D01*
X14751015Y-16753627D02*
X14741491Y-16782198D01*
X14741491Y-16782198D02*
X14627206Y-16896484D01*
X14627206Y-16896484D02*
X14751015Y-16896484D01*
X14989110Y-16896484D02*
X14989110Y-16696484D01*
X15074825Y-16896484D02*
X15074825Y-16791722D01*
X15074825Y-16791722D02*
X15065301Y-16772674D01*
X15065301Y-16772674D02*
X15046253Y-16763150D01*
X15046253Y-16763150D02*
X15017682Y-16763150D01*
X15017682Y-16763150D02*
X14998634Y-16772674D01*
X14998634Y-16772674D02*
X14989110Y-16782198D01*
X15198634Y-16896484D02*
X15179587Y-16886960D01*
X15179587Y-16886960D02*
X15170063Y-16877436D01*
X15170063Y-16877436D02*
X15160539Y-16858389D01*
X15160539Y-16858389D02*
X15160539Y-16801246D01*
X15160539Y-16801246D02*
X15170063Y-16782198D01*
X15170063Y-16782198D02*
X15179587Y-16772674D01*
X15179587Y-16772674D02*
X15198634Y-16763150D01*
X15198634Y-16763150D02*
X15227206Y-16763150D01*
X15227206Y-16763150D02*
X15246253Y-16772674D01*
X15246253Y-16772674D02*
X15255777Y-16782198D01*
X15255777Y-16782198D02*
X15265301Y-16801246D01*
X15265301Y-16801246D02*
X15265301Y-16858389D01*
X15265301Y-16858389D02*
X15255777Y-16877436D01*
X15255777Y-16877436D02*
X15246253Y-16886960D01*
X15246253Y-16886960D02*
X15227206Y-16896484D01*
X15227206Y-16896484D02*
X15198634Y-16896484D01*
X15379587Y-16896484D02*
X15360539Y-16886960D01*
X15360539Y-16886960D02*
X15351015Y-16867912D01*
X15351015Y-16867912D02*
X15351015Y-16696484D01*
X15531968Y-16886960D02*
X15512920Y-16896484D01*
X15512920Y-16896484D02*
X15474825Y-16896484D01*
X15474825Y-16896484D02*
X15455777Y-16886960D01*
X15455777Y-16886960D02*
X15446253Y-16867912D01*
X15446253Y-16867912D02*
X15446253Y-16791722D01*
X15446253Y-16791722D02*
X15455777Y-16772674D01*
X15455777Y-16772674D02*
X15474825Y-16763150D01*
X15474825Y-16763150D02*
X15512920Y-16763150D01*
X15512920Y-16763150D02*
X15531968Y-16772674D01*
X15531968Y-16772674D02*
X15541491Y-16791722D01*
X15541491Y-16791722D02*
X15541491Y-16810770D01*
X15541491Y-16810770D02*
X15446253Y-16829817D01*
X15617682Y-16886960D02*
X15636730Y-16896484D01*
X15636730Y-16896484D02*
X15674825Y-16896484D01*
X15674825Y-16896484D02*
X15693872Y-16886960D01*
X15693872Y-16886960D02*
X15703396Y-16867912D01*
X15703396Y-16867912D02*
X15703396Y-16858389D01*
X15703396Y-16858389D02*
X15693872Y-16839341D01*
X15693872Y-16839341D02*
X15674825Y-16829817D01*
X15674825Y-16829817D02*
X15646253Y-16829817D01*
X15646253Y-16829817D02*
X15627206Y-16820293D01*
X15627206Y-16820293D02*
X15617682Y-16801246D01*
X15617682Y-16801246D02*
X15617682Y-16791722D01*
X15617682Y-16791722D02*
X15627206Y-16772674D01*
X15627206Y-16772674D02*
X15646253Y-16763150D01*
X15646253Y-16763150D02*
X15674825Y-16763150D01*
X15674825Y-16763150D02*
X15693872Y-16772674D01*
X15770063Y-16972674D02*
X15779587Y-16963150D01*
X15779587Y-16963150D02*
X15798634Y-16934579D01*
X15798634Y-16934579D02*
X15808158Y-16915531D01*
X15808158Y-16915531D02*
X15817682Y-16886960D01*
X15817682Y-16886960D02*
X15827206Y-16839341D01*
X15827206Y-16839341D02*
X15827206Y-16801246D01*
X15827206Y-16801246D02*
X15817682Y-16753627D01*
X15817682Y-16753627D02*
X15808158Y-16725055D01*
X15808158Y-16725055D02*
X15798634Y-16706008D01*
X15798634Y-16706008D02*
X15779587Y-16677436D01*
X15779587Y-16677436D02*
X15770063Y-16667912D01*
M02*
